{
	"asset":{
		"generator":"Khronos glTF Blender I/O v5.0.21",
		"version":"2.0"
	},
	"scene":0,
	"scenes":[
		{
			"name":"Scene",
			"nodes":[
				0
			]
		}
	],
	"nodes":[
		{
			"mesh":0,
			"name":"Plane.001",
			"rotation":[
				0.5073807835578918,
				0.4925086200237274,
				-0.49250859022140503,
				0.5073808431625366
			],
			"scale":[
				39.13616180419922,
				39.13616180419922,
				39.13616180419922
			],
			"translation":[
				-205.9749755859375,
				-247.1561279296875,
				31.16107177734375
			]
		}
	],
	"meshes":[
		{
			"name":"Plane.001",
			"primitives":[
				{
					"attributes":{
						"POSITION":0,
						"NORMAL":1,
						"TEXCOORD_0":2
					},
					"indices":3
				}
			]
		}
	],
	"accessors":[
		{
			"bufferView":0,
			"componentType":5126,
			"count":417,
			"max":[
				7.62529182434082,
				8.799784660339355,
				-0.04977099969983101
			],
			"min":[
				-9.364524841308594,
				-17.55416488647461,
				-13.683897018432617
			],
			"type":"VEC3"
		},
		{
			"bufferView":1,
			"componentType":5126,
			"count":417,
			"type":"VEC3"
		},
		{
			"bufferView":2,
			"componentType":5126,
			"count":417,
			"type":"VEC2"
		},
		{
			"bufferView":3,
			"componentType":5123,
			"count":774,
			"type":"SCALAR"
		}
	],
	"bufferViews":[
		{
			"buffer":0,
			"byteLength":5004,
			"byteOffset":0,
			"target":34962
		},
		{
			"buffer":0,
			"byteLength":5004,
			"byteOffset":5004,
			"target":34962
		},
		{
			"buffer":0,
			"byteLength":3336,
			"byteOffset":10008,
			"target":34962
		},
		{
			"buffer":0,
			"byteLength":1548,
			"byteOffset":13344,
			"target":34963
		}
	],
	"buffers":[
		{
			"byteLength":14892,
			"uri":"GraveyardMap.bin"
		}
	]
}
