{
	"asset":{
		"generator":"Khronos glTF Blender I/O v5.0.21",
		"version":"2.0"
	},
	"scene":0,
	"scenes":[
		{
			"name":"Scene",
			"nodes":[
				0,
				1,
				2,
				3,
				4,
				5,
				6,
				7,
				8,
				9,
				10
			]
		}
	],
	"nodes":[
		{
			"extras":{
				"center_x":0.0,
				"center_z":0.0,
				"center_y":2.9481369256973267,
				"collision":"trimesh"
			},
			"mesh":0,
			"name":"Obelisk",
			"translation":[
				0.19678565859794617,
				2.4139041900634766,
				-64.29462432861328
			]
		},
		{
			"extras":{
				"center_x":0.0,
				"center_z":1.9073486328125e-06,
				"center_y":0.3233473300933838,
				"collision":"trimesh"
			},
			"mesh":1,
			"name":"Gravestone",
			"translation":[
				0.19678565859794617,
				0.3990451693534851,
				-62.34374237060547
			]
		},
		{
			"extras":{
				"center_x":0.0,
				"center_z":0.0,
				"center_y":0.2080537974834442,
				"collision":"trimesh"
			},
			"mesh":2,
			"name":"GravestoneSpoon",
			"translation":[
				0.19678565859794617,
				0.4915997385978699,
				-60.95542526245117
			]
		},
		{
			"extras":{
				"center_x":0.0,
				"center_z":0.0,
				"center_y":0.08926612138748169,
				"collision":"trimesh"
			},
			"mesh":3,
			"name":"GravestoneRound",
			"translation":[
				0.19678565859794617,
				0.8155404925346375,
				-59.56710433959961
			]
		},
		{
			"extras":{
				"center_x":0.0,
				"center_z":0.0,
				"center_y":-5.960464477539063e-08,
				"collision":"trimesh"
			},
			"mesh":4,
			"name":"GravestoneCross",
			"translation":[
				0.19678565859794617,
				0.6476524472236633,
				-58.71492385864258
			]
		},
		{
			"extras":{
				"center_x":0.0,
				"center_z":0.0,
				"center_y":0.0,
				"collision":"trimesh"
			},
			"mesh":5,
			"name":"Tomb",
			"translation":[
				0.19678565859794617,
				0.7692633271217346,
				-57.25324630737305
			]
		},
		{
			"extras":{
				"center_x":0.0,
				"center_z":0.0,
				"center_y":-0.6017032861709595,
				"collision":"trimesh"
			},
			"mesh":6,
			"name":"TombOpen1",
			"translation":[
				0.19678565859794617,
				0.7581049799919128,
				-55.40215301513672
			]
		},
		{
			"extras":{
				"center_x":0.0,
				"center_z":-3.0013771057128906,
				"center_y":-0.14864084124565125,
				"collision":"trimesh"
			},
			"mesh":7,
			"name":"TombOpen2",
			"translation":[
				0.19678565859794617,
				0.44821614027023315,
				-55.40215301513672
			]
		},
		{
			"extras":{
				"center_x":0.0,
				"center_z":0.0,
				"center_y":2.948136806488037,
				"collision":"trimesh"
			},
			"mesh":8,
			"name":"CoreObelisk",
			"translation":[
				-20.103750228881836,
				-10.770488739013672,
				-84.78321838378906
			]
		},
		{
			"extras":{
				"center_x":0.0,
				"center_z":0.0,
				"center_y":2.9481369256973267,
				"collision":"trimesh"
			},
			"mesh":9,
			"name":"Obelisk.001",
			"translation":[
				0.19678565859794617,
				1.7873634099960327,
				-51.545013427734375
			]
		},
		{
			"extras":{
				"center_x":0.0,
				"center_z":0.0,
				"center_y":0.0,
				"collision":"trimesh"
			},
			"mesh":10,
			"name":"Plane",
			"translation":[
				-27.416152954101562,
				11.907408714294434,
				-32.5472526550293
			]
		}
	],
	"materials":[
		{
			"doubleSided":true,
			"name":"Material.001",
			"pbrMetallicRoughness":{
				"baseColorFactor":[
					0.04105691611766815,
					0.47324755787849426,
					0.8000156879425049,
					1
				],
				"roughnessFactor":0.5
			}
		},
		{
			"doubleSided":true,
			"name":"Material.002",
			"pbrMetallicRoughness":{
				"baseColorFactor":[
					0.7679980993270874,
					0.7759311199188232,
					0.8000156879425049,
					1
				],
				"metallicFactor":0,
				"roughnessFactor":0.5
			}
		}
	],
	"meshes":[
		{
			"name":"Cube.001",
			"primitives":[
				{
					"attributes":{
						"POSITION":0,
						"NORMAL":1,
						"TEXCOORD_0":2
					},
					"indices":3,
					"material":0
				}
			]
		},
		{
			"name":"Cube.002",
			"primitives":[
				{
					"attributes":{
						"POSITION":4,
						"NORMAL":5,
						"TEXCOORD_0":6
					},
					"indices":7
				}
			]
		},
		{
			"name":"Cube.003",
			"primitives":[
				{
					"attributes":{
						"POSITION":8,
						"NORMAL":9,
						"TEXCOORD_0":10
					},
					"indices":11
				}
			]
		},
		{
			"name":"Cube.004",
			"primitives":[
				{
					"attributes":{
						"POSITION":12,
						"NORMAL":13,
						"TEXCOORD_0":14
					},
					"indices":15
				}
			]
		},
		{
			"name":"Cube.005",
			"primitives":[
				{
					"attributes":{
						"POSITION":16,
						"NORMAL":17,
						"TEXCOORD_0":18
					},
					"indices":19
				}
			]
		},
		{
			"name":"Cube.006",
			"primitives":[
				{
					"attributes":{
						"POSITION":20,
						"NORMAL":21,
						"TEXCOORD_0":22
					},
					"indices":23
				}
			]
		},
		{
			"name":"Cube.007",
			"primitives":[
				{
					"attributes":{
						"POSITION":24,
						"NORMAL":25,
						"TEXCOORD_0":26
					},
					"indices":27
				}
			]
		},
		{
			"name":"Cube.008",
			"primitives":[
				{
					"attributes":{
						"POSITION":28,
						"NORMAL":29,
						"TEXCOORD_0":30
					},
					"indices":31
				}
			]
		},
		{
			"name":"Cube.010",
			"primitives":[
				{
					"attributes":{
						"POSITION":32,
						"NORMAL":33,
						"TEXCOORD_0":34
					},
					"indices":3
				}
			]
		},
		{
			"name":"Cube.013",
			"primitives":[
				{
					"attributes":{
						"POSITION":35,
						"NORMAL":36,
						"TEXCOORD_0":37
					},
					"indices":3,
					"material":0
				}
			]
		},
		{
			"name":"Plane",
			"primitives":[
				{
					"attributes":{
						"POSITION":38,
						"NORMAL":39,
						"TEXCOORD_0":40
					},
					"indices":41
				},
				{
					"attributes":{
						"POSITION":42,
						"NORMAL":43,
						"TEXCOORD_0":44
					},
					"indices":45,
					"material":1
				}
			]
		}
	],
	"accessors":[
		{
			"bufferView":0,
			"componentType":5126,
			"count":80,
			"max":[
				1.0683255195617676,
				8.191529273986816,
				1.0683255195617676
			],
			"min":[
				-1.0683255195617676,
				-2.9363110065460205,
				-1.0683255195617676
			],
			"type":"VEC3"
		},
		{
			"bufferView":1,
			"componentType":5126,
			"count":80,
			"type":"VEC3"
		},
		{
			"bufferView":2,
			"componentType":5126,
			"count":80,
			"type":"VEC2"
		},
		{
			"bufferView":3,
			"componentType":5123,
			"count":114,
			"type":"SCALAR"
		},
		{
			"bufferView":4,
			"componentType":5126,
			"count":67,
			"max":[
				0.1460294872522354,
				0.8597124814987183,
				0.5167126059532166
			],
			"min":[
				-0.1460294872522354,
				-0.46086516976356506,
				-0.516714334487915
			],
			"type":"VEC3"
		},
		{
			"bufferView":5,
			"componentType":5126,
			"count":67,
			"type":"VEC3"
		},
		{
			"bufferView":6,
			"componentType":5126,
			"count":67,
			"type":"VEC2"
		},
		{
			"bufferView":7,
			"componentType":5123,
			"count":132,
			"type":"SCALAR"
		},
		{
			"bufferView":8,
			"componentType":5126,
			"count":84,
			"max":[
				0.13333910703659058,
				0.8317219614982605,
				0.4627726972103119
			],
			"min":[
				-0.13333910703659058,
				-0.5750886797904968,
				-0.4627726972103119
			],
			"type":"VEC3"
		},
		{
			"bufferView":9,
			"componentType":5126,
			"count":84,
			"type":"VEC3"
		},
		{
			"bufferView":10,
			"componentType":5126,
			"count":84,
			"type":"VEC2"
		},
		{
			"bufferView":11,
			"componentType":5123,
			"count":156,
			"type":"SCALAR"
		},
		{
			"bufferView":12,
			"componentType":5126,
			"count":152,
			"max":[
				0.4627726972103119,
				1.0115174055099487,
				0.4627726972103119
			],
			"min":[
				-0.4627726972103119,
				-0.9014082551002502,
				-0.4627726972103119
			],
			"type":"VEC3"
		},
		{
			"bufferView":13,
			"componentType":5126,
			"count":152,
			"type":"VEC3"
		},
		{
			"bufferView":14,
			"componentType":5126,
			"count":152,
			"type":"VEC2"
		},
		{
			"bufferView":15,
			"componentType":5123,
			"count":300,
			"type":"SCALAR"
		},
		{
			"bufferView":16,
			"componentType":5126,
			"count":124,
			"max":[
				0.27010735869407654,
				0.788634717464447,
				0.3902108669281006
			],
			"min":[
				-0.27010735869407654,
				-0.788634717464447,
				-0.3902108669281006
			],
			"type":"VEC3"
		},
		{
			"bufferView":17,
			"componentType":5126,
			"count":124,
			"type":"VEC3"
		},
		{
			"bufferView":18,
			"componentType":5126,
			"count":124,
			"type":"VEC2"
		},
		{
			"bufferView":19,
			"componentType":5123,
			"count":204,
			"type":"SCALAR"
		},
		{
			"bufferView":20,
			"componentType":5126,
			"count":44,
			"max":[
				2.2587573528289795,
				0.7421976923942566,
				0.7421976923942566
			],
			"min":[
				-2.2587573528289795,
				-0.7421976923942566,
				-0.7421976923942566
			],
			"type":"VEC3"
		},
		{
			"bufferView":21,
			"componentType":5126,
			"count":44,
			"type":"VEC3"
		},
		{
			"bufferView":22,
			"componentType":5126,
			"count":44,
			"type":"VEC2"
		},
		{
			"bufferView":23,
			"componentType":5123,
			"count":84,
			"type":"SCALAR"
		},
		{
			"bufferView":24,
			"componentType":5126,
			"count":50,
			"max":[
				2.2587573528289795,
				0,
				0.7421976923942566
			],
			"min":[
				-2.2587573528289795,
				-0.7421976923942566,
				-0.7421976923942566
			],
			"type":"VEC3"
		},
		{
			"bufferView":25,
			"componentType":5126,
			"count":50,
			"type":"VEC3"
		},
		{
			"bufferView":26,
			"componentType":5126,
			"count":50,
			"type":"VEC2"
		},
		{
			"bufferView":27,
			"componentType":5123,
			"count":84,
			"type":"SCALAR"
		},
		{
			"bufferView":28,
			"componentType":5126,
			"count":62,
			"max":[
				2.2587573528289795,
				0.2794249951839447,
				2.5932884216308594
			],
			"min":[
				-2.2587573528289795,
				-0.4627726972103119,
				1.1088931560516357
			],
			"type":"VEC3"
		},
		{
			"bufferView":29,
			"componentType":5126,
			"count":62,
			"type":"VEC3"
		},
		{
			"bufferView":30,
			"componentType":5126,
			"count":62,
			"type":"VEC2"
		},
		{
			"bufferView":31,
			"componentType":5123,
			"count":108,
			"type":"SCALAR"
		},
		{
			"bufferView":32,
			"componentType":5126,
			"count":80,
			"max":[
				1.1986446380615234,
				9.19076919555664,
				1.1986446380615234
			],
			"min":[
				-1.1986446380615234,
				-3.2944953441619873,
				-1.1986446380615234
			],
			"type":"VEC3"
		},
		{
			"bufferView":33,
			"componentType":5126,
			"count":80,
			"type":"VEC3"
		},
		{
			"bufferView":34,
			"componentType":5126,
			"count":80,
			"type":"VEC2"
		},
		{
			"bufferView":35,
			"componentType":5126,
			"count":80,
			"max":[
				0.7392607927322388,
				1.2502822875976562,
				0.7392607927322388
			],
			"min":[
				-0.7392607927322388,
				-2.0318710803985596,
				-0.7392607927322388
			],
			"type":"VEC3"
		},
		{
			"bufferView":36,
			"componentType":5126,
			"count":80,
			"type":"VEC3"
		},
		{
			"bufferView":37,
			"componentType":5126,
			"count":80,
			"type":"VEC2"
		},
		{
			"bufferView":38,
			"componentType":5126,
			"count":466,
			"max":[
				45.22515106201172,
				27.36300277709961,
				55.54964828491211
			],
			"min":[
				-45.22515106201172,
				-27.36300277709961,
				-55.54964828491211
			],
			"type":"VEC3"
		},
		{
			"bufferView":39,
			"componentType":5126,
			"count":466,
			"type":"VEC3"
		},
		{
			"bufferView":40,
			"componentType":5126,
			"count":466,
			"type":"VEC2"
		},
		{
			"bufferView":41,
			"componentType":5123,
			"count":960,
			"type":"SCALAR"
		},
		{
			"bufferView":42,
			"componentType":5126,
			"count":4,
			"max":[
				12.84744644165039,
				-11.907408714294434,
				-35.2612419128418
			],
			"min":[
				4.935884952545166,
				-11.907408714294434,
				-52.45852279663086
			],
			"type":"VEC3"
		},
		{
			"bufferView":43,
			"componentType":5126,
			"count":4,
			"type":"VEC3"
		},
		{
			"bufferView":44,
			"componentType":5126,
			"count":4,
			"type":"VEC2"
		},
		{
			"bufferView":45,
			"componentType":5123,
			"count":6,
			"type":"SCALAR"
		}
	],
	"bufferViews":[
		{
			"buffer":0,
			"byteLength":960,
			"byteOffset":0,
			"target":34962
		},
		{
			"buffer":0,
			"byteLength":960,
			"byteOffset":960,
			"target":34962
		},
		{
			"buffer":0,
			"byteLength":640,
			"byteOffset":1920,
			"target":34962
		},
		{
			"buffer":0,
			"byteLength":228,
			"byteOffset":2560,
			"target":34963
		},
		{
			"buffer":0,
			"byteLength":804,
			"byteOffset":2788,
			"target":34962
		},
		{
			"buffer":0,
			"byteLength":804,
			"byteOffset":3592,
			"target":34962
		},
		{
			"buffer":0,
			"byteLength":536,
			"byteOffset":4396,
			"target":34962
		},
		{
			"buffer":0,
			"byteLength":264,
			"byteOffset":4932,
			"target":34963
		},
		{
			"buffer":0,
			"byteLength":1008,
			"byteOffset":5196,
			"target":34962
		},
		{
			"buffer":0,
			"byteLength":1008,
			"byteOffset":6204,
			"target":34962
		},
		{
			"buffer":0,
			"byteLength":672,
			"byteOffset":7212,
			"target":34962
		},
		{
			"buffer":0,
			"byteLength":312,
			"byteOffset":7884,
			"target":34963
		},
		{
			"buffer":0,
			"byteLength":1824,
			"byteOffset":8196,
			"target":34962
		},
		{
			"buffer":0,
			"byteLength":1824,
			"byteOffset":10020,
			"target":34962
		},
		{
			"buffer":0,
			"byteLength":1216,
			"byteOffset":11844,
			"target":34962
		},
		{
			"buffer":0,
			"byteLength":600,
			"byteOffset":13060,
			"target":34963
		},
		{
			"buffer":0,
			"byteLength":1488,
			"byteOffset":13660,
			"target":34962
		},
		{
			"buffer":0,
			"byteLength":1488,
			"byteOffset":15148,
			"target":34962
		},
		{
			"buffer":0,
			"byteLength":992,
			"byteOffset":16636,
			"target":34962
		},
		{
			"buffer":0,
			"byteLength":408,
			"byteOffset":17628,
			"target":34963
		},
		{
			"buffer":0,
			"byteLength":528,
			"byteOffset":18036,
			"target":34962
		},
		{
			"buffer":0,
			"byteLength":528,
			"byteOffset":18564,
			"target":34962
		},
		{
			"buffer":0,
			"byteLength":352,
			"byteOffset":19092,
			"target":34962
		},
		{
			"buffer":0,
			"byteLength":168,
			"byteOffset":19444,
			"target":34963
		},
		{
			"buffer":0,
			"byteLength":600,
			"byteOffset":19612,
			"target":34962
		},
		{
			"buffer":0,
			"byteLength":600,
			"byteOffset":20212,
			"target":34962
		},
		{
			"buffer":0,
			"byteLength":400,
			"byteOffset":20812,
			"target":34962
		},
		{
			"buffer":0,
			"byteLength":168,
			"byteOffset":21212,
			"target":34963
		},
		{
			"buffer":0,
			"byteLength":744,
			"byteOffset":21380,
			"target":34962
		},
		{
			"buffer":0,
			"byteLength":744,
			"byteOffset":22124,
			"target":34962
		},
		{
			"buffer":0,
			"byteLength":496,
			"byteOffset":22868,
			"target":34962
		},
		{
			"buffer":0,
			"byteLength":216,
			"byteOffset":23364,
			"target":34963
		},
		{
			"buffer":0,
			"byteLength":960,
			"byteOffset":23580,
			"target":34962
		},
		{
			"buffer":0,
			"byteLength":960,
			"byteOffset":24540,
			"target":34962
		},
		{
			"buffer":0,
			"byteLength":640,
			"byteOffset":25500,
			"target":34962
		},
		{
			"buffer":0,
			"byteLength":960,
			"byteOffset":26140,
			"target":34962
		},
		{
			"buffer":0,
			"byteLength":960,
			"byteOffset":27100,
			"target":34962
		},
		{
			"buffer":0,
			"byteLength":640,
			"byteOffset":28060,
			"target":34962
		},
		{
			"buffer":0,
			"byteLength":5592,
			"byteOffset":28700,
			"target":34962
		},
		{
			"buffer":0,
			"byteLength":5592,
			"byteOffset":34292,
			"target":34962
		},
		{
			"buffer":0,
			"byteLength":3728,
			"byteOffset":39884,
			"target":34962
		},
		{
			"buffer":0,
			"byteLength":1920,
			"byteOffset":43612,
			"target":34963
		},
		{
			"buffer":0,
			"byteLength":48,
			"byteOffset":45532,
			"target":34962
		},
		{
			"buffer":0,
			"byteLength":48,
			"byteOffset":45580,
			"target":34962
		},
		{
			"buffer":0,
			"byteLength":32,
			"byteOffset":45628,
			"target":34962
		},
		{
			"buffer":0,
			"byteLength":12,
			"byteOffset":45660,
			"target":34963
		}
	],
	"buffers":[
		{
			"byteLength":45672,
			"uri":"GraveyardMap.bin"
		}
	]
}
