# Blender 3.4.0
# www.blender.org
mtllib fern_2.mtl
o fern_2
v -0.354621 0.442247 -0.000000
v 0.233166 -0.577975 0.000000
v -0.435820 0.371639 -1.000000
v 0.151967 -0.648583 -1.000000
v 0.441278 0.195451 0.004830
v -0.482099 -0.319503 0.004830
v 0.380374 0.218409 -0.910489
v -0.543002 -0.296546 -0.910489
v -0.007859 0.554490 -0.000021
v -0.270086 -0.659955 0.015659
v -0.068023 0.593697 -1.085888
v -0.330251 -0.620748 -1.070208
v -0.354621 0.442247 -0.500000
v -0.024886 -0.047664 -0.000000
v 0.233166 -0.577975 -0.500000
v -0.106084 -0.118272 -1.000000
v 0.441278 0.195451 -0.452830
v -0.015720 -0.093217 0.004830
v -0.482098 -0.319503 -0.452830
v -0.076623 -0.070259 -0.910489
v -0.007859 0.554490 -0.542954
v -0.057676 -0.093481 -0.000021
v -0.270086 -0.659955 -0.527274
v -0.117841 -0.054274 -1.085888
v -0.057676 -0.093481 -0.542954
v -0.015720 -0.093217 -0.452830
v -0.024886 -0.047664 -0.500000
v 0.602975 -0.268602 0.002679
v -0.697665 0.195143 0.020106
v 0.654840 -0.207940 -1.204155
v -0.645799 0.255805 -1.186728
v 0.602975 -0.268602 -0.600738
v -0.103951 -0.120458 0.002679
v -0.697665 0.195143 -0.583311
v -0.052085 -0.059796 -1.204155
v -0.103951 -0.120458 -0.600738
v 0.451105 -0.486976 0.002679
v -0.586000 0.424690 0.020106
v -0.360827 0.278371 -1.186728
v 0.262838 -0.596045 -0.600738
v -0.150993 -0.088018 0.002679
v -0.654838 0.234348 -0.583311
v -0.135686 -0.232015 -1.192975
v -0.332277 -0.354407 -0.600738
v 0.363933 -0.615073 -0.198460
v 0.269822 -0.753366 -0.399599
v -0.440998 0.253787 0.014297
v -0.295996 0.082885 0.008488
v -0.470567 0.290888 -0.985589
v -0.494105 0.278490 -0.784450
v 0.217339 -0.331909 -1.204155
v 0.065014 -0.365001 -1.192975
v 0.315710 -0.433947 -0.801877
v 0.327310 -0.326374 -1.003016
v 0.049706 -0.221004 0.002679
v 0.250406 -0.353990 0.002679
v -0.767283 0.158301 -0.382172
v -0.673172 0.296593 -0.181033
v -0.280688 -0.061112 -1.187166
v -0.391707 0.132773 -1.192537
v -0.308738 -0.342009 -0.801877
v -0.221885 -0.286791 -1.003016
v -0.238166 -0.216115 -0.198460
v -0.332277 -0.354407 -0.399599
v -0.131577 -0.487393 -0.600738
v 0.069122 -0.620380 -0.600738
v -0.622281 -0.012602 -0.589120
v -0.477279 -0.183505 -0.594929
v -0.383168 -0.045212 -0.192651
v -0.477279 -0.183505 -0.393790
v -0.528170 0.125691 -0.186842
v -0.622281 -0.012602 -0.387981
v 0.163233 -0.482087 -0.198460
v 0.069122 -0.620380 -0.399599
v -0.037466 -0.349101 -0.198460
v -0.131577 -0.487393 -0.399599
v 0.102388 -0.507622 -0.801877
v 0.149952 -0.430295 -1.003016
v -0.108039 -0.474995 -0.801877
v -0.021185 -0.419777 -1.003016
v -0.453740 -0.171107 -0.796068
v -0.366887 -0.115888 -0.997207
v -0.519898 0.053119 -0.790259
v -0.496359 0.065518 -0.991398
v 0.202894 0.732189 0.002679
v -0.291254 -0.429952 0.020106
v 0.116437 0.659606 -1.204155
v -0.152443 -0.488312 -1.186728
v 0.389090 0.594404 -0.600738
v 0.102770 0.016881 0.002679
v -0.028553 -0.670285 -0.583311
v 0.210849 -0.064990 -1.192975
v 0.406086 -0.189532 -0.600738
v 0.306823 0.661463 -0.198460
v 0.447715 0.565583 -0.399599
v -0.080455 -0.392219 0.014297
v 0.011157 -0.187669 0.008488
v -0.116386 -0.592712 -0.985589
v -0.095045 -0.608597 -0.784450
v 0.242203 0.432622 -1.204155
v 0.244224 0.173446 -1.192975
v 0.229538 0.634382 -0.801877
v 0.208197 0.650268 -1.003016
v 0.136145 0.255317 0.002679
v 0.169519 0.493753 0.002679
v -0.063297 -0.670789 -0.382172
v -0.187326 -0.500678 -0.181033
v 0.119237 -0.269540 -1.187166
v -0.007771 -0.453349 -1.192537
v 0.384745 -0.173647 -0.801877
v 0.297456 -0.119119 -1.003016
v 0.206698 -0.053845 -0.198460
v 0.347590 -0.149725 -0.399599
v 0.439461 0.048904 -0.600738
v 0.472836 0.287340 -0.600738
v 0.222861 -0.598631 -0.589120
v 0.314474 -0.394082 -0.594929
v 0.115086 -0.258395 -0.192651
v 0.255978 -0.354274 -0.393790
v 0.023474 -0.462944 -0.186842
v 0.164366 -0.558824 -0.387981
v 0.273448 0.423027 -0.198460
v 0.414340 0.327147 -0.399599
v 0.240073 0.184591 -0.198460
v 0.380965 0.088711 -0.399599
v 0.369371 0.351346 -0.801877
v 0.348031 0.367231 -1.003016
v 0.418120 0.064789 -0.801877
v 0.330831 0.119317 -1.003016
v 0.293133 -0.378196 -0.796068
v 0.205844 -0.323668 -0.997207
v 0.119397 -0.534625 -0.790259
v 0.098056 -0.518740 -0.991398
v -0.510138 -0.192409 0.002679
v 0.740191 0.393594 0.020106
v -0.506683 -0.472399 -1.204155
v 0.537330 0.075369 -1.186728
v -0.635777 -0.223550 -0.600738
v 0.096307 0.199911 0.002679
v 0.614553 0.362453 -0.583311
v -0.020503 0.073112 -1.192975
v -0.054068 0.302244 -0.600738
v -0.605193 -0.127722 -0.198460
v -0.660513 -0.090076 -0.399599
v 0.525563 0.329033 0.014297
v 0.310935 0.264472 0.008488
v 0.592686 0.170947 -0.985589
v 0.590736 0.197479 -0.784450
v -0.417324 -0.228773 -1.204155
v -0.222651 -0.057661 -1.192975
v -0.561612 -0.370365 -0.801877
v -0.559661 -0.396898 -1.003016
v -0.105841 0.069138 0.002679
v -0.307990 -0.061636 0.002679
v 0.589817 0.495927 -0.382172
v 0.645136 0.458281 -0.181033
v 0.194125 0.137673 -1.187166
v 0.416229 0.161896 -1.192537
v -0.052117 0.275712 -0.801877
v -0.036238 0.174023 -1.003016
v 0.001251 0.264598 -0.198460
v -0.054068 0.302244 -0.399599
v -0.256216 0.171471 -0.600738
v -0.458364 0.040697 -0.600738
v 0.375188 0.431366 -0.589120
v 0.160560 0.366805 -0.594929
v 0.215880 0.329159 -0.192651
v 0.160560 0.366805 -0.393790
v 0.430508 0.393720 -0.186842
v 0.375188 0.431366 -0.387981
v -0.403045 0.003051 -0.198460
v -0.458365 0.040697 -0.399599
v -0.200897 0.133825 -0.198460
v -0.256216 0.171471 -0.399599
v -0.439069 -0.079425 -0.801877
v -0.437118 -0.105957 -1.003016
v -0.254265 0.144938 -0.801877
v -0.238386 0.043250 -1.003016
v 0.162511 0.340273 -0.796068
v 0.178390 0.238584 -0.997207
v 0.394484 0.311244 -0.790259
v 0.396435 0.284711 -0.991398
v 0.012435 0.336229 -0.891942
v 0.389473 0.198269 -0.998060
v -0.265327 0.023934 -1.020496
v 0.098977 -0.247924 -1.075835
v 0.336636 -0.087715 -0.988233
v 0.106420 -0.440499 -1.031226
v 0.192820 -0.311785 -1.016377
v -0.365109 -0.127523 -0.994856
v -0.009392 -0.411951 -1.013402
v 0.207321 0.334198 -0.989558
v -0.083175 -0.111995 -1.076041
v -0.201707 -0.290980 -0.999164
vn 0.8614 0.4972 -0.1034
vn 0.8943 0.4352 -0.1040
vn 0.8804 0.4284 -0.2035
vn 0.8487 0.4869 -0.2066
vn 0.4867 -0.8719 -0.0541
vn 0.4359 -0.8984 -0.0529
vn 0.4342 -0.8949 -0.1027
vn 0.4804 -0.8704 -0.1076
vn 0.9739 -0.2184 -0.0619
vn 0.9339 -0.3519 -0.0626
vn 0.9274 -0.3513 -0.1281
vn 0.9698 -0.2107 -0.1227
vn 0.9953 -0.0765 -0.0589
vn 0.9904 -0.0761 -0.1153
vn 0.9971 -0.0767 -0.0000
vn 0.9761 -0.2172 -0.0000
vn 0.9363 -0.3511 -0.0000
vn 0.5332 -0.8442 -0.0549
vn 0.5306 -0.8401 -0.1128
vn 0.5340 -0.8455 -0.0000
vn 0.4860 -0.8739 -0.0000
vn 0.4365 -0.8997 -0.0000
vn 0.8251 0.5553 -0.1041
vn 0.8113 0.5460 -0.2089
vn 0.8296 0.5584 -0.0000
vn 0.8665 0.4992 -0.0000
vn 0.8992 0.4376 -0.0000
vn -0.3427 -0.9374 -0.0619
vn -0.4699 -0.8805 -0.0626
vn -0.4684 -0.8742 -0.1281
vn -0.3345 -0.9344 -0.1227
vn -0.2048 -0.9770 -0.0589
vn -0.2037 -0.9722 -0.1153
vn -0.2051 -0.9787 -0.0000
vn -0.3417 -0.9398 -0.0000
vn -0.4694 -0.8830 -0.0000
vn -0.9193 -0.1754 -0.3523
vn -0.9491 0.1345 -0.2849
vn -0.8809 0.1487 -0.4493
vn -0.8574 -0.1306 -0.4978
vn -0.2818 -0.8712 -0.4019
vn -0.5966 -0.6641 -0.4507
vn -0.5853 -0.6688 -0.4584
vn -0.1712 -0.9002 -0.4004
vn -0.5195 -0.7840 0.3399
vn -0.6228 -0.7109 0.3269
vn -0.6649 -0.7444 -0.0619
vn -0.5100 -0.8533 -0.1088
vn -0.7813 -0.5672 0.2605
vn -0.8271 -0.5145 0.2264
vn -0.8758 -0.1666 -0.4531
vn -0.8677 -0.3920 -0.3058
vn -0.7135 -0.6166 0.3328
vn -0.7913 -0.5991 -0.1219
vn -0.5265 -0.5951 0.6072
vn -0.6010 -0.5302 0.5981
vn -0.5921 -0.5232 0.6129
vn -0.5139 -0.5896 0.6231
vn -0.5932 -0.5240 0.6112
vn -0.4066 -0.8793 0.2479
vn -0.4631 -0.8470 0.2609
vn -0.2661 -0.9134 -0.3080
vn -0.0029 -0.8888 -0.4583
vn -0.4376 -0.6604 0.6102
vn -0.4312 -0.6508 0.6249
vn -0.4313 -0.6508 0.6248
vn 0.3988 -0.8798 -0.2589
vn 0.1797 -0.9302 -0.3201
vn 0.2427 -0.9317 -0.2704
vn 0.0237 -0.9130 -0.4073
vn 0.3168 -0.8531 -0.4144
vn -0.4029 -0.8606 -0.3116
vn -0.6414 -0.7126 -0.2843
vn -0.7444 -0.5050 -0.4369
vn -0.7055 -0.5154 -0.4865
vn -0.7957 -0.5214 -0.3083
vn -0.9183 -0.1774 -0.3539
vn -0.9461 0.0657 -0.3170
vn 0.5549 -0.7537 -0.3523
vn 0.2881 -0.9142 -0.2849
vn 0.2460 -0.8589 -0.4493
vn 0.4878 -0.7171 -0.4978
vn 0.9201 -0.0547 -0.3878
vn 0.8565 -0.2516 -0.4507
vn 0.8559 -0.2394 -0.4584
vn 0.8917 -0.0740 -0.4466
vn 0.8795 -0.1231 0.4597
vn 0.8488 -0.2390 0.4716
vn 0.9552 -0.2800 0.0958
vn 0.9937 -0.0988 0.0525
vn 0.6119 -0.6407 0.4637
vn 0.3150 -0.8361 0.4491
vn 0.3245 -0.9391 -0.1131
vn 0.6555 -0.7534 -0.0520
vn 0.8003 -0.3445 0.4908
vn 0.8889 -0.4558 0.0455
vn 0.8330 -0.2199 0.5077
vn 0.7834 -0.3360 0.5229
vn 0.7479 -0.3184 0.5824
vn 0.7911 -0.2173 0.5719
vn 0.4939 -0.7083 0.5043
vn 0.5204 -0.5929 0.6145
vn 0.1719 -0.8982 0.4047
vn 0.2088 -0.8387 0.5030
vn 0.9412 -0.0157 0.3374
vn 0.9202 -0.0627 0.3865
vn 0.9937 0.0558 -0.0974
vn 0.9326 0.2291 -0.2787
vn 0.8639 -0.1209 0.4889
vn 0.8282 -0.1159 0.5483
vn 0.8346 -0.1168 0.5383
vn 0.8713 0.4429 -0.2113
vn 0.9356 0.2120 -0.2823
vn 0.8834 0.2645 -0.3868
vn 0.8372 0.4360 -0.3302
vn 0.9297 0.2274 -0.2898
vn 0.8882 0.3992 -0.2275
vn 0.9585 -0.0505 -0.2806
vn 0.9196 -0.2712 -0.2843
vn 0.7767 -0.4536 -0.4369
vn 0.7693 -0.4140 -0.4865
vn 0.8137 -0.4928 -0.3083
vn 0.5285 -0.7920 -0.3057
vn 0.2990 -0.9234 -0.2406
vn 0.2069 0.9127 -0.3523
vn 0.5028 0.8161 -0.2849
vn 0.4885 0.7480 -0.4493
vn 0.2231 0.8381 -0.4978
vn -0.5607 0.7316 -0.3878
vn -0.3701 0.8124 -0.4507
vn -0.3789 0.8039 -0.4584
vn -0.5275 0.7227 -0.4466
vn -0.5372 0.8304 0.1482
vn -0.4232 0.8956 0.1371
vn -0.4164 0.9071 -0.0619
vn -0.5726 0.8136 -0.1008
vn -0.2170 0.9750 0.0477
vn -0.1563 0.9877 -0.0050
vn 0.1975 0.8693 -0.4531
vn -0.0123 0.9520 -0.3058
vn -0.2889 0.9489 0.1268
vn -0.2326 0.9649 -0.1219
vn -0.3627 0.8235 0.4362
vn -0.2730 0.8707 0.4090
vn -0.2800 0.9010 0.3314
vn -0.3974 0.8452 0.3574
vn -0.2789 0.8962 0.3451
vn -0.6460 0.7632 -0.0155
vn -0.5883 0.8043 0.0831
vn -0.6763 0.6934 -0.2488
vn -0.7578 0.5222 -0.3913
vn -0.4806 0.7429 0.4660
vn -0.5022 0.7762 0.3812
vn -0.5041 0.7793 0.3722
vn -0.9051 0.3691 -0.2113
vn -0.7725 0.5688 -0.2823
vn -0.7781 0.4950 -0.3868
vn -0.8775 0.3478 -0.3302
vn -0.7803 0.5543 -0.2898
vn -0.8831 0.4104 -0.2275
vn -0.5889 0.7579 -0.2806
vn -0.3966 0.8729 -0.2843
vn -0.1652 0.8842 -0.4369
vn -0.1903 0.8527 -0.4865
vn -0.1597 0.9378 -0.3083
vn 0.2046 0.9126 -0.3539
vn 0.4386 0.8409 -0.3170
vn -0.0497 0.2584 -0.9648
vn -0.1544 0.0437 -0.9870
vn -0.2487 0.1519 -0.9566
vn -0.2107 0.4095 -0.8876
vn 0.2428 -0.1615 -0.9565
vn 0.0945 -0.1222 -0.9880
vn 0.1795 0.0597 -0.9819
vn 0.4367 -0.1548 -0.8862
vn -0.1972 -0.1343 -0.9711
vn -0.2687 -0.1190 -0.9558
vn 0.0953 -0.2211 -0.9706
vn -0.0555 -0.1774 -0.9826
vt 0.000000 0.000000
vt 1.000000 0.000000
vt 0.000000 1.000000
vt 1.000000 1.000000
vt 0.000000 0.000000
vt 1.000000 0.000000
vt 0.000000 1.000000
vt 1.000000 1.000000
vt 0.000000 0.000000
vt 1.000000 0.000000
vt 0.000000 1.000000
vt 1.000000 1.000000
vt 0.000000 0.500000
vt 0.500000 0.000000
vt 1.000000 0.500000
vt 0.500000 1.000000
vt 0.000000 0.500000
vt 0.500000 0.000000
vt 1.000000 0.500000
vt 0.500000 1.000000
vt 0.000000 0.500000
vt 0.500000 0.000000
vt 1.000000 0.500000
vt 0.500000 1.000000
vt 0.500000 0.500000
vt 0.500000 0.500000
vt 0.500000 0.500000
vt 0.000000 0.000000
vt 1.000000 0.000000
vt 0.000000 1.000000
vt 1.000000 1.000000
vt 0.000000 0.500000
vt 0.500000 0.000000
vt 1.000000 0.500000
vt 0.500000 1.000000
vt 0.500000 0.500000
vt -0.002753 0.000000
vt 1.063836 0.001844
vt 0.956571 1.050713
vt -0.035810 0.500000
vt -0.035178 0.511905
vt 0.563836 0.001844
vt 0.497247 0.000000
vt 0.989024 0.499683
vt 0.989713 0.513918
vt 0.460368 1.009176
vt 0.488513 1.011971
vt 0.500000 0.500000
vt -0.001429 0.166667
vt 0.000000 0.333333
vt 0.897169 0.001844
vt 0.730503 0.001844
vt 0.974608 0.869920
vt 0.974124 0.860987
vt 0.987243 0.721114
vt 0.974124 0.694321
vt 0.080865 1.014264
vt 0.109271 1.029326
vt 0.293701 1.009175
vt 0.273662 1.012709
vt -0.064665 0.712575
vt -0.057352 0.690407
vt -0.056692 0.866154
vt -0.057352 0.857074
vt 0.330581 0.000000
vt 0.163914 0.000000
vt 1.000000 0.333333
vt 1.033140 0.167624
vt 0.655180 1.011971
vt 0.691876 1.021431
vt 0.887114 1.023892
vt 0.834107 1.037670
vt 0.500000 0.666667
vt 0.481247 0.859916
vt 0.480192 0.840037
vt 0.495289 0.863236
vt 0.494208 0.841170
vt 0.533140 0.167624
vt 0.498571 0.166667
vt 0.500000 0.333333
vt 0.333333 0.500000
vt 0.166667 0.500000
vt 0.833333 0.500000
vt 0.666667 0.500000
vt 0.699806 0.167624
vt 0.666667 0.333333
vt 0.866473 0.167624
vt 0.833333 0.333333
vt 0.165238 0.166667
vt 0.166667 0.333333
vt 0.331904 0.166667
vt 0.333333 0.333333
vt 0.123878 0.673661
vt 0.142000 0.675015
vt 0.123877 0.840327
vt 0.142000 0.841681
vt 0.333333 0.666667
vt 0.314580 0.859916
vt 0.302638 0.854144
vt 0.301311 0.839125
vt 0.313525 0.840037
vt 0.666667 0.666667
vt 0.661955 0.863236
vt 0.682076 0.863048
vt 0.660875 0.841170
vt 0.682441 0.842461
vt 0.826121 0.676426
vt 0.859878 0.678445
vt 0.826120 0.843093
vt 0.859878 0.845112
vt -0.112403 -0.004358
vt 0.950076 -0.016802
vt -0.063218 1.047581
vt 0.956571 1.050713
vt -0.035810 0.500000
vt -0.035178 0.511905
vt 0.450076 -0.016802
vt 0.387597 -0.004358
vt 0.989024 0.499683
vt 0.989713 0.513918
vt 0.460368 1.009176
vt 0.488513 1.011971
vt 0.500000 0.500000
vt -0.073889 0.162309
vt -0.073889 0.161419
vt -0.028939 0.343738
vt -0.021677 0.334759
vt 0.783409 -0.016802
vt 0.616742 -0.016802
vt 0.974608 0.869920
vt 0.974124 0.860987
vt 0.987243 0.721114
vt 0.974124 0.694321
vt 0.080865 1.014264
vt 0.109271 1.029326
vt 0.293701 1.009175
vt 0.273662 1.012709
vt -0.064665 0.712575
vt -0.057352 0.690407
vt -0.056692 0.866154
vt -0.057352 0.857074
vt 0.220930 -0.004358
vt 0.054264 -0.004358
vt 1.003903 0.349302
vt 0.989925 0.330753
vt 0.966485 0.150339
vt 0.967463 0.154137
vt 0.655180 1.011971
vt 0.691876 1.021431
vt 0.887114 1.023892
vt 0.834107 1.037670
vt 0.500000 0.666667
vt 0.481247 0.859916
vt 0.480192 0.840037
vt 0.495289 0.863236
vt 0.494208 0.841170
vt 0.466485 0.150339
vt 0.467464 0.154137
vt 0.426111 0.162309
vt 0.426111 0.161419
vt 0.478323 0.333333
vt 0.490764 0.333067
vt 0.489925 0.330753
vt 0.478323 0.334759
vt 0.333333 0.500000
vt 0.166667 0.500000
vt 0.833333 0.500000
vt 0.666667 0.500000
vt 0.633152 0.150339
vt 0.634130 0.154137
vt 0.657431 0.333067
vt 0.656592 0.330753
vt 0.799819 0.150339
vt 0.800797 0.154137
vt 0.840294 0.353080
vt 0.824098 0.333067
vt 0.823259 0.330753
vt 0.092778 0.162309
vt 0.092778 0.161419
vt 0.135101 0.347501
vt 0.144989 0.333333
vt 0.144989 0.334759
vt 0.259444 0.162309
vt 0.259444 0.161419
vt 0.311656 0.333333
vt 0.311656 0.334759
vt 0.123878 0.673661
vt 0.142000 0.675015
vt 0.123877 0.840327
vt 0.142000 0.841681
vt 0.333333 0.666667
vt 0.314580 0.859916
vt 0.302638 0.854144
vt 0.301311 0.839125
vt 0.313525 0.840037
vt 0.666667 0.666667
vt 0.661955 0.863236
vt 0.682076 0.863048
vt 0.660875 0.841170
vt 0.682441 0.842461
vt 0.826121 0.676426
vt 0.859878 0.678445
vt 0.826120 0.843093
vt 0.859878 0.845112
vt 0.048924 -0.009446
vt 1.084995 -0.004738
vt -0.063218 1.047581
vt 0.956571 1.050713
vt -0.035810 0.500000
vt -0.035178 0.511905
vt 0.584995 -0.004738
vt 0.548924 -0.009446
vt 0.989024 0.499683
vt 0.989713 0.513918
vt 0.460368 1.009176
vt 0.488513 1.011971
vt 0.500000 0.500000
vt 0.017998 0.145099
vt 0.017998 0.166667
vt 0.000000 0.333333
vt 0.918329 -0.004738
vt 0.751662 -0.004738
vt 0.974608 0.869920
vt 0.974124 0.860987
vt 0.987243 0.721114
vt 0.974124 0.694321
vt 0.080865 1.014264
vt 0.109271 1.029326
vt 0.293701 1.009175
vt 0.273662 1.012709
vt -0.064665 0.712575
vt -0.057352 0.690407
vt -0.056692 0.866154
vt -0.057352 0.857074
vt 0.382258 -0.009446
vt 0.215591 -0.009446
vt 1.000000 0.333333
vt 1.030941 0.150861
vt 1.031329 0.167571
vt 0.655180 1.011971
vt 0.691876 1.021431
vt 0.887114 1.023892
vt 0.834107 1.037670
vt 0.500000 0.666667
vt 0.481247 0.859916
vt 0.480192 0.840037
vt 0.495289 0.863236
vt 0.494208 0.841170
vt 0.530941 0.150861
vt 0.531329 0.167571
vt 0.517998 0.145099
vt 0.517998 0.166667
vt 0.500000 0.333333
vt 0.333333 0.500000
vt 0.166667 0.500000
vt 0.833333 0.500000
vt 0.666667 0.500000
vt 0.697607 0.150861
vt 0.697996 0.167571
vt 0.666667 0.333333
vt 0.864274 0.150861
vt 0.864663 0.167571
vt 0.833333 0.333333
vt 0.184665 0.145099
vt 0.184665 0.166667
vt 0.166667 0.333333
vt 0.351331 0.145099
vt 0.351331 0.166667
vt 0.333333 0.333333
vt 0.123878 0.673661
vt 0.142000 0.675015
vt 0.123877 0.840327
vt 0.142000 0.841681
vt 0.333333 0.666667
vt 0.314580 0.859916
vt 0.302638 0.854144
vt 0.301311 0.839125
vt 0.313525 0.840037
vt 0.666667 0.666667
vt 0.661955 0.863236
vt 0.682076 0.863048
vt 0.660875 0.841170
vt 0.682441 0.842461
vt 0.826121 0.676426
vt 0.859878 0.678445
vt 0.826120 0.843093
vt 0.859878 0.845112
vt 0.000000 1.000000
vt 0.000000 0.500000
vt 0.500000 1.000000
vt 0.500000 0.500000
vt 0.250000 0.375000
vt 0.750000 0.375000
vt 0.500000 0.371261
vt 0.750000 1.000000
vt 0.747458 0.500000
vt 0.000000 0.750000
vt 0.500000 0.750000
vt 0.748729 0.750000
s 1
usemtl fern_2
f 27/27/1 15/15/2 4/4/3 16/16/4
f 26/26/5 19/19/6 8/8/7 20/20/8
f 25/25/9 23/23/10 12/12/11 24/24/12
f 21/21/13 25/25/9 24/24/12 11/11/14
f 9/9/15 22/22/16 25/25/9 21/21/13
f 22/22/16 10/10/17 23/23/10 25/25/9
f 17/17/18 26/26/5 20/20/8 7/7/19
f 5/5/20 18/18/21 26/26/5 17/17/18
f 18/18/21 6/6/22 19/19/6 26/26/5
f 13/13/23 27/27/1 16/16/4 3/3/24
f 1/1/25 14/14/26 27/27/1 13/13/23
f 14/14/26 2/2/27 15/15/2 27/27/1
f 36/36/28 34/34/29 31/31/30 35/35/31
f 32/32/32 36/36/28 35/35/31 30/30/33
f 28/28/34 33/33/35 36/36/28 32/32/32
f 33/33/35 29/29/36 34/34/29 36/36/28
f 84/110/37 49/53/38 39/39/39 60/71/40
f 80/98/41 62/74/42 43/46/43 52/59/44
f 76/92/45 64/80/46 44/48/47 65/81/48
f 72/88/49 57/67/50 42/44/51 67/83/52
f 64/80/46 70/86/53 68/84/54 44/48/47
f 70/86/53 72/88/49 67/83/52 68/84/54
f 41/42/55 48/52/56 69/85/57 63/78/58
f 63/78/58 69/85/57 70/86/53 64/80/46
f 48/52/56 47/51/56 71/87/57 69/85/57
f 69/85/57 71/87/57 72/88/49 70/86/53
f 47/51/56 38/38/56 58/68/59 71/87/57
f 71/87/57 58/68/59 57/67/50 72/88/49
f 46/50/60 74/90/61 66/82/62 40/40/63
f 74/90/61 76/92/45 65/81/48 66/82/62
f 37/37/64 56/66/64 73/89/65 45/49/66
f 45/49/66 73/89/65 74/90/61 46/50/60
f 56/66/64 55/65/64 75/91/65 73/89/65
f 73/89/65 75/91/65 76/92/45 74/90/61
f 55/65/64 41/43/55 63/79/58 75/91/65
f 75/91/65 63/79/58 64/80/46 76/92/45
f 54/63/67 78/95/68 51/57/69
f 78/96/68 80/99/41 52/60/44 51/58/69
f 40/41/63 66/82/62 77/93/70 53/61/71
f 53/62/71 77/93/70 78/95/68 54/64/67
f 66/82/62 65/81/48 79/97/72 77/94/70
f 77/94/70 79/97/72 80/100/41 78/96/68
f 65/81/48 44/48/47 61/73/73 79/97/72
f 79/97/72 61/73/73 62/75/42 80/101/41
f 62/76/42 82/103/74 59/69/75 43/47/43
f 82/104/74 84/109/37 60/72/40 59/70/75
f 44/48/47 68/84/54 81/102/76 61/73/73
f 61/73/73 81/102/76 82/105/74 62/77/42
f 68/84/54 67/83/52 83/107/77 81/102/76
f 81/102/76 83/107/77 84/109/37 82/106/74
f 67/83/52 42/45/51 50/55/78 83/108/77
f 83/108/77 50/56/78 49/54/38 84/110/37
f 133/204/79 98/130/80 88/114/81 109/150/82
f 129/192/83 111/153/84 92/121/85 101/136/86
f 125/185/87 113/161/88 93/123/89 114/165/90
f 121/175/91 106/144/92 91/119/93 116/167/94
f 113/162/88 119/171/95 117/168/96 93/123/89
f 119/171/95 121/176/91 116/167/94 117/168/96
f 90/117/97 97/129/98 118/169/99 112/157/100
f 112/158/100 118/170/99 119/172/95 113/163/88
f 97/129/98 96/128/101 120/173/102 118/169/99
f 118/170/99 120/174/102 121/177/91 119/172/95
f 96/128/101 86/112/103 107/146/104 120/173/102
f 120/174/102 107/147/104 106/145/92 121/177/91
f 95/126/105 123/180/106 115/166/107 89/115/108
f 123/181/106 125/185/87 114/165/90 115/166/107
f 85/111/109 105/143/109 122/178/110 94/124/111
f 94/125/111 122/179/110 123/182/106 95/127/105
f 105/143/109 104/142/109 124/183/110 122/178/110
f 122/179/110 124/184/110 125/186/87 123/182/106
f 104/142/109 90/118/97 112/159/100 124/183/110
f 124/184/110 112/160/100 113/164/88 125/186/87
f 103/140/112 127/189/113 100/134/114 87/113/115
f 127/190/113 129/193/83 101/137/86 100/135/114
f 89/116/108 115/166/107 126/187/116 102/138/117
f 102/139/117 126/187/116 127/189/113 103/141/112
f 115/166/107 114/165/90 128/191/118 126/188/116
f 126/188/116 128/191/118 129/194/83 127/190/113
f 114/165/90 93/123/89 110/152/119 128/191/118
f 128/191/118 110/152/119 111/154/84 129/195/83
f 111/155/84 131/197/120 108/148/121 92/122/85
f 131/198/120 133/203/79 109/151/82 108/149/121
f 93/123/89 117/168/96 130/196/122 110/152/119
f 110/152/119 130/196/122 131/199/120 111/156/84
f 117/168/96 116/167/94 132/201/123 130/196/122
f 130/196/122 132/201/123 133/203/79 131/200/120
f 116/167/94 91/120/93 99/132/124 132/202/123
f 132/202/123 99/133/124 98/131/80 133/204/79
f 182/287/125 147/223/126 137/208/127 158/242/128
f 178/275/129 160/245/130 141/215/131 150/229/132
f 174/269/133 162/253/134 142/217/135 163/254/136
f 170/263/137 155/237/138 140/213/139 165/256/140
f 162/253/134 168/260/141 166/257/142 142/217/135
f 168/260/141 170/263/137 165/256/140 166/257/142
f 139/211/143 146/222/144 167/258/145 161/249/146
f 161/250/146 167/259/145 168/260/141 162/253/134
f 146/222/144 145/221/144 169/261/145 167/258/145
f 167/259/145 169/262/145 170/263/137 168/260/141
f 145/221/144 135/206/144 156/238/147 169/261/145
f 169/262/145 156/239/147 155/237/138 170/263/137
f 144/220/148 172/266/149 164/255/150 138/209/151
f 172/266/149 174/269/133 163/254/136 164/255/150
f 134/205/152 154/236/152 171/264/153 143/218/154
f 143/219/154 171/265/153 172/266/149 144/220/148
f 154/236/152 153/235/152 173/267/153 171/264/153
f 171/265/153 173/268/153 174/269/133 172/266/149
f 153/235/152 139/212/143 161/251/146 173/267/153
f 173/268/153 161/252/146 162/253/134 174/269/133
f 152/233/155 176/272/156 149/227/157 136/207/158
f 176/273/156 178/276/129 150/230/132 149/228/157
f 138/210/151 164/255/150 175/270/159 151/231/160
f 151/232/160 175/270/159 176/272/156 152/234/155
f 164/255/150 163/254/136 177/274/161 175/271/159
f 175/271/159 177/274/161 178/277/129 176/273/156
f 163/254/136 142/217/135 159/244/162 177/274/161
f 177/274/161 159/244/162 160/246/130 178/278/129
f 160/247/130 180/280/163 157/240/164 141/216/131
f 180/281/163 182/286/125 158/243/128 157/241/164
f 142/217/135 166/257/142 179/279/165 159/244/162
f 159/244/162 179/279/165 180/282/163 160/248/130
f 166/257/142 165/256/140 181/284/166 179/279/165
f 179/279/165 181/284/166 182/286/125 180/283/163
f 165/256/140 140/214/139 148/225/167 181/285/166
f 181/285/166 148/226/167 147/224/126 182/287/125
f 192/297/168 193/298/169 185/290/170 183/288/171
f 189/294/172 186/291/173 184/289/174 187/292/175
f 193/298/169 194/299/176 190/295/177 185/290/170
f 186/291/173 189/294/172 188/293/178 191/296/179
f 186/291/173 191/296/179 194/299/176 193/298/169
f 184/289/174 186/291/173 193/298/169 192/297/168
