# Blender 3.4.0
# www.blender.org
mtllib fern_3.mtl
o fern_3
v -0.332935 -1.274099 0.175637
v 0.116795 0.573307 0.175637
v -0.332935 -1.274099 -1.580734
v 0.116795 0.573307 -1.580734
v 1.118152 0.641788 0.171608
v -0.493049 -0.282997 0.171608
v 1.118152 0.641789 -1.544470
v -0.493049 -0.282997 -1.544470
v 0.819700 -1.237824 -0.258110
v -0.377400 0.485791 0.429741
v 0.310019 -0.821247 -2.188988
v -0.887081 0.902369 -1.501136
vn -0.9716 0.2365 -0.0000
vn 0.4978 -0.8673 -0.0000
vn -0.8023 -0.5909 0.0843
vt 0.000000 0.000000
vt 1.000000 0.000000
vt 0.000000 1.000000
vt 1.000000 1.000000
vt 0.000000 0.000000
vt 1.000000 0.000000
vt 0.000000 1.000000
vt 1.000000 1.000000
vt 0.000000 0.000000
vt 1.000000 0.000000
vt 0.000000 1.000000
vt 1.000000 1.000000
s 1
usemtl fern_3
f 1/1/1 2/2/1 4/4/1 3/3/1
f 5/5/2 6/6/2 8/8/2 7/7/2
f 9/9/3 10/10/3 12/12/3 11/11/3
