# Blender 3.4.0
# www.blender.org
mtllib fern_1.mtl
o fern_1
v 0.339979 0.071354 0.029612
v -0.474312 -0.099547 0.029612
v 0.317402 0.166122 -0.802419
v -0.496888 -0.004779 -0.802419
v -0.341473 0.335560 0.040811
v 0.476396 -0.468147 0.040811
v -0.418826 0.292754 -1.105860
v 0.399042 -0.510954 -1.105860
v 0.144825 0.391593 0.035591
v -0.202049 -0.546319 0.035591
v -0.001069 0.491490 -0.964409
v -0.347942 -0.446421 -0.964409
v 0.339979 0.071354 -0.386403
v -0.474312 -0.099547 -0.386403
v -0.341473 0.335560 -0.532525
v 0.476396 -0.468147 -0.532525
v 0.144825 0.391593 -0.464410
v -0.202049 -0.546319 -0.464409
vn 0.2054 -0.9787 -0.0000
vn 0.2040 -0.9722 -0.1149
vn 0.2041 -0.9722 -0.1145
vn 0.7009 0.7133 -0.0000
vn 0.6991 0.7114 -0.0723
vn 0.6990 0.7113 -0.0743
vn 0.9379 -0.3469 -0.0000
vn 0.9258 -0.3424 -0.1601
vn 0.9245 -0.3419 -0.1686
vn 0.2000 -0.9529 -0.2279
vn 0.8872 -0.3281 -0.3244
vn 0.6934 0.7056 -0.1462
vt 0.000000 0.000000
vt 1.000000 0.000000
vt 0.000000 1.000000
vt 1.000000 1.000000
vt 0.000000 0.000000
vt 1.000000 0.000000
vt 0.000000 1.000000
vt 1.000000 1.000000
vt 0.000000 0.000000
vt 1.000000 0.000000
vt 0.000000 1.000000
vt 1.000000 1.000000
vt 0.000000 0.500000
vt 1.000000 0.500000
vt 0.000000 0.500000
vt 1.000000 0.500000
vt 0.000000 0.500000
vt 1.000000 0.500000
s 1
usemtl fern_1
f 2/2/1 14/14/2 13/13/3 1/1/1
f 6/6/4 16/16/5 15/15/6 5/5/4
f 10/10/7 18/18/8 17/17/9 9/9/7
f 13/13/3 14/14/2 4/4/10 3/3/10
f 17/17/9 18/18/8 12/12/11 11/11/11
f 15/15/6 16/16/5 8/8/12 7/7/12
