# Blender 3.4.0
# www.blender.org
mtllib grass_2.mtl
o grass_2
v -0.334473 -0.017949 0.040000
v 0.406268 -0.017949 0.040000
v -0.334473 -0.176718 -0.960000
v 0.406268 -0.176718 -0.960000
v -0.334473 -0.095487 -0.626667
v -0.334473 -0.047487 -0.293333
v 0.406268 -0.047487 -0.293333
v 0.406268 -0.095487 -0.626667
v 0.056193 -0.316393 0.035453
v 0.056193 0.343177 0.035453
v 0.282285 -0.316393 -0.837311
v 0.282285 0.343177 -0.837311
v 0.181831 -0.316393 -0.548806
v 0.110830 -0.316393 -0.257465
v 0.110831 0.343177 -0.257465
v 0.181831 0.343177 -0.548806
v 0.316296 0.009497 0.035078
v -0.337289 0.009497 0.035078
v 0.316296 0.246119 -0.826407
v -0.337289 0.246119 -0.826407
v 0.316296 0.142421 -0.542002
v 0.316296 0.067864 -0.254361
v -0.337289 0.067864 -0.254361
v -0.337289 0.142421 -0.542002
v 0.033856 0.299262 0.031298
v -0.094832 -0.274869 0.031298
v -0.220756 0.356332 -0.729455
v -0.349444 -0.217800 -0.729455
v -0.114272 0.332464 -0.479741
v -0.033160 0.314283 -0.225483
v -0.161849 -0.259848 -0.225483
v -0.242960 -0.241667 -0.479741
vn -0.0000 0.9961 -0.0883
vn -0.0000 0.9933 -0.1154
vn -0.0000 0.9818 -0.1899
vn -0.0000 0.9716 -0.2368
vn -0.9830 -0.0000 -0.1834
vn -0.9777 -0.0000 -0.2101
vn -0.9591 -0.0000 -0.2831
vn -0.9444 -0.0000 -0.3288
vn -0.0000 -0.9803 -0.1977
vn -0.0000 -0.9745 -0.2244
vn -0.0000 -0.9549 -0.2971
vn -0.0000 -0.9395 -0.3426
vn 0.9427 -0.2113 -0.2584
vn 0.9354 -0.2097 -0.2847
vn 0.9119 -0.2044 -0.3560
vn 0.8941 -0.2004 -0.4004
vt 0.000000 0.000000
vt 1.000000 0.000000
vt 0.000000 1.000000
vt 1.000000 1.000000
vt 0.000000 0.666667
vt 0.000000 0.333333
vt 1.000000 0.333333
vt 1.000000 0.666667
vt 0.000000 0.000000
vt 1.000000 0.000000
vt 0.000000 1.000000
vt 1.000000 1.000000
vt 0.000000 0.666667
vt 0.000000 0.333333
vt 1.000000 0.333333
vt 1.000000 0.666667
vt 0.000000 0.000000
vt 1.000000 0.000000
vt 0.000000 1.000000
vt 1.000000 1.000000
vt 0.000000 0.666667
vt 0.000000 0.333333
vt 1.000000 0.333333
vt 1.000000 0.666667
vt 0.000000 0.000000
vt 1.000000 0.000000
vt 0.000000 1.000000
vt 1.000000 1.000000
vt 0.000000 0.666667
vt 0.000000 0.333333
vt 1.000000 0.333333
vt 1.000000 0.666667
s 1
usemtl grass_2
f 1/1/1 2/2/1 7/7/2 6/6/2
f 5/5/3 8/8/3 4/4/4 3/3/4
f 6/6/2 7/7/2 8/8/3 5/5/3
f 9/9/5 10/10/5 15/15/6 14/14/6
f 13/13/7 16/16/7 12/12/8 11/11/8
f 14/14/6 15/15/6 16/16/7 13/13/7
f 17/17/9 18/18/9 23/23/10 22/22/10
f 21/21/11 24/24/11 20/20/12 19/19/12
f 22/22/10 23/23/10 24/24/11 21/21/11
f 25/25/13 26/26/13 31/31/14 30/30/14
f 29/29/15 32/32/15 28/28/16 27/27/16
f 30/30/14 31/31/14 32/32/15 29/29/15
