# Blender 3.4.0
# www.blender.org
mtllib mushroom_n_4.mtl
o mushroom_n_4
v -0.004829 0.009645 -0.158724
v -0.009899 -0.004285 -0.158724
v 0.009756 0.012225 -0.158095
v 0.019270 0.000874 -0.157466
v -0.000385 -0.015636 -0.158095
v 0.014200 -0.013056 -0.157466
v -0.005967 -0.016395 -0.008311
v 0.005967 0.016395 -0.008311
v -0.011215 0.013366 -0.008311
v 0.017183 0.003030 -0.008311
v -0.017183 -0.003030 -0.008311
v 0.011215 -0.013366 -0.008311
v -0.015648 -0.002759 -0.013646
v 0.015648 0.002759 -0.013646
v 0.005434 0.014931 -0.013646
v -0.010213 0.012172 -0.013646
v -0.005434 -0.014931 -0.013646
v 0.010213 -0.012172 -0.013646
v -0.005070 -0.013930 0.000000
v 0.005070 0.013930 0.000000
v -0.009529 0.011356 0.000000
v 0.014599 0.002574 0.000000
v -0.014599 -0.002574 0.000000
v 0.009529 -0.011356 0.000000
v -0.002987 0.007141 -0.150558
v 0.000424 -0.012263 -0.150075
v 0.011618 -0.010283 -0.149592
v -0.006879 -0.003551 -0.150558
v 0.015510 0.000409 -0.149592
v 0.008207 0.009121 -0.150075
v -0.006754 -0.003179 -0.136488
v 0.014092 0.000508 -0.135589
v 0.007292 0.008620 -0.136039
v -0.003131 0.006777 -0.136488
v 0.000045 -0.011291 -0.136039
v 0.010468 -0.009447 -0.135589
v -0.007046 -0.019358 0.000000
v 0.013242 -0.015781 0.000000
v -0.013242 0.015781 0.000000
v 0.020288 0.003577 0.000000
v 0.007046 0.019358 0.000000
v -0.020288 -0.003577 0.000000
v 0.006615 -0.002408 -0.184023
v -0.046473 0.060691 -0.181336
v -0.036149 0.048545 -0.185137
v -0.021080 0.030506 -0.182538
v -0.000965 0.039901 -0.181769
v -0.004975 0.063104 -0.183945
v -0.007910 0.078701 -0.179860
v -0.033815 0.012308 -0.182820
v -0.055885 0.020340 -0.185574
v -0.070887 0.025801 -0.181876
v -0.026387 -0.029946 -0.181769
v -0.044374 -0.045143 -0.183945
v -0.056647 -0.055205 -0.179860
v -0.035757 -0.009820 -0.182538
v -0.058896 -0.013952 -0.185137
v -0.074611 -0.016620 -0.181336
v 0.034469 0.075006 -0.177844
v 0.029283 0.060118 -0.182315
v 0.021140 0.037974 -0.180717
v 0.039313 0.025241 -0.179666
v 0.057447 0.040385 -0.180686
v 0.069308 0.050596 -0.175829
v 0.048683 0.005115 -0.178896
v 0.071969 0.009193 -0.179493
v 0.087272 0.012012 -0.174353
v 0.083548 -0.030409 -0.173813
v 0.068958 -0.025099 -0.179056
v 0.046740 -0.017012 -0.178614
v -0.008215 -0.042678 -0.180717
v -0.016210 -0.064876 -0.182315
v -0.021808 -0.079615 -0.177844
v 0.034005 -0.035211 -0.178896
v 0.049222 -0.053303 -0.179493
v 0.059134 -0.065299 -0.174353
v 0.013891 -0.044606 -0.179666
v 0.018048 -0.067863 -0.180686
v 0.020570 -0.083309 -0.175829
v -0.023618 -0.083904 -0.173086
v -0.007514 -0.037502 -0.158057
v -0.023525 -0.026284 -0.158983
v -0.060425 -0.058114 -0.175216
v -0.001126 0.035256 -0.158983
v -0.008934 0.083359 -0.175216
v -0.049676 0.064330 -0.176775
v -0.018849 0.026979 -0.159661
v 0.091627 0.012900 -0.169398
v 0.042617 0.004607 -0.156452
v 0.040905 -0.014888 -0.156204
v 0.087692 -0.031917 -0.168827
v -0.030069 0.010944 -0.159910
v -0.075470 0.027469 -0.177346
v -0.079405 -0.017349 -0.176775
v -0.031780 -0.008551 -0.159661
v 0.035840 0.079455 -0.173086
v 0.018350 0.033558 -0.158057
v 0.034361 0.022339 -0.157131
v 0.072648 0.053666 -0.170957
v 0.061898 -0.068779 -0.169398
v 0.029685 -0.030923 -0.156452
v 0.011962 -0.039200 -0.157131
v 0.021156 -0.087807 -0.170957
v -0.022449 -0.080436 -0.171303
v -0.057707 -0.055732 -0.173343
v 0.087945 0.012294 -0.167769
v 0.084176 -0.030638 -0.167223
v -0.047410 0.061559 -0.174836
v -0.008383 0.079786 -0.173343
v -0.075888 -0.016682 -0.174836
v -0.072119 0.026249 -0.175383
v 0.059468 -0.065948 -0.167769
v 0.020440 -0.084175 -0.169263
v 0.034506 0.076047 -0.171303
v 0.069765 0.051343 -0.169263
v -0.015154 -0.058906 -0.160922
v -0.040789 -0.040945 -0.162406
v 0.065108 0.008513 -0.158354
v 0.062368 -0.022700 -0.157956
v -0.033303 0.044332 -0.163491
v -0.004928 0.057584 -0.162406
v -0.054007 -0.012554 -0.163491
v -0.051267 0.018660 -0.163889
v 0.044403 -0.048372 -0.158354
v 0.016028 -0.061624 -0.159439
v 0.026255 0.054865 -0.160922
v 0.051890 0.036904 -0.159439
v -0.013373 -0.002606 -0.029514
v 0.014290 0.002272 -0.029444
v 0.005263 0.013032 -0.029479
v -0.008569 0.010593 -0.029514
v -0.004345 -0.013366 -0.029479
v 0.009486 -0.010926 -0.029444
v -0.009109 0.013414 -0.116997
v -0.003416 -0.018954 -0.116367
v 0.015261 -0.015653 -0.115737
v -0.015601 -0.004421 -0.116997
v 0.021752 0.002181 -0.115737
v 0.009567 0.016715 -0.116367
v -0.008105 -0.003062 -0.119156
v 0.014132 0.000868 -0.118426
v 0.006878 0.009520 -0.118791
v -0.004240 0.007555 -0.119156
v -0.000850 -0.011714 -0.118791
v 0.010268 -0.009749 -0.118426
vn 0.0127 -0.0152 0.9998
vn 0.0244 0.0041 0.9997
vn 0.0159 -0.0190 0.9997
vn 0.0023 -0.0197 0.9998
vn -0.6664 -0.6390 -0.3842
vn -0.6823 -0.6481 -0.3382
vn -0.7198 -0.6130 -0.3259
vn -0.7284 -0.5733 -0.3752
vn 0.6098 -0.7267 -0.3164
vn 0.6095 -0.7007 -0.3708
vn -0.3168 -0.8704 -0.3769
vn -0.3246 -0.8913 -0.3164
vn -0.0127 0.0152 0.9998
vn -0.0244 -0.0041 0.9997
vn -0.0159 0.0189 0.9997
vn -0.0190 0.0057 0.9998
vn -0.0195 -0.0034 0.9998
vn -0.0087 -0.0232 0.9997
vn -0.9229 -0.1390 -0.3591
vn -0.9342 -0.1645 -0.3164
vn 0.3246 0.8913 -0.3164
vn -0.6098 0.7267 -0.3164
vn -0.5842 0.7219 -0.3708
vn 0.3411 0.8687 -0.3591
vn -0.3325 -0.8569 0.3939
vn 0.5716 -0.6970 0.4329
vn 0.6130 -0.7403 0.2761
vn -0.3433 -0.9094 0.2349
vn 0.6287 -0.7488 -0.2100
vn -0.3343 -0.9158 -0.2226
vn -0.9574 -0.1677 -0.2352
vn -0.6266 0.7430 -0.2351
vn -0.6079 0.7102 0.3549
vn -0.9222 -0.1533 0.3549
vn -0.9671 -0.1652 0.1937
vn -0.6346 0.7482 0.1937
vn 0.0082 0.0233 0.9997
vn 0.9454 0.1731 0.2761
vn 0.9815 0.1841 0.0525
vn 0.6604 -0.7485 0.0599
vn -0.1054 0.9220 -0.3726
vn -0.1760 0.9064 -0.3840
vn -0.1862 0.9151 -0.3576
vn -0.1479 0.9346 -0.3236
vn 0.3216 0.9173 0.2349
vn 0.3813 0.9231 0.0495
vn 0.6549 -0.7539 0.0527
vn 0.6561 -0.7474 -0.1042
vn -0.2876 -0.9563 -0.0532
vn -0.3082 -0.9512 0.0149
vn -0.6301 0.7753 -0.0428
vn -0.9834 -0.1786 -0.0324
vn -0.3794 -0.9248 0.0296
vn 0.3313 0.9169 -0.2227
vn 0.9626 0.1710 -0.2100
vn 0.9342 0.1647 -0.3164
vn -0.9911 -0.1295 -0.0306
vn -0.6111 0.7915 -0.0112
vn 0.0068 0.0186 0.9998
vn 0.9229 0.1390 -0.3591
vn 0.7436 0.5680 -0.3527
vn 0.7036 0.6213 -0.3448
vn 0.7247 0.6197 -0.3014
vn 0.7372 0.6074 -0.2959
vn 0.8738 -0.3397 -0.3479
vn 0.8937 -0.2882 -0.3439
vn 0.9059 -0.3153 -0.2826
vn 0.8891 -0.3529 -0.2914
vn -0.8641 0.2900 -0.4113
vn -0.8876 0.2833 -0.3632
vn -0.8832 0.3343 -0.3290
vn -0.8427 0.3455 -0.4129
vn 0.2240 0.4951 -0.8394
vn -0.0551 0.5195 -0.8527
vn -0.1781 0.9757 0.1276
vn 0.3310 0.9313 0.1518
vn -0.3091 0.4008 -0.8624
vn -0.4699 0.1710 -0.8660
vn -0.9347 0.3402 0.1034
vn -0.6414 0.7593 0.1099
vn -0.4944 -0.1084 -0.8624
vn -0.3761 -0.3625 -0.8527
vn -0.7636 -0.6330 0.1276
vn -0.9794 -0.1694 0.1099
vn 0.4535 0.3343 -0.8262
vn 0.7496 0.6381 0.1760
vn 0.3865 -0.4290 -0.8164
vn 0.5473 -0.1992 -0.8129
vn 0.9207 -0.3351 0.2002
vn 0.6274 -0.7542 0.1938
vn -0.1466 -0.5233 -0.8394
vn 0.1325 -0.5476 -0.8262
vn 0.1641 -0.9706 0.1760
vn -0.3450 -0.9262 0.1518
vn 0.5718 0.0802 -0.8164
vn 0.9654 0.1745 0.1938
vn 0.0460 -0.0168 -0.9988
vn 0.0388 -0.0180 -0.9991
vn 0.0391 -0.0142 -0.9991
vn 0.1758 0.0064 -0.9844
vn 0.1698 -0.0618 -0.9835
vn 0.0486 -0.0098 -0.9988
vn 0.0517 -0.0120 -0.9986
vn 0.0004 -0.1410 -0.9900
vn -0.0557 -0.1017 -0.9933
vn 0.0530 -0.0193 -0.9984
vn 0.0508 -0.0224 -0.9985
vn -0.0786 0.0286 -0.9965
vn -0.0393 0.0847 -0.9956
vn 0.0473 -0.0241 -0.9986
vn 0.0435 -0.0237 -0.9988
vn 0.0227 0.1137 -0.9933
vn 0.0909 0.1077 -0.9900
vn 0.0533 -0.0155 -0.9985
vn -0.0846 -0.0396 -0.9956
vn 0.0413 -0.0111 -0.9991
vn 0.1306 -0.1179 -0.9844
vn 0.0448 -0.0095 -0.9990
vn 0.0685 -0.1469 -0.9868
vn 0.0404 -0.0215 -0.9990
vn 0.1469 0.0685 -0.9868
vn -0.0460 0.0168 0.9988
vn -0.1914 -0.3971 0.8976
vn -0.3772 -0.2670 0.8868
vn 0.3902 0.0914 0.9162
vn 0.3703 -0.1348 0.9191
vn -0.3229 0.3509 0.8790
vn -0.1173 0.4470 0.8868
vn -0.4729 -0.0613 0.8790
vn -0.4531 0.1649 0.8761
vn 0.2402 -0.3208 0.9162
vn 0.0345 -0.4168 0.9083
vn 0.1086 0.4273 0.8976
vn 0.2944 0.2971 0.9083
vn -0.1454 -0.2628 0.9538
vn -0.2711 -0.1747 0.9466
vn -0.3602 -0.2522 0.8981
vn -0.1841 -0.3756 0.9083
vn 0.2479 0.0676 0.9664
vn 0.2345 -0.0853 0.9684
vn 0.3485 -0.1268 0.9287
vn 0.3673 0.0876 0.9260
vn -0.2344 0.2431 0.9412
vn -0.0953 0.3081 0.9466
vn -0.1139 0.4247 0.8981
vn -0.3088 0.3337 0.8907
vn -0.3358 -0.0356 0.9412
vn -0.3224 0.1173 0.9393
vn -0.4322 0.1573 0.8879
vn -0.4510 -0.0571 0.8907
vn 0.1464 -0.2111 0.9664
vn 0.0074 -0.2761 0.9611
vn 0.0301 -0.3942 0.9185
vn 0.2250 -0.3032 0.9260
vn 0.0575 0.2948 0.9538
vn 0.1831 0.2068 0.9611
vn 0.2765 0.2826 0.9185
vn 0.1004 0.4060 0.9083
vn 0.0502 0.0972 0.9940
vn 0.0775 0.0384 0.9962
vn -0.0240 -0.1067 0.9940
vn -0.0885 -0.1011 0.9909
vn 0.0719 -0.0262 0.9971
vn 0.0347 -0.0793 0.9962
vn -0.1416 -0.0639 0.9879
vn -0.1689 -0.0052 0.9856
vn -0.1632 0.0594 0.9848
vn -0.1261 0.1125 0.9856
vn -0.0674 0.1399 0.9879
vn -0.0028 0.1343 0.9909
vn 0.9807 0.1954 -0.0077
vn 0.3216 0.9462 -0.0351
vn 0.2961 0.8701 0.3939
vn 0.8859 0.1665 0.4329
vn 0.1744 -0.1761 0.9688
vn 0.1662 -0.2621 0.9506
vn 0.3101 0.0867 0.9467
vn 0.2584 0.0108 0.9660
vn -0.3255 -0.0037 0.9455
vn -0.2125 0.1978 0.9569
vn -0.2502 0.2703 0.9297
vn -0.3523 -0.0616 0.9338
vn -0.1524 -0.2403 0.9587
vn -0.1500 -0.3013 0.9417
vn 0.1448 -0.9386 -0.3131
vn 0.1403 -0.9228 -0.3588
vn 0.1970 -0.9093 -0.3665
vn 0.2112 -0.9242 -0.3183
vn 0.0995 0.3194 0.9424
vn 0.0283 0.2823 0.9589
vn -0.9931 -0.1156 -0.0177
vn 0.3665 0.9304 0.0075
vn -0.6737 0.7389 -0.0131
vn 0.9909 0.1334 0.0198
vt 0.801758 1.000000
vt 0.759766 1.000000
vt 0.781250 1.000000
vt 0.812500 1.000000
vt 0.833984 1.000000
vt 0.875000 1.000000
vt 0.781250 1.000000
vt 0.854492 1.000000
vt 0.875000 0.703125
vt 0.781250 0.703125
vt 0.781250 0.703125
vt 0.812500 0.703125
vt 0.801758 0.703125
vt 0.833984 0.703125
vt 0.759766 0.703125
vt 0.854492 0.703125
vt 0.759766 0.718750
vt 0.833984 0.718750
vt 0.812500 0.718750
vt 0.781250 0.718750
vt 0.801758 0.718750
vt 0.875000 0.718750
vt 0.781250 0.718750
vt 0.854492 0.718750
vt 0.884199 0.145319
vt 0.781250 0.666667
vt 0.875000 0.666667
vt 0.812500 0.666667
vt 0.874716 0.192505
vt 0.781250 0.666667
vt 0.861763 0.175234
vt 0.801758 0.666667
vt 0.833984 0.666667
vt 0.892411 0.186183
vt 0.866504 0.151641
vt 0.759766 0.666667
vt 0.897152 0.162590
vt 0.854492 0.666667
vt 0.801758 0.979167
vt 0.875000 0.979167
vt 0.781250 0.979167
vt 0.854492 0.979167
vt 0.759766 0.979167
vt 0.833984 0.979167
vt 0.781250 0.979167
vt 0.812500 0.979167
vt 0.759766 0.947917
vt 0.833984 0.947917
vt 0.812500 0.947917
vt 0.781250 0.947917
vt 0.801758 0.947917
vt 0.781250 0.947917
vt 0.875000 0.947917
vt 0.854492 0.947917
vt 0.874853 0.683339
vt 0.781096 0.683339
vt 0.781710 0.684639
vt 0.875439 0.684639
vt 0.854639 0.683339
vt 0.854931 0.684638
vt 0.854054 0.684638
vt 0.854346 0.683339
vt 0.802656 0.684639
vt 0.801611 0.683339
vt 0.802197 0.684639
vt 0.801457 0.683339
vt 0.833546 0.684638
vt 0.834444 0.684638
vt 0.833831 0.683339
vt 0.834131 0.683339
vt 0.812040 0.684639
vt 0.781397 0.683339
vt 0.780812 0.684639
vt 0.812654 0.683339
vt 0.758868 0.684639
vt 0.759920 0.683339
vt 0.759306 0.684639
vt 0.760067 0.683339
vt 0.875178 0.500008
vt 0.936881 0.419389
vt 0.917927 0.445654
vt 0.900914 0.468012
vt 0.909458 0.489460
vt 0.932566 0.481443
vt 0.958811 0.471336
vt 0.885470 0.455136
vt 0.891816 0.424419
vt 0.898374 0.389002
vt 0.851191 0.465692
vt 0.834423 0.443027
vt 0.814719 0.417798
vt 0.867270 0.454290
vt 0.861246 0.423471
vt 0.853636 0.388462
vt 0.958348 0.530911
vt 0.931833 0.522185
vt 0.908816 0.513730
vt 0.899164 0.534323
vt 0.915932 0.556989
vt 0.935636 0.582217
vt 0.883085 0.545725
vt 0.889109 0.576545
vt 0.896719 0.611553
vt 0.851981 0.611013
vt 0.858539 0.575596
vt 0.864885 0.544879
vt 0.841538 0.486285
vt 0.818522 0.477830
vt 0.792007 0.469104
vt 0.849441 0.532003
vt 0.832428 0.554362
vt 0.813474 0.580626
vt 0.840897 0.510555
vt 0.817788 0.518573
vt 0.791544 0.528679
vt 0.763942 0.460203
vt 0.862521 0.097484
vt 0.838472 0.115997
vt 0.793729 0.391391
vt 0.862521 0.235667
vt 0.986470 0.460362
vt 0.956747 0.391426
vt 0.838472 0.217154
vt 0.905011 0.648454
vt 0.928224 0.185088
vt 0.928224 0.148062
vt 0.845277 0.648552
vt 0.824587 0.185088
vt 0.905077 0.351464
vt 0.845344 0.351561
vt 0.824587 0.148062
vt 0.986413 0.539813
vt 0.890290 0.235667
vt 0.914339 0.217154
vt 0.956626 0.608625
vt 0.793608 0.608589
vt 0.914339 0.115997
vt 0.890290 0.097484
vt 0.763885 0.539653
vt 0.755851 0.457096
vt 0.845829 0.014426
vt 0.787878 0.383310
vt 0.792870 0.055195
vt 0.907054 0.659365
vt 0.990517 0.207343
vt 0.842941 0.659365
vt 0.990517 0.125807
vt 0.962830 0.383636
vt 0.792870 0.277956
vt 0.994647 0.457669
vt 0.845829 0.318724
vt 0.843301 0.340650
vt 0.762294 0.125807
vt 0.907414 0.340650
vt 0.762294 0.207343
vt 0.787525 0.616379
vt 0.959941 0.055194
vt 0.755708 0.542347
vt 0.906982 0.014426
vt 0.994504 0.542919
vt 0.906982 0.318724
vt 0.962477 0.616705
vt 0.959941 0.277956
vt 0.854175 0.055955
vt 0.815671 0.085596
vt 0.959371 0.196216
vt 0.959371 0.136935
vt 0.815671 0.247555
vt 0.854175 0.277195
vt 0.793440 0.136935
vt 0.793440 0.196216
vt 0.937140 0.085596
vt 0.898636 0.055955
vt 0.898636 0.277195
vt 0.937140 0.247555
vt 0.759766 0.747396
vt 0.833984 0.747396
vt 0.781250 0.747396
vt 0.812500 0.747396
vt 0.801758 0.747396
vt 0.875000 0.747396
vt 0.781250 0.747396
vt 0.854492 0.747396
vt 0.801758 0.910899
vt 0.781250 0.910899
vt 0.875000 0.910899
vt 0.854492 0.910899
vt 0.759766 0.910899
vt 0.833984 0.910899
vt 0.812500 0.910899
vt 0.781250 0.910899
vt 0.759766 0.907006
vt 0.833984 0.907006
vt 0.781250 0.907006
vt 0.812500 0.907006
vt 0.801758 0.907006
vt 0.781250 0.907006
vt 0.875000 0.907006
vt 0.854492 0.907006
s 1
usemtl mushrooms_n_1
f 42/75/1 23/36/2 21/32/3 39/63/4
f 137/188/5 31/47/6 35/52/7 135/185/8
f 12/16/9 38/59/10 37/55/11 7/9/12
f 40/67/13 22/33/14 24/38/15 38/60/16
f 41/71/17 20/28/18 22/33/14 40/68/13
f 7/10/12 37/56/11 42/76/19 11/15/20
f 8/11/21 9/13/22 39/64/23 41/72/24
f 5/6/25 6/8/26 27/42/27 26/40/28
f 18/24/29 12/16/9 7/9/12 17/22/30
f 13/17/31 11/15/20 9/13/22 16/21/32
f 1/1/33 2/2/34 28/43/35 25/39/36
f 21/31/3 23/35/2 19/25/37 24/37/15 22/34/14 20/29/18
f 27/42/27 29/44/38 32/48/39 36/54/40
f 134/184/41 139/191/42 33/50/43 34/51/44
f 29/44/38 30/46/45 33/49/46 32/48/39
f 145/199/47 133/183/48 132/181/49 144/198/50
f 131/180/51 128/176/52 13/17/31 16/21/32
f 13/17/31 17/23/30 7/10/12 11/15/20
f 26/40/28 27/42/27 36/54/40 35/53/53
f 15/20/54 16/21/32 9/13/22 8/11/21
f 14/18/55 15/19/54 8/12/21 10/14/56
f 18/24/29 14/18/55 10/14/56 12/16/9
f 25/39/36 28/43/35 31/47/57 34/51/58
f 42/77/1 37/57/59 19/26/37 23/36/2
f 37/58/59 38/61/16 24/38/15 19/27/37
f 41/73/17 39/65/4 21/32/3 20/30/18
f 10/14/56 8/12/21 41/74/24 40/69/60
f 12/16/9 10/14/56 40/70/60 38/62/10
f 9/13/22 11/15/20 42/78/19 39/66/23
f 139/190/61 138/189/62 32/48/63 33/49/64
f 138/189/65 136/187/66 36/54/67 32/48/68
f 134/184/69 34/51/70 31/47/71 137/188/72
f 132/181/49 133/183/48 18/24/29 17/22/30
f 28/43/35 26/41/28 35/52/53 31/47/57
f 30/45/45 25/39/36 34/51/58 33/50/46
f 59/95/73 49/85/74 85/121/75 96/132/76
f 44/80/77 52/88/78 93/129/79 86/122/80
f 58/94/81 55/91/82 83/119/83 94/130/84
f 64/100/85 59/95/73 96/132/76 99/135/86
f 76/112/87 68/104/88 91/127/89 100/136/90
f 73/109/91 79/115/92 103/139/93 80/116/94
f 79/115/92 76/112/87 100/136/90 103/139/93
f 67/103/95 64/100/85 99/135/86 88/124/96
f 43/79/97 65/101/98 70/106/99
f 70/106/99 65/101/98 66/102/100 69/105/101
f 69/105/101 66/102/100 67/103/95 68/104/88
f 43/79/97 71/107/102 53/89/103
f 53/89/103 71/107/102 72/108/104 54/90/105
f 54/90/105 72/108/104 73/109/91 55/91/82
f 43/79/97 50/86/106 46/82/107
f 46/82/107 50/86/106 51/87/108 45/81/109
f 45/81/109 51/87/108 52/88/78 44/80/77
f 68/104/88 67/103/95 88/124/96 91/127/89
f 43/79/97 47/83/110 61/97/111
f 61/97/111 47/83/110 48/84/112 60/96/113
f 60/96/113 48/84/112 49/85/74 59/95/73
f 43/79/97 46/82/107 47/83/110
f 47/83/110 46/82/107 45/81/109 48/84/112
f 48/84/112 45/81/109 44/80/77 49/85/74
f 43/79/97 53/89/103 56/92/114
f 56/92/114 53/89/103 54/90/105 57/93/115
f 57/93/115 54/90/105 55/91/82 58/94/81
f 49/85/74 44/80/77 86/122/80 85/121/75
f 43/79/97 56/92/114 50/86/106
f 50/86/106 56/92/114 57/93/115 51/87/108
f 51/87/108 57/93/115 58/94/81 52/88/78
f 43/79/97 70/106/99 74/110/116
f 74/110/116 70/106/99 69/105/101 75/111/117
f 75/111/117 69/105/101 68/104/88 76/112/87
f 52/88/78 58/94/81 94/130/84 93/129/79
f 43/79/97 74/110/116 77/113/118
f 77/113/118 74/110/116 75/111/117 78/114/119
f 78/114/119 75/111/117 76/112/87 79/115/92
f 43/79/97 77/113/118 71/107/102
f 71/107/102 77/113/118 78/114/119 72/108/104
f 72/108/104 78/114/119 79/115/92 73/109/91
f 43/79/97 61/97/111 62/98/120
f 62/98/120 61/97/111 60/96/113 63/99/121
f 63/99/121 60/96/113 59/95/73 64/100/85
f 81/117/122 97/133/122 84/120/122 82/118/122
f 43/79/97 62/98/120 65/101/98
f 65/101/98 62/98/120 63/99/121 66/102/100
f 66/102/100 63/99/121 64/100/85 67/103/95
f 104/140/123 105/142/124 83/119/83 80/116/94
f 106/144/125 107/146/126 91/127/89 88/124/96
f 108/148/127 109/150/128 85/121/75 86/122/80
f 110/152/129 111/154/130 93/129/79 94/130/84
f 112/156/131 113/158/132 103/139/93 100/136/90
f 114/160/133 115/162/134 99/135/86 96/132/76
f 109/150/128 114/160/133 96/132/76 85/121/75
f 111/154/130 108/148/127 86/122/80 93/129/79
f 105/142/124 110/152/129 94/130/84 83/119/83
f 107/146/126 112/156/131 100/136/90 91/127/89
f 113/158/132 104/140/123 80/116/94 103/139/93
f 115/162/134 106/144/125 88/124/96 99/135/86
f 55/91/82 73/109/91 80/116/94 83/119/83
f 116/164/135 117/165/136 105/143/137 104/141/138
f 118/166/139 119/167/140 107/147/141 106/145/142
f 120/168/143 121/169/144 109/151/145 108/149/146
f 122/170/147 123/171/148 111/155/149 110/153/150
f 124/172/151 125/173/152 113/159/153 112/157/154
f 126/174/155 127/175/156 115/163/157 114/161/158
f 121/169/144 126/174/155 114/161/158 109/151/145
f 123/171/148 120/168/143 108/149/146 111/155/149
f 117/165/136 122/170/147 110/153/150 105/143/137
f 119/167/140 124/172/151 112/157/154 107/147/141
f 125/173/152 116/164/135 104/141/138 113/159/153
f 127/175/156 118/166/139 106/145/142 115/163/157
f 98/134/159 89/125/160 118/166/139 127/175/156
f 102/138/161 81/117/162 116/164/135 125/173/152
f 90/126/163 101/137/164 124/172/151 119/167/140
f 82/118/165 95/131/166 122/170/147 117/165/136
f 92/128/167 87/123/168 120/168/143 123/171/148
f 84/120/169 97/133/170 126/174/155 121/169/144
f 97/133/170 98/134/159 127/175/156 126/174/155
f 101/137/164 102/138/161 125/173/152 124/172/151
f 95/131/166 92/128/167 123/171/148 122/170/147
f 87/123/168 84/120/169 121/169/144 120/168/143
f 89/125/160 90/126/163 119/167/140 118/166/139
f 81/117/162 82/118/165 117/165/136 116/164/135
f 5/7/25 26/41/28 28/43/35 2/2/34
f 129/177/171 14/18/55 18/24/29 133/183/48
f 130/179/172 15/19/54 14/18/55 129/177/171
f 13/17/31 128/176/52 132/182/49 17/23/30
f 131/180/51 16/21/32 15/20/54 130/178/172
f 3/3/173 1/1/33 25/39/36 30/45/45
f 3/4/173 30/46/45 29/44/38 4/5/174
f 4/5/174 29/44/38 27/42/27 6/8/26
f 102/138/122 98/134/122 97/133/122 81/117/122
f 98/134/122 102/138/122 101/137/122 89/125/122
f 89/125/122 101/137/122 90/126/122
f 95/131/122 87/123/122 92/128/122
f 82/118/122 84/120/122 87/123/122 95/131/122
f 143/196/175 134/184/176 137/188/177 140/192/178
f 141/193/179 145/199/180 136/187/181 138/189/182
f 142/195/183 141/193/179 138/189/182 139/190/184
f 36/54/185 136/187/186 135/186/187 35/53/188
f 143/196/175 142/194/183 139/191/184 134/184/176
f 140/192/178 137/188/177 135/185/189 144/197/190
f 128/176/52 140/192/191 144/197/50 132/182/49
f 131/180/51 130/178/172 142/194/192 143/196/193
f 130/179/172 129/177/171 141/193/194 142/195/192
f 129/177/171 133/183/48 145/199/47 141/193/194
f 131/180/51 143/196/193 140/192/191 128/176/52
f 136/187/181 145/199/180 144/198/190 135/186/189
