# Blender 3.4.0
# www.blender.org
mtllib mushroom_n_2.mtl
o mushroom_n_2
v 0.009381 0.053204 -0.210000
v -0.041385 0.034726 -0.210000
v 0.050766 0.018477 -0.210000
v 0.041385 -0.034726 -0.210000
v -0.050766 -0.018477 -0.210000
v -0.009381 -0.053204 -0.210000
v -0.061414 -0.022353 -0.014000
v 0.061414 0.022353 -0.014000
v 0.011349 0.064363 -0.014000
v 0.050065 -0.042010 -0.014000
v -0.050065 0.042010 -0.014000
v -0.011349 -0.064363 -0.014000
v 0.011727 0.066505 -0.105000
v -0.063458 -0.023097 -0.105000
v -0.051731 0.043408 -0.105000
v 0.051731 -0.043408 -0.105000
v 0.063458 0.023097 -0.105000
v -0.011727 -0.066505 -0.105000
v -0.054499 0.045730 -0.052500
v 0.054499 -0.045730 -0.052500
v 0.066853 0.024332 -0.052500
v 0.012354 0.070062 -0.052500
v -0.066853 -0.024332 -0.052500
v -0.012354 -0.070062 -0.052500
v -0.050766 -0.018477 0.000000
v 0.050766 0.018477 0.000000
v 0.009381 0.053204 0.000000
v 0.041385 -0.034726 0.000000
v -0.041385 0.034726 0.000000
v -0.009381 -0.053204 0.000000
v 0.000874 -0.002402 -0.287973
v 0.023148 0.128165 -0.238465
v 0.019038 0.102712 -0.263988
v 0.012674 0.065205 -0.280523
v 0.044769 0.050247 -0.279801
v 0.068780 0.079529 -0.262870
v 0.084680 0.099488 -0.237081
v -0.022608 0.062115 -0.280787
v -0.035641 0.097922 -0.264398
v -0.044492 0.122240 -0.238972
v -0.066593 0.009714 -0.279801
v -0.103809 0.016712 -0.262870
v -0.128818 0.021781 -0.237081
v -0.051622 0.041804 -0.280523
v -0.080606 0.066444 -0.263988
v -0.100115 0.083301 -0.238465
v 0.123617 0.043892 -0.235191
v 0.100255 0.034587 -0.261342
v 0.065079 0.021248 -0.278815
v 0.068161 -0.014022 -0.277829
v 0.105032 -0.020073 -0.259813
v 0.129525 -0.023724 -0.233301
v 0.053189 -0.046111 -0.277107
v 0.081829 -0.069805 -0.258695
v 0.100822 -0.085244 -0.231917
v 0.045199 -0.124184 -0.231410
v 0.036864 -0.101283 -0.258285
v 0.024176 -0.066422 -0.276843
v -0.063511 -0.025555 -0.278815
v -0.099032 -0.037948 -0.261342
v -0.122909 -0.045836 -0.235191
v -0.011106 -0.069513 -0.277107
v -0.017815 -0.106072 -0.258695
v -0.022441 -0.130108 -0.231917
v -0.043201 -0.054554 -0.277829
v -0.067556 -0.082890 -0.259813
v -0.083972 -0.101431 -0.233301
v -0.130130 -0.047669 -0.209285
v -0.056599 -0.020754 -0.204344
v -0.059314 0.010320 -0.205213
v -0.136373 0.023768 -0.211282
v 0.038803 0.046032 -0.205213
v 0.089190 0.105866 -0.211282
v 0.024181 0.136164 -0.212744
v 0.010525 0.059211 -0.205849
v 0.106244 -0.089305 -0.205826
v 0.046222 -0.038865 -0.202839
v 0.020659 -0.056761 -0.202607
v 0.047478 -0.130444 -0.205291
v -0.020560 0.056489 -0.206082
v -0.047281 0.129904 -0.213280
v -0.106048 0.088765 -0.212744
v -0.046123 0.038593 -0.205849
v 0.130327 0.047129 -0.209285
v 0.056698 0.020482 -0.204344
v 0.059413 -0.010592 -0.203475
v 0.136569 -0.024308 -0.207288
v -0.023984 -0.136704 -0.205826
v -0.010426 -0.059484 -0.202839
v -0.038704 -0.046304 -0.203475
v -0.088993 -0.106406 -0.207288
v -0.124698 -0.045540 -0.204344
v -0.130677 0.022890 -0.206257
v 0.101728 -0.085423 -0.201031
v 0.045435 -0.124831 -0.200518
v 0.023118 0.130555 -0.207658
v 0.085391 0.101533 -0.206257
v -0.101629 0.085151 -0.207658
v -0.045336 0.124559 -0.208170
v -0.023019 -0.130827 -0.201031
v -0.085292 -0.101805 -0.202431
v 0.124797 0.045268 -0.204344
v 0.130776 -0.023162 -0.202431
v -0.090648 -0.033147 -0.194344
v -0.094996 0.016605 -0.195735
v 0.073975 -0.062144 -0.191935
v 0.033047 -0.090796 -0.191562
v 0.016822 0.094883 -0.196753
v 0.062097 0.073783 -0.195735
v -0.073876 0.061872 -0.196753
v -0.032948 0.090524 -0.197126
v -0.016723 -0.095155 -0.191935
v -0.061998 -0.074055 -0.192953
v 0.090747 0.032875 -0.194344
v 0.095095 -0.016877 -0.192953
vn -0.1735 -0.9841 0.0389
vn -0.1601 -0.9077 0.3879
vn -0.8661 -0.3152 0.3879
vn -0.9390 -0.3418 0.0393
vn 0.7061 -0.5925 0.3879
vn 0.3718 -0.3120 0.8743
vn -0.0843 -0.4780 0.8743
vn 0.7598 -0.6375 -0.1276
vn 0.7624 -0.6397 -0.0972
vn -0.1728 -0.9801 -0.0972
vn -0.1722 -0.9768 -0.1276
vn 0.7655 -0.6423 0.0389
vn 0.9390 0.3418 0.0389
vn 0.8661 0.3152 0.3879
vn -0.7654 0.6423 0.0395
vn -0.7061 0.5925 0.3879
vn 0.1735 0.9840 0.0393
vn 0.1601 0.9077 0.3879
vn -0.4561 -0.1660 0.8743
vn -0.3718 0.3120 0.8743
vn 0.9320 0.3392 -0.1276
vn 0.1722 0.9768 -0.1276
vn 0.1728 0.9801 -0.0972
vn 0.9352 0.3404 -0.0972
vn -0.7598 0.6375 -0.1276
vn -0.7624 0.6397 -0.0978
vn -0.9320 -0.3392 -0.1276
vn -0.9352 -0.3404 -0.0978
vn 0.0843 0.4780 0.8743
vn 0.4561 0.1660 0.8743
vn 0.8280 0.2866 -0.4819
vn 0.5680 0.6579 -0.4946
vn 0.6167 0.7451 0.2542
vn 0.9026 0.3368 0.2681
vn 0.1570 0.8494 -0.5038
vn -0.2948 0.8099 -0.5072
vn -0.3320 0.9121 0.2403
vn 0.1648 0.9557 0.2441
vn -0.6663 0.5498 -0.5038
vn -0.8580 0.1389 -0.4946
vn -0.9513 0.1744 0.2542
vn -0.7405 0.6262 0.2441
vn 0.8675 -0.1650 -0.4693
vn 0.9460 -0.1598 0.2820
vn -0.1475 -0.8755 -0.4601
vn 0.3043 -0.8360 -0.4567
vn 0.3267 -0.8976 0.2959
vn -0.1700 -0.9411 0.2921
vn -0.8185 -0.3127 -0.4819
vn -0.5585 -0.6840 -0.4693
vn -0.6219 -0.7305 0.2820
vn -0.9079 -0.3222 0.2681
vn 0.6758 -0.5759 -0.4601
vn 0.7352 -0.6116 0.2921
vn 0.0099 -0.0271 -0.9996
vn 0.2415 -0.2205 -0.9450
vn 0.1130 -0.3104 -0.9439
vn 0.4680 -0.4076 -0.7841
vn 0.2133 -0.5859 -0.7818
vn -0.2753 -0.1294 -0.9526
vn -0.2890 0.0267 -0.9570
vn -0.5566 -0.2271 -0.7991
vn -0.5837 0.0825 -0.8078
vn -0.0942 0.2588 -0.9613
vn 0.0620 0.2725 -0.9602
vn -0.1975 0.5426 -0.8164
vn 0.1123 0.5698 -0.8141
vn 0.2042 0.2062 -0.9570
vn 0.2941 0.0778 -0.9526
vn 0.3941 0.4384 -0.8078
vn 0.5724 0.1838 -0.7991
vn -0.2227 0.1689 -0.9602
vn -0.4522 0.3643 -0.8141
vn -0.0433 -0.3241 -0.9450
vn -0.0965 -0.6131 -0.7841
vn -0.1854 -0.2579 -0.9482
vn -0.3783 -0.4817 -0.7904
vn 0.3078 -0.0784 -0.9482
vn 0.5995 -0.1259 -0.7904
vn -0.6150 -0.2005 0.7626
vn -0.6442 0.1328 0.7533
vn 0.4877 -0.3947 0.7787
vn 0.2135 -0.5866 0.7812
vn 0.1048 0.6571 0.7465
vn 0.4081 0.5158 0.7533
vn -0.5027 0.4360 0.7465
vn -0.2285 0.6279 0.7440
vn -0.1199 -0.6158 0.7787
vn -0.4231 -0.4745 0.7719
vn 0.6000 0.2418 0.7626
vn 0.6291 -0.0915 0.7719
vn -0.0514 0.0118 0.9986
vn -0.0524 0.0344 0.9980
vn -0.2704 0.0723 0.9600
vn -0.2595 -0.0646 0.9636
vn 0.0253 -0.0026 0.9997
vn 0.0060 -0.0164 0.9998
vn 0.0821 -0.2256 0.9708
vn 0.1956 -0.1457 0.9698
vn -0.0024 0.0689 0.9976
vn 0.0180 0.0601 0.9980
vn 0.1606 0.2292 0.9600
vn 0.0363 0.2863 0.9575
vn -0.0424 0.0543 0.9976
vn -0.0243 0.0667 0.9975
vn -0.0998 0.2741 0.9565
vn -0.2118 0.1960 0.9575
vn -0.0178 -0.0182 0.9997
vn -0.0388 -0.0077 0.9992
vn -0.1813 -0.1782 0.9672
vn -0.0561 -0.2374 0.9698
vn 0.0318 0.0421 0.9986
vn 0.0347 0.0191 0.9992
vn 0.2534 -0.0200 0.9672
vn 0.2403 0.1173 0.9636
vn -0.2705 0.0717 0.9601
vn -0.2120 0.1957 0.9575
vn 0.1611 0.2288 0.9601
vn 0.2405 0.1167 0.9636
vn 0.0366 0.2862 0.9575
vn 0.2533 -0.0206 0.9672
vn 0.1954 -0.1460 0.9698
vn -0.0558 -0.2374 0.9698
vn -0.1808 -0.1786 0.9672
vn -0.2592 -0.0653 0.9636
vn -0.0099 0.0271 0.9996
vt 0.417969 1.000000
vt 0.332031 1.000000
vt 0.500000 1.000000
vt 0.250000 1.000000
vt 0.332031 1.000000
vt 0.250000 1.000000
vt 0.500000 1.000000
vt 0.417969 1.000000
vt 0.250000 0.692708
vt 0.500000 0.692708
vt 0.500000 0.692708
vt 0.250000 0.692708
vt 0.417969 0.692708
vt 0.332031 0.692708
vt 0.332031 0.692708
vt 0.417969 0.692708
vt 0.417969 0.833333
vt 0.250000 0.833333
vt 0.500000 0.833333
vt 0.332031 0.833333
vt 0.332031 0.833333
vt 0.500000 0.833333
vt 0.250000 0.833333
vt 0.417969 0.833333
vt 0.332031 0.755208
vt 0.332031 0.755208
vt 0.500000 0.755208
vt 0.250000 0.755208
vt 0.417969 0.755208
vt 0.250000 0.755208
vt 0.500000 0.755208
vt 0.417969 0.755208
vt 0.250000 0.666667
vt 0.384773 0.124833
vt 0.500000 0.666667
vt 0.367964 0.208475
vt 0.500000 0.666667
vt 0.250000 0.666667
vt 0.345002 0.177860
vt 0.417969 0.666667
vt 0.399329 0.197269
vt 0.332031 0.666667
vt 0.353407 0.136039
vt 0.332031 0.666667
vt 0.407734 0.155448
vt 0.417969 0.666667
vt 0.375177 0.500008
vt 0.436881 0.419389
vt 0.417926 0.445654
vt 0.400914 0.468012
vt 0.409458 0.489460
vt 0.432566 0.481443
vt 0.458811 0.471336
vt 0.385470 0.455136
vt 0.391816 0.424419
vt 0.398374 0.389002
vt 0.351191 0.465692
vt 0.334423 0.443027
vt 0.314719 0.417798
vt 0.367270 0.454290
vt 0.361246 0.423471
vt 0.353636 0.388462
vt 0.458348 0.530911
vt 0.431833 0.522185
vt 0.408816 0.513730
vt 0.399164 0.534323
vt 0.415932 0.556989
vt 0.435635 0.582217
vt 0.383085 0.545725
vt 0.389109 0.576545
vt 0.396719 0.611553
vt 0.351981 0.611013
vt 0.358539 0.575596
vt 0.364885 0.544879
vt 0.341538 0.486285
vt 0.318522 0.477830
vt 0.292007 0.469104
vt 0.349441 0.532003
vt 0.332428 0.554362
vt 0.313474 0.580626
vt 0.340897 0.510555
vt 0.317788 0.518573
vt 0.291544 0.528679
vt 0.263942 0.460203
vt 0.362521 0.097484
vt 0.338472 0.115997
vt 0.293729 0.391391
vt 0.362521 0.235667
vt 0.486470 0.460362
vt 0.456747 0.391426
vt 0.338472 0.217154
vt 0.405011 0.648454
vt 0.428224 0.185088
vt 0.428224 0.148062
vt 0.345277 0.648552
vt 0.324587 0.185088
vt 0.405077 0.351464
vt 0.345344 0.351561
vt 0.324587 0.148062
vt 0.486413 0.539813
vt 0.390290 0.235667
vt 0.414339 0.217154
vt 0.456626 0.608625
vt 0.293608 0.608589
vt 0.414339 0.115997
vt 0.390290 0.097484
vt 0.263885 0.539653
vt 0.255851 0.457096
vt 0.345829 0.014426
vt 0.287878 0.383310
vt 0.292870 0.055195
vt 0.407054 0.659365
vt 0.490517 0.207343
vt 0.342941 0.659365
vt 0.490517 0.125807
vt 0.462830 0.383636
vt 0.292870 0.277956
vt 0.494647 0.457669
vt 0.345829 0.318724
vt 0.343301 0.340650
vt 0.262294 0.125807
vt 0.407414 0.340650
vt 0.262294 0.207343
vt 0.287525 0.616379
vt 0.459941 0.055194
vt 0.255708 0.542347
vt 0.406981 0.014426
vt 0.494504 0.542919
vt 0.406981 0.318724
vt 0.462477 0.616705
vt 0.459941 0.277956
vt 0.354175 0.055955
vt 0.315671 0.085596
vt 0.459371 0.196216
vt 0.459370 0.136935
vt 0.315671 0.247555
vt 0.354175 0.277195
vt 0.293440 0.136935
vt 0.293440 0.196216
vt 0.437140 0.085596
vt 0.398636 0.055955
vt 0.398636 0.277195
vt 0.437140 0.247555
s 1
usemtl mushrooms_n_1
f 24/32/1 12/16/2 7/10/3 23/31/4
f 10/14/5 28/42/6 30/46/7 12/16/2
f 4/5/8 16/21/9 18/24/10 6/8/11
f 20/26/12 21/28/13 8/12/14 10/14/5
f 19/25/15 23/30/4 7/9/3 11/15/16
f 21/27/13 22/29/17 9/13/18 8/11/14
f 11/15/16 7/9/3 25/33/19 29/44/20
f 3/3/21 1/1/22 13/17/23 17/22/24
f 18/24/10 16/21/9 20/26/12 24/32/1
f 1/1/22 2/2/25 15/20/26 13/17/23
f 5/6/27 14/18/28 15/20/26 2/2/25
f 3/4/21 17/23/24 16/21/9 4/5/8
f 5/7/27 6/8/11 18/24/10 14/19/28
f 17/22/24 13/17/23 22/29/17 21/27/13
f 24/32/1 20/26/12 10/14/5 12/16/2
f 13/17/23 15/20/26 19/25/15 22/29/17
f 15/20/26 14/18/28 23/30/4 19/25/15
f 16/21/9 17/23/24 21/28/13 20/26/12
f 14/19/28 18/24/10 24/32/1 23/31/4
f 27/39/29 29/43/20 25/34/19 30/45/7 28/41/6 26/36/30
f 8/11/14 9/13/18 27/40/29 26/37/30
f 8/12/14 26/38/30 28/42/6 10/14/5
f 7/10/3 12/16/2 30/46/7 25/35/19
f 9/13/18 11/15/16 29/44/20 27/40/29
f 47/63/31 37/53/32 73/89/33 84/100/34
f 32/48/35 40/56/36 81/97/37 74/90/38
f 46/62/39 43/59/40 71/87/41 82/98/42
f 52/68/43 47/63/31 84/100/34 87/103/44
f 64/80/45 56/72/46 79/95/47 88/104/48
f 61/77/49 67/83/50 91/107/51 68/84/52
f 67/83/50 64/80/45 88/104/48 91/107/51
f 55/71/53 52/68/43 87/103/44 76/92/54
f 31/47/55 53/69/56 58/74/57
f 58/74/57 53/69/56 54/70/58 57/73/59
f 57/73/59 54/70/58 55/71/53 56/72/46
f 31/47/55 59/75/60 41/57/61
f 41/57/61 59/75/60 60/76/62 42/58/63
f 42/58/63 60/76/62 61/77/49 43/59/40
f 31/47/55 38/54/64 34/50/65
f 34/50/65 38/54/64 39/55/66 33/49/67
f 33/49/67 39/55/66 40/56/36 32/48/35
f 56/72/46 55/71/53 76/92/54 79/95/47
f 31/47/55 35/51/68 49/65/69
f 49/65/69 35/51/68 36/52/70 48/64/71
f 48/64/71 36/52/70 37/53/32 47/63/31
f 31/47/55 34/50/65 35/51/68
f 35/51/68 34/50/65 33/49/67 36/52/70
f 36/52/70 33/49/67 32/48/35 37/53/32
f 31/47/55 41/57/61 44/60/72
f 44/60/72 41/57/61 42/58/63 45/61/73
f 45/61/73 42/58/63 43/59/40 46/62/39
f 37/53/32 32/48/35 74/90/38 73/89/33
f 31/47/55 44/60/72 38/54/64
f 38/54/64 44/60/72 45/61/73 39/55/66
f 39/55/66 45/61/73 46/62/39 40/56/36
f 31/47/55 58/74/57 62/78/74
f 62/78/74 58/74/57 57/73/59 63/79/75
f 63/79/75 57/73/59 56/72/46 64/80/45
f 40/56/36 46/62/39 82/98/42 81/97/37
f 31/47/55 62/78/74 65/81/76
f 65/81/76 62/78/74 63/79/75 66/82/77
f 66/82/77 63/79/75 64/80/45 67/83/50
f 31/47/55 65/81/76 59/75/60
f 59/75/60 65/81/76 66/82/77 60/76/62
f 60/76/62 66/82/77 67/83/50 61/77/49
f 31/47/55 49/65/69 50/66/78
f 50/66/78 49/65/69 48/64/71 51/67/79
f 51/67/79 48/64/71 47/63/31 52/68/43
f 31/47/55 50/66/78 53/69/56
f 53/69/56 50/66/78 51/67/79 54/70/58
f 54/70/58 51/67/79 52/68/43 55/71/53
f 92/108/80 93/110/81 71/87/41 68/84/52
f 94/112/82 95/114/83 79/95/47 76/92/54
f 96/116/84 97/118/85 73/89/33 74/90/38
f 98/120/86 99/122/87 81/97/37 82/98/42
f 100/124/88 101/126/89 91/107/51 88/104/48
f 102/128/90 103/130/91 87/103/44 84/100/34
f 97/118/85 102/128/90 84/100/34 73/89/33
f 99/122/87 96/116/84 74/90/38 81/97/37
f 93/110/81 98/120/86 82/98/42 71/87/41
f 95/114/83 100/124/88 88/104/48 79/95/47
f 101/126/89 92/108/80 68/84/52 91/107/51
f 103/130/91 94/112/82 76/92/54 87/103/44
f 43/59/40 61/77/49 68/84/52 71/87/41
f 104/132/92 105/133/93 93/111/94 92/109/95
f 106/134/96 107/135/97 95/115/98 94/113/99
f 108/136/100 109/137/101 97/119/102 96/117/103
f 110/138/104 111/139/105 99/123/106 98/121/107
f 112/140/108 113/141/109 101/127/110 100/125/111
f 114/142/112 115/143/113 103/131/114 102/129/115
f 109/137/101 114/142/112 102/129/115 97/119/102
f 111/139/105 108/136/100 96/117/103 99/123/106
f 105/133/93 110/138/104 98/121/107 93/111/94
f 107/135/97 112/140/108 100/125/111 95/115/98
f 113/141/109 104/132/92 92/109/95 101/127/110
f 115/143/113 106/134/96 94/113/99 103/131/114
f 86/102/116 77/93/117 106/134/96 115/143/113
f 90/106/118 69/85/119 104/132/92 113/141/109
f 78/94/106 89/105/120 112/140/108 107/135/97
f 70/86/121 83/99/122 110/138/104 105/133/93
f 80/96/98 75/91/123 108/136/100 111/139/105
f 72/88/124 85/101/125 114/142/112 109/137/101
f 85/101/125 86/102/116 115/143/113 114/142/112
f 89/105/120 90/106/118 113/141/109 112/140/108
f 83/99/122 80/96/98 111/139/105 110/138/104
f 75/91/123 72/88/124 109/137/101 108/136/100
f 77/93/117 78/94/106 107/135/97 106/134/96
f 69/85/119 70/86/121 105/133/93 104/132/92
f 19/25/15 11/15/16 9/13/18 22/29/17
f 89/105/126 78/94/126 77/93/126
f 77/93/126 86/102/126 85/101/126
f 90/106/126 89/105/126 77/93/126 69/85/126
f 75/91/126 80/96/126 83/99/126
f 83/99/126 70/86/126 69/85/126
f 72/88/126 75/91/126 77/93/126 85/101/126
f 83/99/126 69/85/126 77/93/126 75/91/126
