# Blender 3.4.0
# www.blender.org
mtllib stone_1.mtl
o stone_1
v -0.278417 0.512257 -0.506613
v -0.811912 0.018022 -0.058762
v 0.262508 -0.491642 -0.598489
v -0.191142 -0.373589 -0.472778
v -0.279343 0.584731 -0.147675
v -0.674233 0.402862 -0.299376
v 0.068898 -0.038205 -0.712914
v 0.269801 0.340738 -0.433307
v 0.658170 -0.082798 -0.198180
v 0.365408 -0.751136 -0.349555
v 0.589539 -0.313368 -0.497205
v 0.243446 0.336926 -0.185311
v 0.665503 -0.492830 -0.272065
v -0.600199 -0.199896 -0.216198
v -0.305593 0.584034 -0.340378
v -0.313249 0.481645 0.022226
v -0.510059 0.503891 -0.419813
v -0.783781 0.234595 -0.173488
v -0.119780 0.289275 -0.629127
v -0.359979 -0.432355 0.028911
v 0.596437 -0.166411 0.035892
v 0.067245 0.374115 -0.593594
v 0.606644 -0.030767 -0.427855
v 0.315538 -0.778341 -0.022891
v -0.431952 0.384282 0.050520
v -0.681946 0.094484 0.024986
v 0.419695 -0.355702 -0.597903
v 0.626665 -0.162119 -0.457276
v 0.449487 -0.661311 0.044166
v 0.575229 -0.320024 0.077523
v -0.298754 0.124353 -0.322429
v -0.033137 -0.163958 -0.518929
v 0.404522 -0.014835 -0.644310
v 0.271114 -0.020434 -0.705735
v 0.427510 0.098325 -0.048808
v 0.490631 0.165311 -0.222775
v -0.113898 -0.611145 -0.246594
v -0.637446 0.505894 -0.168706
v -0.559683 0.494861 -0.053781
v -0.532450 0.574798 -0.210512
v -0.285208 0.196488 0.094901
v -0.118649 -0.340145 0.100808
v 0.707468 -0.302630 -0.230364
v 0.645363 -0.543881 -0.091160
v 0.542031 -0.647606 -0.346088
v -0.016694 0.502399 -0.357975
v -0.721448 0.346579 -0.097973
v 0.699949 -0.346350 -0.060348
v 0.530953 -0.701665 -0.125803
vn -0.0988 0.6996 -0.7076
vn -0.5245 0.1567 -0.8369
vn -0.4283 0.4029 -0.8089
vn -0.6485 0.0201 -0.7610
vn -0.4027 0.0777 -0.9120
vn -0.7568 -0.2408 -0.6076
vn 0.2646 0.6419 -0.7196
vn 0.5666 0.2576 -0.7827
vn 0.2567 0.1023 -0.9610
vn 0.8267 0.4275 -0.3658
vn 0.5787 0.7724 -0.2618
vn 0.0362 0.9730 -0.2279
vn 0.1692 0.9368 0.3062
vn 0.3767 0.9190 -0.1162
vn 0.5103 0.5822 0.6330
vn 0.7148 0.6828 0.1515
vn 0.4881 0.8002 0.3485
vn -0.5181 -0.6272 0.5816
vn -0.9514 -0.2637 0.1588
vn -0.9614 0.1611 -0.2230
vn -0.5303 -0.7666 -0.3621
vn -0.2274 -0.3973 -0.8891
vn 0.0037 -0.6536 -0.7568
vn -0.1128 -0.9001 -0.4208
vn -0.3610 0.9325 0.0137
vn -0.3935 0.6533 0.6468
vn -0.6955 0.7116 0.0993
vn -0.7736 0.4357 0.4601
vn -0.0106 0.1224 0.9924
vn -0.0878 -0.1684 0.9818
vn 0.4353 -0.0386 0.8995
vn -0.2187 0.3046 0.9270
vn -0.4764 0.0574 0.8773
vn 0.6130 0.3392 0.7136
vn 0.0896 0.6217 0.7781
vn 0.3813 -0.2843 -0.8797
vn 0.7183 -0.1902 -0.6693
vn 0.6120 -0.6578 -0.4391
vn 0.9201 -0.0649 0.3863
vn -0.2504 -0.3589 -0.8991
vn -0.3381 0.0397 -0.9403
vn 0.8599 0.1068 -0.4992
vn 0.8995 0.4185 0.1254
vn -0.0178 -0.8948 0.4461
vn 0.3345 -0.4890 0.8056
vn 0.9959 0.0216 -0.0873
vn 0.9004 -0.3544 -0.2522
vn 0.8450 -0.4401 0.3039
vn 0.6183 -0.7758 0.1259
vt 0.600041 0.810620
vt 0.530375 0.942775
vt 0.021018 0.024673
vt 0.000000 0.997429
vt 0.877302 0.000000
vt 0.877539 0.972382
vt 0.227435 0.709958
vt 0.351050 0.522569
vt 0.847774 0.489399
vt 0.851383 0.504506
vt 0.531003 0.528066
vt 0.035288 0.673930
vt 0.885332 0.663488
vt 0.880092 0.315011
vt 0.154049 0.009291
vt 0.135147 1.000000
vt 0.705039 0.945309
vt 0.092434 0.839765
vt 0.733081 0.599098
vt 0.535225 0.685159
vt 0.384756 0.765158
vt 0.071507 0.250071
vt 0.182678 0.432913
vt 0.181663 0.709958
vt 0.709061 0.504506
vt 0.391658 0.538254
vt 0.093459 0.540559
vt 0.159534 0.227918
vt 0.192186 0.567764
vt 0.892578 0.854359
vt 0.870081 0.131546
vt 0.089944 0.002985
vt 0.070571 0.997689
vt 0.233390 0.020207
vt 0.218540 0.988666
vt 0.596452 0.448621
vt 0.640429 0.892133
vt 0.042677 0.912108
vt 0.787021 0.974166
vt 0.155544 0.773598
vt 0.531042 0.845517
vt 0.636875 0.717211
vt 0.725542 0.184608
vt 0.327275 0.287437
vt 0.597113 0.072064
vt 0.270663 0.429405
vt 0.457630 0.821355
vt 0.022711 0.146511
vt 0.325502 0.610002
vt 0.095756 0.428364
vt 0.361443 0.018136
vt 0.314752 0.705595
vt 0.606837 0.434505
vt 0.249708 0.921657
vt 0.545416 0.476998
vt 0.237992 0.786625
vt 0.421074 0.493307
vt 0.452005 0.522569
vt 0.038812 0.590739
vt 0.350111 0.571439
vt 0.095955 0.481945
vt 0.425830 0.000503
vt 0.324152 0.632857
vt 0.548531 0.033919
vt 0.308102 0.494655
vt 0.754613 0.780360
vt 0.817548 0.634821
vt 0.415255 0.639737
vt 0.469590 0.659920
vt 0.229142 0.327644
vt 0.156770 0.341118
vt 0.754450 0.317083
vt 0.137686 0.880410
vt 0.183158 0.900735
vt 0.119639 0.925896
vt 0.522009 0.383839
vt 0.406642 0.229396
vt 0.189801 0.505690
vt 0.251941 0.572304
vt 0.181855 0.628721
vt 0.088860 0.118576
vt 0.169921 0.826414
vt 0.244083 0.507842
vt 0.255909 0.636704
s 1
usemtl stone_1
f 1/1/1 19/42/2 17/37/3
f 6/17/4 31/66/5 14/30/6
f 22/47/7 19/41/2 1/2/1
f 33/68/8 34/69/9 22/47/7
f 23/49/10 33/68/8 8/21/11
f 15/32/12 5/15/13 46/81/14
f 35/70/15 36/71/16 12/28/17
f 8/22/11 36/71/16 23/50/10
f 12/28/17 36/71/16 8/22/11
f 14/31/6 20/43/18 2/5/19
f 18/39/20 6/17/4 14/30/6 2/6/19
f 37/72/21 4/14/22 3/9/23 10/25/24
f 40/75/25 5/16/13 15/33/12
f 39/74/26 38/73/27 47/82/28
f 41/76/29 42/77/30 30/64/31
f 25/55/32 26/57/33 41/76/29
f 20/44/18 42/77/30 26/57/33
f 30/64/31 21/45/34 16/36/35
f 27/59/36 11/27/37 45/80/38
f 45/80/38 10/24/24 3/12/23
f 48/83/39 21/46/34 30/65/31
f 7/19/40 3/10/23 32/67/41
f 3/10/23 4/13/22 32/67/41
f 14/30/6 31/66/5 32/67/41 4/13/22
f 31/66/5 19/42/2 7/19/40 32/67/41
f 7/20/40 19/41/2 22/47/7 34/69/9
f 8/21/11 33/68/8 22/47/7
f 34/69/9 27/58/36 3/11/23 7/20/40
f 23/49/10 28/60/42 33/68/8
f 28/60/42 11/26/37 33/68/8
f 33/68/8 11/26/37 27/58/36 34/69/9
f 46/81/14 22/48/7 1/3/1 15/32/12
f 12/28/17 8/22/11 46/81/14 5/15/13
f 12/28/17 5/15/13 16/34/35 35/70/15
f 22/48/7 46/81/14 8/22/11
f 9/23/43 36/71/16 35/70/15 21/46/34
f 16/34/35 21/46/34 35/70/15
f 6/17/4 17/37/3 19/42/2 31/66/5
f 36/71/16 9/23/43 23/50/10
f 4/14/22 37/72/21 14/31/6
f 14/31/6 37/72/21 20/43/18
f 24/53/44 20/43/18 37/72/21
f 15/33/12 1/4/1 17/38/3 40/75/25
f 40/75/25 17/38/3 6/18/4 38/73/27
f 18/40/20 2/7/19 26/56/33 47/82/28
f 47/82/28 26/56/33 25/54/32 39/74/26
f 6/18/4 18/40/20 47/82/28 38/73/27
f 40/75/25 39/74/26 16/35/35 5/16/13
f 16/35/35 39/74/26 25/54/32
f 24/51/44 29/62/45 42/77/30 20/44/18
f 39/74/26 40/75/25 38/73/27
f 16/36/35 25/55/32 41/76/29
f 41/76/29 30/64/31 16/36/35
f 2/8/19 20/44/18 26/57/33
f 41/76/29 26/57/33 42/77/30
f 9/23/43 43/78/46 28/61/42 23/50/10
f 42/77/30 29/62/45 30/64/31
f 27/59/36 45/80/38 3/12/23
f 45/80/38 11/27/37 13/29/47
f 43/78/46 13/29/47 11/27/37 28/61/42
f 48/83/39 44/79/48 13/29/47 43/78/46
f 21/46/34 48/83/39 43/78/46 9/23/43
f 30/65/31 29/63/45 44/79/48 48/83/39
f 49/84/49 24/52/44 10/24/24 45/80/38
f 44/79/48 49/84/49 45/80/38 13/29/47
f 49/84/49 44/79/48 29/63/45
f 24/52/44 49/84/49 29/63/45
f 24/53/44 37/72/21 10/25/24
