# Blender 3.4.0
# www.blender.org
mtllib tree_1.mtl
o tree_1
v 0.648535 0.382576 0.171501
v -0.514453 -0.303481 0.171502
v 0.495584 0.521165 -3.579234
v -0.783941 0.089853 -3.579234
v 0.446992 0.578942 -3.043414
v 0.542296 0.433889 -2.507595
v 0.598758 0.441762 -1.971776
v -0.564230 -0.244295 -1.971776
v -0.737230 0.002578 -2.507595
v -0.832533 0.147630 -3.043414
v 0.706834 -0.063444 0.147582
v -0.552229 0.079924 0.169955
v 0.525882 -0.600695 -3.332418
v -0.735026 -0.718872 -3.283022
v 0.521253 -0.616869 -2.824794
v 0.561837 -0.405385 -2.341979
v 0.627946 -0.339088 -1.844946
v -0.631118 -0.195720 -1.822573
v -0.699072 -0.523562 -2.292583
v -0.739655 -0.735046 -2.775398
v 0.570762 0.152806 0.140129
v -0.385437 -0.020388 0.106468
v 1.083258 -0.387704 -2.484327
v 0.181391 -0.751088 -2.478361
v 0.962089 -0.408120 -2.095323
v 0.808513 -0.260306 -1.740285
v 0.702355 -0.213135 -1.362983
v -0.253844 -0.386329 -1.396644
v -0.093353 -0.623690 -1.734319
v 0.060223 -0.771504 -2.089357
v 0.583207 0.020382 -0.861444
v 0.576184 0.109358 -0.360816
v -0.380015 -0.063836 -0.394477
v -0.372992 -0.152812 -0.895105
v -0.078943 -0.512137 0.150958
v 0.031114 0.457986 0.098589
v -0.640539 -0.593502 -2.487142
v -0.729447 0.380110 -2.500144
v -0.616578 -0.566040 -2.097013
v -0.419466 -0.575254 -1.740085
v -0.332823 -0.603012 -1.360654
v -0.222767 0.367112 -1.413023
v -0.508374 0.398358 -1.753086
v -0.705486 0.407572 -2.110014
v -0.207942 -0.505260 -0.856783
v -0.121289 -0.514518 -0.352913
v -0.011232 0.455606 -0.405282
v -0.097886 0.464864 -0.909152
v -0.583286 -0.020888 0.178844
v 0.568032 0.090622 0.116801
v -0.262401 0.935856 -2.955171
v 0.843934 1.278789 -2.970574
v -0.423523 0.853218 -2.490205
v -0.482205 0.592595 -2.065997
v -0.578686 0.458798 -1.615283
v 0.572632 0.570308 -1.677326
v 0.624129 0.935528 -2.081401
v 0.682812 1.196151 -2.505608
v -0.607102 0.130294 -1.015056
v -0.596479 0.027597 -0.418106
v 0.554839 0.139106 -0.480149
v 0.544216 0.241804 -1.077098
v -0.105416 -0.593714 0.167000
v 0.182315 0.447358 0.109066
v -0.897177 -0.903228 -2.746315
v -0.826256 0.176003 -2.760698
v -0.858775 -0.763550 -2.316243
v -0.636149 -0.673287 -1.923175
v -0.537257 -0.581510 -1.505250
v -0.249526 0.459562 -1.563184
v -0.565228 0.405944 -1.937558
v -0.787854 0.315680 -2.330626
v -0.245188 -0.563930 -0.947833
v -0.152099 -0.589006 -0.390416
v 0.135632 0.452066 -0.448351
v 0.042542 0.477142 -1.005767
v 0.203932 -0.559567 0.195656
v -0.226033 0.442697 0.086033
v 1.109410 -0.434869 -2.713441
v 0.888436 0.637380 -2.767049
v 1.046843 -0.403188 -2.279822
v 0.813279 -0.468437 -1.892230
v 0.702373 -0.516762 -1.471879
v 0.272408 0.485502 -1.581503
v 0.592304 0.603812 -1.945838
v 0.825868 0.669060 -2.333430
v -0.403127 0.722761 0.260364
v 0.394569 -0.541052 0.133304
v -0.538418 0.975048 -3.902481
v -0.019987 -0.425220 -4.044483
v -0.603053 0.858843 -3.316299
v -0.446915 0.907738 -2.712430
v -0.459382 0.909090 -2.114006
v 0.338314 -0.354722 -2.241066
v 0.071516 -0.492529 -2.854432
v -0.084623 -0.541425 -3.458301
vn 0.5078 -0.8608 -0.0356
vn 0.4569 -0.8748 -0.1610
vn 0.4595 -0.8745 -0.1551
vn 0.3182 -0.9439 -0.0883
vn 0.3183 -0.9442 -0.0845
vn 0.3167 -0.9396 0.1300
vn 0.3492 -0.8908 -0.2906
vn 0.3553 -0.8888 -0.2894
vn -0.1096 -0.9840 0.1405
vn -0.0537 -0.9633 0.2629
vn -0.0564 -0.9647 0.2571
vn 0.0989 -0.9774 0.1867
vn 0.0988 -0.9781 0.1830
vn 0.0921 -0.9953 -0.0309
vn 0.0548 -0.9210 0.3857
vn 0.0485 -0.9218 0.3847
vn 0.1588 -0.9370 0.3111
vn 0.1887 -0.8771 0.4418
vn 0.1991 -0.8753 0.4408
vn 0.1584 -0.9356 0.3155
vn 0.3636 -0.8983 0.2466
vn 0.3563 -0.8790 0.3169
vn 0.3733 -0.9253 0.0677
vn 0.2824 -0.8438 0.4564
vn 0.2934 -0.8368 0.4622
vn 0.1746 -0.9808 0.0870
vn 0.1722 -0.9762 0.1323
vn 0.1723 -0.9765 0.1297
vn -0.9738 0.1209 0.1927
vn -0.9383 0.0758 0.3375
vn -0.9359 0.0730 0.3447
vn -0.9735 0.1209 0.1942
vn -0.9557 -0.0835 0.2824
vn -0.9567 -0.0836 0.2787
vn -0.9937 -0.0898 0.0674
vn -0.8811 -0.0276 0.4721
vn -0.8819 -0.0213 0.4709
vn -0.9897 0.1167 0.0826
vn -0.9847 0.1186 0.1279
vn -0.9850 0.1185 0.1254
vn -0.0727 0.9387 0.3371
vn -0.1137 0.8711 0.4778
vn -0.1017 0.8726 0.4778
vn -0.0744 0.9450 0.3186
vn -0.2757 0.9042 0.3261
vn -0.2846 0.9288 0.2373
vn -0.2945 0.9533 0.0674
vn -0.2148 0.8506 0.4799
vn -0.1971 0.8552 0.4793
vn -0.0917 0.9924 0.0826
vn -0.0888 0.9878 0.1279
vn -0.0889 0.9881 0.1254
vn -0.9129 0.2694 0.3067
vn -0.8717 0.2190 0.4384
vn -0.8746 0.2088 0.4376
vn -0.9114 0.2692 0.3112
vn -0.9669 0.0668 0.2462
vn -0.9462 0.0664 0.3166
vn -0.9955 0.0663 0.0674
vn -0.8823 0.1203 0.4550
vn -0.8809 0.1076 0.4610
vn -0.9594 0.2698 0.0826
vn -0.9541 0.2708 0.1279
vn -0.9544 0.2708 0.1254
vn -0.8734 -0.4044 -0.2714
vn -0.8489 -0.3516 -0.3945
vn -0.8505 -0.3543 -0.3888
vn -0.9186 -0.2062 -0.3371
vn -0.9199 -0.2063 -0.3335
vn -0.9705 -0.2063 -0.1250
vn -0.8190 -0.2422 -0.5201
vn -0.8181 -0.2484 -0.5187
vn 0.8464 0.5321 0.0217
vn 0.8623 0.4947 -0.1082
vn 0.8619 0.4967 -0.1021
vn 0.9350 0.3512 -0.0496
vn 0.9353 0.3509 -0.0458
vn 0.9300 0.3273 0.1674
vn 0.8818 0.4012 -0.2480
vn 0.8796 0.4071 -0.2462
vt 0.000000 0.000000
vt 1.000000 0.000000
vt 0.000000 1.000000
vt 1.000000 1.000000
vt 0.000000 0.857143
vt 0.000000 0.714286
vt 0.000000 0.571429
vt 1.000000 0.571429
vt 1.000000 0.714286
vt 1.000000 0.857143
vt 0.000000 0.000000
vt 1.000000 0.000000
vt 0.000000 1.000000
vt 1.000000 1.000000
vt 0.000000 0.857143
vt 0.000000 0.714286
vt 0.000000 0.571429
vt 1.000000 0.571429
vt 1.000000 0.714286
vt 1.000000 0.857143
vt 0.000000 0.000000
vt 1.000000 0.000000
vt 0.000000 1.000000
vt 1.000000 1.000000
vt 0.000000 0.857143
vt 0.000000 0.714286
vt 0.000000 0.571429
vt 1.000000 0.571429
vt 1.000000 0.714286
vt 1.000000 0.857143
vt 0.000000 0.380952
vt 0.000000 0.190476
vt 1.000000 0.190476
vt 1.000000 0.380952
vt 0.000000 0.000000
vt 1.000000 0.000000
vt 0.000000 1.000000
vt 1.000000 1.000000
vt 0.000000 0.857143
vt 0.000000 0.714286
vt 0.000000 0.571429
vt 1.000000 0.571429
vt 1.000000 0.714286
vt 1.000000 0.857143
vt 0.000000 0.380952
vt 0.000000 0.190476
vt 1.000000 0.190476
vt 1.000000 0.380952
vt 0.000000 0.000000
vt 1.000000 0.000000
vt 0.000000 1.000000
vt 1.000000 1.000000
vt 0.000000 0.857143
vt 0.000000 0.714286
vt 0.000000 0.571429
vt 1.000000 0.571429
vt 1.000000 0.714286
vt 1.000000 0.857143
vt 0.000000 0.380952
vt 0.000000 0.190476
vt 1.000000 0.190476
vt 1.000000 0.380952
vt 0.000000 0.000000
vt 1.000000 0.000000
vt 0.000000 1.000000
vt 1.000000 1.000000
vt 0.000000 0.857143
vt 0.000000 0.714286
vt 0.000000 0.571429
vt 1.000000 0.571429
vt 1.000000 0.714286
vt 1.000000 0.857143
vt 0.000000 0.380952
vt 0.000000 0.190476
vt 1.000000 0.190476
vt 1.000000 0.380952
vt 0.000000 0.000000
vt 1.000000 0.000000
vt 0.000000 1.000000
vt 1.000000 1.000000
vt 0.000000 0.857143
vt 0.000000 0.714286
vt 0.000000 0.571429
vt 1.000000 0.571429
vt 1.000000 0.714286
vt 1.000000 0.857143
vt 0.000000 0.000000
vt 1.000000 0.000000
vt 0.000000 1.000000
vt 1.000000 1.000000
vt 0.000000 0.857143
vt 0.000000 0.714286
vt 0.000000 0.571429
vt 1.000000 0.571429
vt 1.000000 0.714286
vt 1.000000 0.857143
s 1
usemtl tree_1
f 2/2/1 8/8/2 7/7/3 1/1/1
f 5/5/4 10/10/5 4/4/6 3/3/6
f 7/7/3 8/8/2 9/9/7 6/6/8
f 6/6/8 9/9/7 10/10/5 5/5/4
f 12/12/9 18/18/10 17/17/11 11/11/9
f 15/15/12 20/20/13 14/14/14 13/13/14
f 17/17/11 18/18/10 19/19/15 16/16/16
f 16/16/16 19/19/15 20/20/13 15/15/12
f 34/34/17 28/28/18 27/27/19 31/31/20
f 25/25/21 30/30/22 24/24/23 23/23/23
f 27/27/19 28/28/18 29/29/24 26/26/25
f 26/26/25 29/29/24 30/30/22 25/25/21
f 22/22/26 33/33/27 32/32/28 21/21/26
f 33/33/27 34/34/17 31/31/20 32/32/28
f 48/48/29 42/42/30 41/41/31 45/45/32
f 39/39/33 44/44/34 38/38/35 37/37/35
f 41/41/31 42/42/30 43/43/36 40/40/37
f 40/40/37 43/43/36 44/44/34 39/39/33
f 36/36/38 47/47/39 46/46/40 35/35/38
f 47/47/39 48/48/29 45/45/32 46/46/40
f 62/62/41 56/56/42 55/55/43 59/59/44
f 53/53/45 58/58/46 52/52/47 51/51/47
f 55/55/43 56/56/42 57/57/48 54/54/49
f 54/54/49 57/57/48 58/58/46 53/53/45
f 50/50/50 61/61/51 60/60/52 49/49/50
f 61/61/51 62/62/41 59/59/44 60/60/52
f 76/76/53 70/70/54 69/69/55 73/73/56
f 67/67/57 72/72/58 66/66/59 65/65/59
f 69/69/55 70/70/54 71/71/60 68/68/61
f 68/68/61 71/71/60 72/72/58 67/67/57
f 64/64/62 75/75/63 74/74/64 63/63/62
f 75/75/63 76/76/53 73/73/56 74/74/64
f 78/78/65 84/84/66 83/83/67 77/77/65
f 81/81/68 86/86/69 80/80/70 79/79/70
f 83/83/67 84/84/66 85/85/71 82/82/72
f 82/82/72 85/85/71 86/86/69 81/81/68
f 88/88/73 94/94/74 93/93/75 87/87/73
f 91/91/76 96/96/77 90/90/78 89/89/78
f 93/93/75 94/94/74 95/95/79 92/92/80
f 92/92/80 95/95/79 96/96/77 91/91/76
