# Blender 3.4.0
# www.blender.org
mtllib tree_stump_1.mtl
o tree_stump_1
v 0.416199 0.010720 -0.000000
v 0.302545 -0.069961 -0.000000
v 0.231832 -0.101730 -0.000000
v 0.235361 -0.239721 -0.000000
v 0.121159 -0.375350 -0.000000
v 0.090836 -0.427354 -0.000000
v 0.016325 -0.467303 -0.000000
v -0.095613 -0.445284 -0.000000
v -0.170911 -0.392098 -0.000000
v -0.253296 -0.272009 -0.000000
v -0.260897 -0.199094 -0.000000
v -0.386075 -0.151623 -0.000000
v -0.430303 -0.091455 -0.000000
v -0.462384 -0.007722 -0.000000
v -0.389915 0.070325 -0.000000
v -0.364959 0.114520 -0.000000
v -0.218471 0.280214 -0.000000
v -0.170379 0.318847 -0.000000
v -0.150298 0.365025 -0.000000
v -0.092893 0.437000 -0.000000
v -0.001007 0.461703 -0.000000
v 0.045737 0.435235 -0.000000
v 0.117281 0.409027 -0.000000
v 0.179689 0.403603 -0.000000
v 0.319686 0.330814 -0.000000
v 0.014743 -0.408160 -0.024703
v -0.155302 -0.337171 -0.032818
v -0.351869 -0.136132 -0.024880
v -0.389822 -0.006688 -0.038036
v -0.250333 0.244265 -0.032261
v -0.080370 0.356015 -0.050388
v 0.110160 0.380387 -0.018119
v 0.373191 0.000000 -0.053858
v 0.262116 -0.092305 -0.066327
v 0.225881 -0.143041 -0.063537
v 0.217614 -0.219364 -0.118650
v -0.233126 -0.210137 -0.114530
v -0.302918 0.142091 -0.075931
v -0.007835 0.358791 -0.075187
v 0.237878 0.245102 -0.096777
v 0.038790 -0.335360 -0.133861
v -0.284286 -0.124144 -0.171559
v -0.217116 0.235648 -0.141574
v -0.123523 -0.283886 -0.201066
v -0.299673 0.006374 -0.255007
v 0.135679 0.269915 -0.249477
v 0.266382 0.138258 -0.258281
v 0.299430 -0.000618 -0.249528
v 0.231845 -0.159466 -0.395403
v 0.155942 -0.252992 -0.261923
v -0.001799 -0.297284 -0.289390
v -0.010586 0.281776 -0.363574
v -0.259273 0.112172 -0.436859
v -0.160582 0.231946 -0.414584
v 0.150924 -0.235018 -0.520675
v 0.232914 -0.151777 -0.493772
v -0.228399 -0.150488 -0.524026
v -0.272187 0.005221 -0.499657
v 0.273796 0.007486 -0.499459
v 0.253352 0.142674 -0.472901
v -0.094706 -0.257371 -0.522630
v -0.154151 -0.225205 -0.519816
v -0.003906 -0.274102 -0.512554
v 0.124034 0.258611 -0.477488
v -0.011395 0.276695 -0.475906
v -0.157074 0.225816 -0.480357
v -0.011395 0.279796 -0.493201
v -0.254042 0.102153 -0.490880
v -0.157074 0.228916 -0.506187
vn 0.1695 -0.9120 -0.3735
vn 0.8279 -0.5405 -0.1498
vn 0.4729 -0.6638 -0.5794
vn -0.4468 0.0576 -0.8928
vn -0.5711 0.3630 -0.7363
vn -0.7197 0.0746 -0.6903
vn -0.8189 -0.4829 -0.3100
vn -0.7053 -0.6337 -0.3178
vn -0.7903 -0.4404 -0.4260
vn 0.8397 -0.3255 -0.4347
vn 0.9884 -0.0803 -0.1289
vn 0.8633 0.4766 -0.1658
vn 0.6031 0.5721 -0.5558
vn -0.7999 0.4468 -0.4007
vn 0.0682 -0.6025 -0.7952
vn -0.4288 -0.6095 -0.6668
vn -0.4684 -0.8481 -0.2478
vn -0.6388 0.7436 -0.1977
vn -0.7085 0.6785 -0.1941
vn -0.5711 0.7030 -0.4239
vn -0.1518 -0.3608 -0.9202
vn 0.0593 -0.3191 -0.9459
vn -0.9780 -0.0157 -0.2079
vn -0.8212 0.4815 -0.3064
vn 0.1763 0.5582 -0.8108
vn 0.4423 0.4240 -0.7903
vn 0.2463 0.6579 -0.7117
vn -0.3480 0.7315 -0.5864
vn -0.6320 0.7401 -0.2301
vn -0.8181 -0.5158 -0.2544
vn -0.5803 -0.5201 -0.6266
vn 0.7579 -0.6521 0.0197
vn 0.9310 -0.2947 0.2153
vn -0.1091 0.9842 -0.1396
vn -0.5696 0.8096 -0.1418
vn 0.8502 -0.5234 -0.0560
vn 0.5184 -0.8461 -0.1240
vn -0.4144 -0.3771 -0.8283
vn 0.5019 -0.8616 -0.0751
vn 0.8521 -0.5210 -0.0500
vn -0.9908 -0.0469 -0.1266
vn -0.8527 -0.5143 -0.0919
vn -0.8973 0.4184 -0.1403
vn -0.9104 0.3942 -0.1257
vn 0.0540 -0.9904 -0.1273
vn 0.9951 -0.0792 -0.0598
vn 0.8770 0.4759 -0.0662
vn 0.8181 -0.5710 0.0681
vn -0.6120 -0.7863 -0.0854
vn -0.3280 -0.9385 -0.1075
vn 0.1464 0.8323 -0.5346
vn 0.4277 0.8751 -0.2265
vn 0.4118 0.9102 -0.0444
vn -0.1018 0.9936 0.0493
vn 0.9166 -0.3519 -0.1895
vn 0.5516 -0.8242 -0.1279
vn 0.1126 0.5111 -0.8521
vn 0.7699 -0.1808 -0.6120
vn 0.0275 0.5725 -0.8194
vn 0.2726 0.5549 -0.7860
vn -0.5804 0.8144 -0.0017
vn -0.4127 -0.2524 -0.8752
vn 0.0398 -0.9947 -0.0944
vn 0.2355 -0.2685 -0.9341
vn -0.3307 0.4792 -0.8130
vn -0.5202 0.3412 -0.7829
vn -0.3329 -0.5240 -0.7840
vn 0.0089 0.1904 -0.9817
vn 0.0076 0.2119 -0.9773
vn 0.0393 -0.3502 -0.9358
vn 0.0497 0.1136 -0.9923
vn 0.0202 0.0910 -0.9956
vn -0.5722 0.8127 0.1097
vn 0.0318 0.0801 -0.9963
vn 0.2789 0.2246 -0.9337
vn 0.0456 0.0858 -0.9953
vn 0.0236 0.0354 -0.9991
vn 0.0542 0.0488 -0.9973
vn 0.1182 -0.1742 -0.9776
vn -0.1167 0.9805 0.1578
vn 0.2319 0.2212 -0.9473
vt 0.000000 0.008030
vt 1.999801 0.012420
vt 0.077780 0.001150
vt 0.130043 0.001022
vt 0.256021 0.000066
vt 0.387056 -0.000091
vt 0.401025 0.000594
vt 0.433330 0.000000
vt 0.488890 0.000000
vt 0.567133 0.000000
vt 0.630848 0.000000
vt 0.744170 0.001088
vt 0.792722 0.000176
vt 0.879045 0.000000
vt 0.933330 0.000000
vt 0.994786 0.000000
vt 1.057557 0.000000
vt 1.097992 0.000153
vt 1.288890 0.000016
vt 1.344440 0.000190
vt 1.375158 0.000064
vt 1.433330 0.000000
vt 1.500000 0.000142
vt 1.533330 0.000000
vt 1.588890 0.000000
vt 1.633330 0.000000
vt 1.744440 0.000124
vt 0.488890 0.018558
vt 0.633330 0.025786
vt 0.881488 0.019400
vt 0.996607 0.028602
vt 1.241443 0.019489
vt 1.433330 0.037831
vt 1.590857 0.012420
vt 1.999574 0.052360
vt 0.000000 0.037260
vt 0.111528 0.052136
vt 0.179215 0.047463
vt 0.255560 0.082192
vt 0.763543 0.070689
vt 1.133330 0.053518
vt 1.500000 0.053921
vt 1.746126 0.069382
vt 0.465023 0.087211
vt 0.875124 0.119371
vt 1.247932 0.098662
vt 0.633330 0.139266
vt 1.003492 0.176794
vt 1.644959 0.172825
vt 1.855232 0.179461
vt 2.000000 0.173057
vt 0.000000 0.163978
vt 0.149831 0.281572
vt 0.298891 0.183831
vt 0.491022 0.200610
vt 1.488944 0.255035
vt 1.154202 0.307169
vt 1.327022 0.290137
vt 0.285929 0.394042
vt 0.319453 0.395693
vt 0.375057 0.899334
vt 0.152595 0.364017
vt 0.152141 0.363682
vt 0.442578 0.762228
vt 0.794514 0.381778
vt 0.793920 0.381365
vt 0.062666 0.760106
vt 0.991241 0.367999
vt 0.026606 0.503639
vt 1.999995 0.376592
vt 0.000023 0.369375
vt 0.476247 0.499910
vt 1.840951 0.345339
vt 1.840063 0.345285
vt 0.459409 0.277241
vt 0.610945 0.381183
vt 0.172770 0.936152
vt 0.612522 0.382053
vt 0.682883 0.377281
vt 0.682535 0.377279
vt 0.123814 0.883171
vt 0.485932 0.380211
vt 0.247547 0.963709
vt 0.511899 0.377303
vt 1.639467 0.343482
vt 1.641026 0.343483
vt 1.639396 0.343274
vt 0.352912 0.086282
vt 1.480164 0.347117
vt 1.479368 0.347092
vt 1.317572 0.345602
vt 1.318923 0.345530
vt 0.241379 0.051390
vt 1.479686 0.360422
vt 1.478753 0.361443
vt 1.136244 0.350888
vt 1.137644 0.350724
vt 0.041549 0.343983
vt 1.316740 0.366491
vt 0.121405 0.135193
vt 1.317390 0.366845
s 1
usemtl tree_bark_5
f 41/44/1 36/39/2 5/6/3
f 14/16/4 15/17/5 29/31/6
f 11/13/7 37/40/8 10/12/9
f 33/35/10 48/51/11 47/50/12 40/43/13
f 29/31/6 15/17/5 16/18/14
f 41/44/1 26/28/15 27/29/16 44/47/17
f 16/18/14 17/19/18 30/32/19
f 17/19/18 18/20/20 30/32/19
f 8/10/21 27/29/16 26/28/15 7/9/22
f 10/12/9 37/40/8 44/47/17 27/29/16
f 45/48/23 29/31/6 16/18/14 38/41/24
f 24/26/25 25/27/26 40/43/13 32/34/27
f 31/33/28 43/46/29 30/32/19 18/20/20
f 29/31/6 45/48/23 42/45/30 28/30/31
f 34/37/32 35/38/33 36/39/2
f 31/33/28 52/56/34 54/58/35 43/46/29
f 42/45/30 37/40/8 11/13/7 28/30/31
f 44/47/17 37/40/8 42/45/30
f 49/53/36 36/39/2 50/54/37
f 9/11/38 10/12/9 27/29/16 8/10/21
f 55/59/39 56/62/40 49/53/36 50/54/37
f 42/45/30 45/48/23 58/68/41 57/65/42
f 58/68/41 45/48/23 38/41/24 53/57/43 68/96/44
f 50/54/37 36/39/2 41/44/1 51/55/45
f 59/70/46 60/73/47 47/50/12 48/51/11
f 3/4/48 35/38/33 34/37/32
f 44/47/17 62/79/49 61/76/50
f 39/42/51 46/49/52 52/56/34 31/33/28
f 52/56/34 46/49/52 64/85/53 65/89/54
f 4/5/55 36/39/2 35/38/33 3/4/48
f 2/3/56 3/4/48 34/37/32
f 40/43/13 46/49/52 39/42/51 32/34/27
f 23/25/57 24/26/25 32/34/27
f 33/36/10 1/1/58 2/3/56 34/37/32
f 16/18/14 30/32/19 43/46/29 38/41/24
f 21/23/59 22/24/60 32/34/27 39/42/51
f 53/57/43 38/41/24 43/46/29 54/58/35
f 48/52/11 34/37/32 36/39/2 49/53/36 56/63/40 59/71/46
f 53/57/43 54/58/35 66/91/61 68/97/44
f 40/43/13 47/50/12 46/49/52
f 1/2/58 33/35/10 40/43/13 25/27/26
f 66/92/61 54/58/35 52/56/34 65/90/54
f 23/25/57 32/34/27 22/24/60
f 5/7/3 26/28/15 41/44/1
f 36/39/2 4/5/55 5/6/3
f 51/55/45 41/44/1 44/47/17
f 29/31/6 28/30/31 13/15/62 14/16/4
f 50/54/37 51/55/45 63/82/63 55/60/39
f 26/28/15 5/7/3 6/8/64 7/9/22
f 46/49/52 47/50/12 60/74/47 64/86/53
f 21/23/59 39/42/51 31/33/28 20/22/65
f 33/36/10 34/37/32 48/52/11
f 44/47/17 42/45/30 57/66/42 62/80/49
f 18/20/20 19/21/66 20/22/65 31/33/28
f 12/14/67 13/15/62 28/30/31 11/13/7
f 68/97/44 66/91/61 69/99/73
f 51/55/45 44/47/17 61/78/50 63/84/63
f 65/89/54 64/87/53 67/94/80
f 66/92/61 65/90/54 67/95/80 69/101/73
usemtl log_ends_1
f 61/77/68 55/61/69 63/83/70
f 62/81/71 56/64/72 55/61/69 61/77/68
f 58/69/74 62/81/71 57/67/75
f 59/72/76 58/69/74 68/98/77 64/88/78
f 64/88/78 68/98/77 69/100/79 67/93/79
f 60/75/81 59/72/76 64/88/78
f 59/72/76 56/64/72 62/81/71 58/69/74
