# Blender 3.4.0
# www.blender.org
mtllib tree_9.mtl
o tree_9
v -0.233243 0.016924 -0.000000
v -0.165269 0.055766 -0.000000
v -0.123991 0.069631 -0.000000
v -0.118366 0.146961 -0.000000
v -0.047060 0.216490 -0.000000
v -0.027247 0.243890 -0.000000
v 0.016604 0.262118 -0.000000
v 0.077964 0.243646 -0.000000
v 0.117127 0.209770 -0.000000
v 0.156568 0.138105 -0.000000
v 0.156802 0.096927 -0.000000
v 0.224162 0.063499 -0.000000
v 0.245572 0.027430 -0.000000
v 0.258895 -0.021142 0.000000
v 0.214088 -0.060780 0.000000
v 0.197704 -0.084110 0.000000
v 0.106695 -0.168667 0.000000
v 0.077685 -0.187615 0.000000
v 0.063917 -0.212322 0.000000
v 0.027865 -0.249395 0.000000
v -0.024858 -0.258145 0.000000
v -0.049530 -0.240775 0.000000
v -0.088080 -0.222186 0.000000
v -0.122667 -0.215718 0.000000
v -0.196917 -0.167321 0.000000
v 0.014232 0.228971 -0.013875
v 0.105378 0.179925 -0.018434
v 0.204188 0.056723 -0.013975
v 0.218276 -0.017725 -0.021365
v 0.126486 -0.150326 -0.018121
v 0.025324 -0.203435 -0.028303
v -0.082523 -0.206568 -0.010177
v -0.208611 0.020548 -0.030252
v -0.141439 0.066030 -0.037256
v -0.118390 0.092396 -0.035689
v -0.109567 0.134605 -0.066645
v 0.141886 0.104629 -0.064331
v 0.161506 -0.096107 -0.042650
v -0.015376 -0.200993 -0.042232
v -0.146468 -0.123913 -0.054360
v -0.003219 0.189600 -0.075190
v 0.165749 0.053743 -0.096365
v 0.108391 -0.143680 -0.079522
v 0.084679 0.151889 -0.112938
v 0.167165 -0.020063 -0.143237
v -0.090705 -0.143410 -0.140131
v -0.156519 -0.062618 -0.145076
v -0.167346 0.016832 -0.140159
v -0.120820 0.101906 -0.222098
v -0.073241 0.150007 -0.147122
v 0.017374 0.166081 -0.162550
v -0.009597 -0.158094 -0.204219
v 0.111315 0.086902 -0.433834
v 0.138756 -0.076979 -0.245383
v 0.076994 -0.138498 -0.232871
v -0.062914 0.095640 -0.887589
v 0.017168 0.103001 -0.760182
v 0.113258 -0.012490 -0.628017
v -0.076225 -0.132919 -0.428023
v -0.138121 -0.071771 -0.501357
v 0.053868 -0.095029 -0.896906
v -0.004161 -0.140292 -0.822212
v -0.162332 -0.006230 -0.824281
v -0.132889 0.054141 -0.939413
v -0.086285 -0.143357 -0.919077
v 0.016703 0.050898 -1.055812
v 0.053220 -0.023721 -1.148591
v -0.143628 -0.111066 -1.140441
v -0.115489 -0.012845 -1.713784
v -0.050903 -0.006047 -1.788994
v 0.010108 -0.024419 -1.645456
v 0.034807 -0.083471 -1.556458
v 0.000812 -0.143314 -1.523130
v -0.070071 -0.171275 -1.758899
v -0.155504 -0.049749 -1.417848
v -0.141861 -0.148841 -1.928583
v -0.151848 -0.068641 -1.608025
v -0.023703 -0.065654 -1.985541
v -0.026765 -0.132677 -1.959507
v -0.129864 -0.021464 -2.125180
v -0.174079 -0.081274 -1.974430
v -0.168164 -0.084675 -2.311282
v -0.068797 -0.046731 -2.422745
v -0.042057 -0.108300 -2.462143
v -0.074623 -0.152047 -2.330826
v -0.139666 -0.144469 -2.303712
v -0.169910 -0.102250 -2.517565
v -0.131969 -0.056839 -2.589065
v -0.093757 -0.164899 -2.796962
v -0.146726 -0.157478 -2.681529
v -0.168954 -0.104205 -2.699786
v -0.083316 -0.067737 -2.781518
v -0.145268 -0.067826 -2.862212
v -0.072582 -0.124486 -2.891441
v -0.170158 -0.139054 -3.191103
v -0.106571 -0.139885 -3.552016
v -0.145416 -0.131713 -3.514537
v -0.112429 -0.207225 -3.550194
v -0.148502 -0.188952 -3.362403
v -0.166326 -0.148881 -3.362293
v -0.096087 -0.185474 -3.701927
v -0.157088 -0.208456 -3.691113
v -0.169257 -0.166744 -3.522777
v -0.073261 -0.218230 -4.440173
v -0.125450 -0.165868 -3.931890
v -0.084531 -0.198859 -3.931890
v -0.092819 -0.169964 -3.931890
v -0.134684 -0.219090 -3.931890
v -0.063599 -0.027215 -1.068397
v -0.010261 -0.028809 -1.074395
v 0.006012 -0.074753 -1.051279
v -0.046582 -0.099555 -1.031012
v -0.081218 -0.072178 -1.041558
v -0.113290 -0.318560 -1.305051
v -0.095939 -0.216569 -1.272398
v -0.058751 -0.521673 -1.544866
v -0.092928 -0.554304 -1.599895
v -0.072559 -0.609315 -1.585973
v -0.119515 -0.529004 -1.524197
v -0.094737 -0.688649 -1.674182
v -0.030620 -0.922451 -1.892880
v -0.021237 -0.939407 -1.867949
v -0.046945 -0.975082 -1.902602
v 0.047614 -1.243627 -2.089809
v 0.079975 -1.276118 -2.126384
v 0.072385 -1.239872 -2.080739
v -0.112376 -0.077925 -1.928350
v -0.094658 -0.122285 -1.935692
v -0.049161 -0.121570 -1.918763
v -0.043380 -0.069560 -1.900511
v -0.078117 -0.049011 -1.906838
v 0.097929 0.058291 -2.159295
v 0.020376 0.011029 -2.123448
v 0.266873 0.078736 -2.390488
v 0.279163 0.118304 -2.440933
v 0.332845 0.118521 -2.433027
v 0.255444 0.132071 -2.370361
v 0.385526 0.163077 -2.516924
v 0.584896 0.185044 -2.731674
v 0.604033 0.182338 -2.710839
v 0.623144 0.215585 -2.743525
v 0.863742 0.222715 -2.933542
v 0.898372 0.206069 -2.969743
v 0.869123 0.200594 -2.926007
v -0.125038 -0.177923 -3.921605
v -0.132967 -0.201997 -3.925500
v -0.114229 -0.217225 -3.916518
v -0.094139 -0.198056 -3.906833
v -0.101251 -0.177855 -3.910190
v 0.006908 -0.194284 -4.044150
v -0.040736 -0.187043 -4.025129
v 0.082554 -0.243597 -4.166827
v 0.101046 -0.231705 -4.193594
v 0.122941 -0.249927 -4.189399
v 0.096100 -0.218019 -4.156147
v 0.159551 -0.249783 -4.233918
v 0.248084 -0.308855 -4.347869
v 0.254940 -0.316483 -4.336813
v 0.274048 -0.309487 -4.354158
v 0.374279 -0.388652 -4.454986
v 0.382678 -0.407230 -4.474195
v 0.368921 -0.399479 -4.450987
v -0.104449 -0.137113 -2.632338
v -0.069875 -0.110880 -2.639008
v -0.081492 -0.071203 -2.623627
v -0.128441 -0.078702 -2.607044
v -0.138049 -0.114091 -2.612792
v -0.274556 0.014182 -2.842166
v -0.214427 -0.042328 -2.809597
v -0.333272 0.157216 -3.052219
v -0.370897 0.158422 -3.098052
v -0.384054 0.205388 -3.090869
v -0.377226 0.134322 -3.033933
v -0.435805 0.240766 -3.167095
v -0.503203 0.410081 -3.362209
v -0.505456 0.427497 -3.343279
v -0.539192 0.436204 -3.372976
v -0.603554 0.645213 -3.545619
v -0.597339 0.679566 -3.578510
v -0.585479 0.655270 -3.538772
v -0.094425 -0.068333 -2.339882
v -0.070190 -0.105587 -2.346713
v -0.095124 -0.139801 -2.330963
v -0.137773 -0.116316 -2.313981
v -0.134777 -0.078885 -2.319867
v -0.310747 -0.155234 -2.554752
v -0.233233 -0.121596 -2.521400
v -0.416861 -0.272744 -2.769852
v -0.453538 -0.260879 -2.816786
v -0.482481 -0.301584 -2.809431
v -0.451292 -0.235462 -2.751127
v -0.544603 -0.317758 -2.887487
v -0.668185 -0.457590 -3.087290
v -0.676386 -0.473593 -3.067905
v -0.711913 -0.470302 -3.098316
v -0.846313 -0.649439 -3.275107
v -0.852219 -0.684697 -3.308788
v -0.832376 -0.665389 -3.268095
v -0.092518 -0.238612 -4.439429
v -0.093841 -0.210259 -4.440705
v -0.102903 -0.222761 -4.440220
v -0.139594 -0.192905 -3.931890
v -0.099680 -0.221482 -3.931890
vn -0.0793 0.9242 -0.3735
vn -0.7672 0.6253 -0.1428
vn -0.4055 0.7070 -0.5794
vn 0.4268 -0.9033 0.0438
vn -0.5702 -0.8199 0.0519
vn -0.7166 -0.6972 -0.0208
vn 0.4390 -0.1012 -0.8928
vn 0.5328 -0.4172 -0.7363
vn 0.7089 -0.1448 -0.6903
vn 0.8623 0.4003 -0.3100
vn 0.7640 0.5615 -0.3178
vn 0.8297 0.3608 -0.4260
vn -0.9988 0.0456 -0.0175
vn -0.9981 0.0613 -0.0113
vn -0.5911 -0.8061 0.0297
vn -0.8038 0.4063 -0.4347
vn -0.9830 0.1508 -0.1044
vn -0.8868 -0.4389 -0.1451
vn -0.6563 -0.5102 -0.5558
vn 0.7522 -0.5230 -0.4007
vn -0.0088 0.6062 -0.7952
vn 0.4865 0.5645 -0.6668
vn 0.5642 0.7871 -0.2493
vn 0.5628 -0.8026 -0.1977
vn 0.6385 -0.7447 -0.1941
vn 0.4994 -0.7556 -0.4239
vn 0.1865 0.3442 -0.9202
vn -0.0277 0.3233 -0.9459
vn 0.9767 -0.0649 -0.2045
vn 0.7698 -0.5603 -0.3057
vn -0.2302 -0.5382 -0.8108
vn -0.4817 -0.3786 -0.7903
vn -0.3096 -0.6306 -0.7117
vn -0.8031 -0.5953 0.0249
vn -0.6410 -0.7675 0.0122
vn 0.1355 -0.9906 -0.0175
vn -0.3130 -0.9490 0.0392
vn -0.4293 0.9025 -0.0346
vn 0.5291 0.8448 -0.0803
vn 0.5691 0.8186 -0.0768
vn -0.4727 0.8785 -0.0690
vn 0.2746 -0.7621 -0.5864
vn 0.5564 -0.7985 -0.2301
vn 0.8612 0.4406 -0.2535
vn 0.6285 0.4607 -0.6266
vn -0.9912 0.1321 0.0099
vn -0.9966 0.0824 0.0012
vn -0.6854 0.7277 0.0262
vn -0.8977 0.3845 0.2153
vn -0.9983 0.0559 -0.0183
vn -0.4310 0.8967 -0.1006
vn -0.4099 0.9068 -0.0990
vn -0.9811 0.1744 -0.0836
vn -0.2986 0.7047 -0.6436
vn -0.7965 0.0453 -0.6030
vn 0.0372 -0.9905 -0.1321
vn 0.5722 -0.8102 -0.1269
vn -0.7574 0.6514 -0.0443
vn -0.4039 0.9062 -0.1248
vn 0.9959 -0.0855 -0.0309
vn 0.9905 -0.1318 0.0385
vn 0.6240 0.7776 -0.0768
vn 0.4494 0.3347 -0.8283
vn 0.4482 -0.8927 0.0467
vn 0.9858 -0.1639 0.0354
vn 0.9774 0.1990 -0.0710
vn 0.8926 -0.4454 -0.0694
vn 0.9779 -0.1938 -0.0786
vn 0.7725 0.2264 -0.5933
vn 0.6861 0.7267 -0.0340
vn 0.9635 -0.2436 -0.1106
vn 0.7974 0.5899 -0.1268
vn 0.9588 0.2730 -0.0782
vn 0.8957 -0.4382 -0.0755
vn 0.9928 -0.1052 -0.0566
vn -0.1785 0.9770 -0.1165
vn -0.7030 0.7078 -0.0697
vn 0.3040 -0.9525 -0.0165
vn 0.4158 -0.9093 0.0171
vn 0.1125 -0.9936 -0.0097
vn -0.4621 -0.8864 -0.0275
vn -0.8024 -0.5967 -0.0009
vn -0.0924 -0.7665 -0.6356
vn 0.8830 -0.4533 -0.1217
vn -0.6515 -0.7584 -0.0198
vn -0.4617 0.8862 -0.0383
vn -0.9944 0.1045 -0.0161
vn -0.9964 0.0840 0.0097
vn 0.1261 0.9829 -0.1345
vn 0.4956 -0.8685 -0.0080
vn -0.9925 0.1224 -0.0066
vn -0.7582 0.6485 0.0681
vn 0.3634 0.9216 -0.1362
vn -0.2273 -0.8140 -0.5346
vn -0.5074 -0.8330 -0.2206
vn -0.8777 0.4401 -0.1895
vn -0.4682 0.8743 -0.1279
vn 0.2856 0.9522 -0.1088
vn -0.5829 0.8112 -0.0467
vn 0.5878 0.7984 -0.1310
vn -0.1622 -0.4976 -0.8521
vn -0.7485 0.2554 -0.6120
vn -0.0835 -0.5671 -0.8194
vn -0.3256 -0.5255 -0.7860
vn 0.8007 0.5840 -0.1339
vn -0.5921 -0.8058 0.0051
vn -0.9884 0.1503 -0.0222
vn 0.4355 0.2107 -0.8752
vn -0.9781 0.2081 0.0071
vn -0.2080 0.2903 -0.9341
vn 0.2821 -0.5093 -0.8130
vn 0.4843 -0.3905 -0.7829
vn 0.3827 0.4888 -0.7840
vn 0.0632 0.6277 -0.7759
vn -0.9505 -0.3103 0.0168
vn -0.9549 -0.2728 0.1172
vn -0.2017 0.6255 -0.7537
vn -0.8787 -0.4748 -0.0495
vn 0.2679 -0.7852 -0.5583
vn 0.7343 -0.3384 0.5885
vn 0.9749 0.1155 -0.1904
vn 0.7505 -0.2982 0.5898
vn 0.1697 -0.7342 0.6574
vn 0.2366 -0.6387 0.7321
vn 0.9882 -0.1509 0.0262
vn 0.5741 0.5427 -0.6131
vn -0.5557 0.6221 -0.5515
vn -0.4973 0.6495 -0.5751
vn -0.9435 -0.2300 0.2384
vn -0.9368 -0.1932 0.2917
vn -0.9499 -0.2347 0.2066
vn -0.6303 -0.2741 -0.7264
vn -0.7193 -0.0256 -0.6942
vn -0.0706 0.9887 0.1323
vn -0.0428 0.9987 0.0292
vn 0.1300 0.9901 -0.0526
vn 0.6243 -0.5726 0.5315
vn 0.7777 0.0313 -0.6279
vn 0.2179 -0.9512 -0.2183
vn 0.5925 -0.6019 0.5353
vn 0.8011 0.0948 0.5909
vn 0.4898 -0.8715 -0.0238
vn 0.7421 -0.0022 0.6703
vn -0.3577 -0.7234 -0.5905
vn -0.8229 0.3051 -0.4794
vn -0.8300 0.2410 -0.5030
vn -0.1233 0.9422 0.3116
vn -0.0960 0.9619 0.2559
vn -0.0967 0.9698 0.2241
vn -0.6590 0.1952 -0.7263
vn -0.5675 0.4428 -0.6942
vn 0.5814 0.8028 0.1323
vn 0.6091 0.7925 0.0292
vn 0.7360 0.6749 -0.0526
vn 0.1102 -0.8399 0.5314
vn 0.6158 -0.4759 -0.6279
vn -0.4445 -0.8688 -0.2183
vn 0.0670 -0.8420 0.5353
vn 0.6746 -0.4423 0.5909
vn -0.1850 -0.9825 -0.0238
vn 0.5671 -0.4787 0.6703
vn -0.7390 -0.3242 -0.5905
vn -0.4343 0.7626 -0.4794
vn -0.4810 0.7181 -0.5030
vn 0.5111 0.8010 0.3116
vn 0.5448 0.7986 0.2559
vn 0.5493 0.8050 0.2241
vn 0.4318 -0.5348 -0.7264
vn 0.2159 -0.6866 -0.6942
vn -0.9344 -0.3309 0.1323
vn -0.9513 -0.3068 0.0292
vn -0.9890 -0.1379 -0.0526
vn 0.3860 0.7540 0.5315
vn -0.2369 0.7414 -0.6279
vn 0.8591 0.4630 -0.2183
vn 0.4227 0.7313 0.5353
vn -0.3044 0.7471 0.5909
vn 0.7099 0.7039 -0.0238
vn -0.1952 0.7160 0.6703
vn 0.7925 -0.1525 -0.5905
vn -0.0753 -0.8744 -0.4794
vn -0.0116 -0.8642 -0.5030
vn -0.8755 -0.3694 0.3116
vn -0.9018 -0.3483 0.2559
vn -0.9092 -0.3510 0.2241
vn 0.5872 0.3572 -0.7264
vn -0.7916 0.6104 0.0292
vn -0.7674 0.6274 0.1323
vn 0.4354 0.5732 -0.6942
vn -0.8841 0.4643 -0.0526
vn -0.4736 -0.6176 -0.6279
vn 0.1083 -0.8401 0.5314
vn 0.6519 -0.7262 -0.2183
vn 0.1506 -0.8311 0.5353
vn -0.5391 -0.6002 0.5909
vn -0.4258 -0.6078 0.6703
vn 0.4301 -0.9025 -0.0238
vn 0.7974 -0.1244 -0.5905
vn 0.2248 0.8483 -0.4794
vn 0.2813 0.8172 -0.5030
vn -0.7309 0.6327 0.2559
vn -0.6990 0.6437 0.3116
vn -0.7369 0.6378 0.2241
vt 0.000000 0.008030
vt 1.999801 0.012420
vt 0.077780 0.001150
vt 0.130043 0.001022
vt 0.256021 0.000066
vt 0.387056 -0.000091
vt 0.401025 0.000594
vt 0.433330 0.000000
vt 0.488890 0.000000
vt 0.567133 0.000000
vt 0.630848 0.000000
vt 0.744170 0.001088
vt 0.792722 0.000176
vt 0.879045 0.000000
vt 0.933330 0.000000
vt 0.994786 0.000000
vt 1.057557 0.000000
vt 1.097992 0.000153
vt 1.288890 0.000016
vt 1.344440 0.000190
vt 1.375158 0.000064
vt 1.433330 0.000000
vt 1.500000 0.000142
vt 1.533330 0.000000
vt 1.588890 0.000000
vt 1.633330 0.000000
vt 1.744440 0.000124
vt 0.488890 0.018558
vt 0.633330 0.025786
vt 0.881488 0.019400
vt 0.996607 0.028602
vt 1.241443 0.019489
vt 1.433330 0.037831
vt 1.590857 0.012420
vt 1.999574 0.052360
vt 0.000000 0.037260
vt 0.111528 0.052136
vt 0.179215 0.047463
vt 0.255560 0.082192
vt 0.763543 0.070689
vt 1.133330 0.053518
vt 1.500000 0.053921
vt 1.746126 0.069382
vt 0.465023 0.087211
vt 0.875124 0.119371
vt 1.247932 0.098662
vt 0.633330 0.139266
vt 1.003492 0.176794
vt 1.644959 0.172825
vt 1.855232 0.179461
vt 2.000000 0.173057
vt 0.000000 0.163978
vt 0.149831 0.281572
vt 0.298891 0.183831
vt 0.491022 0.200610
vt 1.488944 0.255035
vt 0.728233 0.565969
vt 1.154202 0.307169
vt 1.327022 0.290137
vt 0.411872 1.264784
vt 0.598383 1.048859
vt 0.960325 0.851299
vt 1.634685 0.556261
vt 1.814014 0.669512
vt 1.179662 1.284223
vt 1.402181 1.156357
vt 0.000000 1.164900
vt 2.000000 1.164900
vt 0.211597 1.355947
vt 1.581235 1.332113
vt 0.666670 1.545675
vt 0.888890 1.725157
vt 1.771633 1.733603
vt 0.272614 2.922576
vt 0.557512 3.101672
vt 0.750000 2.744685
vt 1.000000 2.560431
vt 1.250000 2.494489
vt 1.450654 3.057003
vt 2.000000 2.260580
vt 0.000000 2.260580
vt 1.714995 3.467062
vt 2.000000 2.674880
vt 0.000000 2.694939
vt 0.857140 3.587642
vt 1.142860 3.524267
vt 0.308221 4.007242
vt 2.000000 3.587810
vt 0.000000 3.587810
vt 2.000000 4.643488
vt 0.000000 4.566765
vt 0.666670 4.887525
vt 1.000000 5.048226
vt 1.333330 4.595989
vt 1.666670 4.517989
vt 2.000000 5.204510
vt 0.000000 5.204510
vt 0.333330 5.443702
vt 1.333330 6.208902
vt 1.666670 5.798510
vt 0.000000 5.837546
vt 2.000000 5.810140
vt 0.666670 6.138253
vt 0.333330 6.447740
vt 1.000000 6.557020
vt 0.000000 7.821762
vt 2.000000 7.833192
vt 0.666670 9.613831
vt 0.333330 9.415894
vt 1.333330 9.614366
vt 1.666670 8.640991
vt 0.000000 8.634130
vt 2.000000 8.634130
vt 1.000000 10.433626
vt 1.666670 10.378304
vt 0.000000 9.446940
vt 2.000000 9.446940
vt 0.833480 15.395790
vt 0.333330 11.847870
vt 1.000000 11.902135
vt 0.666670 11.928648
vt 1.613106 11.993081
vt 0.200000 2.260580
vt 0.400000 2.260614
vt 0.600000 2.260733
vt 0.800000 2.260489
vt 0.000000 2.260580
vt 1.000000 2.260580
vt 0.000000 3.041699
vt 1.000000 3.019924
vt 0.211437 2.823206
vt 0.500000 3.832213
vt 0.250000 4.016989
vt 0.750000 4.069993
vt 0.000000 3.770800
vt 1.000000 3.770800
vt 0.000000 4.431301
vt 1.000000 4.443574
vt 0.333330 5.693309
vt 0.666670 5.656991
vt 0.000000 5.855580
vt 1.000000 5.855580
vt 0.000000 7.532367
vt 0.333330 7.891711
vt 0.666670 7.513898
vt 0.200000 2.260580
vt 0.400000 2.260614
vt 0.600000 2.260733
vt 0.800000 2.260489
vt 0.000000 2.260580
vt 1.000000 2.260580
vt 0.000000 3.041699
vt 1.000000 3.019924
vt 0.211437 2.823206
vt 0.500000 3.832213
vt 0.250000 4.016989
vt 0.750000 4.069993
vt 0.000000 3.770800
vt 1.000000 3.770800
vt 0.000000 4.431301
vt 1.000000 4.443574
vt 0.333330 5.693309
vt 0.666670 5.656991
vt 0.000000 5.855580
vt 1.000000 5.855580
vt 0.000000 7.532367
vt 0.333330 7.891711
vt 0.666670 7.513898
vt 0.200000 2.260580
vt 0.400000 2.260614
vt 0.600000 2.260733
vt 0.800000 2.260489
vt 0.000000 2.260580
vt 1.000000 2.260580
vt 0.000000 3.041699
vt 1.000000 3.019924
vt 0.211437 2.823206
vt 0.500000 3.832213
vt 0.250000 4.016989
vt 0.750000 4.069993
vt 0.000000 3.770800
vt 1.000000 3.770800
vt 0.000000 4.431301
vt 1.000000 4.443574
vt 0.333330 5.693309
vt 0.666670 5.656991
vt 0.000000 5.855580
vt 1.000000 5.855580
vt 0.000000 7.532367
vt 0.333330 7.891711
vt 0.666670 7.513898
vt 0.200000 2.260580
vt 0.400000 2.260614
vt 0.600000 2.260733
vt 0.800000 2.260489
vt 0.000000 2.260580
vt 1.000000 2.260580
vt 0.000000 3.041699
vt 1.000000 3.019924
vt 0.211437 2.823206
vt 0.500000 3.832213
vt 0.250000 4.016989
vt 0.750000 4.069993
vt 0.000000 3.770800
vt 1.000000 3.770800
vt 0.000000 4.431301
vt 1.000000 4.443574
vt 0.333330 5.693309
vt 0.666670 5.656991
vt 0.000000 5.855580
vt 1.000000 5.855580
vt 0.000000 7.532367
vt 0.333330 7.891711
vt 0.666670 7.513898
vt 0.200000 2.260580
vt 0.400000 2.260614
vt 0.600000 2.260733
vt 0.800000 2.260489
vt 0.000000 2.260580
vt 1.000000 2.260580
vt 0.000000 3.041699
vt 1.000000 3.019924
vt 0.211437 2.823206
vt 0.500000 3.832213
vt 0.250000 4.016989
vt 0.750000 4.069993
vt 0.000000 3.770800
vt 1.000000 3.770800
vt 0.000000 4.431301
vt 1.000000 4.443574
vt 0.333330 5.693309
vt 0.666670 5.656991
vt 0.000000 5.855580
vt 1.000000 5.855580
vt 0.000000 7.532367
vt 0.333330 7.891711
vt 0.666670 7.513898
vt 1.500290 15.394072
vt 0.333330 15.395776
vt 0.000000 15.395790
vt 2.000000 15.395669
vt 0.000000 11.901470
vt 2.000000 11.901216
vt 1.333330 11.883221
s 1
usemtl pine_bark_2_dead
f 41/44/1 36/39/2 5/6/3
f 98/110/4 99/111/5 102/115/6
f 14/16/7 15/17/8 29/31/9
f 11/13/10 37/40/11 10/12/12
f 95/107/13 100/113/14 99/111/5 90/100/15
f 33/35/16 48/51/17 47/50/18 40/43/19
f 29/31/9 15/17/8 16/18/20
f 41/44/1 26/28/21 27/29/22 44/47/23
f 16/18/20 17/19/24 30/32/25
f 17/19/24 18/20/26 30/32/25
f 8/10/27 27/29/22 26/28/21 7/9/28
f 10/12/12 37/40/11 44/47/23 27/29/22
f 45/48/29 29/31/9 16/18/20 38/41/30
f 24/26/31 25/27/32 40/43/19 32/34/33
f 68/73/34 76/82/35 74/79/36 65/70/37
f 88/98/38 83/92/39 92/103/40 93/104/41
f 31/33/42 43/46/43 30/32/25 18/20/26
f 29/31/9 45/48/29 42/45/44 28/30/45
f 88/98/38 93/104/41 91/101/46 87/97/47
f 34/37/48 35/38/49 36/39/2
f 103/116/50 100/112/14 97/109/51 105/119/52 202/242/53
f 105/119/52 200/239/54 201/240/55 202/242/53
f 31/33/42 52/56/56 55/59/57 43/46/43
f 42/45/44 37/40/11 11/13/10 28/30/45
f 44/47/23 37/40/11 42/45/44
f 49/53/58 36/39/2 50/54/59
f 94/105/60 101/114/61 96/108/62 92/103/40
f 9/11/63 10/12/12 27/29/22 8/10/27
f 101/114/61 98/110/4 203/244/64 106/120/65
f 67/72/66 61/65/67 72/77/68
f 104/118/69 107/121/70 106/120/65
f 58/62/71 61/65/67 67/72/66 53/57/72
f 78/85/73 79/86/74 84/93/75
f 50/54/59 56/60/76 64/69/77 49/53/58
f 94/105/60 84/93/75 85/94/78 89/99/79
f 58/62/71 53/57/72 42/45/44 45/48/29
f 62/66/80 59/63/81 60/64/82 65/70/37
f 96/108/62 101/114/61 106/120/65 107/121/70
f 199/238/83 104/118/69 106/120/65 203/244/64
f 90/100/15 87/96/47 91/102/46
f 38/41/30 54/58/84 58/62/71 45/48/29
f 201/241/55 199/238/83 108/122/85 202/243/53
f 80/87/86 82/91/87 81/89/88
f 91/101/46 93/104/41 95/106/13
f 50/54/59 36/39/2 41/44/1 51/55/89
f 100/112/14 95/106/13 93/104/41 97/109/51
f 73/78/90 74/79/36 79/86/74 72/77/68
f 48/51/17 63/68/91 60/64/82 47/50/18
f 3/4/92 35/38/49 34/37/48
f 94/105/60 89/99/79 98/110/4 101/114/61
f 44/47/23 53/57/72 57/61/93 51/55/89
f 84/93/75 94/105/60 92/103/40 83/92/39
f 97/109/51 93/104/41 92/103/40 96/108/62
f 203/244/64 98/110/4 102/115/6 108/122/85
f 199/238/83 203/244/64 108/122/85
f 39/42/94 46/49/95 52/56/56 31/33/42
f 52/56/56 46/49/95 59/63/81 62/66/80
f 4/5/96 36/39/2 35/38/49 3/4/92
f 105/119/52 107/121/70 104/118/69 200/239/54
f 2/3/97 3/4/92 34/37/48
f 70/75/98 83/92/39 80/87/86 69/74/99
f 40/43/19 46/49/95 39/42/94 32/34/33
f 66/71/100 57/61/93 53/57/72 67/72/66
f 73/78/90 72/77/68 61/65/67 62/66/80
f 23/25/101 24/26/31 32/34/33
f 33/36/16 1/1/102 2/3/97 34/37/48
f 16/18/20 30/32/25 43/46/43 38/41/30
f 21/23/103 22/24/104 32/34/33 39/42/94
f 78/85/73 71/76/105 72/77/68 79/86/74
f 85/94/78 84/93/75 79/86/74 74/79/36
f 70/75/98 56/60/76 66/71/100 71/76/105
f 54/58/84 38/41/30 43/46/43 55/59/57
f 71/76/105 78/85/73 70/75/98
f 63/67/91 48/52/17 34/37/48 36/39/2 49/53/58 64/69/77
f 61/65/67 58/62/71 54/58/84 55/59/57
f 40/43/19 47/50/18 46/49/95
f 86/95/106 85/94/78 74/79/36 76/82/35
f 57/61/93 66/71/100 56/60/76
f 71/76/105 66/71/100 67/72/66 72/77/68
f 1/2/102 33/35/16 40/43/19 25/27/32
f 62/66/80 61/65/67 55/59/57 52/56/56
f 74/79/36 73/78/90 62/66/80 65/70/37
f 69/74/99 64/69/77 56/60/76 70/75/98
f 65/70/37 60/64/82 68/73/34
f 75/81/107 63/67/91 64/69/77 69/74/99
f 87/96/47 90/100/15 86/95/106 82/90/87
f 23/25/101 32/34/33 22/24/104
f 99/111/5 98/110/4 89/99/79 90/100/15
f 95/107/13 90/100/15 91/102/46
f 82/90/87 86/95/106 76/82/35 81/88/88
f 5/7/3 26/28/21 41/44/1
f 36/39/2 4/5/96 5/6/3
f 88/98/38 80/87/86 83/92/39
f 90/100/15 89/99/79 85/94/78 86/95/106
f 51/55/89 41/44/1 44/47/23
f 29/31/9 28/30/45 13/15/108 14/16/7
f 83/92/39 70/75/98 78/85/73 84/93/75
f 103/117/50 102/115/6 99/111/5 100/113/14
f 88/98/38 87/97/47 82/91/87 80/87/86
f 56/60/76 50/54/59 51/55/89 57/61/93
f 76/82/35 77/83/109 81/88/88
f 77/83/109 76/82/35 68/73/34 75/80/107
f 97/109/51 96/108/62 107/121/70 105/119/52
f 26/28/21 5/7/3 6/8/110 7/9/28
f 60/64/82 59/63/81 46/49/95 47/50/18
f 21/23/103 39/42/94 31/33/42 20/22/111
f 33/36/16 34/37/48 48/52/17
f 53/57/72 44/47/23 42/45/44
f 68/73/34 60/64/82 63/68/91 75/80/107
f 77/84/109 75/81/107 69/74/99 80/87/86 81/89/88
f 104/118/69 199/238/83 201/241/55 200/239/54
f 18/20/26 19/21/112 20/22/111 31/33/42
f 12/14/113 13/15/108 28/30/45 11/13/10
f 121/139/114 123/141/115 120/137/116 117/133/117
f 124/143/118 125/144/119 126/145/120
f 116/132/121 122/140/122 121/139/114 117/133/117
f 112/126/123 118/134/124 116/132/121 111/125/125
f 110/124/126 111/125/125 116/132/121
f 116/132/121 118/134/124 122/140/122
f 115/131/127 109/123/128 110/124/126 116/132/121
f 115/131/127 114/129/129 113/127/130 109/123/128
f 115/131/127 117/133/117 119/135/131 114/129/129
f 120/137/116 119/135/131 117/133/117
f 120/138/116 123/142/115 122/140/122 118/134/124
f 117/133/117 115/131/127 116/132/121
f 122/140/122 126/145/120 125/144/119 121/139/114
f 121/139/114 125/144/119 124/143/118 123/141/115
f 118/134/124 119/136/131 120/138/116
f 126/145/120 122/140/122 123/142/115 124/143/118
f 114/130/129 119/136/131 118/134/124 112/126/123 113/128/130
f 139/162/132 135/156/133 138/160/134 141/164/135
f 142/166/136 144/168/137 143/167/138
f 134/155/139 135/156/133 139/162/132 140/163/140
f 130/149/141 129/148/142 134/155/139 136/157/143
f 128/147/144 134/155/139 129/148/142
f 134/155/139 140/163/140 136/157/143
f 133/154/145 134/155/139 128/147/144 127/146/146
f 133/154/145 127/146/146 131/150/147 132/152/148
f 133/154/145 132/152/148 137/158/149 135/156/133
f 138/160/134 135/156/133 137/158/149
f 138/161/134 136/157/143 140/163/140 141/165/135
f 135/156/133 134/155/139 133/154/145
f 140/163/140 139/162/132 143/167/138 144/168/137
f 139/162/132 141/164/135 142/166/136 143/167/138
f 136/157/143 138/161/134 137/159/149
f 144/168/137 142/166/136 141/165/135 140/163/140
f 132/153/148 131/151/147 130/149/141 136/157/143 137/159/149
f 157/185/150 153/179/151 156/183/152 159/187/153
f 160/189/154 162/191/155 161/190/156
f 152/178/157 153/179/151 157/185/150 158/186/158
f 148/172/159 147/171/160 152/178/157 154/180/161
f 146/170/162 152/178/157 147/171/160
f 152/178/157 158/186/158 154/180/161
f 151/177/163 152/178/157 146/170/162 145/169/164
f 151/177/163 145/169/164 149/173/165 150/175/166
f 151/177/163 150/175/166 155/181/167 153/179/151
f 156/183/152 153/179/151 155/181/167
f 156/184/152 154/180/161 158/186/158 159/188/153
f 153/179/151 152/178/157 151/177/163
f 158/186/158 157/185/150 161/190/156 162/191/155
f 157/185/150 159/187/153 160/189/154 161/190/156
f 154/180/161 156/184/152 155/182/167
f 162/191/155 160/189/154 159/188/153 158/186/158
f 150/176/166 149/174/165 148/172/159 154/180/161 155/182/167
f 175/208/168 171/202/169 174/206/170 177/210/171
f 178/212/172 180/214/173 179/213/174
f 170/201/175 171/202/169 175/208/168 176/209/176
f 166/195/177 165/194/178 170/201/175 172/203/179
f 164/193/180 170/201/175 165/194/178
f 170/201/175 176/209/176 172/203/179
f 169/200/181 170/201/175 164/193/180 163/192/182
f 169/200/181 163/192/182 167/196/183 168/198/184
f 169/200/181 168/198/184 173/204/185 171/202/169
f 174/206/170 171/202/169 173/204/185
f 174/207/170 172/203/179 176/209/176 177/211/171
f 171/202/169 170/201/175 169/200/181
f 176/209/176 175/208/168 179/213/174 180/214/173
f 175/208/168 177/210/171 178/212/172 179/213/174
f 172/203/179 174/207/170 173/205/185
f 180/214/173 178/212/172 177/211/171 176/209/176
f 168/199/184 167/197/183 166/195/177 172/203/179 173/205/185
f 193/231/186 195/233/187 192/229/188 189/225/189
f 196/235/190 197/236/191 198/237/192
f 188/224/193 194/232/194 193/231/186 189/225/189
f 184/218/195 190/226/196 188/224/193 183/217/197
f 182/216/198 183/217/197 188/224/193
f 188/224/193 190/226/196 194/232/194
f 187/223/199 181/215/200 182/216/198 188/224/193
f 187/223/199 186/221/201 185/219/202 181/215/200
f 187/223/199 189/225/189 191/227/203 186/221/201
f 192/229/188 191/227/203 189/225/189
f 192/230/188 195/234/187 194/232/194 190/226/196
f 189/225/189 187/223/199 188/224/193
f 194/232/194 198/237/192 197/236/191 193/231/186
f 193/231/186 197/236/191 196/235/190 195/233/187
f 190/226/196 191/228/203 192/230/188
f 198/237/192 194/232/194 195/234/187 196/235/190
f 186/222/201 191/228/203 190/226/196 184/218/195 185/220/202
f 202/243/53 108/122/85 102/115/6 103/117/50
