<?xml version="1.0" encoding="UTF-8" standalone="no"?>
<svg
   width="16"
   height="16"
   version="1.1"
   id="svg1"
   sodipodi:docname="interaction_container.svg"
   inkscape:version="1.4 (e7c3feb, 2024-10-09)"
   xmlns:inkscape="http://www.inkscape.org/namespaces/inkscape"
   xmlns:sodipodi="http://sodipodi.sourceforge.net/DTD/sodipodi-0.dtd"
   xmlns="http://www.w3.org/2000/svg"
   xmlns:svg="http://www.w3.org/2000/svg">
  <defs
     id="defs1" />
  <sodipodi:namedview
     id="namedview1"
     pagecolor="#505050"
     bordercolor="#eeeeee"
     borderopacity="1"
     inkscape:showpageshadow="0"
     inkscape:pageopacity="0"
     inkscape:pagecheckerboard="0"
     inkscape:deskcolor="#505050"
     inkscape:zoom="35.708892"
     inkscape:cx="8.9893576"
     inkscape:cy="9.157383"
     inkscape:window-width="1920"
     inkscape:window-height="1011"
     inkscape:window-x="0"
     inkscape:window-y="32"
     inkscape:window-maximized="1"
     inkscape:current-layer="g1" />
  <g
     id="g1"
     transform="matrix(0.74520656,0,0,0.74520656,0.68014274,0.73615114)">
    <path
       style="font-size:5.8506px;line-height:1.8;font-family:Ubuntu;-inkscape-font-specification:Ubuntu;text-align:center;text-anchor:middle;fill:#e0e0e0;stroke:#e0e0e0;stroke-width:0.708426;paint-order:markers stroke fill"
       d="M 13.52057,15.638697 Q 13.231534,14.873598 12.9765,14.142502 12.721464,13.394406 12.44943,12.629306 H 7.1107354 L 6.0395959,15.638697 H 4.3223725 Q 5.0024609,13.768453 5.5975383,12.187247 6.1926159,10.58904 6.753689,9.1608537 7.3317641,7.7326676 7.8928372,6.4404993 8.4539103,5.1313289 9.06599,3.8561631 h 1.513196 q 0.612081,1.2751658 1.173153,2.5843362 0.561073,1.2921683 1.122147,2.7203544 0.578075,1.4281863 1.173152,3.0263933 0.595077,1.581206 1.275166,3.45145 z M 11.973368,11.269128 Q 11.429298,9.7899356 10.885228,8.4127561 10.358158,7.0185746 9.7800829,5.7434086 9.1850056,7.0185746 8.6409347,8.4127561 8.113866,9.7899356 7.5867973,11.269128 Z"
       id="text2"
       aria-label="A" />
  </g>
  <path
     fill="#8eef97"
     d="M 2.3799064,0.13186889 A 2.2480375,2.2480375 0 0 0 0.13186889,2.3799064 H 2.3799064 Z m 2.2480374,0 V 2.3799064 H 6.8759813 V 0.13186889 Z m 4.4960749,0 V 2.3799064 H 11.372056 V 0.13186889 Z m 4.4960753,0 V 2.3799064 h 2.248037 A 2.2480375,2.2480375 0 0 0 13.620094,0.13186889 Z M 0.13186889,4.6279438 V 6.8759813 H 2.3799064 V 4.6279438 Z m 13.48822511,0 v 2.2480375 h 2.248037 V 4.6279438 Z M 0.13186889,9.1240187 V 11.372056 H 2.3799064 V 9.1240187 Z m 13.48822511,0 v 2.2480373 h 2.248037 V 9.1240187 Z M 0.13186889,13.620094 a 2.2480375,2.2480375 0 0 0 2.24803751,2.248037 v -2.248037 z m 4.49607491,0 v 2.248037 h 2.2480375 v -2.248037 z m 4.4960749,0 v 2.248037 h 2.2480373 v -2.248037 z m 4.4960753,0 v 2.248037 a 2.2480375,2.2480375 0 0 0 2.248037,-2.248037 z"
     id="path1"
     style="fill:#e0e0e0;fill-opacity:1;stroke-width:1.12402" />
</svg>
