<svg xmlns="http://www.w3.org/2000/svg" xmlns:xlink="http://www.w3.org/1999/xlink" width="128" zoomAndPan="magnify" viewBox="0 0 96 95.999999" height="128" preserveAspectRatio="xMidYMid meet" version="1.0"><defs><clipPath id="2d5f35c892"><path d="M 19 35 L 35 35 L 35 51 L 19 51 Z M 19 35 " clip-rule="nonzero"/></clipPath><clipPath id="b7564501a9"><path d="M 16.972656 59.597656 L 19.914062 33.515625 L 43.765625 36.203125 L 40.824219 62.289062 Z M 16.972656 59.597656 " clip-rule="nonzero"/></clipPath><clipPath id="a30542cd61"><path d="M 16.972656 59.597656 L 19.914062 33.515625 L 43.765625 36.203125 L 40.824219 62.289062 Z M 16.972656 59.597656 " clip-rule="nonzero"/></clipPath><clipPath id="9a994dc50a"><path d="M 26 43 L 42 43 L 42 60 L 26 60 Z M 26 43 " clip-rule="nonzero"/></clipPath><clipPath id="06c3e9e4b5"><path d="M 16.972656 59.597656 L 19.914062 33.515625 L 43.765625 36.203125 L 40.824219 62.289062 Z M 16.972656 59.597656 " clip-rule="nonzero"/></clipPath><clipPath id="e7747a5482"><path d="M 16.972656 59.597656 L 19.914062 33.515625 L 43.765625 36.203125 L 40.824219 62.289062 Z M 16.972656 59.597656 " clip-rule="nonzero"/></clipPath><clipPath id="c5e0bce95b"><path d="M 51 35 L 78 35 L 78 61 L 51 61 Z M 51 35 " clip-rule="nonzero"/></clipPath><clipPath id="336e30a62f"><path d="M 53.480469 61.394531 L 51.613281 35.207031 L 75.554688 33.503906 L 77.417969 59.6875 Z M 53.480469 61.394531 " clip-rule="nonzero"/></clipPath><clipPath id="86b78ee267"><path d="M 2 9 L 18 9 L 18 25.71875 L 2 25.71875 Z M 2 9 " clip-rule="nonzero"/></clipPath><clipPath id="2df0f0c834"><path d="M 2.480469 26.394531 L 0.613281 0.207031 L 24.554688 -1.496094 L 26.417969 24.6875 Z M 2.480469 26.394531 " clip-rule="nonzero"/></clipPath><clipPath id="e7d6ca0408"><path d="M 0.628906 0.417969 L 2.492188 26.601562 L 26.433594 24.898438 L 24.566406 -1.285156 Z M 0.628906 0.417969 " clip-rule="nonzero"/></clipPath><clipPath id="4682fc44d2"><path d="M 9 1 L 25 1 L 25 17 L 9 17 Z M 9 1 " clip-rule="nonzero"/></clipPath><clipPath id="5f68e4f10d"><path d="M 2.480469 26.394531 L 0.613281 0.207031 L 24.554688 -1.496094 L 26.417969 24.6875 Z M 2.480469 26.394531 " clip-rule="nonzero"/></clipPath><clipPath id="bea9592ea2"><path d="M 0.628906 0.417969 L 2.492188 26.601562 L 26.433594 24.898438 L 24.566406 -1.285156 Z M 0.628906 0.417969 " clip-rule="nonzero"/></clipPath><clipPath id="24a63a5f93"><rect x="0" width="27" y="0" height="26"/></clipPath></defs><path fill="#fc7f7f" d="M 39.429688 53.25 C 39.230469 52.898438 38.992188 52.578125 38.714844 52.28125 C 38.441406 51.988281 38.136719 51.726562 37.800781 51.503906 C 37.46875 51.277344 37.109375 51.09375 36.734375 50.953125 C 36.355469 50.808594 35.96875 50.710938 35.570312 50.65625 C 35.167969 50.605469 34.769531 50.597656 34.367188 50.636719 C 33.964844 50.675781 33.574219 50.761719 33.191406 50.890625 C 32.808594 51.019531 32.449219 51.191406 32.105469 51.402344 C 31.761719 51.617188 31.449219 51.863281 31.164062 52.148438 C 30.878906 52.433594 30.628906 52.75 30.417969 53.089844 C 30.203125 53.433594 30.03125 53.796875 29.902344 54.179688 C 29.773438 54.558594 29.691406 54.953125 29.652344 55.351562 C 29.613281 55.753906 29.617188 56.15625 29.671875 56.554688 C 29.726562 56.953125 29.824219 57.34375 29.964844 57.71875 C 30.109375 58.097656 30.292969 58.453125 30.515625 58.789062 C 30.742188 59.121094 31 59.429688 31.296875 59.703125 C 31.589844 59.976562 31.914062 60.214844 32.265625 60.417969 L 32.265625 77.585938 C 31.914062 77.785156 31.589844 78.023438 31.296875 78.300781 C 31 78.574219 30.742188 78.878906 30.515625 79.214844 C 30.289062 79.550781 30.105469 79.90625 29.964844 80.28125 C 29.820312 80.660156 29.722656 81.046875 29.671875 81.449219 C 29.617188 81.847656 29.609375 82.25 29.648438 82.648438 C 29.6875 83.050781 29.773438 83.445312 29.902344 83.824219 C 30.03125 84.207031 30.203125 84.570312 30.414062 84.914062 C 30.628906 85.253906 30.878906 85.570312 31.164062 85.855469 C 31.449219 86.140625 31.761719 86.390625 32.105469 86.601562 C 32.445312 86.8125 32.808594 86.984375 33.191406 87.113281 C 33.574219 87.242188 33.964844 87.328125 34.367188 87.367188 C 34.769531 87.40625 35.167969 87.398438 35.570312 87.34375 C 35.96875 87.292969 36.359375 87.195312 36.734375 87.050781 C 37.113281 86.90625 37.46875 86.722656 37.804688 86.5 C 38.136719 86.273438 38.441406 86.011719 38.71875 85.71875 C 38.992188 85.421875 39.230469 85.101562 39.429688 84.75 L 56.601562 84.75 C 56.800781 85.101562 57.039062 85.421875 57.3125 85.71875 C 57.589844 86.011719 57.894531 86.273438 58.226562 86.5 C 58.5625 86.722656 58.917969 86.90625 59.296875 87.050781 C 59.671875 87.191406 60.0625 87.289062 60.460938 87.34375 C 60.863281 87.398438 61.261719 87.40625 61.664062 87.363281 C 62.066406 87.324219 62.457031 87.242188 62.839844 87.113281 C 63.222656 86.984375 63.585938 86.8125 63.925781 86.597656 C 64.269531 86.386719 64.582031 86.136719 64.867188 85.851562 C 65.152344 85.566406 65.402344 85.253906 65.617188 84.910156 C 65.828125 84.566406 66 84.203125 66.128906 83.820312 C 66.257812 83.441406 66.34375 83.046875 66.382812 82.648438 C 66.417969 82.246094 66.414062 81.84375 66.359375 81.445312 C 66.304688 81.042969 66.207031 80.65625 66.066406 80.277344 C 65.921875 79.902344 65.738281 79.546875 65.511719 79.210938 C 65.289062 78.875 65.027344 78.570312 64.730469 78.296875 C 64.4375 78.023438 64.113281 77.785156 63.765625 77.582031 L 63.765625 60.414062 C 64.113281 60.214844 64.4375 59.976562 64.730469 59.699219 C 65.027344 59.425781 65.285156 59.121094 65.511719 58.785156 C 65.738281 58.449219 65.921875 58.09375 66.0625 57.71875 C 66.207031 57.339844 66.304688 56.953125 66.359375 56.550781 C 66.410156 56.152344 66.417969 55.75 66.378906 55.351562 C 66.339844 54.949219 66.253906 54.554688 66.125 54.175781 C 65.996094 53.792969 65.824219 53.429688 65.613281 53.085938 C 65.398438 52.746094 65.152344 52.429688 64.867188 52.144531 C 64.582031 51.859375 64.265625 51.609375 63.921875 51.398438 C 63.582031 51.1875 63.21875 51.015625 62.835938 50.886719 C 62.453125 50.757812 62.0625 50.671875 61.660156 50.632812 C 61.257812 50.59375 60.859375 50.601562 60.457031 50.65625 C 60.058594 50.707031 59.671875 50.804688 59.292969 50.949219 C 58.914062 51.09375 58.558594 51.277344 58.226562 51.5 C 57.890625 51.726562 57.585938 51.988281 57.308594 52.28125 C 57.035156 52.578125 56.796875 52.898438 56.597656 53.25 Z M 41.222656 58.5 L 56.597656 58.5 C 57.066406 59.308594 57.703125 59.949219 58.511719 60.417969 L 58.511719 75.789062 L 41.21875 58.5 Z M 37.511719 62.210938 L 54.796875 79.5 L 39.421875 79.5 C 38.953125 78.691406 38.316406 78.050781 37.507812 77.582031 L 37.507812 62.210938 Z M 37.511719 62.210938 " fill-opacity="1" fill-rule="nonzero"/><path fill="#fc7f7f" d="M 61.496094 11.644531 C 61.320312 11.335938 61.113281 11.054688 60.875 10.796875 C 60.632812 10.539062 60.367188 10.3125 60.074219 10.117188 C 59.78125 9.917969 59.46875 9.757812 59.136719 9.632812 C 58.808594 9.507812 58.46875 9.421875 58.117188 9.375 C 57.769531 9.328125 57.417969 9.324219 57.066406 9.359375 C 56.714844 9.390625 56.375 9.464844 56.039062 9.578125 C 55.703125 9.691406 55.386719 9.839844 55.089844 10.027344 C 54.789062 10.214844 54.515625 10.433594 54.265625 10.679688 C 54.015625 10.929688 53.796875 11.207031 53.609375 11.503906 C 53.425781 11.804688 53.273438 12.121094 53.160156 12.457031 C 53.046875 12.789062 52.976562 13.132812 52.941406 13.484375 C 52.90625 13.835938 52.914062 14.1875 52.960938 14.535156 C 53.003906 14.886719 53.089844 15.226562 53.214844 15.554688 C 53.339844 15.886719 53.5 16.195312 53.699219 16.488281 C 53.894531 16.78125 54.121094 17.050781 54.378906 17.289062 C 54.636719 17.53125 54.921875 17.738281 55.226562 17.914062 L 55.226562 32.9375 C 54.921875 33.113281 54.636719 33.320312 54.378906 33.5625 C 54.121094 33.800781 53.894531 34.070312 53.695312 34.363281 C 53.5 34.65625 53.339844 34.96875 53.214844 35.296875 C 53.089844 35.628906 53.003906 35.96875 52.957031 36.316406 C 52.910156 36.667969 52.90625 37.019531 52.9375 37.367188 C 52.972656 37.71875 53.046875 38.0625 53.160156 38.398438 C 53.273438 38.730469 53.421875 39.050781 53.609375 39.347656 C 53.796875 39.648438 54.011719 39.921875 54.261719 40.171875 C 54.511719 40.421875 54.789062 40.640625 55.085938 40.828125 C 55.386719 41.011719 55.703125 41.164062 56.039062 41.277344 C 56.371094 41.386719 56.714844 41.460938 57.066406 41.496094 C 57.417969 41.53125 57.769531 41.523438 58.117188 41.476562 C 58.46875 41.429688 58.808594 41.34375 59.140625 41.21875 C 59.46875 41.09375 59.78125 40.933594 60.074219 40.738281 C 60.367188 40.539062 60.632812 40.3125 60.875 40.054688 C 61.113281 39.796875 61.320312 39.511719 61.496094 39.207031 L 76.519531 39.207031 C 76.695312 39.511719 76.90625 39.792969 77.144531 40.054688 C 77.386719 40.3125 77.652344 40.539062 77.945312 40.734375 C 78.238281 40.933594 78.550781 41.09375 78.878906 41.21875 C 79.210938 41.34375 79.550781 41.429688 79.898438 41.476562 C 80.25 41.523438 80.601562 41.527344 80.953125 41.496094 C 81.304688 41.460938 81.644531 41.386719 81.980469 41.273438 C 82.316406 41.160156 82.632812 41.011719 82.933594 40.824219 C 83.230469 40.636719 83.507812 40.417969 83.753906 40.171875 C 84.003906 39.921875 84.222656 39.644531 84.410156 39.347656 C 84.59375 39.046875 84.746094 38.730469 84.859375 38.394531 C 84.972656 38.058594 85.046875 37.71875 85.078125 37.367188 C 85.113281 37.015625 85.105469 36.664062 85.058594 36.3125 C 85.011719 35.964844 84.925781 35.625 84.800781 35.292969 C 84.675781 34.964844 84.515625 34.652344 84.320312 34.359375 C 84.121094 34.066406 83.894531 33.800781 83.636719 33.558594 C 83.378906 33.320312 83.09375 33.109375 82.789062 32.9375 L 82.789062 17.910156 C 83.09375 17.738281 83.378906 17.527344 83.636719 17.289062 C 83.894531 17.046875 84.121094 16.78125 84.320312 16.488281 C 84.515625 16.195312 84.675781 15.882812 84.800781 15.554688 C 84.925781 15.222656 85.011719 14.882812 85.058594 14.53125 C 85.105469 14.183594 85.113281 13.832031 85.078125 13.480469 C 85.042969 13.128906 84.96875 12.785156 84.855469 12.453125 C 84.742188 12.117188 84.59375 11.800781 84.40625 11.5 C 84.222656 11.203125 84.003906 10.925781 83.753906 10.675781 C 83.503906 10.425781 83.230469 10.210938 82.929688 10.023438 C 82.628906 9.835938 82.3125 9.6875 81.976562 9.574219 C 81.644531 9.460938 81.300781 9.386719 80.949219 9.355469 C 80.597656 9.320312 80.246094 9.324219 79.898438 9.371094 C 79.546875 9.417969 79.207031 9.503906 78.878906 9.628906 C 78.546875 9.753906 78.234375 9.917969 77.941406 10.113281 C 77.648438 10.3125 77.382812 10.539062 77.144531 10.796875 C 76.902344 11.054688 76.695312 11.335938 76.519531 11.644531 Z M 63.066406 16.238281 L 76.519531 16.238281 C 76.929688 16.945312 77.484375 17.503906 78.191406 17.914062 L 78.191406 31.363281 L 63.0625 16.238281 Z M 59.816406 19.484375 L 74.941406 34.613281 L 61.492188 34.613281 C 61.082031 33.90625 60.523438 33.34375 59.816406 32.9375 Z M 59.816406 19.484375 " fill-opacity="1" fill-rule="nonzero"/><path fill="#fc7f7f" d="M 19.523438 11.644531 C 19.347656 11.335938 19.140625 11.054688 18.902344 10.796875 C 18.660156 10.539062 18.394531 10.3125 18.101562 10.117188 C 17.808594 9.917969 17.496094 9.757812 17.164062 9.632812 C 16.835938 9.507812 16.496094 9.421875 16.144531 9.375 C 15.796875 9.328125 15.445312 9.324219 15.09375 9.359375 C 14.742188 9.390625 14.402344 9.464844 14.066406 9.578125 C 13.734375 9.691406 13.414062 9.839844 13.117188 10.027344 C 12.816406 10.214844 12.542969 10.433594 12.292969 10.679688 C 12.042969 10.929688 11.824219 11.207031 11.636719 11.503906 C 11.453125 11.804688 11.300781 12.121094 11.1875 12.457031 C 11.078125 12.789062 11.003906 13.132812 10.96875 13.484375 C 10.933594 13.835938 10.941406 14.1875 10.988281 14.535156 C 11.035156 14.886719 11.117188 15.226562 11.242188 15.554688 C 11.367188 15.886719 11.53125 16.195312 11.726562 16.488281 C 11.921875 16.78125 12.148438 17.050781 12.410156 17.289062 C 12.667969 17.53125 12.949219 17.738281 13.253906 17.914062 L 13.253906 32.9375 C 12.949219 33.113281 12.664062 33.320312 12.40625 33.5625 C 12.148438 33.800781 11.921875 34.070312 11.726562 34.363281 C 11.527344 34.65625 11.367188 34.96875 11.242188 35.296875 C 11.117188 35.628906 11.03125 35.96875 10.984375 36.316406 C 10.9375 36.667969 10.933594 37.019531 10.964844 37.367188 C 11 37.71875 11.074219 38.0625 11.1875 38.398438 C 11.300781 38.730469 11.449219 39.050781 11.636719 39.347656 C 11.824219 39.648438 12.042969 39.921875 12.289062 40.171875 C 12.539062 40.421875 12.816406 40.640625 13.113281 40.828125 C 13.414062 41.011719 13.730469 41.164062 14.066406 41.277344 C 14.402344 41.386719 14.742188 41.460938 15.09375 41.496094 C 15.445312 41.53125 15.796875 41.523438 16.148438 41.476562 C 16.496094 41.429688 16.835938 41.34375 17.167969 41.21875 C 17.496094 41.09375 17.808594 40.933594 18.101562 40.738281 C 18.394531 40.539062 18.660156 40.3125 18.902344 40.054688 C 19.140625 39.796875 19.351562 39.511719 19.523438 39.207031 L 34.550781 39.207031 C 34.722656 39.511719 34.933594 39.792969 35.171875 40.054688 C 35.414062 40.3125 35.679688 40.539062 35.972656 40.734375 C 36.265625 40.933594 36.578125 41.09375 36.90625 41.21875 C 37.238281 41.34375 37.578125 41.429688 37.929688 41.476562 C 38.277344 41.523438 38.628906 41.527344 38.980469 41.496094 C 39.332031 41.460938 39.675781 41.386719 40.007812 41.273438 C 40.34375 41.160156 40.660156 41.011719 40.960938 40.824219 C 41.257812 40.636719 41.535156 40.417969 41.785156 40.171875 C 42.03125 39.921875 42.25 39.644531 42.4375 39.347656 C 42.625 39.046875 42.773438 38.730469 42.886719 38.394531 C 43 38.058594 43.074219 37.71875 43.105469 37.367188 C 43.140625 37.015625 43.132812 36.664062 43.089844 36.3125 C 43.042969 35.964844 42.957031 35.625 42.832031 35.292969 C 42.707031 34.964844 42.542969 34.652344 42.347656 34.359375 C 42.148438 34.066406 41.921875 33.800781 41.664062 33.558594 C 41.40625 33.320312 41.125 33.109375 40.816406 32.9375 L 40.816406 17.910156 C 41.125 17.738281 41.40625 17.527344 41.664062 17.289062 C 41.921875 17.046875 42.148438 16.78125 42.347656 16.488281 C 42.542969 16.195312 42.703125 15.882812 42.828125 15.554688 C 42.953125 15.222656 43.039062 14.882812 43.085938 14.53125 C 43.132812 14.183594 43.140625 13.832031 43.105469 13.480469 C 43.070312 13.128906 42.996094 12.785156 42.882812 12.453125 C 42.769531 12.117188 42.621094 11.800781 42.433594 11.5 C 42.25 11.203125 42.03125 10.925781 41.78125 10.675781 C 41.53125 10.425781 41.257812 10.210938 40.957031 10.023438 C 40.65625 9.835938 40.339844 9.6875 40.003906 9.574219 C 39.671875 9.460938 39.328125 9.386719 38.976562 9.355469 C 38.625 9.320312 38.273438 9.324219 37.925781 9.371094 C 37.574219 9.417969 37.234375 9.503906 36.90625 9.628906 C 36.574219 9.753906 36.261719 9.917969 35.96875 10.113281 C 35.675781 10.3125 35.410156 10.539062 35.171875 10.796875 C 34.929688 11.054688 34.722656 11.335938 34.546875 11.644531 Z M 21.09375 16.238281 L 34.546875 16.238281 C 34.957031 16.945312 35.515625 17.503906 36.222656 17.914062 L 36.222656 31.363281 L 21.089844 16.238281 Z M 17.847656 19.484375 L 32.972656 34.613281 L 19.519531 34.613281 C 19.109375 33.90625 18.550781 33.34375 17.84375 32.9375 L 17.84375 19.484375 Z M 17.847656 19.484375 " fill-opacity="1" fill-rule="nonzero"/><g clip-path="url(#2d5f35c892)"><g clip-path="url(#b7564501a9)"><g clip-path="url(#a30542cd61)"><path fill="#ffffff" d="M 21.964844 36.453125 C 19.328125 38.554688 18.894531 42.410156 20.996094 45.042969 L 23.578125 48.28125 C 23.964844 48.765625 24.667969 48.84375 25.152344 48.457031 C 25.636719 48.074219 25.714844 47.367188 25.328125 46.886719 L 22.75 43.648438 C 19.683594 39.546875 25.496094 34.90625 28.804688 38.816406 C 28.804688 38.816406 31.824219 42.601562 31.824219 42.601562 C 33.398438 44.523438 32.667969 47.550781 30.394531 48.542969 C 29.828125 48.796875 29.578125 49.460938 29.832031 50.023438 C 30.433594 51.269531 31.847656 50.425781 32.605469 49.796875 C 33.925781 48.746094 34.691406 47.257812 34.867188 45.703125 C 35.042969 44.144531 34.625 42.523438 33.574219 41.203125 L 30.558594 37.421875 C 28.5625 34.808594 24.492188 34.347656 21.964844 36.453125 Z M 21.964844 36.453125 " fill-opacity="1" fill-rule="nonzero"/></g></g></g><g clip-path="url(#9a994dc50a)"><g clip-path="url(#06c3e9e4b5)"><g clip-path="url(#e7747a5482)"><path fill="#ffffff" d="M 35.847656 47.648438 L 38.429688 50.886719 C 41.507812 54.960938 35.660156 59.625 32.371094 55.714844 C 32.371094 55.714844 29.355469 51.933594 29.355469 51.933594 C 27.78125 50.015625 28.503906 46.988281 30.777344 45.996094 C 31.339844 45.742188 31.59375 45.078125 31.339844 44.515625 C 30.738281 43.273438 29.324219 44.109375 28.570312 44.738281 C 25.933594 46.839844 25.503906 50.691406 27.601562 53.328125 C 27.601562 53.328125 30.621094 57.113281 30.621094 57.113281 C 33.964844 61.367188 40.933594 59.308594 41.472656 53.984375 C 41.648438 52.429688 41.230469 50.808594 40.179688 49.488281 L 37.597656 46.253906 C 36.660156 45.117188 34.949219 46.480469 35.847656 47.648438 Z M 35.847656 47.648438 " fill-opacity="1" fill-rule="nonzero"/></g></g></g><g clip-path="url(#c5e0bce95b)"><g clip-path="url(#336e30a62f)"><g transform="matrix(1, 0, 0, 1, 51, 35)"><g clip-path="url(#24a63a5f93)"><g clip-path="url(#86b78ee267)"><g clip-path="url(#2df0f0c834)"><g clip-path="url(#e7d6ca0408)"><path fill="#ffffff" d="M 4.664062 23.75 C 2.117188 21.542969 1.839844 17.675781 4.050781 15.128906 L 6.761719 12 C 7.167969 11.53125 7.871094 11.480469 8.339844 11.886719 C 8.808594 12.292969 8.859375 13 8.453125 13.464844 L 5.742188 16.59375 C 2.507812 20.566406 8.128906 25.441406 11.59375 21.671875 C 11.59375 21.671875 14.765625 18.015625 14.765625 18.015625 C 16.417969 16.160156 15.8125 13.101562 13.582031 12.019531 C 13.027344 11.742188 12.804688 11.066406 13.082031 10.515625 C 13.734375 9.296875 15.113281 10.195312 15.84375 10.855469 C 17.117188 11.960938 17.824219 13.480469 17.933594 15.042969 C 18.046875 16.605469 17.5625 18.207031 16.457031 19.480469 L 13.289062 23.136719 C 11.1875 25.667969 7.101562 25.957031 4.664062 23.75 Z M 4.664062 23.75 " fill-opacity="1" fill-rule="nonzero"/></g></g></g><g clip-path="url(#4682fc44d2)"><g clip-path="url(#5f68e4f10d)"><g clip-path="url(#bea9592ea2)"><path fill="#ffffff" d="M 18.996094 13.136719 L 21.707031 10.007812 C 24.949219 6.0625 19.300781 1.160156 15.851562 4.933594 C 15.851562 4.933594 12.683594 8.589844 12.683594 8.589844 C 11.035156 10.441406 11.628906 13.492188 13.859375 14.578125 C 14.414062 14.855469 14.636719 15.527344 14.359375 16.082031 C 13.710938 17.300781 12.328125 16.402344 11.605469 15.746094 C 9.058594 13.539062 8.78125 9.667969 10.988281 7.121094 C 10.988281 7.121094 14.160156 3.464844 14.160156 3.464844 C 17.675781 -0.648438 24.558594 1.695312 24.875 7.035156 C 24.984375 8.597656 24.503906 10.203125 23.398438 11.476562 L 20.6875 14.601562 C 19.703125 15.699219 18.050781 14.265625 18.996094 13.136719 Z M 18.996094 13.136719 " fill-opacity="1" fill-rule="nonzero"/></g></g></g></g></g></g></g></svg>