<svg style="height: 512px; width: 512px;" xmlns="http://www.w3.org/2000/svg" viewBox="0 0 512 512"><path d="M0 0h512v512H0z" fill="#000" fill-opacity="1"></path><g class="" style="" transform="translate(0,0)"><g transform="translate(0, 0) scale(1, 1) rotate(-90, 256, 256) skewX(0) skewY(0)"><path d="M62.5 17.28C52.753 17.568 41.676 22.51 32.656 31.53C17.464 46.723 13.818 67.724 24.531 78.437C32.521 86.425 46.247 86.464 59.001 79.657C75.168 109.707 101.155 137.344 130.439 156.031C111.669 180.187 100.469 210.511 100.469 243.407L119.157 243.407C119.157 214.507 128.985 187.933 145.501 166.877L147.657 206.282C274.5 320.554 402.09 428.196 496.062 494.94C430.522 399.646 319.072 270.302 207.375 146.533L168.405 144.409C189.169 128.729 215.043 119.442 243.125 119.439L243.125 100.75C210.925 100.752 181.18 111.475 157.281 129.53C138.585 100.147 110.891 74.05 80.751 57.844C87.546 45.096 87.547 31.421 79.563 23.437C75.211 19.085 69.17 17.085 62.501 17.281Z" class="selected" fill="#fff" fill-opacity="1"></path></g></g></svg>