{"accessors":[{"bufferView":0,"byteOffset":0,"componentType":5126,"count":1,"max":[0],"min":[0],"type":"SCALAR"},{"bufferView":1,"byteOffset":0,"componentType":5123,"count":744,"type":"SCALAR"},{"bufferView":2,"byteOffset":0,"componentType":5126,"count":169,"max":[0.0845243036746979,0.0482443757355213,0.0858282148838043],"min":[-0.0845243036747,-0.00008190128574,-0.0858282148838],"type":"VEC3"},{"bufferView":3,"byteOffset":0,"componentType":5126,"count":169,"type":"VEC3"},{"bufferView":4,"byteOffset":0,"componentType":5126,"count":169,"type":"VEC4"},{"bufferView":5,"byteOffset":0,"componentType":5126,"count":169,"type":"VEC2"},{"bufferView":6,"byteOffset":0,"componentType":5123,"count":372,"type":"SCALAR"},{"bufferView":7,"byteOffset":0,"componentType":5126,"count":89,"max":[0.0847331956028938,0.048509668558836,0.0937029346823692],"min":[-0.0845243036747,-0.00179887935519,-0.0858282148838],"type":"VEC3"},{"bufferView":8,"byteOffset":0,"componentType":5126,"count":89,"type":"VEC3"},{"bufferView":9,"byteOffset":0,"componentType":5126,"count":89,"type":"VEC4"},{"bufferView":10,"byteOffset":0,"componentType":5126,"count":89,"type":"VEC2"},{"bufferView":11,"byteOffset":0,"componentType":5123,"count":186,"type":"SCALAR"},{"bufferView":12,"byteOffset":0,"componentType":5126,"count":54,"max":[0.0847331956028938,0.0520813465118408,0.100824773311615],"min":[-0.08385509997606,-0.0033355045598,-0.087537355721],"type":"VEC3"},{"bufferView":13,"byteOffset":0,"componentType":5126,"count":54,"type":"VEC3"},{"bufferView":14,"byteOffset":0,"componentType":5126,"count":54,"type":"VEC4"},{"bufferView":15,"byteOffset":0,"componentType":5126,"count":54,"type":"VEC2"}],"animations":[{"channels":[],"name":"Unreal Take","samplers":[]}],"asset":{"generator":"FBX2glTF v0.13.0","version":"2.0"},"bufferViews":[{"buffer":0,"byteLength":4,"byteOffset":0},{"buffer":0,"byteLength":1488,"byteOffset":4,"target":34963},{"buffer":0,"byteLength":2028,"byteOffset":1492,"target":34962},{"buffer":0,"byteLength":2028,"byteOffset":3520,"target":34962},{"buffer":0,"byteLength":2704,"byteOffset":5548,"target":34962},{"buffer":0,"byteLength":1352,"byteOffset":8252,"target":34962},{"buffer":0,"byteLength":744,"byteOffset":9604,"target":34963},{"buffer":0,"byteLength":1068,"byteOffset":10348,"target":34962},{"buffer":0,"byteLength":1068,"byteOffset":11416,"target":34962},{"buffer":0,"byteLength":1424,"byteOffset":12484,"target":34962},{"buffer":0,"byteLength":712,"byteOffset":13908,"target":34962},{"buffer":0,"byteLength":372,"byteOffset":14620,"target":34963},{"buffer":0,"byteLength":648,"byteOffset":14992,"target":34962},{"buffer":0,"byteLength":648,"byteOffset":15640,"target":34962},{"buffer":0,"byteLength":864,"byteOffset":16288,"target":34962},{"buffer":0,"byteLength":432,"byteOffset":17152,"target":34962}],"buffers":[{"byteLength":17584,"uri":"SM_Bowl_01.bin"}],"images":[{"name":"T_Candles_01_N","uri":"../Textures/T_Candles_01_N.png"},{"name":"T_Candles_01_BC","uri":"../Textures/T_Candles_01_BC.png"}],"materials":[{"alphaMode":"OPAQUE","doubleSided":false,"extras":{"fromFBX":{"isTruePBR":false,"shadingModel":"Phong"}},"name":"MI_Candles_01","normalTexture":{"index":0,"texCoord":0},"pbrMetallicRoughness":{"baseColorFactor":[1,1,1,1],"baseColorTexture":{"index":1,"texCoord":0},"metallicFactor":0.400000005960464,"roughnessFactor":0.301511347293854}}],"meshes":[{"name":"SM_Bowl_01_LOD0","primitives":[{"attributes":{"NORMAL":3,"POSITION":2,"TANGENT":4,"TEXCOORD_0":5},"indices":1,"material":0,"mode":4}]},{"name":"SM_Bowl_01_LOD1","primitives":[{"attributes":{"NORMAL":8,"POSITION":7,"TANGENT":9,"TEXCOORD_0":10},"indices":6,"material":0,"mode":4}]},{"name":"SM_Bowl_01_LOD2","primitives":[{"attributes":{"NORMAL":13,"POSITION":12,"TANGENT":14,"TEXCOORD_0":15},"indices":11,"material":0,"mode":4}]}],"nodes":[{"children":[1,2,3,4],"name":"StaticMeshActor_1366","originalUnits":0.00999999977648258,"pivot":[0,0,0],"rotation":[0,0,0,1],"scale":[1,1,1],"translation":[0,0,0]},{"mesh":0,"name":"SM_Bowl_01_LOD0","originalUnits":0.00999999977648258,"pivot":[0,0,0],"rotation":[0,0,0,1],"scale":[1,1,1],"translation":[0,0,0]},{"name":"SM_Bowl_01_ConvexHulls","originalUnits":0.00999999977648258,"pivot":[0,0,0],"rotation":[0,0,0,1],"scale":[1,1,1],"translation":[0,0,0]},{"mesh":1,"name":"SM_Bowl_01_LOD1","originalUnits":0.00999999977648258,"pivot":[0,0,0],"rotation":[0,0,0,1],"scale":[1,1,1],"translation":[0,0,0]},{"mesh":2,"name":"SM_Bowl_01_LOD2","originalUnits":0.00999999977648258,"pivot":[0,0,0],"rotation":[0,0,0,1],"scale":[1,1,1],"translation":[0,0,0]}],"samplers":[{}],"scene":0,"scenes":[{"name":"Root Scene","nodes":[0]}],"textures":[{"name":"MI_Candles_01","sampler":0,"source":0},{"name":"MI_Candles_01","sampler":0,"source":1}]}