{"accessors":[{"bufferView":0,"byteOffset":0,"componentType":5126,"count":1,"max":[0],"min":[0],"type":"SCALAR"},{"bufferView":1,"byteOffset":0,"componentType":5123,"count":717,"type":"SCALAR"},{"bufferView":2,"byteOffset":0,"componentType":5126,"count":187,"max":[0.0775415822863579,0.119178161025047,1.83384704589844],"min":[-0.30471897125244,-11.2160539627075,-1.83384704589844],"type":"VEC3"},{"bufferView":3,"byteOffset":0,"componentType":5126,"count":187,"type":"VEC3"},{"bufferView":4,"byteOffset":0,"componentType":5126,"count":187,"type":"VEC4"},{"bufferView":5,"byteOffset":0,"componentType":5126,"count":187,"type":"VEC2"},{"bufferView":6,"byteOffset":0,"componentType":5126,"count":187,"type":"VEC2"}],"animations":[{"channels":[],"name":"Unreal Take","samplers":[]}],"asset":{"generator":"FBX2glTF v0.13.0","version":"2.0"},"bufferViews":[{"buffer":0,"byteLength":4,"byteOffset":0},{"buffer":0,"byteLength":1434,"byteOffset":4,"target":34963},{"buffer":0,"byteLength":2244,"byteOffset":1440,"target":34962},{"buffer":0,"byteLength":2244,"byteOffset":3684,"target":34962},{"buffer":0,"byteLength":2992,"byteOffset":5928,"target":34962},{"buffer":0,"byteLength":1496,"byteOffset":8920,"target":34962},{"buffer":0,"byteLength":1496,"byteOffset":10416,"target":34962}],"buffers":[{"byteLength":11912,"uri":"SM_Banner_01a.bin"}],"images":[{"name":"T_Banner_01_N","uri":"../Textures/T_Banner_01_N.png"},{"name":"T_Banner_01_BC","uri":"../Textures/T_Banner_01_BC.png"}],"materials":[{"alphaMode":"OPAQUE","doubleSided":false,"extras":{"fromFBX":{"isTruePBR":false,"shadingModel":"Phong"}},"name":"MI_Banner_01","normalTexture":{"index":0,"texCoord":0},"pbrMetallicRoughness":{"baseColorFactor":[1,1,1,1],"baseColorTexture":{"index":1,"texCoord":0},"metallicFactor":0.400000005960464,"roughnessFactor":0.301511347293854}}],"meshes":[{"name":"SM_Banner_01a","primitives":[{"attributes":{"NORMAL":3,"POSITION":2,"TANGENT":4,"TEXCOORD_0":5,"TEXCOORD_1":6},"indices":1,"material":0,"mode":4}]}],"nodes":[{"mesh":0,"name":"SM_Banner_01a","originalUnits":0.00999999977648258,"pivot":[0,0,0],"rotation":[0,0,0,1],"scale":[1,1,1],"translation":[0,0,0]}],"samplers":[{}],"scene":0,"scenes":[{"name":"Root Scene","nodes":[0]}],"textures":[{"name":"MI_Banner_01","sampler":0,"source":0},{"name":"MI_Banner_01","sampler":0,"source":1}]}