{"accessors":[{"bufferView":0,"byteOffset":0,"componentType":5126,"count":1,"max":[0],"min":[0],"type":"SCALAR"},{"bufferView":1,"byteOffset":0,"componentType":5123,"count":234,"type":"SCALAR"},{"bufferView":2,"byteOffset":0,"componentType":5126,"count":70,"max":[0.0553407222032547,0.530122995376587,0.0517570488154888],"min":[-0.05534064024687,0.00180099718272686,-0.05175703763962],"type":"VEC3"},{"bufferView":3,"byteOffset":0,"componentType":5126,"count":70,"type":"VEC3"},{"bufferView":4,"byteOffset":0,"componentType":5126,"count":70,"type":"VEC4"},{"bufferView":5,"byteOffset":0,"componentType":5126,"count":70,"type":"VEC2"},{"bufferView":6,"byteOffset":0,"componentType":5123,"count":114,"type":"SCALAR"},{"bufferView":7,"byteOffset":0,"componentType":5126,"count":37,"max":[0.0553407222032547,0.530122995376587,0.0493681579828262],"min":[-0.05534064024687,0.00113427173346281,-0.05371199920774],"type":"VEC3"},{"bufferView":8,"byteOffset":0,"componentType":5126,"count":37,"type":"VEC3"},{"bufferView":9,"byteOffset":0,"componentType":5126,"count":37,"type":"VEC4"},{"bufferView":10,"byteOffset":0,"componentType":5126,"count":37,"type":"VEC2"},{"bufferView":11,"byteOffset":0,"componentType":5123,"count":60,"type":"SCALAR"},{"bufferView":12,"byteOffset":0,"componentType":5126,"count":24,"max":[0.0502831749618053,0.529786467552185,0.0498660281300545],"min":[-0.05534064024687,0.00104063958860934,-0.05371199920774],"type":"VEC3"},{"bufferView":13,"byteOffset":0,"componentType":5126,"count":24,"type":"VEC3"},{"bufferView":14,"byteOffset":0,"componentType":5126,"count":24,"type":"VEC4"},{"bufferView":15,"byteOffset":0,"componentType":5126,"count":24,"type":"VEC2"}],"animations":[{"channels":[],"name":"Unreal Take","samplers":[]}],"asset":{"generator":"FBX2glTF v0.13.0","version":"2.0"},"bufferViews":[{"buffer":0,"byteLength":4,"byteOffset":0},{"buffer":0,"byteLength":468,"byteOffset":4,"target":34963},{"buffer":0,"byteLength":840,"byteOffset":472,"target":34962},{"buffer":0,"byteLength":840,"byteOffset":1312,"target":34962},{"buffer":0,"byteLength":1120,"byteOffset":2152,"target":34962},{"buffer":0,"byteLength":560,"byteOffset":3272,"target":34962},{"buffer":0,"byteLength":228,"byteOffset":3832,"target":34963},{"buffer":0,"byteLength":444,"byteOffset":4060,"target":34962},{"buffer":0,"byteLength":444,"byteOffset":4504,"target":34962},{"buffer":0,"byteLength":592,"byteOffset":4948,"target":34962},{"buffer":0,"byteLength":296,"byteOffset":5540,"target":34962},{"buffer":0,"byteLength":120,"byteOffset":5836,"target":34963},{"buffer":0,"byteLength":288,"byteOffset":5956,"target":34962},{"buffer":0,"byteLength":288,"byteOffset":6244,"target":34962},{"buffer":0,"byteLength":384,"byteOffset":6532,"target":34962},{"buffer":0,"byteLength":192,"byteOffset":6916,"target":34962}],"buffers":[{"byteLength":7108,"uri":"SM_Candle_02.bin"}],"images":[{"name":"T_Candles_01_N","uri":"../Textures/T_Candles_01_N.png"},{"name":"T_Candles_01_BC","uri":"../Textures/T_Candles_01_BC.png"}],"materials":[{"alphaMode":"OPAQUE","doubleSided":false,"extras":{"fromFBX":{"isTruePBR":false,"shadingModel":"Phong"}},"name":"MI_Candles_01","normalTexture":{"index":0,"texCoord":0},"pbrMetallicRoughness":{"baseColorFactor":[1,1,1,1],"baseColorTexture":{"index":1,"texCoord":0},"metallicFactor":0.400000005960464,"roughnessFactor":0.301511347293854}}],"meshes":[{"name":"SM_Candle_02_LOD0","primitives":[{"attributes":{"NORMAL":3,"POSITION":2,"TANGENT":4,"TEXCOORD_0":5},"indices":1,"material":0,"mode":4}]},{"name":"SM_Candle_02_LOD1","primitives":[{"attributes":{"NORMAL":8,"POSITION":7,"TANGENT":9,"TEXCOORD_0":10},"indices":6,"material":0,"mode":4}]},{"name":"SM_Candle_02_LOD2","primitives":[{"attributes":{"NORMAL":13,"POSITION":12,"TANGENT":14,"TEXCOORD_0":15},"indices":11,"material":0,"mode":4}]}],"nodes":[{"children":[1,2,3,4],"name":"StaticMeshActor_1273","originalUnits":0.00999999977648258,"pivot":[0,0,0],"rotation":[0,0,0,1],"scale":[1,1,1],"translation":[0,0,0]},{"mesh":0,"name":"SM_Candle_02_LOD0","originalUnits":0.00999999977648258,"pivot":[0,0,0],"rotation":[0,0,0,1],"scale":[1,1,1],"translation":[0,0,0]},{"name":"SM_Candle_02_ConvexHulls","originalUnits":0.00999999977648258,"pivot":[0,0,0],"rotation":[0,0,0,1],"scale":[1,1,1],"translation":[0,0,0]},{"mesh":1,"name":"SM_Candle_02_LOD1","originalUnits":0.00999999977648258,"pivot":[0,0,0],"rotation":[0,0,0,1],"scale":[1,1,1],"translation":[0,0,0]},{"mesh":2,"name":"SM_Candle_02_LOD2","originalUnits":0.00999999977648258,"pivot":[0,0,0],"rotation":[0,0,0,1],"scale":[1,1,1],"translation":[0,0,0]}],"samplers":[{}],"scene":0,"scenes":[{"name":"Root Scene","nodes":[0]}],"textures":[{"name":"MI_Candles_01","sampler":0,"source":0},{"name":"MI_Candles_01","sampler":0,"source":1}]}