{"accessors":[{"bufferView":0,"byteOffset":0,"componentType":5126,"count":1,"max":[0],"min":[0],"type":"SCALAR"},{"bufferView":1,"byteOffset":0,"componentType":5123,"count":10236,"type":"SCALAR"},{"bufferView":2,"byteOffset":0,"componentType":5126,"count":2076,"max":[1.17651069164276,0.300085186958313,0.750045299530029],"min":[-1.17651069164276,-0.02527174726129,-0.75004529953003],"type":"VEC3"},{"bufferView":3,"byteOffset":0,"componentType":5126,"count":2076,"type":"VEC3"},{"bufferView":4,"byteOffset":0,"componentType":5126,"count":2076,"type":"VEC4"},{"bufferView":5,"byteOffset":0,"componentType":5126,"count":2076,"type":"VEC2"},{"bufferView":6,"byteOffset":0,"componentType":5126,"count":2076,"type":"VEC2"},{"bufferView":7,"byteOffset":0,"componentType":5123,"count":5115,"type":"SCALAR"},{"bufferView":8,"byteOffset":0,"componentType":5126,"count":1135,"max":[1.17597830295563,0.300085186958313,0.746739327907562],"min":[-1.17831659317017,-0.02527174726129,-0.75004529953003],"type":"VEC3"},{"bufferView":9,"byteOffset":0,"componentType":5126,"count":1135,"type":"VEC3"},{"bufferView":10,"byteOffset":0,"componentType":5126,"count":1135,"type":"VEC4"},{"bufferView":11,"byteOffset":0,"componentType":5126,"count":1135,"type":"VEC2"},{"bufferView":12,"byteOffset":0,"componentType":5126,"count":1135,"type":"VEC2"},{"bufferView":13,"byteOffset":0,"componentType":5123,"count":2559,"type":"SCALAR"},{"bufferView":14,"byteOffset":0,"componentType":5126,"count":645,"max":[1.17869508266449,0.303125977516174,0.7574462890625],"min":[-1.17831659317017,-0.02705655992031,-0.74738043546677],"type":"VEC3"},{"bufferView":15,"byteOffset":0,"componentType":5126,"count":645,"type":"VEC3"},{"bufferView":16,"byteOffset":0,"componentType":5126,"count":645,"type":"VEC4"},{"bufferView":17,"byteOffset":0,"componentType":5126,"count":645,"type":"VEC2"},{"bufferView":18,"byteOffset":0,"componentType":5126,"count":645,"type":"VEC2"},{"bufferView":19,"byteOffset":0,"componentType":5123,"count":1278,"type":"SCALAR"},{"bufferView":20,"byteOffset":0,"componentType":5126,"count":335,"max":[1.17792344093323,0.306529581546783,0.705881714820862],"min":[-1.17831659317017,-0.02273221500218,-0.73664063215256],"type":"VEC3"},{"bufferView":21,"byteOffset":0,"componentType":5126,"count":335,"type":"VEC3"},{"bufferView":22,"byteOffset":0,"componentType":5126,"count":335,"type":"VEC4"},{"bufferView":23,"byteOffset":0,"componentType":5126,"count":335,"type":"VEC2"},{"bufferView":24,"byteOffset":0,"componentType":5126,"count":335,"type":"VEC2"},{"bufferView":25,"byteOffset":0,"componentType":5123,"count":468,"type":"SCALAR"},{"bufferView":26,"byteOffset":0,"componentType":5126,"count":90,"max":[1.17331504821777,0.294381976127625,0.741465210914612],"min":[-1.1803435087204,-0.02556527964771,-0.75648039579392],"type":"VEC3"},{"bufferView":27,"byteOffset":0,"componentType":5126,"count":90,"type":"VEC3"},{"bufferView":28,"byteOffset":0,"componentType":5126,"count":90,"type":"VEC4"},{"bufferView":29,"byteOffset":0,"componentType":5126,"count":90,"type":"VEC2"},{"bufferView":30,"byteOffset":0,"componentType":5126,"count":90,"type":"VEC2"}],"animations":[{"channels":[],"name":"Unreal Take","samplers":[]}],"asset":{"generator":"FBX2glTF v0.13.0","version":"2.0"},"bufferViews":[{"buffer":0,"byteLength":4,"byteOffset":0},{"buffer":0,"byteLength":20472,"byteOffset":4,"target":34963},{"buffer":0,"byteLength":24912,"byteOffset":20476,"target":34962},{"buffer":0,"byteLength":24912,"byteOffset":45388,"target":34962},{"buffer":0,"byteLength":33216,"byteOffset":70300,"target":34962},{"buffer":0,"byteLength":16608,"byteOffset":103516,"target":34962},{"buffer":0,"byteLength":16608,"byteOffset":120124,"target":34962},{"buffer":0,"byteLength":10230,"byteOffset":136732,"target":34963},{"buffer":0,"byteLength":13620,"byteOffset":146964,"target":34962},{"buffer":0,"byteLength":13620,"byteOffset":160584,"target":34962},{"buffer":0,"byteLength":18160,"byteOffset":174204,"target":34962},{"buffer":0,"byteLength":9080,"byteOffset":192364,"target":34962},{"buffer":0,"byteLength":9080,"byteOffset":201444,"target":34962},{"buffer":0,"byteLength":5118,"byteOffset":210524,"target":34963},{"buffer":0,"byteLength":7740,"byteOffset":215644,"target":34962},{"buffer":0,"byteLength":7740,"byteOffset":223384,"target":34962},{"buffer":0,"byteLength":10320,"byteOffset":231124,"target":34962},{"buffer":0,"byteLength":5160,"byteOffset":241444,"target":34962},{"buffer":0,"byteLength":5160,"byteOffset":246604,"target":34962},{"buffer":0,"byteLength":2556,"byteOffset":251764,"target":34963},{"buffer":0,"byteLength":4020,"byteOffset":254320,"target":34962},{"buffer":0,"byteLength":4020,"byteOffset":258340,"target":34962},{"buffer":0,"byteLength":5360,"byteOffset":262360,"target":34962},{"buffer":0,"byteLength":2680,"byteOffset":267720,"target":34962},{"buffer":0,"byteLength":2680,"byteOffset":270400,"target":34962},{"buffer":0,"byteLength":936,"byteOffset":273080,"target":34963},{"buffer":0,"byteLength":1080,"byteOffset":274016,"target":34962},{"buffer":0,"byteLength":1080,"byteOffset":275096,"target":34962},{"buffer":0,"byteLength":1440,"byteOffset":276176,"target":34962},{"buffer":0,"byteLength":720,"byteOffset":277616,"target":34962},{"buffer":0,"byteLength":720,"byteOffset":278336,"target":34962}],"buffers":[{"byteLength":279056,"uri":"SM_CoveredBody_01a.bin"}],"images":[{"name":"T_Covered_Bodies_N","uri":"../Textures/T_Covered_Bodies_N.png"},{"name":"T_Covered_Bodies_BC","uri":"../Textures/T_Covered_Bodies_BC.png"}],"materials":[{"alphaMode":"OPAQUE","doubleSided":false,"extras":{"fromFBX":{"isTruePBR":false,"shadingModel":"Phong"}},"name":"MI_CoveredBodies_01","normalTexture":{"index":0,"texCoord":0},"pbrMetallicRoughness":{"baseColorFactor":[1,1,1,1],"baseColorTexture":{"index":1,"texCoord":0},"metallicFactor":0.400000005960464,"roughnessFactor":0.301511347293854}},{"alphaMode":"OPAQUE","doubleSided":false,"extras":{"fromFBX":{"isTruePBR":false,"shadingModel":"Lambert"}},"name":"DefaultMaterial","pbrMetallicRoughness":{"baseColorFactor":[0.5,0.5,0.5,1],"metallicFactor":0.200000002980232,"roughnessFactor":0.800000011920929}}],"meshes":[{"name":"SM_CoveredBody_01a_LOD0","primitives":[{"attributes":{"NORMAL":3,"POSITION":2,"TANGENT":4,"TEXCOORD_0":5,"TEXCOORD_1":6},"indices":1,"material":0,"mode":4}]},{"name":"SM_CoveredBody_01a_LOD1","primitives":[{"attributes":{"NORMAL":9,"POSITION":8,"TANGENT":10,"TEXCOORD_0":11,"TEXCOORD_1":12},"indices":7,"material":0,"mode":4}]},{"name":"SM_CoveredBody_01a_LOD2","primitives":[{"attributes":{"NORMAL":15,"POSITION":14,"TANGENT":16,"TEXCOORD_0":17,"TEXCOORD_1":18},"indices":13,"material":0,"mode":4}]},{"name":"SM_CoveredBody_01a_LOD3","primitives":[{"attributes":{"NORMAL":21,"POSITION":20,"TANGENT":22,"TEXCOORD_0":23,"TEXCOORD_1":24},"indices":19,"material":0,"mode":4}]},{"name":"SM_CoveredBody_01a_ConvexHulls","primitives":[{"attributes":{"NORMAL":27,"POSITION":26,"TANGENT":28,"TEXCOORD_0":29,"TEXCOORD_1":30},"indices":25,"material":1,"mode":4}]}],"nodes":[{"children":[1,2,3,4,5],"name":"StaticMeshActor_195","originalUnits":0.00999999977648258,"pivot":[0,0,0],"rotation":[0,0,0,1],"scale":[1,1,1],"translation":[0,0,0]},{"mesh":0,"name":"SM_CoveredBody_01a_LOD0","originalUnits":0.00999999977648258,"pivot":[0,0,0],"rotation":[0,0,0,1],"scale":[1,1,1],"translation":[0,0,0]},{"mesh":4,"name":"SM_CoveredBody_01a_ConvexHulls","originalUnits":0.00999999977648258,"pivot":[0,0,0],"rotation":[0,0,0,1],"scale":[1,1,1],"translation":[0,0,0]},{"mesh":1,"name":"SM_CoveredBody_01a_LOD1","originalUnits":0.00999999977648258,"pivot":[0,0,0],"rotation":[0,0,0,1],"scale":[1,1,1],"translation":[0,0,0]},{"mesh":2,"name":"SM_CoveredBody_01a_LOD2","originalUnits":0.00999999977648258,"pivot":[0,0,0],"rotation":[0,0,0,1],"scale":[1,1,1],"translation":[0,0,0]},{"mesh":3,"name":"SM_CoveredBody_01a_LOD3","originalUnits":0.00999999977648258,"pivot":[0,0,0],"rotation":[0,0,0,1],"scale":[1,1,1],"translation":[0,0,0]}],"samplers":[{}],"scene":0,"scenes":[{"name":"Root Scene","nodes":[0]}],"textures":[{"name":"MI_CoveredBodies_01","sampler":0,"source":0},{"name":"MI_CoveredBodies_01","sampler":0,"source":1}]}