{"accessors":[{"bufferView":0,"byteOffset":0,"componentType":5126,"count":1,"max":[0],"min":[0],"type":"SCALAR"},{"bufferView":1,"byteOffset":0,"componentType":5123,"count":552,"type":"SCALAR"},{"bufferView":2,"byteOffset":0,"componentType":5126,"count":124,"max":[0.0573556125164032,0.64154577255249,0.0536276027560234],"min":[-0.05735551565886,-0.00478846253827,-0.05362760275602],"type":"VEC3"},{"bufferView":3,"byteOffset":0,"componentType":5126,"count":124,"type":"VEC3"},{"bufferView":4,"byteOffset":0,"componentType":5126,"count":124,"type":"VEC4"},{"bufferView":5,"byteOffset":0,"componentType":5126,"count":124,"type":"VEC2"},{"bufferView":6,"byteOffset":0,"componentType":5123,"count":276,"type":"SCALAR"},{"bufferView":7,"byteOffset":0,"componentType":5126,"count":78,"max":[0.0573556125164032,0.64154577255249,0.0464168153703213],"min":[-0.06227228417993,-0.00478846253827,-0.05074416846037],"type":"VEC3"},{"bufferView":8,"byteOffset":0,"componentType":5126,"count":78,"type":"VEC3"},{"bufferView":9,"byteOffset":0,"componentType":5126,"count":78,"type":"VEC4"},{"bufferView":10,"byteOffset":0,"componentType":5126,"count":78,"type":"VEC2"},{"bufferView":11,"byteOffset":0,"componentType":5123,"count":138,"type":"SCALAR"},{"bufferView":12,"byteOffset":0,"componentType":5126,"count":41,"max":[0.0573556125164032,0.628745019435883,0.0484525747597218],"min":[-0.04805212840438,-0.00478846253827,-0.05074416846037],"type":"VEC3"},{"bufferView":13,"byteOffset":0,"componentType":5126,"count":41,"type":"VEC3"},{"bufferView":14,"byteOffset":0,"componentType":5126,"count":41,"type":"VEC4"},{"bufferView":15,"byteOffset":0,"componentType":5126,"count":41,"type":"VEC2"}],"animations":[{"channels":[],"name":"Unreal Take","samplers":[]}],"asset":{"generator":"FBX2glTF v0.13.0","version":"2.0"},"bufferViews":[{"buffer":0,"byteLength":4,"byteOffset":0},{"buffer":0,"byteLength":1104,"byteOffset":4,"target":34963},{"buffer":0,"byteLength":1488,"byteOffset":1108,"target":34962},{"buffer":0,"byteLength":1488,"byteOffset":2596,"target":34962},{"buffer":0,"byteLength":1984,"byteOffset":4084,"target":34962},{"buffer":0,"byteLength":992,"byteOffset":6068,"target":34962},{"buffer":0,"byteLength":552,"byteOffset":7060,"target":34963},{"buffer":0,"byteLength":936,"byteOffset":7612,"target":34962},{"buffer":0,"byteLength":936,"byteOffset":8548,"target":34962},{"buffer":0,"byteLength":1248,"byteOffset":9484,"target":34962},{"buffer":0,"byteLength":624,"byteOffset":10732,"target":34962},{"buffer":0,"byteLength":276,"byteOffset":11356,"target":34963},{"buffer":0,"byteLength":492,"byteOffset":11632,"target":34962},{"buffer":0,"byteLength":492,"byteOffset":12124,"target":34962},{"buffer":0,"byteLength":656,"byteOffset":12616,"target":34962},{"buffer":0,"byteLength":328,"byteOffset":13272,"target":34962}],"buffers":[{"byteLength":13600,"uri":"SM_Candle_01.bin"}],"images":[{"name":"T_Candles_01_N","uri":"../Textures/T_Candles_01_N.png"},{"name":"T_Candles_01_BC","uri":"../Textures/T_Candles_01_BC.png"}],"materials":[{"alphaMode":"OPAQUE","doubleSided":false,"extras":{"fromFBX":{"isTruePBR":false,"shadingModel":"Phong"}},"name":"MI_Candles_01","normalTexture":{"index":0,"texCoord":0},"pbrMetallicRoughness":{"baseColorFactor":[1,1,1,1],"baseColorTexture":{"index":1,"texCoord":0},"metallicFactor":0.400000005960464,"roughnessFactor":0.301511347293854}}],"meshes":[{"name":"SM_Candle_01_LOD0","primitives":[{"attributes":{"NORMAL":3,"POSITION":2,"TANGENT":4,"TEXCOORD_0":5},"indices":1,"material":0,"mode":4}]},{"name":"SM_Candle_01_LOD1","primitives":[{"attributes":{"NORMAL":8,"POSITION":7,"TANGENT":9,"TEXCOORD_0":10},"indices":6,"material":0,"mode":4}]},{"name":"SM_Candle_01_LOD2","primitives":[{"attributes":{"NORMAL":13,"POSITION":12,"TANGENT":14,"TEXCOORD_0":15},"indices":11,"material":0,"mode":4}]}],"nodes":[{"children":[1,2,3,4],"name":"StaticMeshActor_1394","originalUnits":0.00999999977648258,"pivot":[0,0,0],"rotation":[0,0,0,1],"scale":[1,1,1],"translation":[0,0,0]},{"mesh":0,"name":"SM_Candle_01_LOD0","originalUnits":0.00999999977648258,"pivot":[0,0,0],"rotation":[0,0,0,1],"scale":[1,1,1],"translation":[0,0,0]},{"name":"SM_Candle_01_ConvexHulls","originalUnits":0.00999999977648258,"pivot":[0,0,0],"rotation":[0,0,0,1],"scale":[1,1,1],"translation":[0,0,0]},{"mesh":1,"name":"SM_Candle_01_LOD1","originalUnits":0.00999999977648258,"pivot":[0,0,0],"rotation":[0,0,0,1],"scale":[1,1,1],"translation":[0,0,0]},{"mesh":2,"name":"SM_Candle_01_LOD2","originalUnits":0.00999999977648258,"pivot":[0,0,0],"rotation":[0,0,0,1],"scale":[1,1,1],"translation":[0,0,0]}],"samplers":[{}],"scene":0,"scenes":[{"name":"Root Scene","nodes":[0]}],"textures":[{"name":"MI_Candles_01","sampler":0,"source":0},{"name":"MI_Candles_01","sampler":0,"source":1}]}