{"accessors":[{"bufferView":0,"byteOffset":0,"componentType":5126,"count":1,"max":[0],"min":[0],"type":"SCALAR"},{"bufferView":1,"byteOffset":0,"componentType":5123,"count":372,"type":"SCALAR"},{"bufferView":2,"byteOffset":0,"componentType":5126,"count":144,"max":[13.9999971389771,0.404594093561172,14.0031328201294],"min":[-0.00000261179571,-6.10973358154297,0.00313354493118823],"type":"VEC3"},{"bufferView":3,"byteOffset":0,"componentType":5126,"count":144,"type":"VEC3"},{"bufferView":4,"byteOffset":0,"componentType":5126,"count":144,"type":"VEC4"},{"bufferView":5,"byteOffset":0,"componentType":5126,"count":144,"type":"VEC2"},{"bufferView":6,"byteOffset":0,"componentType":5126,"count":144,"type":"VEC2"},{"bufferView":7,"byteOffset":0,"componentType":5123,"count":2280,"type":"SCALAR"},{"bufferView":8,"byteOffset":0,"componentType":5126,"count":600,"max":[14.0000009536743,0.00000740051291359123,14.0031232833862],"min":[-0.00000505466187,-6.11724042892456,0.00312011712230742],"type":"VEC3"},{"bufferView":9,"byteOffset":0,"componentType":5126,"count":600,"type":"VEC3"},{"bufferView":10,"byteOffset":0,"componentType":5126,"count":600,"type":"VEC4"},{"bufferView":11,"byteOffset":0,"componentType":5126,"count":600,"type":"VEC2"},{"bufferView":12,"byteOffset":0,"componentType":5126,"count":600,"type":"VEC2"},{"bufferView":13,"byteOffset":0,"componentType":5123,"count":144,"type":"SCALAR"},{"bufferView":14,"byteOffset":0,"componentType":5126,"count":24,"max":[14.068359375,0.47403272986412,14.0413961410522],"min":[-0.03220757469535,-6.18198728561401,-0.15002928674221],"type":"VEC3"},{"bufferView":15,"byteOffset":0,"componentType":5126,"count":24,"type":"VEC3"},{"bufferView":16,"byteOffset":0,"componentType":5126,"count":24,"type":"VEC4"},{"bufferView":17,"byteOffset":0,"componentType":5126,"count":24,"type":"VEC2"},{"bufferView":18,"byteOffset":0,"componentType":5126,"count":24,"type":"VEC2"}],"animations":[{"channels":[],"name":"Unreal Take","samplers":[]}],"asset":{"generator":"FBX2glTF v0.13.0","version":"2.0"},"bufferViews":[{"buffer":0,"byteLength":4,"byteOffset":0},{"buffer":0,"byteLength":744,"byteOffset":4,"target":34963},{"buffer":0,"byteLength":1728,"byteOffset":748,"target":34962},{"buffer":0,"byteLength":1728,"byteOffset":2476,"target":34962},{"buffer":0,"byteLength":2304,"byteOffset":4204,"target":34962},{"buffer":0,"byteLength":1152,"byteOffset":6508,"target":34962},{"buffer":0,"byteLength":1152,"byteOffset":7660,"target":34962},{"buffer":0,"byteLength":4560,"byteOffset":8812,"target":34963},{"buffer":0,"byteLength":7200,"byteOffset":13372,"target":34962},{"buffer":0,"byteLength":7200,"byteOffset":20572,"target":34962},{"buffer":0,"byteLength":9600,"byteOffset":27772,"target":34962},{"buffer":0,"byteLength":4800,"byteOffset":37372,"target":34962},{"buffer":0,"byteLength":4800,"byteOffset":42172,"target":34962},{"buffer":0,"byteLength":288,"byteOffset":46972,"target":34963},{"buffer":0,"byteLength":288,"byteOffset":47260,"target":34962},{"buffer":0,"byteLength":288,"byteOffset":47548,"target":34962},{"buffer":0,"byteLength":384,"byteOffset":47836,"target":34962},{"buffer":0,"byteLength":192,"byteOffset":48220,"target":34962},{"buffer":0,"byteLength":192,"byteOffset":48412,"target":34962}],"buffers":[{"byteLength":48604,"uri":"SM_Ceiling_01a.bin"}],"images":[{"name":"T_Brick_Wall_02a_N","uri":"../Textures/T_Brick_Wall_02a_N.png"},{"name":"T_Brick_Wall_02a_BC","uri":"../Textures/T_Brick_Wall_02a_BC.png"},{"name":"T_Brick_Wall_02b_N","uri":"../Textures/T_Brick_Wall_02b_N.png"},{"name":"T_Brick_Wall_02b_BC","uri":"../Textures/T_Brick_Wall_02b_BC.png"}],"materials":[{"alphaMode":"OPAQUE","doubleSided":false,"extras":{"fromFBX":{"isTruePBR":false,"shadingModel":"Phong"}},"name":"MI_Brick_Wall_02a","normalTexture":{"index":0,"texCoord":0},"pbrMetallicRoughness":{"baseColorFactor":[1,1,1,1],"baseColorTexture":{"index":1,"texCoord":0},"metallicFactor":0.400000005960464,"roughnessFactor":0.301511347293854}},{"alphaMode":"OPAQUE","doubleSided":false,"extras":{"fromFBX":{"isTruePBR":false,"shadingModel":"Phong"}},"name":"MI_Brick_Wall_02b","normalTexture":{"index":2,"texCoord":0},"pbrMetallicRoughness":{"baseColorFactor":[1,1,1,1],"baseColorTexture":{"index":3,"texCoord":0},"metallicFactor":0.400000005960464,"roughnessFactor":0.301511347293854}},{"alphaMode":"OPAQUE","doubleSided":false,"extras":{"fromFBX":{"isTruePBR":false,"shadingModel":"Lambert"}},"name":"DefaultMaterial","pbrMetallicRoughness":{"baseColorFactor":[0.5,0.5,0.5,1],"metallicFactor":0.200000002980232,"roughnessFactor":0.800000011920929}}],"meshes":[{"name":"SM_Ceiling_01a","primitives":[{"attributes":{"NORMAL":3,"POSITION":2,"TANGENT":4,"TEXCOORD_0":5,"TEXCOORD_1":6},"indices":1,"material":0,"mode":4},{"attributes":{"NORMAL":9,"POSITION":8,"TANGENT":10,"TEXCOORD_0":11,"TEXCOORD_1":12},"indices":7,"material":1,"mode":4}]},{"name":"SM_Ceiling_01a_ConvexHulls","primitives":[{"attributes":{"NORMAL":15,"POSITION":14,"TANGENT":16,"TEXCOORD_0":17,"TEXCOORD_1":18},"indices":13,"material":2,"mode":4}]}],"nodes":[{"mesh":0,"name":"SM_Ceiling_01a","originalUnits":0.00999999977648258,"pivot":[0,0,0],"rotation":[0,0,0,1],"scale":[1,1,1],"translation":[0,0,0]},{"mesh":1,"name":"SM_Ceiling_01a_ConvexHulls","originalUnits":0.00999999977648258,"pivot":[0,0,0],"rotation":[0,0,0,1],"scale":[1,1,1],"translation":[0,0,0]}],"samplers":[{}],"scene":0,"scenes":[{"name":"Root Scene","nodes":[0,1]}],"textures":[{"name":"MI_Brick_Wall_02a","sampler":0,"source":0},{"name":"MI_Brick_Wall_02a","sampler":0,"source":1},{"name":"MI_Brick_Wall_02b","sampler":0,"source":2},{"name":"MI_Brick_Wall_02b","sampler":0,"source":3}]}