{"accessors":[{"bufferView":0,"byteOffset":0,"componentType":5126,"count":1,"max":[0],"min":[0],"type":"SCALAR"},{"bufferView":1,"byteOffset":0,"componentType":5123,"count":4524,"type":"SCALAR"},{"bufferView":2,"byteOffset":0,"componentType":5126,"count":1188,"max":[0.192791283130646,0.671343147754669,0.270706385374069],"min":[-0.19370673596859,-0.00555604184046,-0.27150759100914],"type":"VEC3"},{"bufferView":3,"byteOffset":0,"componentType":5126,"count":1188,"type":"VEC3"},{"bufferView":4,"byteOffset":0,"componentType":5126,"count":1188,"type":"VEC4"},{"bufferView":5,"byteOffset":0,"componentType":5126,"count":1188,"type":"VEC2"},{"bufferView":6,"byteOffset":0,"componentType":5126,"count":1188,"type":"VEC2"},{"bufferView":7,"byteOffset":0,"componentType":5123,"count":2262,"type":"SCALAR"},{"bufferView":8,"byteOffset":0,"componentType":5126,"count":650,"max":[0.196397110819817,0.66060334444046,0.271769195795059],"min":[-0.19333143532276,-0.010567817837,-0.26884132623673],"type":"VEC3"},{"bufferView":9,"byteOffset":0,"componentType":5126,"count":650,"type":"VEC3"},{"bufferView":10,"byteOffset":0,"componentType":5126,"count":650,"type":"VEC4"},{"bufferView":11,"byteOffset":0,"componentType":5126,"count":650,"type":"VEC2"},{"bufferView":12,"byteOffset":0,"componentType":5126,"count":650,"type":"VEC2"},{"bufferView":13,"byteOffset":0,"componentType":5123,"count":1128,"type":"SCALAR"},{"bufferView":14,"byteOffset":0,"componentType":5126,"count":410,"max":[0.196397110819817,0.658542394638062,0.285567611455917],"min":[-0.19333143532276,-0.010567817837,-0.26518946886063],"type":"VEC3"},{"bufferView":15,"byteOffset":0,"componentType":5126,"count":410,"type":"VEC3"},{"bufferView":16,"byteOffset":0,"componentType":5126,"count":410,"type":"VEC4"},{"bufferView":17,"byteOffset":0,"componentType":5126,"count":410,"type":"VEC2"},{"bufferView":18,"byteOffset":0,"componentType":5126,"count":410,"type":"VEC2"},{"bufferView":19,"byteOffset":0,"componentType":5123,"count":564,"type":"SCALAR"},{"bufferView":20,"byteOffset":0,"componentType":5126,"count":270,"max":[0.184338107705116,0.654860198497772,0.268538683652878],"min":[-0.20351818203926,-0.01658988371491,-0.27291682362557],"type":"VEC3"},{"bufferView":21,"byteOffset":0,"componentType":5126,"count":270,"type":"VEC3"},{"bufferView":22,"byteOffset":0,"componentType":5126,"count":270,"type":"VEC4"},{"bufferView":23,"byteOffset":0,"componentType":5126,"count":270,"type":"VEC2"},{"bufferView":24,"byteOffset":0,"componentType":5126,"count":270,"type":"VEC2"}],"animations":[{"channels":[],"name":"Unreal Take","samplers":[]}],"asset":{"generator":"FBX2glTF v0.13.0","version":"2.0"},"bufferViews":[{"buffer":0,"byteLength":4,"byteOffset":0},{"buffer":0,"byteLength":9048,"byteOffset":4,"target":34963},{"buffer":0,"byteLength":14256,"byteOffset":9052,"target":34962},{"buffer":0,"byteLength":14256,"byteOffset":23308,"target":34962},{"buffer":0,"byteLength":19008,"byteOffset":37564,"target":34962},{"buffer":0,"byteLength":9504,"byteOffset":56572,"target":34962},{"buffer":0,"byteLength":9504,"byteOffset":66076,"target":34962},{"buffer":0,"byteLength":4524,"byteOffset":75580,"target":34963},{"buffer":0,"byteLength":7800,"byteOffset":80104,"target":34962},{"buffer":0,"byteLength":7800,"byteOffset":87904,"target":34962},{"buffer":0,"byteLength":10400,"byteOffset":95704,"target":34962},{"buffer":0,"byteLength":5200,"byteOffset":106104,"target":34962},{"buffer":0,"byteLength":5200,"byteOffset":111304,"target":34962},{"buffer":0,"byteLength":2256,"byteOffset":116504,"target":34963},{"buffer":0,"byteLength":4920,"byteOffset":118760,"target":34962},{"buffer":0,"byteLength":4920,"byteOffset":123680,"target":34962},{"buffer":0,"byteLength":6560,"byteOffset":128600,"target":34962},{"buffer":0,"byteLength":3280,"byteOffset":135160,"target":34962},{"buffer":0,"byteLength":3280,"byteOffset":138440,"target":34962},{"buffer":0,"byteLength":1128,"byteOffset":141720,"target":34963},{"buffer":0,"byteLength":3240,"byteOffset":142848,"target":34962},{"buffer":0,"byteLength":3240,"byteOffset":146088,"target":34962},{"buffer":0,"byteLength":4320,"byteOffset":149328,"target":34962},{"buffer":0,"byteLength":2160,"byteOffset":153648,"target":34962},{"buffer":0,"byteLength":2160,"byteOffset":155808,"target":34962}],"buffers":[{"byteLength":157968,"uri":"SM_CandleCluster_01a.bin"}],"images":[{"name":"T_Candles_01_N","uri":"../Textures/T_Candles_01_N.png"},{"name":"T_Candles_01_BC","uri":"../Textures/T_Candles_01_BC.png"}],"materials":[{"alphaMode":"OPAQUE","doubleSided":false,"extras":{"fromFBX":{"isTruePBR":false,"shadingModel":"Phong"}},"name":"MI_Candles_01","normalTexture":{"index":0,"texCoord":0},"pbrMetallicRoughness":{"baseColorFactor":[1,1,1,1],"baseColorTexture":{"index":1,"texCoord":0},"metallicFactor":0.400000005960464,"roughnessFactor":0.301511347293854}}],"meshes":[{"name":"SM_CandleCluster_01a_LOD0","primitives":[{"attributes":{"NORMAL":3,"POSITION":2,"TANGENT":4,"TEXCOORD_0":5,"TEXCOORD_1":6},"indices":1,"material":0,"mode":4}]},{"name":"SM_CandleCluster_01a_LOD1","primitives":[{"attributes":{"NORMAL":9,"POSITION":8,"TANGENT":10,"TEXCOORD_0":11,"TEXCOORD_1":12},"indices":7,"material":0,"mode":4}]},{"name":"SM_CandleCluster_01a_LOD2","primitives":[{"attributes":{"NORMAL":15,"POSITION":14,"TANGENT":16,"TEXCOORD_0":17,"TEXCOORD_1":18},"indices":13,"material":0,"mode":4}]},{"name":"SM_CandleCluster_01a_LOD3","primitives":[{"attributes":{"NORMAL":21,"POSITION":20,"TANGENT":22,"TEXCOORD_0":23,"TEXCOORD_1":24},"indices":19,"material":0,"mode":4}]}],"nodes":[{"children":[1,2,3,4,5],"name":"BP_CandleCluster_01_C_28_SM_CandleCluster_01a_13_527","originalUnits":0.00999999977648258,"pivot":[0,0,0],"rotation":[0,0,0,1],"scale":[1,1,1],"translation":[0,0,0]},{"mesh":0,"name":"SM_CandleCluster_01a_LOD0","originalUnits":0.00999999977648258,"pivot":[0,0,0],"rotation":[0,0,0,1],"scale":[1,1,1],"translation":[0,0,0]},{"name":"SM_CandleCluster_01a_ConvexHulls","originalUnits":0.00999999977648258,"pivot":[0,0,0],"rotation":[0,0,0,1],"scale":[1,1,1],"translation":[0,0,0]},{"mesh":1,"name":"SM_CandleCluster_01a_LOD1","originalUnits":0.00999999977648258,"pivot":[0,0,0],"rotation":[0,0,0,1],"scale":[1,1,1],"translation":[0,0,0]},{"mesh":2,"name":"SM_CandleCluster_01a_LOD2","originalUnits":0.00999999977648258,"pivot":[0,0,0],"rotation":[0,0,0,1],"scale":[1,1,1],"translation":[0,0,0]},{"mesh":3,"name":"SM_CandleCluster_01a_LOD3","originalUnits":0.00999999977648258,"pivot":[0,0,0],"rotation":[0,0,0,1],"scale":[1,1,1],"translation":[0,0,0]}],"samplers":[{}],"scene":0,"scenes":[{"name":"Root Scene","nodes":[0]}],"textures":[{"name":"MI_Candles_01","sampler":0,"source":0},{"name":"MI_Candles_01","sampler":0,"source":1}]}