{"accessors":[{"bufferView":0,"byteOffset":0,"componentType":5126,"count":1,"max":[0],"min":[0],"type":"SCALAR"},{"bufferView":1,"byteOffset":0,"componentType":5123,"count":17715,"type":"SCALAR"},{"bufferView":2,"byteOffset":0,"componentType":5126,"count":3544,"max":[1.17918634414673,0.31199523806572,0.918141782283783],"min":[-1.17107141017914,-0.02215912565589,-1.05811631679535],"type":"VEC3"},{"bufferView":3,"byteOffset":0,"componentType":5126,"count":3544,"type":"VEC3"},{"bufferView":4,"byteOffset":0,"componentType":5126,"count":3544,"type":"VEC4"},{"bufferView":5,"byteOffset":0,"componentType":5126,"count":3544,"type":"VEC2"},{"bufferView":6,"byteOffset":0,"componentType":5126,"count":3544,"type":"VEC2"},{"bufferView":7,"byteOffset":0,"componentType":5123,"count":8859,"type":"SCALAR"},{"bufferView":8,"byteOffset":0,"componentType":5126,"count":1931,"max":[1.17997324466705,0.319014847278595,0.921696841716766],"min":[-1.17107141017914,-0.02418246679008,-1.05408561229706],"type":"VEC3"},{"bufferView":9,"byteOffset":0,"componentType":5126,"count":1931,"type":"VEC3"},{"bufferView":10,"byteOffset":0,"componentType":5126,"count":1931,"type":"VEC4"},{"bufferView":11,"byteOffset":0,"componentType":5126,"count":1931,"type":"VEC2"},{"bufferView":12,"byteOffset":0,"componentType":5126,"count":1931,"type":"VEC2"},{"bufferView":13,"byteOffset":0,"componentType":5123,"count":4431,"type":"SCALAR"},{"bufferView":14,"byteOffset":0,"componentType":5126,"count":1074,"max":[1.18219363689423,0.315106868743896,0.921696841716766],"min":[-1.17103469371796,-0.02138610370457,-1.05782973766327],"type":"VEC3"},{"bufferView":15,"byteOffset":0,"componentType":5126,"count":1074,"type":"VEC3"},{"bufferView":16,"byteOffset":0,"componentType":5126,"count":1074,"type":"VEC4"},{"bufferView":17,"byteOffset":0,"componentType":5126,"count":1074,"type":"VEC2"},{"bufferView":18,"byteOffset":0,"componentType":5126,"count":1074,"type":"VEC2"},{"bufferView":19,"byteOffset":0,"componentType":5123,"count":2217,"type":"SCALAR"},{"bufferView":20,"byteOffset":0,"componentType":5126,"count":562,"max":[1.17818093299866,0.304261058568954,0.854451298713684],"min":[-1.17095458507538,-0.02231542207301,-1.06239771842957],"type":"VEC3"},{"bufferView":21,"byteOffset":0,"componentType":5126,"count":562,"type":"VEC3"},{"bufferView":22,"byteOffset":0,"componentType":5126,"count":562,"type":"VEC4"},{"bufferView":23,"byteOffset":0,"componentType":5126,"count":562,"type":"VEC2"},{"bufferView":24,"byteOffset":0,"componentType":5126,"count":562,"type":"VEC2"},{"bufferView":25,"byteOffset":0,"componentType":5123,"count":96,"type":"SCALAR"},{"bufferView":26,"byteOffset":0,"componentType":5126,"count":20,"max":[1.15101182460785,0.294963896274567,0.895680129528046],"min":[-1.15434181690216,-0.03249267116189,-1.05434381961823],"type":"VEC3"},{"bufferView":27,"byteOffset":0,"componentType":5126,"count":20,"type":"VEC3"},{"bufferView":28,"byteOffset":0,"componentType":5126,"count":20,"type":"VEC4"},{"bufferView":29,"byteOffset":0,"componentType":5126,"count":20,"type":"VEC2"},{"bufferView":30,"byteOffset":0,"componentType":5126,"count":20,"type":"VEC2"}],"animations":[{"channels":[],"name":"Unreal Take","samplers":[]}],"asset":{"generator":"FBX2glTF v0.13.0","version":"2.0"},"bufferViews":[{"buffer":0,"byteLength":4,"byteOffset":0},{"buffer":0,"byteLength":35430,"byteOffset":4,"target":34963},{"buffer":0,"byteLength":42528,"byteOffset":35436,"target":34962},{"buffer":0,"byteLength":42528,"byteOffset":77964,"target":34962},{"buffer":0,"byteLength":56704,"byteOffset":120492,"target":34962},{"buffer":0,"byteLength":28352,"byteOffset":177196,"target":34962},{"buffer":0,"byteLength":28352,"byteOffset":205548,"target":34962},{"buffer":0,"byteLength":17718,"byteOffset":233900,"target":34963},{"buffer":0,"byteLength":23172,"byteOffset":251620,"target":34962},{"buffer":0,"byteLength":23172,"byteOffset":274792,"target":34962},{"buffer":0,"byteLength":30896,"byteOffset":297964,"target":34962},{"buffer":0,"byteLength":15448,"byteOffset":328860,"target":34962},{"buffer":0,"byteLength":15448,"byteOffset":344308,"target":34962},{"buffer":0,"byteLength":8862,"byteOffset":359756,"target":34963},{"buffer":0,"byteLength":12888,"byteOffset":368620,"target":34962},{"buffer":0,"byteLength":12888,"byteOffset":381508,"target":34962},{"buffer":0,"byteLength":17184,"byteOffset":394396,"target":34962},{"buffer":0,"byteLength":8592,"byteOffset":411580,"target":34962},{"buffer":0,"byteLength":8592,"byteOffset":420172,"target":34962},{"buffer":0,"byteLength":4434,"byteOffset":428764,"target":34963},{"buffer":0,"byteLength":6744,"byteOffset":433200,"target":34962},{"buffer":0,"byteLength":6744,"byteOffset":439944,"target":34962},{"buffer":0,"byteLength":8992,"byteOffset":446688,"target":34962},{"buffer":0,"byteLength":4496,"byteOffset":455680,"target":34962},{"buffer":0,"byteLength":4496,"byteOffset":460176,"target":34962},{"buffer":0,"byteLength":192,"byteOffset":464672,"target":34963},{"buffer":0,"byteLength":240,"byteOffset":464864,"target":34962},{"buffer":0,"byteLength":240,"byteOffset":465104,"target":34962},{"buffer":0,"byteLength":320,"byteOffset":465344,"target":34962},{"buffer":0,"byteLength":160,"byteOffset":465664,"target":34962},{"buffer":0,"byteLength":160,"byteOffset":465824,"target":34962}],"buffers":[{"byteLength":465984,"uri":"SM_CoveredBody_02a.bin"}],"images":[{"name":"T_Covered_Bodies_N","uri":"../Textures/T_Covered_Bodies_N.png"},{"name":"T_Covered_Bodies_BC","uri":"../Textures/T_Covered_Bodies_BC.png"}],"materials":[{"alphaMode":"OPAQUE","doubleSided":false,"extras":{"fromFBX":{"isTruePBR":false,"shadingModel":"Phong"}},"name":"MI_CoveredBodies_01","normalTexture":{"index":0,"texCoord":0},"pbrMetallicRoughness":{"baseColorFactor":[1,1,1,1],"baseColorTexture":{"index":1,"texCoord":0},"metallicFactor":0.400000005960464,"roughnessFactor":0.301511347293854}},{"alphaMode":"OPAQUE","doubleSided":false,"extras":{"fromFBX":{"isTruePBR":false,"shadingModel":"Lambert"}},"name":"DefaultMaterial","pbrMetallicRoughness":{"baseColorFactor":[0.5,0.5,0.5,1],"metallicFactor":0.200000002980232,"roughnessFactor":0.800000011920929}}],"meshes":[{"name":"SM_CoveredBody_02a_LOD0","primitives":[{"attributes":{"NORMAL":3,"POSITION":2,"TANGENT":4,"TEXCOORD_0":5,"TEXCOORD_1":6},"indices":1,"material":0,"mode":4}]},{"name":"SM_CoveredBody_02a_LOD1","primitives":[{"attributes":{"NORMAL":9,"POSITION":8,"TANGENT":10,"TEXCOORD_0":11,"TEXCOORD_1":12},"indices":7,"material":0,"mode":4}]},{"name":"SM_CoveredBody_02a_LOD2","primitives":[{"attributes":{"NORMAL":15,"POSITION":14,"TANGENT":16,"TEXCOORD_0":17,"TEXCOORD_1":18},"indices":13,"material":0,"mode":4}]},{"name":"SM_CoveredBody_02a_LOD3","primitives":[{"attributes":{"NORMAL":21,"POSITION":20,"TANGENT":22,"TEXCOORD_0":23,"TEXCOORD_1":24},"indices":19,"material":0,"mode":4}]},{"name":"SM_CoveredBody_02a_ConvexHulls","primitives":[{"attributes":{"NORMAL":27,"POSITION":26,"TANGENT":28,"TEXCOORD_0":29,"TEXCOORD_1":30},"indices":25,"material":1,"mode":4}]}],"nodes":[{"children":[1,2,3,4,5],"name":"StaticMeshActor_1278","originalUnits":0.00999999977648258,"pivot":[0,0,0],"rotation":[0,0,0,1],"scale":[1,1,1],"translation":[0,0,0]},{"mesh":0,"name":"SM_CoveredBody_02a_LOD0","originalUnits":0.00999999977648258,"pivot":[0,0,0],"rotation":[0,0,0,1],"scale":[1,1,1],"translation":[0,0,0]},{"mesh":4,"name":"SM_CoveredBody_02a_ConvexHulls","originalUnits":0.00999999977648258,"pivot":[0,0,0],"rotation":[0,0,0,1],"scale":[1,1,1],"translation":[0,0,0]},{"mesh":1,"name":"SM_CoveredBody_02a_LOD1","originalUnits":0.00999999977648258,"pivot":[0,0,0],"rotation":[0,0,0,1],"scale":[1,1,1],"translation":[0,0,0]},{"mesh":2,"name":"SM_CoveredBody_02a_LOD2","originalUnits":0.00999999977648258,"pivot":[0,0,0],"rotation":[0,0,0,1],"scale":[1,1,1],"translation":[0,0,0]},{"mesh":3,"name":"SM_CoveredBody_02a_LOD3","originalUnits":0.00999999977648258,"pivot":[0,0,0],"rotation":[0,0,0,1],"scale":[1,1,1],"translation":[0,0,0]}],"samplers":[{}],"scene":0,"scenes":[{"name":"Root Scene","nodes":[0]}],"textures":[{"name":"MI_CoveredBodies_01","sampler":0,"source":0},{"name":"MI_CoveredBodies_01","sampler":0,"source":1}]}