{"accessors":[{"bufferView":0,"byteOffset":0,"componentType":5126,"count":1,"max":[0],"min":[0],"type":"SCALAR"},{"bufferView":1,"byteOffset":0,"componentType":5123,"count":522,"type":"SCALAR"},{"bufferView":2,"byteOffset":0,"componentType":5126,"count":121,"max":[0.0594258047640324,0.394763618707657,0.0571290664374828],"min":[-0.06054552271962,-0.00232160510495,-0.05676144361496],"type":"VEC3"},{"bufferView":3,"byteOffset":0,"componentType":5126,"count":121,"type":"VEC3"},{"bufferView":4,"byteOffset":0,"componentType":5126,"count":121,"type":"VEC4"},{"bufferView":5,"byteOffset":0,"componentType":5126,"count":121,"type":"VEC2"},{"bufferView":6,"byteOffset":0,"componentType":5123,"count":258,"type":"SCALAR"},{"bufferView":7,"byteOffset":0,"componentType":5126,"count":76,"max":[0.0569949857890606,0.394763618707657,0.0517345555126667],"min":[-0.05643206089735,-0.00232160510495,-0.05231054127216],"type":"VEC3"},{"bufferView":8,"byteOffset":0,"componentType":5126,"count":76,"type":"VEC3"},{"bufferView":9,"byteOffset":0,"componentType":5126,"count":76,"type":"VEC4"},{"bufferView":10,"byteOffset":0,"componentType":5126,"count":76,"type":"VEC2"},{"bufferView":11,"byteOffset":0,"componentType":5123,"count":132,"type":"SCALAR"},{"bufferView":12,"byteOffset":0,"componentType":5126,"count":43,"max":[0.0569949857890606,0.394204050302505,0.0602333806455135],"min":[-0.05643206089735,-0.00232160510495,-0.05015307292342],"type":"VEC3"},{"bufferView":13,"byteOffset":0,"componentType":5126,"count":43,"type":"VEC3"},{"bufferView":14,"byteOffset":0,"componentType":5126,"count":43,"type":"VEC4"},{"bufferView":15,"byteOffset":0,"componentType":5126,"count":43,"type":"VEC2"}],"animations":[{"channels":[],"name":"Unreal Take","samplers":[]}],"asset":{"generator":"FBX2glTF v0.13.0","version":"2.0"},"bufferViews":[{"buffer":0,"byteLength":4,"byteOffset":0},{"buffer":0,"byteLength":1044,"byteOffset":4,"target":34963},{"buffer":0,"byteLength":1452,"byteOffset":1048,"target":34962},{"buffer":0,"byteLength":1452,"byteOffset":2500,"target":34962},{"buffer":0,"byteLength":1936,"byteOffset":3952,"target":34962},{"buffer":0,"byteLength":968,"byteOffset":5888,"target":34962},{"buffer":0,"byteLength":516,"byteOffset":6856,"target":34963},{"buffer":0,"byteLength":912,"byteOffset":7372,"target":34962},{"buffer":0,"byteLength":912,"byteOffset":8284,"target":34962},{"buffer":0,"byteLength":1216,"byteOffset":9196,"target":34962},{"buffer":0,"byteLength":608,"byteOffset":10412,"target":34962},{"buffer":0,"byteLength":264,"byteOffset":11020,"target":34963},{"buffer":0,"byteLength":516,"byteOffset":11284,"target":34962},{"buffer":0,"byteLength":516,"byteOffset":11800,"target":34962},{"buffer":0,"byteLength":688,"byteOffset":12316,"target":34962},{"buffer":0,"byteLength":344,"byteOffset":13004,"target":34962}],"buffers":[{"byteLength":13348,"uri":"SM_Candle_03.bin"}],"images":[{"name":"T_Candles_01_N","uri":"../Textures/T_Candles_01_N.png"},{"name":"T_Candles_01_BC","uri":"../Textures/T_Candles_01_BC.png"}],"materials":[{"alphaMode":"OPAQUE","doubleSided":false,"extras":{"fromFBX":{"isTruePBR":false,"shadingModel":"Phong"}},"name":"MI_Candles_01","normalTexture":{"index":0,"texCoord":0},"pbrMetallicRoughness":{"baseColorFactor":[1,1,1,1],"baseColorTexture":{"index":1,"texCoord":0},"metallicFactor":0.400000005960464,"roughnessFactor":0.301511347293854}}],"meshes":[{"name":"SM_Candle_03_LOD0","primitives":[{"attributes":{"NORMAL":3,"POSITION":2,"TANGENT":4,"TEXCOORD_0":5},"indices":1,"material":0,"mode":4}]},{"name":"SM_Candle_03_LOD1","primitives":[{"attributes":{"NORMAL":8,"POSITION":7,"TANGENT":9,"TEXCOORD_0":10},"indices":6,"material":0,"mode":4}]},{"name":"SM_Candle_03_LOD2","primitives":[{"attributes":{"NORMAL":13,"POSITION":12,"TANGENT":14,"TEXCOORD_0":15},"indices":11,"material":0,"mode":4}]}],"nodes":[{"children":[1,2,3,4],"name":"StaticMeshActor_1390","originalUnits":0.00999999977648258,"pivot":[0,0,0],"rotation":[0,0,0,1],"scale":[1,1,1],"translation":[0,0,0]},{"mesh":0,"name":"SM_Candle_03_LOD0","originalUnits":0.00999999977648258,"pivot":[0,0,0],"rotation":[0,0,0,1],"scale":[1,1,1],"translation":[0,0,0]},{"name":"SM_Candle_03_ConvexHulls","originalUnits":0.00999999977648258,"pivot":[0,0,0],"rotation":[0,0,0,1],"scale":[1,1,1],"translation":[0,0,0]},{"mesh":1,"name":"SM_Candle_03_LOD1","originalUnits":0.00999999977648258,"pivot":[0,0,0],"rotation":[0,0,0,1],"scale":[1,1,1],"translation":[0,0,0]},{"mesh":2,"name":"SM_Candle_03_LOD2","originalUnits":0.00999999977648258,"pivot":[0,0,0],"rotation":[0,0,0,1],"scale":[1,1,1],"translation":[0,0,0]}],"samplers":[{}],"scene":0,"scenes":[{"name":"Root Scene","nodes":[0]}],"textures":[{"name":"MI_Candles_01","sampler":0,"source":0},{"name":"MI_Candles_01","sampler":0,"source":1}]}