{"accessors":[{"bufferView":0,"byteOffset":0,"componentType":5126,"count":1,"max":[0],"min":[0],"type":"SCALAR"},{"bufferView":1,"byteOffset":0,"componentType":5123,"count":228,"type":"SCALAR"},{"bufferView":2,"byteOffset":0,"componentType":5126,"count":67,"max":[0.0561407506465912,0.217452079057693,0.0562486313283443],"min":[-0.05614071711898,-0.00228425045498,-0.05624863505363],"type":"VEC3"},{"bufferView":3,"byteOffset":0,"componentType":5126,"count":67,"type":"VEC3"},{"bufferView":4,"byteOffset":0,"componentType":5126,"count":67,"type":"VEC4"},{"bufferView":5,"byteOffset":0,"componentType":5126,"count":67,"type":"VEC2"},{"bufferView":6,"byteOffset":0,"componentType":5123,"count":114,"type":"SCALAR"},{"bufferView":7,"byteOffset":0,"componentType":5126,"count":34,"max":[0.0561407506465912,0.217452079057693,0.0483729876577854],"min":[-0.05545384436846,-0.00228425045498,-0.05624863505363],"type":"VEC3"},{"bufferView":8,"byteOffset":0,"componentType":5126,"count":34,"type":"VEC3"},{"bufferView":9,"byteOffset":0,"componentType":5126,"count":34,"type":"VEC4"},{"bufferView":10,"byteOffset":0,"componentType":5126,"count":34,"type":"VEC2"},{"bufferView":11,"byteOffset":0,"componentType":5123,"count":54,"type":"SCALAR"},{"bufferView":12,"byteOffset":0,"componentType":5126,"count":23,"max":[0.0537225566804409,0.222057417035103,0.0483729876577854],"min":[-0.06282081454992,-0.00306546059437,-0.048329282552],"type":"VEC3"},{"bufferView":13,"byteOffset":0,"componentType":5126,"count":23,"type":"VEC3"},{"bufferView":14,"byteOffset":0,"componentType":5126,"count":23,"type":"VEC4"},{"bufferView":15,"byteOffset":0,"componentType":5126,"count":23,"type":"VEC2"}],"animations":[{"channels":[],"name":"Unreal Take","samplers":[]}],"asset":{"generator":"FBX2glTF v0.13.0","version":"2.0"},"bufferViews":[{"buffer":0,"byteLength":4,"byteOffset":0},{"buffer":0,"byteLength":456,"byteOffset":4,"target":34963},{"buffer":0,"byteLength":804,"byteOffset":460,"target":34962},{"buffer":0,"byteLength":804,"byteOffset":1264,"target":34962},{"buffer":0,"byteLength":1072,"byteOffset":2068,"target":34962},{"buffer":0,"byteLength":536,"byteOffset":3140,"target":34962},{"buffer":0,"byteLength":228,"byteOffset":3676,"target":34963},{"buffer":0,"byteLength":408,"byteOffset":3904,"target":34962},{"buffer":0,"byteLength":408,"byteOffset":4312,"target":34962},{"buffer":0,"byteLength":544,"byteOffset":4720,"target":34962},{"buffer":0,"byteLength":272,"byteOffset":5264,"target":34962},{"buffer":0,"byteLength":108,"byteOffset":5536,"target":34963},{"buffer":0,"byteLength":276,"byteOffset":5644,"target":34962},{"buffer":0,"byteLength":276,"byteOffset":5920,"target":34962},{"buffer":0,"byteLength":368,"byteOffset":6196,"target":34962},{"buffer":0,"byteLength":184,"byteOffset":6564,"target":34962}],"buffers":[{"byteLength":6748,"uri":"SM_Candle_04.bin"}],"images":[{"name":"T_Candles_01_N","uri":"../Textures/T_Candles_01_N.png"},{"name":"T_Candles_01_BC","uri":"../Textures/T_Candles_01_BC.png"}],"materials":[{"alphaMode":"OPAQUE","doubleSided":false,"extras":{"fromFBX":{"isTruePBR":false,"shadingModel":"Phong"}},"name":"MI_Candles_01","normalTexture":{"index":0,"texCoord":0},"pbrMetallicRoughness":{"baseColorFactor":[1,1,1,1],"baseColorTexture":{"index":1,"texCoord":0},"metallicFactor":0.400000005960464,"roughnessFactor":0.301511347293854}}],"meshes":[{"name":"SM_Candle_04_LOD0","primitives":[{"attributes":{"NORMAL":3,"POSITION":2,"TANGENT":4,"TEXCOORD_0":5},"indices":1,"material":0,"mode":4}]},{"name":"SM_Candle_04_LOD1","primitives":[{"attributes":{"NORMAL":8,"POSITION":7,"TANGENT":9,"TEXCOORD_0":10},"indices":6,"material":0,"mode":4}]},{"name":"SM_Candle_04_LOD2","primitives":[{"attributes":{"NORMAL":13,"POSITION":12,"TANGENT":14,"TEXCOORD_0":15},"indices":11,"material":0,"mode":4}]}],"nodes":[{"children":[1,2,3,4],"name":"StaticMeshActor_1388","originalUnits":0.00999999977648258,"pivot":[0,0,0],"rotation":[0,0,0,1],"scale":[1,1,1],"translation":[0,0,0]},{"mesh":0,"name":"SM_Candle_04_LOD0","originalUnits":0.00999999977648258,"pivot":[0,0,0],"rotation":[0,0,0,1],"scale":[1,1,1],"translation":[0,0,0]},{"name":"SM_Candle_04_ConvexHulls","originalUnits":0.00999999977648258,"pivot":[0,0,0],"rotation":[0,0,0,1],"scale":[1,1,1],"translation":[0,0,0]},{"mesh":1,"name":"SM_Candle_04_LOD1","originalUnits":0.00999999977648258,"pivot":[0,0,0],"rotation":[0,0,0,1],"scale":[1,1,1],"translation":[0,0,0]},{"mesh":2,"name":"SM_Candle_04_LOD2","originalUnits":0.00999999977648258,"pivot":[0,0,0],"rotation":[0,0,0,1],"scale":[1,1,1],"translation":[0,0,0]}],"samplers":[{}],"scene":0,"scenes":[{"name":"Root Scene","nodes":[0]}],"textures":[{"name":"MI_Candles_01","sampler":0,"source":0},{"name":"MI_Candles_01","sampler":0,"source":1}]}