{"accessors":[{"bufferView":0,"byteOffset":0,"componentType":5126,"count":1,"max":[0],"min":[0],"type":"SCALAR"},{"bufferView":1,"byteOffset":0,"componentType":5123,"count":414,"type":"SCALAR"},{"bufferView":2,"byteOffset":0,"componentType":5126,"count":102,"max":[0.0494941845536232,0.11831121891737,0.04708356782794],"min":[-0.04949417337775,-0.00133309082594,-0.04708358645439],"type":"VEC3"},{"bufferView":3,"byteOffset":0,"componentType":5126,"count":102,"type":"VEC3"},{"bufferView":4,"byteOffset":0,"componentType":5126,"count":102,"type":"VEC4"},{"bufferView":5,"byteOffset":0,"componentType":5126,"count":102,"type":"VEC2"},{"bufferView":6,"byteOffset":0,"componentType":5123,"count":204,"type":"SCALAR"},{"bufferView":7,"byteOffset":0,"componentType":5126,"count":68,"max":[0.0505926162004471,0.118047453463078,0.046382836997509],"min":[-0.04675871878862,-0.00133309082594,-0.0494375564158],"type":"VEC3"},{"bufferView":8,"byteOffset":0,"componentType":5126,"count":68,"type":"VEC3"},{"bufferView":9,"byteOffset":0,"componentType":5126,"count":68,"type":"VEC4"},{"bufferView":10,"byteOffset":0,"componentType":5126,"count":68,"type":"VEC2"},{"bufferView":11,"byteOffset":0,"componentType":5123,"count":102,"type":"SCALAR"},{"bufferView":12,"byteOffset":0,"componentType":5126,"count":33,"max":[0.0459648966789246,0.120605409145355,0.046382836997509],"min":[-0.04398871213198,-0.00133309082594,-0.049421466887],"type":"VEC3"},{"bufferView":13,"byteOffset":0,"componentType":5126,"count":33,"type":"VEC3"},{"bufferView":14,"byteOffset":0,"componentType":5126,"count":33,"type":"VEC4"},{"bufferView":15,"byteOffset":0,"componentType":5126,"count":33,"type":"VEC2"}],"animations":[{"channels":[],"name":"Unreal Take","samplers":[]}],"asset":{"generator":"FBX2glTF v0.13.0","version":"2.0"},"bufferViews":[{"buffer":0,"byteLength":4,"byteOffset":0},{"buffer":0,"byteLength":828,"byteOffset":4,"target":34963},{"buffer":0,"byteLength":1224,"byteOffset":832,"target":34962},{"buffer":0,"byteLength":1224,"byteOffset":2056,"target":34962},{"buffer":0,"byteLength":1632,"byteOffset":3280,"target":34962},{"buffer":0,"byteLength":816,"byteOffset":4912,"target":34962},{"buffer":0,"byteLength":408,"byteOffset":5728,"target":34963},{"buffer":0,"byteLength":816,"byteOffset":6136,"target":34962},{"buffer":0,"byteLength":816,"byteOffset":6952,"target":34962},{"buffer":0,"byteLength":1088,"byteOffset":7768,"target":34962},{"buffer":0,"byteLength":544,"byteOffset":8856,"target":34962},{"buffer":0,"byteLength":204,"byteOffset":9400,"target":34963},{"buffer":0,"byteLength":396,"byteOffset":9604,"target":34962},{"buffer":0,"byteLength":396,"byteOffset":10000,"target":34962},{"buffer":0,"byteLength":528,"byteOffset":10396,"target":34962},{"buffer":0,"byteLength":264,"byteOffset":10924,"target":34962}],"buffers":[{"byteLength":11188,"uri":"SM_Candle_05.bin"}],"images":[{"name":"T_Candles_01_N","uri":"../Textures/T_Candles_01_N.png"},{"name":"T_Candles_01_BC","uri":"../Textures/T_Candles_01_BC.png"}],"materials":[{"alphaMode":"OPAQUE","doubleSided":false,"extras":{"fromFBX":{"isTruePBR":false,"shadingModel":"Phong"}},"name":"MI_Candles_01","normalTexture":{"index":0,"texCoord":0},"pbrMetallicRoughness":{"baseColorFactor":[1,1,1,1],"baseColorTexture":{"index":1,"texCoord":0},"metallicFactor":0.400000005960464,"roughnessFactor":0.301511347293854}}],"meshes":[{"name":"SM_Candle_05_LOD0","primitives":[{"attributes":{"NORMAL":3,"POSITION":2,"TANGENT":4,"TEXCOORD_0":5},"indices":1,"material":0,"mode":4}]},{"name":"SM_Candle_05_LOD1","primitives":[{"attributes":{"NORMAL":8,"POSITION":7,"TANGENT":9,"TEXCOORD_0":10},"indices":6,"material":0,"mode":4}]},{"name":"SM_Candle_05_LOD2","primitives":[{"attributes":{"NORMAL":13,"POSITION":12,"TANGENT":14,"TEXCOORD_0":15},"indices":11,"material":0,"mode":4}]}],"nodes":[{"children":[1,2,3,4],"name":"StaticMeshActor_1392","originalUnits":0.00999999977648258,"pivot":[0,0,0],"rotation":[0,0,0,1],"scale":[1,1,1],"translation":[0,0,0]},{"mesh":0,"name":"SM_Candle_05_LOD0","originalUnits":0.00999999977648258,"pivot":[0,0,0],"rotation":[0,0,0,1],"scale":[1,1,1],"translation":[0,0,0]},{"name":"SM_Candle_05_ConvexHulls","originalUnits":0.00999999977648258,"pivot":[0,0,0],"rotation":[0,0,0,1],"scale":[1,1,1],"translation":[0,0,0]},{"mesh":1,"name":"SM_Candle_05_LOD1","originalUnits":0.00999999977648258,"pivot":[0,0,0],"rotation":[0,0,0,1],"scale":[1,1,1],"translation":[0,0,0]},{"mesh":2,"name":"SM_Candle_05_LOD2","originalUnits":0.00999999977648258,"pivot":[0,0,0],"rotation":[0,0,0,1],"scale":[1,1,1],"translation":[0,0,0]}],"samplers":[{}],"scene":0,"scenes":[{"name":"Root Scene","nodes":[0]}],"textures":[{"name":"MI_Candles_01","sampler":0,"source":0},{"name":"MI_Candles_01","sampler":0,"source":1}]}