{"accessors":[{"bufferView":0,"byteOffset":0,"componentType":5126,"count":1,"max":[0],"min":[0],"type":"SCALAR"},{"bufferView":1,"byteOffset":0,"componentType":5123,"count":1602,"type":"SCALAR"},{"bufferView":2,"byteOffset":0,"componentType":5126,"count":612,"max":[27.9999961853027,2.72897887229919,28.0031337738037],"min":[-0.00000278214748,-6.10973358154297,0.00313354493118823],"type":"VEC3"},{"bufferView":3,"byteOffset":0,"componentType":5126,"count":612,"type":"VEC3"},{"bufferView":4,"byteOffset":0,"componentType":5126,"count":612,"type":"VEC4"},{"bufferView":5,"byteOffset":0,"componentType":5126,"count":612,"type":"VEC2"},{"bufferView":6,"byteOffset":0,"componentType":5126,"count":612,"type":"VEC2"},{"bufferView":7,"byteOffset":0,"componentType":5123,"count":417,"type":"SCALAR"},{"bufferView":8,"byteOffset":0,"componentType":5126,"count":181,"max":[20.8515357971191,2.72897887229919,18.8362102508545],"min":[7.2760214805603,-3.55098819732666,5.31587409973145],"type":"VEC3"},{"bufferView":9,"byteOffset":0,"componentType":5126,"count":181,"type":"VEC3"},{"bufferView":10,"byteOffset":0,"componentType":5126,"count":181,"type":"VEC4"},{"bufferView":11,"byteOffset":0,"componentType":5126,"count":181,"type":"VEC2"},{"bufferView":12,"byteOffset":0,"componentType":5126,"count":181,"type":"VEC2"},{"bufferView":13,"byteOffset":0,"componentType":5123,"count":36735,"type":"SCALAR"},{"bufferView":14,"byteOffset":0,"componentType":5126,"count":8429,"max":[28.0000019073486,3.11756300926208,28.0031242370605],"min":[-0.00000522501341,-6.11724042892456,0.00312011712230742],"type":"VEC3"},{"bufferView":15,"byteOffset":0,"componentType":5126,"count":8429,"type":"VEC3"},{"bufferView":16,"byteOffset":0,"componentType":5126,"count":8429,"type":"VEC4"},{"bufferView":17,"byteOffset":0,"componentType":5126,"count":8429,"type":"VEC2"},{"bufferView":18,"byteOffset":0,"componentType":5126,"count":8429,"type":"VEC2"},{"bufferView":19,"byteOffset":0,"componentType":5123,"count":576,"type":"SCALAR"},{"bufferView":20,"byteOffset":0,"componentType":5126,"count":96,"max":[28.1838550567627,2.83292484283447,28.2006607055664],"min":[-0.04112437739968,-6.18198728561401,-0.05804565176368],"type":"VEC3"},{"bufferView":21,"byteOffset":0,"componentType":5126,"count":96,"type":"VEC3"},{"bufferView":22,"byteOffset":0,"componentType":5126,"count":96,"type":"VEC4"},{"bufferView":23,"byteOffset":0,"componentType":5126,"count":96,"type":"VEC2"},{"bufferView":24,"byteOffset":0,"componentType":5126,"count":96,"type":"VEC2"}],"animations":[{"channels":[],"name":"Unreal Take","samplers":[]}],"asset":{"generator":"FBX2glTF v0.13.0","version":"2.0"},"bufferViews":[{"buffer":0,"byteLength":4,"byteOffset":0},{"buffer":0,"byteLength":3204,"byteOffset":4,"target":34963},{"buffer":0,"byteLength":7344,"byteOffset":3208,"target":34962},{"buffer":0,"byteLength":7344,"byteOffset":10552,"target":34962},{"buffer":0,"byteLength":9792,"byteOffset":17896,"target":34962},{"buffer":0,"byteLength":4896,"byteOffset":27688,"target":34962},{"buffer":0,"byteLength":4896,"byteOffset":32584,"target":34962},{"buffer":0,"byteLength":834,"byteOffset":37480,"target":34963},{"buffer":0,"byteLength":2172,"byteOffset":38316,"target":34962},{"buffer":0,"byteLength":2172,"byteOffset":40488,"target":34962},{"buffer":0,"byteLength":2896,"byteOffset":42660,"target":34962},{"buffer":0,"byteLength":1448,"byteOffset":45556,"target":34962},{"buffer":0,"byteLength":1448,"byteOffset":47004,"target":34962},{"buffer":0,"byteLength":73470,"byteOffset":48452,"target":34963},{"buffer":0,"byteLength":101148,"byteOffset":121924,"target":34962},{"buffer":0,"byteLength":101148,"byteOffset":223072,"target":34962},{"buffer":0,"byteLength":134864,"byteOffset":324220,"target":34962},{"buffer":0,"byteLength":67432,"byteOffset":459084,"target":34962},{"buffer":0,"byteLength":67432,"byteOffset":526516,"target":34962},{"buffer":0,"byteLength":1152,"byteOffset":593948,"target":34963},{"buffer":0,"byteLength":1152,"byteOffset":595100,"target":34962},{"buffer":0,"byteLength":1152,"byteOffset":596252,"target":34962},{"buffer":0,"byteLength":1536,"byteOffset":597404,"target":34962},{"buffer":0,"byteLength":768,"byteOffset":598940,"target":34962},{"buffer":0,"byteLength":768,"byteOffset":599708,"target":34962}],"buffers":[{"byteLength":600476,"uri":"SM_Ceiling_01a_Broken.bin"}],"images":[{"name":"T_Brick_Wall_02a_N","uri":"../Textures/T_Brick_Wall_02a_N.png"},{"name":"T_Brick_Wall_02a_BC","uri":"../Textures/T_Brick_Wall_02a_BC.png"},{"name":"T_Brick_Wall_01c_N","uri":"../Textures/T_Brick_Wall_01c_N.png"},{"name":"T_Brick_Wall_01c_BC","uri":"../Textures/T_Brick_Wall_01c_BC.png"},{"name":"T_Brick_Wall_02b_N","uri":"../Textures/T_Brick_Wall_02b_N.png"},{"name":"T_Brick_Wall_02b_BC","uri":"../Textures/T_Brick_Wall_02b_BC.png"}],"materials":[{"alphaMode":"OPAQUE","doubleSided":false,"extras":{"fromFBX":{"isTruePBR":false,"shadingModel":"Phong"}},"name":"MI_Brick_Wall_02a","normalTexture":{"index":0,"texCoord":0},"pbrMetallicRoughness":{"baseColorFactor":[1,1,1,1],"baseColorTexture":{"index":1,"texCoord":0},"metallicFactor":0.400000005960464,"roughnessFactor":0.301511347293854}},{"alphaMode":"OPAQUE","doubleSided":false,"extras":{"fromFBX":{"isTruePBR":false,"shadingModel":"Phong"}},"name":"MI_Brick_Wall_01c","normalTexture":{"index":2,"texCoord":0},"pbrMetallicRoughness":{"baseColorFactor":[1,1,1,1],"baseColorTexture":{"index":3,"texCoord":0},"metallicFactor":0.400000005960464,"roughnessFactor":0.301511347293854}},{"alphaMode":"OPAQUE","doubleSided":false,"extras":{"fromFBX":{"isTruePBR":false,"shadingModel":"Phong"}},"name":"MI_Brick_Wall_02b","normalTexture":{"index":4,"texCoord":0},"pbrMetallicRoughness":{"baseColorFactor":[1,1,1,1],"baseColorTexture":{"index":5,"texCoord":0},"metallicFactor":0.400000005960464,"roughnessFactor":0.301511347293854}},{"alphaMode":"OPAQUE","doubleSided":false,"extras":{"fromFBX":{"isTruePBR":false,"shadingModel":"Lambert"}},"name":"DefaultMaterial","pbrMetallicRoughness":{"baseColorFactor":[0.5,0.5,0.5,1],"metallicFactor":0.200000002980232,"roughnessFactor":0.800000011920929}}],"meshes":[{"name":"SM_Ceiling_01a_Broken","primitives":[{"attributes":{"NORMAL":3,"POSITION":2,"TANGENT":4,"TEXCOORD_0":5,"TEXCOORD_1":6},"indices":1,"material":0,"mode":4},{"attributes":{"NORMAL":9,"POSITION":8,"TANGENT":10,"TEXCOORD_0":11,"TEXCOORD_1":12},"indices":7,"material":1,"mode":4},{"attributes":{"NORMAL":15,"POSITION":14,"TANGENT":16,"TEXCOORD_0":17,"TEXCOORD_1":18},"indices":13,"material":2,"mode":4}]},{"name":"SM_Ceiling_01a_Broken_ConvexHulls","primitives":[{"attributes":{"NORMAL":21,"POSITION":20,"TANGENT":22,"TEXCOORD_0":23,"TEXCOORD_1":24},"indices":19,"material":3,"mode":4}]}],"nodes":[{"mesh":0,"name":"SM_Ceiling_01a_Broken","originalUnits":0.00999999977648258,"pivot":[0,0,0],"rotation":[0,0,0,1],"scale":[1,1,1],"translation":[0,0,0]},{"mesh":1,"name":"SM_Ceiling_01a_Broken_ConvexHulls","originalUnits":0.00999999977648258,"pivot":[0,0,0],"rotation":[0,0,0,1],"scale":[1,1,1],"translation":[0,0,0]}],"samplers":[{}],"scene":0,"scenes":[{"name":"Root Scene","nodes":[0,1]}],"textures":[{"name":"MI_Brick_Wall_02a","sampler":0,"source":0},{"name":"MI_Brick_Wall_02a","sampler":0,"source":1},{"name":"MI_Brick_Wall_01c","sampler":0,"source":2},{"name":"MI_Brick_Wall_01c","sampler":0,"source":3},{"name":"MI_Brick_Wall_02b","sampler":0,"source":4},{"name":"MI_Brick_Wall_02b","sampler":0,"source":5}]}