{"accessors":[{"bufferView":0,"byteOffset":0,"componentType":5126,"count":1,"max":[0],"min":[0],"type":"SCALAR"},{"bufferView":1,"byteOffset":0,"componentType":5123,"count":2370,"type":"SCALAR"},{"bufferView":2,"byteOffset":0,"componentType":5126,"count":676,"max":[0.205714449286461,0.64154577255249,0.198551684617996],"min":[-0.20571444928646,-0.00478846207261,-0.2010496109724],"type":"VEC3"},{"bufferView":3,"byteOffset":0,"componentType":5126,"count":676,"type":"VEC3"},{"bufferView":4,"byteOffset":0,"componentType":5126,"count":676,"type":"VEC4"},{"bufferView":5,"byteOffset":0,"componentType":5126,"count":676,"type":"VEC2"},{"bufferView":6,"byteOffset":0,"componentType":5126,"count":676,"type":"VEC2"}],"animations":[{"channels":[],"name":"Unreal Take","samplers":[]}],"asset":{"generator":"FBX2glTF v0.13.0","version":"2.0"},"bufferViews":[{"buffer":0,"byteLength":4,"byteOffset":0},{"buffer":0,"byteLength":4740,"byteOffset":4,"target":34963},{"buffer":0,"byteLength":8112,"byteOffset":4744,"target":34962},{"buffer":0,"byteLength":8112,"byteOffset":12856,"target":34962},{"buffer":0,"byteLength":10816,"byteOffset":20968,"target":34962},{"buffer":0,"byteLength":5408,"byteOffset":31784,"target":34962},{"buffer":0,"byteLength":5408,"byteOffset":37192,"target":34962}],"buffers":[{"byteLength":42600,"uri":"SM_CandleCluster_01b.bin"}],"images":[{"name":"T_Candles_01_N","uri":"../Textures/T_Candles_01_N.png"},{"name":"T_Candles_01_BC","uri":"../Textures/T_Candles_01_BC.png"}],"materials":[{"alphaMode":"OPAQUE","doubleSided":false,"extras":{"fromFBX":{"isTruePBR":false,"shadingModel":"Phong"}},"name":"MI_Candles_01","normalTexture":{"index":0,"texCoord":0},"pbrMetallicRoughness":{"baseColorFactor":[1,1,1,1],"baseColorTexture":{"index":1,"texCoord":0},"metallicFactor":0.400000005960464,"roughnessFactor":0.301511347293854}}],"meshes":[{"name":"SM_CandleCluster_01b","primitives":[{"attributes":{"NORMAL":3,"POSITION":2,"TANGENT":4,"TEXCOORD_0":5,"TEXCOORD_1":6},"indices":1,"material":0,"mode":4}]}],"nodes":[{"mesh":0,"name":"SM_CandleCluster_01b","originalUnits":0.00999999977648258,"pivot":[0,0,0],"rotation":[0,0,0,1],"scale":[1,1,1],"translation":[0,0,0]},{"name":"SM_CandleCluster_01b_ConvexHulls","originalUnits":0.00999999977648258,"pivot":[0,0,0],"rotation":[0,0,0,1],"scale":[1,1,1],"translation":[0,0,0]}],"samplers":[{}],"scene":0,"scenes":[{"name":"Root Scene","nodes":[0,1]}],"textures":[{"name":"MI_Candles_01","sampler":0,"source":0},{"name":"MI_Candles_01","sampler":0,"source":1}]}