{"accessors":[{"bufferView":0,"byteOffset":0,"componentType":5126,"count":1,"max":[0],"min":[0],"type":"SCALAR"},{"bufferView":1,"byteOffset":0,"componentType":5123,"count":372,"type":"SCALAR"},{"bufferView":2,"byteOffset":0,"componentType":5126,"count":142,"max":[13.9999971389771,0.404594093561172,-0.00000105035167],"min":[-0.0000024414062,-6.10973358154297,-7.00156927108765],"type":"VEC3"},{"bufferView":3,"byteOffset":0,"componentType":5126,"count":142,"type":"VEC3"},{"bufferView":4,"byteOffset":0,"componentType":5126,"count":142,"type":"VEC4"},{"bufferView":5,"byteOffset":0,"componentType":5126,"count":142,"type":"VEC2"},{"bufferView":6,"byteOffset":0,"componentType":5126,"count":142,"type":"VEC2"},{"bufferView":7,"byteOffset":0,"componentType":5123,"count":2058,"type":"SCALAR"},{"bufferView":8,"byteOffset":0,"componentType":5126,"count":516,"max":[14,0.00929488614201546,0.0015931879170239],"min":[-0.00000505267508,-6.11724042892456,-7.00107479095459],"type":"VEC3"},{"bufferView":9,"byteOffset":0,"componentType":5126,"count":516,"type":"VEC3"},{"bufferView":10,"byteOffset":0,"componentType":5126,"count":516,"type":"VEC4"},{"bufferView":11,"byteOffset":0,"componentType":5126,"count":516,"type":"VEC2"},{"bufferView":12,"byteOffset":0,"componentType":5126,"count":516,"type":"VEC2"},{"bufferView":13,"byteOffset":0,"componentType":5123,"count":144,"type":"SCALAR"},{"bufferView":14,"byteOffset":0,"componentType":5126,"count":24,"max":[14.068359375,0.47403272986412,0.0490687750279903],"min":[-0.032207403332,-6.18198728561401,-7.04664421081543],"type":"VEC3"},{"bufferView":15,"byteOffset":0,"componentType":5126,"count":24,"type":"VEC3"},{"bufferView":16,"byteOffset":0,"componentType":5126,"count":24,"type":"VEC4"},{"bufferView":17,"byteOffset":0,"componentType":5126,"count":24,"type":"VEC2"},{"bufferView":18,"byteOffset":0,"componentType":5126,"count":24,"type":"VEC2"}],"animations":[{"channels":[],"name":"Unreal Take","samplers":[]}],"asset":{"generator":"FBX2glTF v0.13.0","version":"2.0"},"bufferViews":[{"buffer":0,"byteLength":4,"byteOffset":0},{"buffer":0,"byteLength":744,"byteOffset":4,"target":34963},{"buffer":0,"byteLength":1704,"byteOffset":748,"target":34962},{"buffer":0,"byteLength":1704,"byteOffset":2452,"target":34962},{"buffer":0,"byteLength":2272,"byteOffset":4156,"target":34962},{"buffer":0,"byteLength":1136,"byteOffset":6428,"target":34962},{"buffer":0,"byteLength":1136,"byteOffset":7564,"target":34962},{"buffer":0,"byteLength":4116,"byteOffset":8700,"target":34963},{"buffer":0,"byteLength":6192,"byteOffset":12816,"target":34962},{"buffer":0,"byteLength":6192,"byteOffset":19008,"target":34962},{"buffer":0,"byteLength":8256,"byteOffset":25200,"target":34962},{"buffer":0,"byteLength":4128,"byteOffset":33456,"target":34962},{"buffer":0,"byteLength":4128,"byteOffset":37584,"target":34962},{"buffer":0,"byteLength":288,"byteOffset":41712,"target":34963},{"buffer":0,"byteLength":288,"byteOffset":42000,"target":34962},{"buffer":0,"byteLength":288,"byteOffset":42288,"target":34962},{"buffer":0,"byteLength":384,"byteOffset":42576,"target":34962},{"buffer":0,"byteLength":192,"byteOffset":42960,"target":34962},{"buffer":0,"byteLength":192,"byteOffset":43152,"target":34962}],"buffers":[{"byteLength":43344,"uri":"SM_Ceiling_01a_Half.bin"}],"images":[{"name":"T_Brick_Wall_02a_N","uri":"../Textures/T_Brick_Wall_02a_N.png"},{"name":"T_Brick_Wall_02a_BC","uri":"../Textures/T_Brick_Wall_02a_BC.png"},{"name":"T_Brick_Wall_02b_N","uri":"../Textures/T_Brick_Wall_02b_N.png"},{"name":"T_Brick_Wall_02b_BC","uri":"../Textures/T_Brick_Wall_02b_BC.png"}],"materials":[{"alphaMode":"OPAQUE","doubleSided":false,"extras":{"fromFBX":{"isTruePBR":false,"shadingModel":"Phong"}},"name":"MI_Brick_Wall_02a","normalTexture":{"index":0,"texCoord":0},"pbrMetallicRoughness":{"baseColorFactor":[1,1,1,1],"baseColorTexture":{"index":1,"texCoord":0},"metallicFactor":0.400000005960464,"roughnessFactor":0.301511347293854}},{"alphaMode":"OPAQUE","doubleSided":false,"extras":{"fromFBX":{"isTruePBR":false,"shadingModel":"Phong"}},"name":"MI_Brick_Wall_02b","normalTexture":{"index":2,"texCoord":0},"pbrMetallicRoughness":{"baseColorFactor":[1,1,1,1],"baseColorTexture":{"index":3,"texCoord":0},"metallicFactor":0.400000005960464,"roughnessFactor":0.301511347293854}},{"alphaMode":"OPAQUE","doubleSided":false,"extras":{"fromFBX":{"isTruePBR":false,"shadingModel":"Lambert"}},"name":"DefaultMaterial","pbrMetallicRoughness":{"baseColorFactor":[0.5,0.5,0.5,1],"metallicFactor":0.200000002980232,"roughnessFactor":0.800000011920929}}],"meshes":[{"name":"SM_Ceiling_01a_Half","primitives":[{"attributes":{"NORMAL":3,"POSITION":2,"TANGENT":4,"TEXCOORD_0":5,"TEXCOORD_1":6},"indices":1,"material":0,"mode":4},{"attributes":{"NORMAL":9,"POSITION":8,"TANGENT":10,"TEXCOORD_0":11,"TEXCOORD_1":12},"indices":7,"material":1,"mode":4}]},{"name":"SM_Ceiling_01a_Half_ConvexHulls","primitives":[{"attributes":{"NORMAL":15,"POSITION":14,"TANGENT":16,"TEXCOORD_0":17,"TEXCOORD_1":18},"indices":13,"material":2,"mode":4}]}],"nodes":[{"mesh":0,"name":"SM_Ceiling_01a_Half","originalUnits":0.00999999977648258,"pivot":[0,0,0],"rotation":[0,0,0,1],"scale":[1,1,1],"translation":[0,0,0]},{"mesh":1,"name":"SM_Ceiling_01a_Half_ConvexHulls","originalUnits":0.00999999977648258,"pivot":[0,0,0],"rotation":[0,0,0,1],"scale":[1,1,1],"translation":[0,0,0]}],"samplers":[{}],"scene":0,"scenes":[{"name":"Root Scene","nodes":[0,1]}],"textures":[{"name":"MI_Brick_Wall_02a","sampler":0,"source":0},{"name":"MI_Brick_Wall_02a","sampler":0,"source":1},{"name":"MI_Brick_Wall_02b","sampler":0,"source":2},{"name":"MI_Brick_Wall_02b","sampler":0,"source":3}]}