{"accessors":[{"bufferView":0,"byteOffset":0,"componentType":5126,"count":1,"max":[0],"min":[0],"type":"SCALAR"},{"bufferView":1,"byteOffset":0,"componentType":5123,"count":14184,"type":"SCALAR"},{"bufferView":2,"byteOffset":0,"componentType":5126,"count":3236,"max":[3.98061919212341,1.95357143878937,4.86173629760742],"min":[-3.99506425857544,-0.03660435974598,-4.88021612167358],"type":"VEC3"},{"bufferView":3,"byteOffset":0,"componentType":5126,"count":3236,"type":"VEC3"},{"bufferView":4,"byteOffset":0,"componentType":5126,"count":3236,"type":"VEC4"},{"bufferView":5,"byteOffset":0,"componentType":5126,"count":3236,"type":"VEC2"},{"bufferView":6,"byteOffset":0,"componentType":5126,"count":3236,"type":"VEC2"},{"bufferView":7,"byteOffset":0,"componentType":5123,"count":7092,"type":"SCALAR"},{"bufferView":8,"byteOffset":0,"componentType":5126,"count":1987,"max":[3.98061919212341,1.95892524719238,4.86173629760742],"min":[-3.99506425857544,-0.05598797649145,-4.88021612167358],"type":"VEC3"},{"bufferView":9,"byteOffset":0,"componentType":5126,"count":1987,"type":"VEC3"},{"bufferView":10,"byteOffset":0,"componentType":5126,"count":1987,"type":"VEC4"},{"bufferView":11,"byteOffset":0,"componentType":5126,"count":1987,"type":"VEC2"},{"bufferView":12,"byteOffset":0,"componentType":5126,"count":1987,"type":"VEC2"},{"bufferView":13,"byteOffset":0,"componentType":5123,"count":3543,"type":"SCALAR"},{"bufferView":14,"byteOffset":0,"componentType":5126,"count":1120,"max":[3.96063923835754,1.96931779384613,4.89732217788696],"min":[-3.96682238578796,-0.05984399095178,-4.88021612167358],"type":"VEC3"},{"bufferView":15,"byteOffset":0,"componentType":5126,"count":1120,"type":"VEC3"},{"bufferView":16,"byteOffset":0,"componentType":5126,"count":1120,"type":"VEC4"},{"bufferView":17,"byteOffset":0,"componentType":5126,"count":1120,"type":"VEC2"},{"bufferView":18,"byteOffset":0,"componentType":5126,"count":1120,"type":"VEC2"},{"bufferView":19,"byteOffset":0,"componentType":5123,"count":1773,"type":"SCALAR"},{"bufferView":20,"byteOffset":0,"componentType":5126,"count":632,"max":[3.97465085983276,1.9834361076355,4.89732217788696],"min":[-4.00422954559326,-0.16365666687489,-4.92649936676025],"type":"VEC3"},{"bufferView":21,"byteOffset":0,"componentType":5126,"count":632,"type":"VEC3"},{"bufferView":22,"byteOffset":0,"componentType":5126,"count":632,"type":"VEC4"},{"bufferView":23,"byteOffset":0,"componentType":5126,"count":632,"type":"VEC2"},{"bufferView":24,"byteOffset":0,"componentType":5126,"count":632,"type":"VEC2"},{"bufferView":25,"byteOffset":0,"componentType":5123,"count":714,"type":"SCALAR"},{"bufferView":26,"byteOffset":0,"componentType":5126,"count":137,"max":[3.98041486740112,1.96575582027435,4.87344789505005],"min":[-3.99197506904602,-0.05932213738561,-4.89488697052002],"type":"VEC3"},{"bufferView":27,"byteOffset":0,"componentType":5126,"count":137,"type":"VEC3"},{"bufferView":28,"byteOffset":0,"componentType":5126,"count":137,"type":"VEC4"},{"bufferView":29,"byteOffset":0,"componentType":5126,"count":137,"type":"VEC2"},{"bufferView":30,"byteOffset":0,"componentType":5126,"count":137,"type":"VEC2"}],"animations":[{"channels":[],"name":"Unreal Take","samplers":[]}],"asset":{"generator":"FBX2glTF v0.13.0","version":"2.0"},"bufferViews":[{"buffer":0,"byteLength":4,"byteOffset":0},{"buffer":0,"byteLength":28368,"byteOffset":4,"target":34963},{"buffer":0,"byteLength":38832,"byteOffset":28372,"target":34962},{"buffer":0,"byteLength":38832,"byteOffset":67204,"target":34962},{"buffer":0,"byteLength":51776,"byteOffset":106036,"target":34962},{"buffer":0,"byteLength":25888,"byteOffset":157812,"target":34962},{"buffer":0,"byteLength":25888,"byteOffset":183700,"target":34962},{"buffer":0,"byteLength":14184,"byteOffset":209588,"target":34963},{"buffer":0,"byteLength":23844,"byteOffset":223772,"target":34962},{"buffer":0,"byteLength":23844,"byteOffset":247616,"target":34962},{"buffer":0,"byteLength":31792,"byteOffset":271460,"target":34962},{"buffer":0,"byteLength":15896,"byteOffset":303252,"target":34962},{"buffer":0,"byteLength":15896,"byteOffset":319148,"target":34962},{"buffer":0,"byteLength":7086,"byteOffset":335044,"target":34963},{"buffer":0,"byteLength":13440,"byteOffset":342132,"target":34962},{"buffer":0,"byteLength":13440,"byteOffset":355572,"target":34962},{"buffer":0,"byteLength":17920,"byteOffset":369012,"target":34962},{"buffer":0,"byteLength":8960,"byteOffset":386932,"target":34962},{"buffer":0,"byteLength":8960,"byteOffset":395892,"target":34962},{"buffer":0,"byteLength":3546,"byteOffset":404852,"target":34963},{"buffer":0,"byteLength":7584,"byteOffset":408400,"target":34962},{"buffer":0,"byteLength":7584,"byteOffset":415984,"target":34962},{"buffer":0,"byteLength":10112,"byteOffset":423568,"target":34962},{"buffer":0,"byteLength":5056,"byteOffset":433680,"target":34962},{"buffer":0,"byteLength":5056,"byteOffset":438736,"target":34962},{"buffer":0,"byteLength":1428,"byteOffset":443792,"target":34963},{"buffer":0,"byteLength":1644,"byteOffset":445220,"target":34962},{"buffer":0,"byteLength":1644,"byteOffset":446864,"target":34962},{"buffer":0,"byteLength":2192,"byteOffset":448508,"target":34962},{"buffer":0,"byteLength":1096,"byteOffset":450700,"target":34962},{"buffer":0,"byteLength":1096,"byteOffset":451796,"target":34962}],"buffers":[{"byteLength":452892,"uri":"SM_DebrisPile_01a.bin"}],"images":[{"name":"T_Debris_Pile_01_N","uri":"../Textures/T_Debris_Pile_01_N.png"},{"name":"T_Debris_Pile_01_BC","uri":"../Textures/T_Debris_Pile_01_BC.png"}],"materials":[{"alphaMode":"OPAQUE","doubleSided":false,"extras":{"fromFBX":{"isTruePBR":false,"shadingModel":"Phong"}},"name":"MI_Debris_Pile_01","normalTexture":{"index":0,"texCoord":0},"pbrMetallicRoughness":{"baseColorFactor":[1,1,1,1],"baseColorTexture":{"index":1,"texCoord":0},"metallicFactor":0.400000005960464,"roughnessFactor":0.301511347293854}},{"alphaMode":"OPAQUE","doubleSided":false,"extras":{"fromFBX":{"isTruePBR":false,"shadingModel":"Lambert"}},"name":"DefaultMaterial","pbrMetallicRoughness":{"baseColorFactor":[0.5,0.5,0.5,1],"metallicFactor":0.200000002980232,"roughnessFactor":0.800000011920929}}],"meshes":[{"name":"SM_DebrisPile_01a_LOD0","primitives":[{"attributes":{"NORMAL":3,"POSITION":2,"TANGENT":4,"TEXCOORD_0":5,"TEXCOORD_1":6},"indices":1,"material":0,"mode":4}]},{"name":"SM_DebrisPile_01a_LOD1","primitives":[{"attributes":{"NORMAL":9,"POSITION":8,"TANGENT":10,"TEXCOORD_0":11,"TEXCOORD_1":12},"indices":7,"material":0,"mode":4}]},{"name":"SM_DebrisPile_01a_LOD2","primitives":[{"attributes":{"NORMAL":15,"POSITION":14,"TANGENT":16,"TEXCOORD_0":17,"TEXCOORD_1":18},"indices":13,"material":0,"mode":4}]},{"name":"SM_DebrisPile_01a_LOD3","primitives":[{"attributes":{"NORMAL":21,"POSITION":20,"TANGENT":22,"TEXCOORD_0":23,"TEXCOORD_1":24},"indices":19,"material":0,"mode":4}]},{"name":"SM_DebrisPile_01a_ConvexHulls","primitives":[{"attributes":{"NORMAL":27,"POSITION":26,"TANGENT":28,"TEXCOORD_0":29,"TEXCOORD_1":30},"indices":25,"material":1,"mode":4}]}],"nodes":[{"children":[1,2,3,4,5],"name":"StaticMeshActor_177","originalUnits":0.00999999977648258,"pivot":[0,0,0],"rotation":[0,0,0,1],"scale":[1,1,1],"translation":[0,0,0]},{"mesh":0,"name":"SM_DebrisPile_01a_LOD0","originalUnits":0.00999999977648258,"pivot":[0,0,0],"rotation":[0,0,0,1],"scale":[1,1,1],"translation":[0,0,0]},{"mesh":4,"name":"SM_DebrisPile_01a_ConvexHulls","originalUnits":0.00999999977648258,"pivot":[0,0,0],"rotation":[0,0,0,1],"scale":[1,1,1],"translation":[0,0,0]},{"mesh":1,"name":"SM_DebrisPile_01a_LOD1","originalUnits":0.00999999977648258,"pivot":[0,0,0],"rotation":[0,0,0,1],"scale":[1,1,1],"translation":[0,0,0]},{"mesh":2,"name":"SM_DebrisPile_01a_LOD2","originalUnits":0.00999999977648258,"pivot":[0,0,0],"rotation":[0,0,0,1],"scale":[1,1,1],"translation":[0,0,0]},{"mesh":3,"name":"SM_DebrisPile_01a_LOD3","originalUnits":0.00999999977648258,"pivot":[0,0,0],"rotation":[0,0,0,1],"scale":[1,1,1],"translation":[0,0,0]}],"samplers":[{}],"scene":0,"scenes":[{"name":"Root Scene","nodes":[0]}],"textures":[{"name":"MI_Debris_Pile_01","sampler":0,"source":0},{"name":"MI_Debris_Pile_01","sampler":0,"source":1}]}