{"accessors":[{"bufferView":0,"byteOffset":0,"componentType":5126,"count":1,"max":[0],"min":[0],"type":"SCALAR"},{"bufferView":1,"byteOffset":0,"componentType":5123,"count":7953,"type":"SCALAR"},{"bufferView":2,"byteOffset":0,"componentType":5126,"count":3305,"max":[0.261739552021027,0.150325313210487,1.24117708206177],"min":[-0.3073251247406,-2.08619785308838,-1.36990714073181],"type":"VEC3"},{"bufferView":3,"byteOffset":0,"componentType":5126,"count":3305,"type":"VEC3"},{"bufferView":4,"byteOffset":0,"componentType":5126,"count":3305,"type":"VEC4"},{"bufferView":5,"byteOffset":0,"componentType":5126,"count":3305,"type":"VEC2"},{"bufferView":6,"byteOffset":0,"componentType":5126,"count":3305,"type":"VEC2"},{"bufferView":7,"byteOffset":0,"componentType":5123,"count":3063,"type":"SCALAR"},{"bufferView":8,"byteOffset":0,"componentType":5126,"count":1297,"max":[0.177270889282227,0.0483608432114124,1.16707277297974],"min":[-0.2312169522047,-1.93185114860535,-1.23854660987854],"type":"VEC3"},{"bufferView":9,"byteOffset":0,"componentType":5126,"count":1297,"type":"VEC3"},{"bufferView":10,"byteOffset":0,"componentType":5126,"count":1297,"type":"VEC4"},{"bufferView":11,"byteOffset":0,"componentType":5126,"count":1297,"type":"VEC2"},{"bufferView":12,"byteOffset":0,"componentType":5126,"count":1297,"type":"VEC2"}],"animations":[{"channels":[],"name":"Unreal Take","samplers":[]}],"asset":{"generator":"FBX2glTF v0.13.0","version":"2.0"},"bufferViews":[{"buffer":0,"byteLength":4,"byteOffset":0},{"buffer":0,"byteLength":15906,"byteOffset":4,"target":34963},{"buffer":0,"byteLength":39660,"byteOffset":15912,"target":34962},{"buffer":0,"byteLength":39660,"byteOffset":55572,"target":34962},{"buffer":0,"byteLength":52880,"byteOffset":95232,"target":34962},{"buffer":0,"byteLength":26440,"byteOffset":148112,"target":34962},{"buffer":0,"byteLength":26440,"byteOffset":174552,"target":34962},{"buffer":0,"byteLength":6126,"byteOffset":200992,"target":34963},{"buffer":0,"byteLength":15564,"byteOffset":207120,"target":34962},{"buffer":0,"byteLength":15564,"byteOffset":222684,"target":34962},{"buffer":0,"byteLength":20752,"byteOffset":238248,"target":34962},{"buffer":0,"byteLength":10376,"byteOffset":259000,"target":34962},{"buffer":0,"byteLength":10376,"byteOffset":269376,"target":34962}],"buffers":[{"byteLength":279752,"uri":"SM_Ivy_01a.bin"}],"images":[{"name":"T_Ivy_Leaves_N","uri":"../Textures/T_Ivy_Leaves_N.png"},{"name":"T_Ivy_Leaves_BC","uri":"../Textures/T_Ivy_Leaves_BC.png"},{"name":"T_Ivy_Bark_N","uri":"../Textures/T_Ivy_Bark_N.png"},{"name":"T_Ivy_Bark_BC","uri":"../Textures/T_Ivy_Bark_BC.png"}],"materials":[{"alphaMode":"OPAQUE","doubleSided":false,"extras":{"fromFBX":{"isTruePBR":false,"shadingModel":"Lambert"}},"name":"MI_Ivy_Leaves","normalTexture":{"index":0,"texCoord":0},"pbrMetallicRoughness":{"baseColorFactor":[1,1,1,1],"baseColorTexture":{"index":1,"texCoord":0},"metallicFactor":0.200000002980232,"roughnessFactor":0.800000011920929}},{"alphaMode":"OPAQUE","doubleSided":false,"extras":{"fromFBX":{"isTruePBR":false,"shadingModel":"Phong"}},"name":"MI_Ivy_Bark","normalTexture":{"index":2,"texCoord":0},"pbrMetallicRoughness":{"baseColorFactor":[1,1,1,1],"baseColorTexture":{"index":3,"texCoord":0},"metallicFactor":0.400000005960464,"roughnessFactor":0.301511347293854}}],"meshes":[{"name":"SM_Ivy_01a","primitives":[{"attributes":{"NORMAL":3,"POSITION":2,"TANGENT":4,"TEXCOORD_0":5,"TEXCOORD_1":6},"indices":1,"material":0,"mode":4},{"attributes":{"NORMAL":9,"POSITION":8,"TANGENT":10,"TEXCOORD_0":11,"TEXCOORD_1":12},"indices":7,"material":1,"mode":4}]}],"nodes":[{"mesh":0,"name":"SM_Ivy_01a","originalUnits":0.00999999977648258,"pivot":[0,0,0],"rotation":[0,0,0,1],"scale":[1,1,1],"translation":[0,0,0]}],"samplers":[{}],"scene":0,"scenes":[{"name":"Root Scene","nodes":[0]}],"textures":[{"name":"MI_Ivy_Leaves","sampler":0,"source":0},{"name":"MI_Ivy_Leaves","sampler":0,"source":1},{"name":"MI_Ivy_Bark","sampler":0,"source":2},{"name":"MI_Ivy_Bark","sampler":0,"source":3}]}