{"accessors":[{"bufferView":0,"byteOffset":0,"componentType":5126,"count":1,"max":[0],"min":[0],"type":"SCALAR"},{"bufferView":1,"byteOffset":0,"componentType":5123,"count":5313,"type":"SCALAR"},{"bufferView":2,"byteOffset":0,"componentType":5126,"count":2013,"max":[0.228994712233543,0.387201756238937,1.18638384342194],"min":[-0.23732799291611,-1.24689638614655,-1.20420622825623],"type":"VEC3"},{"bufferView":3,"byteOffset":0,"componentType":5126,"count":2013,"type":"VEC3"},{"bufferView":4,"byteOffset":0,"componentType":5126,"count":2013,"type":"VEC4"},{"bufferView":5,"byteOffset":0,"componentType":5126,"count":2013,"type":"VEC2"},{"bufferView":6,"byteOffset":0,"componentType":5126,"count":2013,"type":"VEC2"},{"bufferView":7,"byteOffset":0,"componentType":5123,"count":2148,"type":"SCALAR"},{"bufferView":8,"byteOffset":0,"componentType":5126,"count":890,"max":[0.176023408770561,0.279296547174454,1.09916424751282],"min":[-0.14915435016155,-1.02904641628265,-1.09949684143066],"type":"VEC3"},{"bufferView":9,"byteOffset":0,"componentType":5126,"count":890,"type":"VEC3"},{"bufferView":10,"byteOffset":0,"componentType":5126,"count":890,"type":"VEC4"},{"bufferView":11,"byteOffset":0,"componentType":5126,"count":890,"type":"VEC2"},{"bufferView":12,"byteOffset":0,"componentType":5126,"count":890,"type":"VEC2"}],"animations":[{"channels":[],"name":"Unreal Take","samplers":[]}],"asset":{"generator":"FBX2glTF v0.13.0","version":"2.0"},"bufferViews":[{"buffer":0,"byteLength":4,"byteOffset":0},{"buffer":0,"byteLength":10626,"byteOffset":4,"target":34963},{"buffer":0,"byteLength":24156,"byteOffset":10632,"target":34962},{"buffer":0,"byteLength":24156,"byteOffset":34788,"target":34962},{"buffer":0,"byteLength":32208,"byteOffset":58944,"target":34962},{"buffer":0,"byteLength":16104,"byteOffset":91152,"target":34962},{"buffer":0,"byteLength":16104,"byteOffset":107256,"target":34962},{"buffer":0,"byteLength":4296,"byteOffset":123360,"target":34963},{"buffer":0,"byteLength":10680,"byteOffset":127656,"target":34962},{"buffer":0,"byteLength":10680,"byteOffset":138336,"target":34962},{"buffer":0,"byteLength":14240,"byteOffset":149016,"target":34962},{"buffer":0,"byteLength":7120,"byteOffset":163256,"target":34962},{"buffer":0,"byteLength":7120,"byteOffset":170376,"target":34962}],"buffers":[{"byteLength":177496,"uri":"SM_Ivy_01b.bin"}],"images":[{"name":"T_Ivy_Leaves_N","uri":"../Textures/T_Ivy_Leaves_N.png"},{"name":"T_Ivy_Leaves_BC","uri":"../Textures/T_Ivy_Leaves_BC.png"},{"name":"T_Ivy_Bark_N","uri":"../Textures/T_Ivy_Bark_N.png"},{"name":"T_Ivy_Bark_BC","uri":"../Textures/T_Ivy_Bark_BC.png"}],"materials":[{"alphaMode":"OPAQUE","doubleSided":false,"extras":{"fromFBX":{"isTruePBR":false,"shadingModel":"Lambert"}},"name":"MI_Ivy_Leaves","normalTexture":{"index":0,"texCoord":0},"pbrMetallicRoughness":{"baseColorFactor":[1,1,1,1],"baseColorTexture":{"index":1,"texCoord":0},"metallicFactor":0.200000002980232,"roughnessFactor":0.800000011920929}},{"alphaMode":"OPAQUE","doubleSided":false,"extras":{"fromFBX":{"isTruePBR":false,"shadingModel":"Phong"}},"name":"MI_Ivy_Bark","normalTexture":{"index":2,"texCoord":0},"pbrMetallicRoughness":{"baseColorFactor":[1,1,1,1],"baseColorTexture":{"index":3,"texCoord":0},"metallicFactor":0.400000005960464,"roughnessFactor":0.301511347293854}}],"meshes":[{"name":"SM_Ivy_01b","primitives":[{"attributes":{"NORMAL":3,"POSITION":2,"TANGENT":4,"TEXCOORD_0":5,"TEXCOORD_1":6},"indices":1,"material":0,"mode":4},{"attributes":{"NORMAL":9,"POSITION":8,"TANGENT":10,"TEXCOORD_0":11,"TEXCOORD_1":12},"indices":7,"material":1,"mode":4}]}],"nodes":[{"mesh":0,"name":"SM_Ivy_01b","originalUnits":0.00999999977648258,"pivot":[0,0,0],"rotation":[0,0,0,1],"scale":[1,1,1],"translation":[0,0,0]}],"samplers":[{}],"scene":0,"scenes":[{"name":"Root Scene","nodes":[0]}],"textures":[{"name":"MI_Ivy_Leaves","sampler":0,"source":0},{"name":"MI_Ivy_Leaves","sampler":0,"source":1},{"name":"MI_Ivy_Bark","sampler":0,"source":2},{"name":"MI_Ivy_Bark","sampler":0,"source":3}]}