{"accessors":[{"bufferView":0,"byteOffset":0,"componentType":5126,"count":1,"max":[0],"min":[0],"type":"SCALAR"},{"bufferView":1,"byteOffset":0,"componentType":5123,"count":4998,"type":"SCALAR"},{"bufferView":2,"byteOffset":0,"componentType":5126,"count":4998,"max":[0.298086494207382,0.218681767582893,0.700512051582336],"min":[-0.44707351922989,-3.39409756660461,-1.02702450752258],"type":"VEC3"},{"bufferView":3,"byteOffset":0,"componentType":5126,"count":4998,"type":"VEC3"},{"bufferView":4,"byteOffset":0,"componentType":5126,"count":4998,"type":"VEC4"},{"bufferView":5,"byteOffset":0,"componentType":5126,"count":4998,"type":"VEC2"},{"bufferView":6,"byteOffset":0,"componentType":5126,"count":4998,"type":"VEC2"},{"bufferView":7,"byteOffset":0,"componentType":5123,"count":978,"type":"SCALAR"},{"bufferView":8,"byteOffset":0,"componentType":5126,"count":976,"max":[0.214670836925507,-0.02504925616086,0.521608233451843],"min":[-0.33635705709457,-3.12169098854065,-0.83036124706268],"type":"VEC3"},{"bufferView":9,"byteOffset":0,"componentType":5126,"count":976,"type":"VEC3"},{"bufferView":10,"byteOffset":0,"componentType":5126,"count":976,"type":"VEC4"},{"bufferView":11,"byteOffset":0,"componentType":5126,"count":976,"type":"VEC2"},{"bufferView":12,"byteOffset":0,"componentType":5126,"count":976,"type":"VEC2"}],"animations":[{"channels":[],"name":"Unreal Take","samplers":[]}],"asset":{"generator":"FBX2glTF v0.13.0","version":"2.0"},"bufferViews":[{"buffer":0,"byteLength":4,"byteOffset":0},{"buffer":0,"byteLength":9996,"byteOffset":4,"target":34963},{"buffer":0,"byteLength":59976,"byteOffset":10000,"target":34962},{"buffer":0,"byteLength":59976,"byteOffset":69976,"target":34962},{"buffer":0,"byteLength":79968,"byteOffset":129952,"target":34962},{"buffer":0,"byteLength":39984,"byteOffset":209920,"target":34962},{"buffer":0,"byteLength":39984,"byteOffset":249904,"target":34962},{"buffer":0,"byteLength":1956,"byteOffset":289888,"target":34963},{"buffer":0,"byteLength":11712,"byteOffset":291844,"target":34962},{"buffer":0,"byteLength":11712,"byteOffset":303556,"target":34962},{"buffer":0,"byteLength":15616,"byteOffset":315268,"target":34962},{"buffer":0,"byteLength":7808,"byteOffset":330884,"target":34962},{"buffer":0,"byteLength":7808,"byteOffset":338692,"target":34962}],"buffers":[{"byteLength":346500,"uri":"SM_Ivy_01c.bin"}],"images":[{"name":"T_Ivy_Leaves_N","uri":"../Textures/T_Ivy_Leaves_N.png"},{"name":"T_Ivy_Leaves_BC","uri":"../Textures/T_Ivy_Leaves_BC.png"},{"name":"T_Ivy_Bark_N","uri":"../Textures/T_Ivy_Bark_N.png"},{"name":"T_Ivy_Bark_BC","uri":"../Textures/T_Ivy_Bark_BC.png"}],"materials":[{"alphaMode":"OPAQUE","doubleSided":false,"extras":{"fromFBX":{"isTruePBR":false,"shadingModel":"Lambert"}},"name":"MI_Ivy_Leaves","normalTexture":{"index":0,"texCoord":0},"pbrMetallicRoughness":{"baseColorFactor":[1,1,1,1],"baseColorTexture":{"index":1,"texCoord":0},"metallicFactor":0.200000002980232,"roughnessFactor":0.800000011920929}},{"alphaMode":"OPAQUE","doubleSided":false,"extras":{"fromFBX":{"isTruePBR":false,"shadingModel":"Phong"}},"name":"MI_Ivy_Bark","normalTexture":{"index":2,"texCoord":0},"pbrMetallicRoughness":{"baseColorFactor":[1,1,1,1],"baseColorTexture":{"index":3,"texCoord":0},"metallicFactor":0.400000005960464,"roughnessFactor":0.301511347293854}}],"meshes":[{"name":"SM_Ivy_01c","primitives":[{"attributes":{"NORMAL":3,"POSITION":2,"TANGENT":4,"TEXCOORD_0":5,"TEXCOORD_1":6},"indices":1,"material":0,"mode":4},{"attributes":{"NORMAL":9,"POSITION":8,"TANGENT":10,"TEXCOORD_0":11,"TEXCOORD_1":12},"indices":7,"material":1,"mode":4}]}],"nodes":[{"mesh":0,"name":"SM_Ivy_01c","originalUnits":0.00999999977648258,"pivot":[0,0,0],"rotation":[0,0,0,1],"scale":[1,1,1],"translation":[0,0,0]}],"samplers":[{}],"scene":0,"scenes":[{"name":"Root Scene","nodes":[0]}],"textures":[{"name":"MI_Ivy_Leaves","sampler":0,"source":0},{"name":"MI_Ivy_Leaves","sampler":0,"source":1},{"name":"MI_Ivy_Bark","sampler":0,"source":2},{"name":"MI_Ivy_Bark","sampler":0,"source":3}]}