{"accessors":[{"bufferView":0,"byteOffset":0,"componentType":5126,"count":1,"max":[0],"min":[0],"type":"SCALAR"},{"bufferView":1,"byteOffset":0,"componentType":5123,"count":3246,"type":"SCALAR"},{"bufferView":2,"byteOffset":0,"componentType":5126,"count":1498,"max":[2.14293837547302,0.265749424695969,2.44363069534302],"min":[-2.15827393531799,0.0256971754133701,-2.52458238601685],"type":"VEC3"},{"bufferView":3,"byteOffset":0,"componentType":5126,"count":1498,"type":"VEC3"},{"bufferView":4,"byteOffset":0,"componentType":5126,"count":1498,"type":"VEC4"},{"bufferView":5,"byteOffset":0,"componentType":5126,"count":1498,"type":"VEC2"},{"bufferView":6,"byteOffset":0,"componentType":5126,"count":1498,"type":"VEC2"},{"bufferView":7,"byteOffset":0,"componentType":5123,"count":1623,"type":"SCALAR"},{"bufferView":8,"byteOffset":0,"componentType":5126,"count":1055,"max":[2.14293837547302,0.3148532807827,2.44363069534302],"min":[-2.16255021095276,0.0193864908069372,-2.52458238601685],"type":"VEC3"},{"bufferView":9,"byteOffset":0,"componentType":5126,"count":1055,"type":"VEC3"},{"bufferView":10,"byteOffset":0,"componentType":5126,"count":1055,"type":"VEC4"},{"bufferView":11,"byteOffset":0,"componentType":5126,"count":1055,"type":"VEC2"},{"bufferView":12,"byteOffset":0,"componentType":5126,"count":1055,"type":"VEC2"},{"bufferView":13,"byteOffset":0,"componentType":5123,"count":813,"type":"SCALAR"},{"bufferView":14,"byteOffset":0,"componentType":5126,"count":679,"max":[2.07573914527893,0.3148532807827,1.74689328670502],"min":[-2.16255021095276,0.00161683326587081,-2.52458238601685],"type":"VEC3"},{"bufferView":15,"byteOffset":0,"componentType":5126,"count":679,"type":"VEC3"},{"bufferView":16,"byteOffset":0,"componentType":5126,"count":679,"type":"VEC4"},{"bufferView":17,"byteOffset":0,"componentType":5126,"count":679,"type":"VEC2"},{"bufferView":18,"byteOffset":0,"componentType":5126,"count":679,"type":"VEC2"},{"bufferView":19,"byteOffset":0,"componentType":5123,"count":408,"type":"SCALAR"},{"bufferView":20,"byteOffset":0,"componentType":5126,"count":402,"max":[2.07573914527893,0.3148532807827,1.69858193397522],"min":[-2.16255021095276,-0.01133663486689,-2.52458238601685],"type":"VEC3"},{"bufferView":21,"byteOffset":0,"componentType":5126,"count":402,"type":"VEC3"},{"bufferView":22,"byteOffset":0,"componentType":5126,"count":402,"type":"VEC4"},{"bufferView":23,"byteOffset":0,"componentType":5126,"count":402,"type":"VEC2"},{"bufferView":24,"byteOffset":0,"componentType":5126,"count":402,"type":"VEC2"}],"animations":[{"channels":[],"name":"Unreal Take","samplers":[]}],"asset":{"generator":"FBX2glTF v0.13.0","version":"2.0"},"bufferViews":[{"buffer":0,"byteLength":4,"byteOffset":0},{"buffer":0,"byteLength":6492,"byteOffset":4,"target":34963},{"buffer":0,"byteLength":17976,"byteOffset":6496,"target":34962},{"buffer":0,"byteLength":17976,"byteOffset":24472,"target":34962},{"buffer":0,"byteLength":23968,"byteOffset":42448,"target":34962},{"buffer":0,"byteLength":11984,"byteOffset":66416,"target":34962},{"buffer":0,"byteLength":11984,"byteOffset":78400,"target":34962},{"buffer":0,"byteLength":3246,"byteOffset":90384,"target":34963},{"buffer":0,"byteLength":12660,"byteOffset":93632,"target":34962},{"buffer":0,"byteLength":12660,"byteOffset":106292,"target":34962},{"buffer":0,"byteLength":16880,"byteOffset":118952,"target":34962},{"buffer":0,"byteLength":8440,"byteOffset":135832,"target":34962},{"buffer":0,"byteLength":8440,"byteOffset":144272,"target":34962},{"buffer":0,"byteLength":1626,"byteOffset":152712,"target":34963},{"buffer":0,"byteLength":8148,"byteOffset":154340,"target":34962},{"buffer":0,"byteLength":8148,"byteOffset":162488,"target":34962},{"buffer":0,"byteLength":10864,"byteOffset":170636,"target":34962},{"buffer":0,"byteLength":5432,"byteOffset":181500,"target":34962},{"buffer":0,"byteLength":5432,"byteOffset":186932,"target":34962},{"buffer":0,"byteLength":816,"byteOffset":192364,"target":34963},{"buffer":0,"byteLength":4824,"byteOffset":193180,"target":34962},{"buffer":0,"byteLength":4824,"byteOffset":198004,"target":34962},{"buffer":0,"byteLength":6432,"byteOffset":202828,"target":34962},{"buffer":0,"byteLength":3216,"byteOffset":209260,"target":34962},{"buffer":0,"byteLength":3216,"byteOffset":212476,"target":34962}],"buffers":[{"byteLength":215692,"uri":"SM_LeavesPile_02a.bin"}],"images":[{"name":"T_Ivy_Leaves_N","uri":"../Textures/T_Ivy_Leaves_N.png"},{"name":"T_Ivy_Leaves_Dead_BC","uri":"../Textures/T_Ivy_Leaves_Dead_BC.png"}],"materials":[{"alphaMode":"OPAQUE","doubleSided":false,"extras":{"fromFBX":{"isTruePBR":false,"shadingModel":"Lambert"}},"name":"MI_Ivy_LeavesNoWind","normalTexture":{"index":0,"texCoord":0},"pbrMetallicRoughness":{"baseColorFactor":[1,1,1,1],"baseColorTexture":{"index":1,"texCoord":0},"metallicFactor":0.200000002980232,"roughnessFactor":0.800000011920929}}],"meshes":[{"name":"SM_LeavesPile_02a_LOD0","primitives":[{"attributes":{"NORMAL":3,"POSITION":2,"TANGENT":4,"TEXCOORD_0":5,"TEXCOORD_1":6},"indices":1,"material":0,"mode":4}]},{"name":"SM_LeavesPile_02a_LOD1","primitives":[{"attributes":{"NORMAL":9,"POSITION":8,"TANGENT":10,"TEXCOORD_0":11,"TEXCOORD_1":12},"indices":7,"material":0,"mode":4}]},{"name":"SM_LeavesPile_02a_LOD2","primitives":[{"attributes":{"NORMAL":15,"POSITION":14,"TANGENT":16,"TEXCOORD_0":17,"TEXCOORD_1":18},"indices":13,"material":0,"mode":4}]},{"name":"SM_LeavesPile_02a_LOD3","primitives":[{"attributes":{"NORMAL":21,"POSITION":20,"TANGENT":22,"TEXCOORD_0":23,"TEXCOORD_1":24},"indices":19,"material":0,"mode":4}]}],"nodes":[{"children":[1,2,3,4],"name":"StaticMeshActor_1049","originalUnits":0.00999999977648258,"pivot":[0,0,0],"rotation":[0,0,0,1],"scale":[1,1,1],"translation":[0,0,0]},{"mesh":0,"name":"SM_LeavesPile_02a_LOD0","originalUnits":0.00999999977648258,"pivot":[0,0,0],"rotation":[0,0,0,1],"scale":[1,1,1],"translation":[0,0,0]},{"mesh":1,"name":"SM_LeavesPile_02a_LOD1","originalUnits":0.00999999977648258,"pivot":[0,0,0],"rotation":[0,0,0,1],"scale":[1,1,1],"translation":[0,0,0]},{"mesh":2,"name":"SM_LeavesPile_02a_LOD2","originalUnits":0.00999999977648258,"pivot":[0,0,0],"rotation":[0,0,0,1],"scale":[1,1,1],"translation":[0,0,0]},{"mesh":3,"name":"SM_LeavesPile_02a_LOD3","originalUnits":0.00999999977648258,"pivot":[0,0,0],"rotation":[0,0,0,1],"scale":[1,1,1],"translation":[0,0,0]}],"samplers":[{}],"scene":0,"scenes":[{"name":"Root Scene","nodes":[0]}],"textures":[{"name":"MI_Ivy_LeavesNoWind","sampler":0,"source":0},{"name":"MI_Ivy_LeavesNoWind","sampler":0,"source":1}]}