{"accessors":[{"bufferView":0,"byteOffset":0,"componentType":5126,"count":1,"max":[0],"min":[0],"type":"SCALAR"},{"bufferView":1,"byteOffset":0,"componentType":5123,"count":3303,"type":"SCALAR"},{"bufferView":2,"byteOffset":0,"componentType":5126,"count":1504,"max":[2.14141774177551,0.311536937952042,1.90026617050171],"min":[-2.22023701667786,0.0176845099776983,-2.34699535369873],"type":"VEC3"},{"bufferView":3,"byteOffset":0,"componentType":5126,"count":1504,"type":"VEC3"},{"bufferView":4,"byteOffset":0,"componentType":5126,"count":1504,"type":"VEC4"},{"bufferView":5,"byteOffset":0,"componentType":5126,"count":1504,"type":"VEC2"},{"bufferView":6,"byteOffset":0,"componentType":5126,"count":1504,"type":"VEC2"},{"bufferView":7,"byteOffset":0,"componentType":5123,"count":1653,"type":"SCALAR"},{"bufferView":8,"byteOffset":0,"componentType":5126,"count":1061,"max":[2.14141774177551,0.311536937952042,1.94875943660736],"min":[-2.22023701667786,0.0000545774528291076,-2.35880756378174],"type":"VEC3"},{"bufferView":9,"byteOffset":0,"componentType":5126,"count":1061,"type":"VEC3"},{"bufferView":10,"byteOffset":0,"componentType":5126,"count":1061,"type":"VEC4"},{"bufferView":11,"byteOffset":0,"componentType":5126,"count":1061,"type":"VEC2"},{"bufferView":12,"byteOffset":0,"componentType":5126,"count":1061,"type":"VEC2"},{"bufferView":13,"byteOffset":0,"componentType":5123,"count":828,"type":"SCALAR"},{"bufferView":14,"byteOffset":0,"componentType":5126,"count":682,"max":[2.14141774177551,0.311536937952042,1.94875943660736],"min":[-2.22023701667786,-0.00072445516707,-2.35880756378174],"type":"VEC3"},{"bufferView":15,"byteOffset":0,"componentType":5126,"count":682,"type":"VEC3"},{"bufferView":16,"byteOffset":0,"componentType":5126,"count":682,"type":"VEC4"},{"bufferView":17,"byteOffset":0,"componentType":5126,"count":682,"type":"VEC2"},{"bufferView":18,"byteOffset":0,"componentType":5126,"count":682,"type":"VEC2"},{"bufferView":19,"byteOffset":0,"componentType":5123,"count":414,"type":"SCALAR"},{"bufferView":20,"byteOffset":0,"componentType":5126,"count":398,"max":[2.14141774177551,0.318502694368362,1.94875943660736],"min":[-2.22023701667786,-0.01331222057343,-2.35880756378174],"type":"VEC3"},{"bufferView":21,"byteOffset":0,"componentType":5126,"count":398,"type":"VEC3"},{"bufferView":22,"byteOffset":0,"componentType":5126,"count":398,"type":"VEC4"},{"bufferView":23,"byteOffset":0,"componentType":5126,"count":398,"type":"VEC2"},{"bufferView":24,"byteOffset":0,"componentType":5126,"count":398,"type":"VEC2"}],"animations":[{"channels":[],"name":"Unreal Take","samplers":[]}],"asset":{"generator":"FBX2glTF v0.13.0","version":"2.0"},"bufferViews":[{"buffer":0,"byteLength":4,"byteOffset":0},{"buffer":0,"byteLength":6606,"byteOffset":4,"target":34963},{"buffer":0,"byteLength":18048,"byteOffset":6612,"target":34962},{"buffer":0,"byteLength":18048,"byteOffset":24660,"target":34962},{"buffer":0,"byteLength":24064,"byteOffset":42708,"target":34962},{"buffer":0,"byteLength":12032,"byteOffset":66772,"target":34962},{"buffer":0,"byteLength":12032,"byteOffset":78804,"target":34962},{"buffer":0,"byteLength":3306,"byteOffset":90836,"target":34963},{"buffer":0,"byteLength":12732,"byteOffset":94144,"target":34962},{"buffer":0,"byteLength":12732,"byteOffset":106876,"target":34962},{"buffer":0,"byteLength":16976,"byteOffset":119608,"target":34962},{"buffer":0,"byteLength":8488,"byteOffset":136584,"target":34962},{"buffer":0,"byteLength":8488,"byteOffset":145072,"target":34962},{"buffer":0,"byteLength":1656,"byteOffset":153560,"target":34963},{"buffer":0,"byteLength":8184,"byteOffset":155216,"target":34962},{"buffer":0,"byteLength":8184,"byteOffset":163400,"target":34962},{"buffer":0,"byteLength":10912,"byteOffset":171584,"target":34962},{"buffer":0,"byteLength":5456,"byteOffset":182496,"target":34962},{"buffer":0,"byteLength":5456,"byteOffset":187952,"target":34962},{"buffer":0,"byteLength":828,"byteOffset":193408,"target":34963},{"buffer":0,"byteLength":4776,"byteOffset":194236,"target":34962},{"buffer":0,"byteLength":4776,"byteOffset":199012,"target":34962},{"buffer":0,"byteLength":6368,"byteOffset":203788,"target":34962},{"buffer":0,"byteLength":3184,"byteOffset":210156,"target":34962},{"buffer":0,"byteLength":3184,"byteOffset":213340,"target":34962}],"buffers":[{"byteLength":216524,"uri":"SM_LeavesPile_01a.bin"}],"images":[{"name":"T_Ivy_Leaves_N","uri":"../Textures/T_Ivy_Leaves_N.png"},{"name":"T_Ivy_Leaves_Dead_BC","uri":"../Textures/T_Ivy_Leaves_Dead_BC.png"}],"materials":[{"alphaMode":"OPAQUE","doubleSided":false,"extras":{"fromFBX":{"isTruePBR":false,"shadingModel":"Lambert"}},"name":"MI_Ivy_LeavesNoWind","normalTexture":{"index":0,"texCoord":0},"pbrMetallicRoughness":{"baseColorFactor":[1,1,1,1],"baseColorTexture":{"index":1,"texCoord":0},"metallicFactor":0.200000002980232,"roughnessFactor":0.800000011920929}}],"meshes":[{"name":"SM_LeavesPile_01a_LOD0","primitives":[{"attributes":{"NORMAL":3,"POSITION":2,"TANGENT":4,"TEXCOORD_0":5,"TEXCOORD_1":6},"indices":1,"material":0,"mode":4}]},{"name":"SM_LeavesPile_01a_LOD1","primitives":[{"attributes":{"NORMAL":9,"POSITION":8,"TANGENT":10,"TEXCOORD_0":11,"TEXCOORD_1":12},"indices":7,"material":0,"mode":4}]},{"name":"SM_LeavesPile_01a_LOD2","primitives":[{"attributes":{"NORMAL":15,"POSITION":14,"TANGENT":16,"TEXCOORD_0":17,"TEXCOORD_1":18},"indices":13,"material":0,"mode":4}]},{"name":"SM_LeavesPile_01a_LOD3","primitives":[{"attributes":{"NORMAL":21,"POSITION":20,"TANGENT":22,"TEXCOORD_0":23,"TEXCOORD_1":24},"indices":19,"material":0,"mode":4}]}],"nodes":[{"children":[1,2,3,4],"name":"StaticMeshActor_608","originalUnits":0.00999999977648258,"pivot":[0,0,0],"rotation":[0,0,0,1],"scale":[1,1,1],"translation":[0,0,0]},{"mesh":0,"name":"SM_LeavesPile_01a_LOD0","originalUnits":0.00999999977648258,"pivot":[0,0,0],"rotation":[0,0,0,1],"scale":[1,1,1],"translation":[0,0,0]},{"mesh":1,"name":"SM_LeavesPile_01a_LOD1","originalUnits":0.00999999977648258,"pivot":[0,0,0],"rotation":[0,0,0,1],"scale":[1,1,1],"translation":[0,0,0]},{"mesh":2,"name":"SM_LeavesPile_01a_LOD2","originalUnits":0.00999999977648258,"pivot":[0,0,0],"rotation":[0,0,0,1],"scale":[1,1,1],"translation":[0,0,0]},{"mesh":3,"name":"SM_LeavesPile_01a_LOD3","originalUnits":0.00999999977648258,"pivot":[0,0,0],"rotation":[0,0,0,1],"scale":[1,1,1],"translation":[0,0,0]}],"samplers":[{}],"scene":0,"scenes":[{"name":"Root Scene","nodes":[0]}],"textures":[{"name":"MI_Ivy_LeavesNoWind","sampler":0,"source":0},{"name":"MI_Ivy_LeavesNoWind","sampler":0,"source":1}]}