{"accessors":[{"bufferView":0,"byteOffset":0,"componentType":5123,"count":4932,"type":"SCALAR"},{"bufferView":1,"byteOffset":0,"componentType":5126,"count":1388,"max":[3.49356365203857,6.01057052612305,0.83718329668045],"min":[-3.49827075004578,-3.21931719779968,-0.35420775413513],"type":"VEC3"},{"bufferView":2,"byteOffset":0,"componentType":5126,"count":1388,"type":"VEC3"},{"bufferView":3,"byteOffset":0,"componentType":5126,"count":1388,"type":"VEC2"},{"bufferView":4,"byteOffset":0,"componentType":5126,"count":1388,"type":"VEC2"},{"bufferView":5,"byteOffset":0,"componentType":5123,"count":4920,"type":"SCALAR"},{"bufferView":6,"byteOffset":0,"componentType":5126,"count":1384,"max":[3.49183917045593,5.61119079589844,0.801189303398132],"min":[-3.49999499320984,-3.61869692802429,-0.39020171761513],"type":"VEC3"},{"bufferView":7,"byteOffset":0,"componentType":5126,"count":1384,"type":"VEC3"},{"bufferView":8,"byteOffset":0,"componentType":5126,"count":1384,"type":"VEC2"},{"bufferView":9,"byteOffset":0,"componentType":5126,"count":1384,"type":"VEC2"},{"bufferView":10,"byteOffset":0,"componentType":5123,"count":3324,"type":"SCALAR"},{"bufferView":11,"byteOffset":0,"componentType":5126,"count":1034,"max":[3.49831938743591,5.5783166885376,0.785579025745392],"min":[-3.50100922584534,-3.65157151222229,-0.40898555517197],"type":"VEC3"},{"bufferView":12,"byteOffset":0,"componentType":5126,"count":1034,"type":"VEC3"},{"bufferView":13,"byteOffset":0,"componentType":5126,"count":1034,"type":"VEC2"},{"bufferView":14,"byteOffset":0,"componentType":5126,"count":1034,"type":"VEC2"},{"bufferView":15,"byteOffset":0,"componentType":5123,"count":1920,"type":"SCALAR"},{"bufferView":16,"byteOffset":0,"componentType":5126,"count":647,"max":[3.49296021461487,5.54363012313843,0.790177583694458],"min":[-3.50402760505676,-3.68625712394714,-0.40838888287544],"type":"VEC3"},{"bufferView":17,"byteOffset":0,"componentType":5126,"count":647,"type":"VEC3"},{"bufferView":18,"byteOffset":0,"componentType":5126,"count":647,"type":"VEC2"},{"bufferView":19,"byteOffset":0,"componentType":5126,"count":647,"type":"VEC2"},{"bufferView":20,"byteOffset":0,"componentType":5123,"count":17214,"type":"SCALAR"},{"bufferView":21,"byteOffset":0,"componentType":5126,"count":3970,"max":[2.08903408050537,4.76029109954834,0.0603382438421249],"min":[-2.09226584434509,-3.21558475494385,-0.26432308554649],"type":"VEC3"},{"bufferView":22,"byteOffset":0,"componentType":5126,"count":3970,"type":"VEC3"},{"bufferView":23,"byteOffset":0,"componentType":5126,"count":3970,"type":"VEC2"},{"bufferView":24,"byteOffset":0,"componentType":5126,"count":3970,"type":"VEC2"},{"bufferView":25,"byteOffset":0,"componentType":5123,"count":6153,"type":"SCALAR"},{"bufferView":26,"byteOffset":0,"componentType":5126,"count":1772,"max":[2.08730959892273,4.36091232299805,0.0245499685406685],"min":[-2.09399032592773,-3.61496424674988,-0.30031701922417],"type":"VEC3"},{"bufferView":27,"byteOffset":0,"componentType":5126,"count":1772,"type":"VEC3"},{"bufferView":28,"byteOffset":0,"componentType":5126,"count":1772,"type":"VEC2"},{"bufferView":29,"byteOffset":0,"componentType":5126,"count":1772,"type":"VEC2"},{"bufferView":30,"byteOffset":0,"componentType":5123,"count":2214,"type":"SCALAR"},{"bufferView":31,"byteOffset":0,"componentType":5126,"count":892,"max":[2.09091258049011,4.32803678512573,-0.00026168674231],"min":[-2.09038710594177,-3.6478385925293,-0.31910088658333],"type":"VEC3"},{"bufferView":32,"byteOffset":0,"componentType":5126,"count":892,"type":"VEC3"},{"bufferView":33,"byteOffset":0,"componentType":5126,"count":892,"type":"VEC2"},{"bufferView":34,"byteOffset":0,"componentType":5126,"count":892,"type":"VEC2"},{"bufferView":35,"byteOffset":0,"componentType":5123,"count":846,"type":"SCALAR"},{"bufferView":36,"byteOffset":0,"componentType":5126,"count":497,"max":[2.08319520950317,4.29335165023804,-0.06123342737555],"min":[-2.09810471534729,-3.68252468109131,-0.3185042142868],"type":"VEC3"},{"bufferView":37,"byteOffset":0,"componentType":5126,"count":497,"type":"VEC3"},{"bufferView":38,"byteOffset":0,"componentType":5126,"count":497,"type":"VEC2"},{"bufferView":39,"byteOffset":0,"componentType":5126,"count":497,"type":"VEC2"},{"bufferView":40,"byteOffset":0,"componentType":5123,"count":3888,"type":"SCALAR"},{"bufferView":41,"byteOffset":0,"componentType":5126,"count":1022,"max":[1.40982818603516,2.64222502708435,0.0534115359187126],"min":[-1.40188777446747,-2.61942958831787,-0.23663875460625],"type":"VEC3"},{"bufferView":42,"byteOffset":0,"componentType":5126,"count":1022,"type":"VEC3"},{"bufferView":43,"byteOffset":0,"componentType":5126,"count":1022,"type":"VEC2"},{"bufferView":44,"byteOffset":0,"componentType":5126,"count":1022,"type":"VEC2"},{"bufferView":45,"byteOffset":0,"componentType":5123,"count":1944,"type":"SCALAR"},{"bufferView":46,"byteOffset":0,"componentType":5126,"count":653,"max":[1.40971124172211,2.65225577354431,0.0694137886166573],"min":[-1.40200507640839,-2.60939836502075,-0.22063651680946],"type":"VEC3"},{"bufferView":47,"byteOffset":0,"componentType":5126,"count":653,"type":"VEC3"},{"bufferView":48,"byteOffset":0,"componentType":5126,"count":653,"type":"VEC2"},{"bufferView":49,"byteOffset":0,"componentType":5126,"count":653,"type":"VEC2"},{"bufferView":50,"byteOffset":0,"componentType":5123,"count":972,"type":"SCALAR"},{"bufferView":51,"byteOffset":0,"componentType":5126,"count":437,"max":[1.3904185295105,2.63586187362671,0.0805807560682297],"min":[-1.4245171546936,-2.62540769577026,-0.21805535256863],"type":"VEC3"},{"bufferView":52,"byteOffset":0,"componentType":5126,"count":437,"type":"VEC3"},{"bufferView":53,"byteOffset":0,"componentType":5126,"count":437,"type":"VEC2"},{"bufferView":54,"byteOffset":0,"componentType":5126,"count":437,"type":"VEC2"},{"bufferView":55,"byteOffset":0,"componentType":5123,"count":486,"type":"SCALAR"},{"bufferView":56,"byteOffset":0,"componentType":5126,"count":195,"max":[1.476602435112,2.62142086029053,0.104119852185249],"min":[-1.34245431423187,-2.64523148536682,-0.18558655679226],"type":"VEC3"},{"bufferView":57,"byteOffset":0,"componentType":5126,"count":195,"type":"VEC3"},{"bufferView":58,"byteOffset":0,"componentType":5126,"count":195,"type":"VEC2"},{"bufferView":59,"byteOffset":0,"componentType":5126,"count":195,"type":"VEC2"}],"asset":{"generator":"FBX2glTF v0.13.0","version":"2.0"},"bufferViews":[{"buffer":0,"byteLength":9864,"byteOffset":0,"target":34963},{"buffer":0,"byteLength":16656,"byteOffset":9864,"target":34962},{"buffer":0,"byteLength":16656,"byteOffset":26520,"target":34962},{"buffer":0,"byteLength":11104,"byteOffset":43176,"target":34962},{"buffer":0,"byteLength":11104,"byteOffset":54280,"target":34962},{"buffer":0,"byteLength":9840,"byteOffset":65384,"target":34963},{"buffer":0,"byteLength":16608,"byteOffset":75224,"target":34962},{"buffer":0,"byteLength":16608,"byteOffset":91832,"target":34962},{"buffer":0,"byteLength":11072,"byteOffset":108440,"target":34962},{"buffer":0,"byteLength":11072,"byteOffset":119512,"target":34962},{"buffer":0,"byteLength":6648,"byteOffset":130584,"target":34963},{"buffer":0,"byteLength":12408,"byteOffset":137232,"target":34962},{"buffer":0,"byteLength":12408,"byteOffset":149640,"target":34962},{"buffer":0,"byteLength":8272,"byteOffset":162048,"target":34962},{"buffer":0,"byteLength":8272,"byteOffset":170320,"target":34962},{"buffer":0,"byteLength":3840,"byteOffset":178592,"target":34963},{"buffer":0,"byteLength":7764,"byteOffset":182432,"target":34962},{"buffer":0,"byteLength":7764,"byteOffset":190196,"target":34962},{"buffer":0,"byteLength":5176,"byteOffset":197960,"target":34962},{"buffer":0,"byteLength":5176,"byteOffset":203136,"target":34962},{"buffer":0,"byteLength":34428,"byteOffset":208312,"target":34963},{"buffer":0,"byteLength":47640,"byteOffset":242740,"target":34962},{"buffer":0,"byteLength":47640,"byteOffset":290380,"target":34962},{"buffer":0,"byteLength":31760,"byteOffset":338020,"target":34962},{"buffer":0,"byteLength":31760,"byteOffset":369780,"target":34962},{"buffer":0,"byteLength":12306,"byteOffset":401540,"target":34963},{"buffer":0,"byteLength":21264,"byteOffset":413848,"target":34962},{"buffer":0,"byteLength":21264,"byteOffset":435112,"target":34962},{"buffer":0,"byteLength":14176,"byteOffset":456376,"target":34962},{"buffer":0,"byteLength":14176,"byteOffset":470552,"target":34962},{"buffer":0,"byteLength":4428,"byteOffset":484728,"target":34963},{"buffer":0,"byteLength":10704,"byteOffset":489156,"target":34962},{"buffer":0,"byteLength":10704,"byteOffset":499860,"target":34962},{"buffer":0,"byteLength":7136,"byteOffset":510564,"target":34962},{"buffer":0,"byteLength":7136,"byteOffset":517700,"target":34962},{"buffer":0,"byteLength":1692,"byteOffset":524836,"target":34963},{"buffer":0,"byteLength":5964,"byteOffset":526528,"target":34962},{"buffer":0,"byteLength":5964,"byteOffset":532492,"target":34962},{"buffer":0,"byteLength":3976,"byteOffset":538456,"target":34962},{"buffer":0,"byteLength":3976,"byteOffset":542432,"target":34962},{"buffer":0,"byteLength":7776,"byteOffset":546408,"target":34963},{"buffer":0,"byteLength":12264,"byteOffset":554184,"target":34962},{"buffer":0,"byteLength":12264,"byteOffset":566448,"target":34962},{"buffer":0,"byteLength":8176,"byteOffset":578712,"target":34962},{"buffer":0,"byteLength":8176,"byteOffset":586888,"target":34962},{"buffer":0,"byteLength":3888,"byteOffset":595064,"target":34963},{"buffer":0,"byteLength":7836,"byteOffset":598952,"target":34962},{"buffer":0,"byteLength":7836,"byteOffset":606788,"target":34962},{"buffer":0,"byteLength":5224,"byteOffset":614624,"target":34962},{"buffer":0,"byteLength":5224,"byteOffset":619848,"target":34962},{"buffer":0,"byteLength":1944,"byteOffset":625072,"target":34963},{"buffer":0,"byteLength":5244,"byteOffset":627016,"target":34962},{"buffer":0,"byteLength":5244,"byteOffset":632260,"target":34962},{"buffer":0,"byteLength":3496,"byteOffset":637504,"target":34962},{"buffer":0,"byteLength":3496,"byteOffset":641000,"target":34962},{"buffer":0,"byteLength":972,"byteOffset":644496,"target":34963},{"buffer":0,"byteLength":2340,"byteOffset":645468,"target":34962},{"buffer":0,"byteLength":2340,"byteOffset":647808,"target":34962},{"buffer":0,"byteLength":1560,"byteOffset":650148,"target":34962},{"buffer":0,"byteLength":1560,"byteOffset":651708,"target":34962}],"buffers":[{"byteLength":653268,"uri":"SM_Modular_Doors_01a.bin"}],"materials":[{"alphaMode":"OPAQUE","doubleSided":false,"extras":{"fromFBX":{"isTruePBR":false,"shadingModel":"Phong"}},"name":"MI_DoorMainFrame","pbrMetallicRoughness":{"baseColorFactor":[0.21586050093174,0.21586050093174,0.21586050093174,1],"metallicFactor":0.400000005960464,"roughnessFactor":0.301511347293854}},{"alphaMode":"OPAQUE","doubleSided":false,"extras":{"fromFBX":{"isTruePBR":false,"shadingModel":"Phong"}},"name":"MI_DoorMain","pbrMetallicRoughness":{"baseColorFactor":[0.21586050093174,0.21586050093174,0.21586050093174,1],"metallicFactor":0.400000005960464,"roughnessFactor":0.301511347293854}},{"alphaMode":"OPAQUE","doubleSided":false,"extras":{"fromFBX":{"isTruePBR":false,"shadingModel":"Phong"}},"name":"MI_Hammered_Iron_01","pbrMetallicRoughness":{"baseColorFactor":[0.21586050093174,0.21586050093174,0.21586050093174,1],"metallicFactor":0.400000005960464,"roughnessFactor":0.301511347293854}}],"meshes":[{"name":"StaticMeshActor_25_LOD0","primitives":[{"attributes":{"NORMAL":2,"POSITION":1,"TEXCOORD_0":3,"TEXCOORD_1":4},"indices":0,"material":0,"mode":4},{"attributes":{"NORMAL":22,"POSITION":21,"TEXCOORD_0":23,"TEXCOORD_1":24},"indices":20,"material":1,"mode":4}]},{"name":"StaticMeshActor_25_LOD1","primitives":[{"attributes":{"NORMAL":7,"POSITION":6,"TEXCOORD_0":8,"TEXCOORD_1":9},"indices":5,"material":0,"mode":4},{"attributes":{"NORMAL":27,"POSITION":26,"TEXCOORD_0":28,"TEXCOORD_1":29},"indices":25,"material":1,"mode":4}]},{"name":"StaticMeshActor_25_LOD2","primitives":[{"attributes":{"NORMAL":12,"POSITION":11,"TEXCOORD_0":13,"TEXCOORD_1":14},"indices":10,"material":0,"mode":4},{"attributes":{"NORMAL":32,"POSITION":31,"TEXCOORD_0":33,"TEXCOORD_1":34},"indices":30,"material":1,"mode":4}]},{"name":"StaticMeshActor_25_LOD3","primitives":[{"attributes":{"NORMAL":17,"POSITION":16,"TEXCOORD_0":18,"TEXCOORD_1":19},"indices":15,"material":0,"mode":4},{"attributes":{"NORMAL":37,"POSITION":36,"TEXCOORD_0":38,"TEXCOORD_1":39},"indices":35,"material":1,"mode":4}]},{"name":"StaticMeshActor_27_LOD0","primitives":[{"attributes":{"NORMAL":42,"POSITION":41,"TEXCOORD_0":43,"TEXCOORD_1":44},"indices":40,"material":2,"mode":4}]},{"name":"StaticMeshActor_27_LOD1","primitives":[{"attributes":{"NORMAL":47,"POSITION":46,"TEXCOORD_0":48,"TEXCOORD_1":49},"indices":45,"material":2,"mode":4}]},{"name":"StaticMeshActor_27_LOD2","primitives":[{"attributes":{"NORMAL":52,"POSITION":51,"TEXCOORD_0":53,"TEXCOORD_1":54},"indices":50,"material":2,"mode":4}]},{"name":"StaticMeshActor_27_LOD3","primitives":[{"attributes":{"NORMAL":57,"POSITION":56,"TEXCOORD_0":58,"TEXCOORD_1":59},"indices":55,"material":2,"mode":4}]}],"nodes":[{"children":[1,2,3,4],"name":"StaticMeshActor_25","originalUnits":0.00999999977648258,"pivot":[0,0,0],"rotation":[0,0,0,1],"scale":[1,1,1],"translation":[0,0,0]},{"mesh":0,"name":"StaticMeshActor_25_LOD0","originalUnits":0.00999999977648258,"pivot":[0,0,0],"rotation":[0,0,0,1],"scale":[1,1,1],"translation":[0.00186763773672283,3.19150638580322,0.029534250497818]},{"mesh":1,"name":"StaticMeshActor_25_LOD1","originalUnits":0.00999999977648258,"pivot":[0,0,0],"rotation":[0,0,0,1],"scale":[1,1,1],"translation":[0.00359212351031601,3.59088587760925,0.0655282214283943]},{"mesh":2,"name":"StaticMeshActor_25_LOD2","originalUnits":0.00999999977648258,"pivot":[0,0,0],"rotation":[0,0,0,1],"scale":[1,1,1],"translation":[-0.00001092417097,3.62376022338867,0.0843120440840721]},{"mesh":3,"name":"StaticMeshActor_25_LOD3","originalUnits":0.00999999977648258,"pivot":[0,0,0],"rotation":[0,0,0,1],"scale":[1,1,1],"translation":[0.00770644517615438,3.65844631195068,0.0837153792381287]},{"children":[6,7,8,9],"name":"StaticMeshActor_27","originalUnits":0.00999999977648258,"pivot":[0,0,0],"rotation":[0,0,0,1],"scale":[1,1,1],"translation":[0,0,0]},{"mesh":4,"name":"StaticMeshActor_27_LOD0","originalUnits":0.00999999977648258,"pivot":[0,0,0],"rotation":[0,0,0,1],"scale":[1,1,1],"translation":[5.70543670654297,2.61944174766541,0.0916136130690575]},{"mesh":5,"name":"StaticMeshActor_27_LOD1","originalUnits":0.00999999977648258,"pivot":[0,0,0],"rotation":[0,0,0,1],"scale":[1,1,1],"translation":[5.70518779754639,2.60941076278687,0.0756113603711128]},{"mesh":6,"name":"StaticMeshActor_27_LOD2","originalUnits":0.00999999977648258,"pivot":[0,0,0],"rotation":[0,0,0,1],"scale":[1,1,1],"translation":[5.72646284103394,2.62580490112305,0.0733740851283073]},{"mesh":7,"name":"StaticMeshActor_27_LOD3","originalUnits":0.00999999977648258,"pivot":[0,0,0],"rotation":[0,0,0,1],"scale":[1,1,1],"translation":[5.64214754104614,2.64402174949646,0.0409052930772305]}],"samplers":[{}],"scene":0,"scenes":[{"name":"Root Scene","nodes":[0,5]}]}