{"accessors":[{"bufferView":0,"byteOffset":0,"componentType":5126,"count":1,"max":[0],"min":[0],"type":"SCALAR"},{"bufferView":1,"byteOffset":0,"componentType":5123,"count":360,"type":"SCALAR"},{"bufferView":2,"byteOffset":0,"componentType":5126,"count":144,"max":[1.00000023841858,7.00000095367432,3.49338889122009],"min":[0.000000110080449644556,-0.00000031734376,0.00000030517577442879],"type":"VEC3"},{"bufferView":3,"byteOffset":0,"componentType":5126,"count":144,"type":"VEC3"},{"bufferView":4,"byteOffset":0,"componentType":5126,"count":144,"type":"VEC4"},{"bufferView":5,"byteOffset":0,"componentType":5126,"count":144,"type":"VEC2"},{"bufferView":6,"byteOffset":0,"componentType":5126,"count":144,"type":"VEC2"},{"bufferView":7,"byteOffset":0,"componentType":5123,"count":5250,"type":"SCALAR"},{"bufferView":8,"byteOffset":0,"componentType":5126,"count":1149,"max":[1.04043817520142,6.99963140487671,3.12094879150391],"min":[-0.04805282875896,-0.00944367237389,0.374200731515884],"type":"VEC3"},{"bufferView":9,"byteOffset":0,"componentType":5126,"count":1149,"type":"VEC3"},{"bufferView":10,"byteOffset":0,"componentType":5126,"count":1149,"type":"VEC4"},{"bufferView":11,"byteOffset":0,"componentType":5126,"count":1149,"type":"VEC2"},{"bufferView":12,"byteOffset":0,"componentType":5126,"count":1149,"type":"VEC2"},{"bufferView":13,"byteOffset":0,"componentType":5123,"count":360,"type":"SCALAR"},{"bufferView":14,"byteOffset":0,"componentType":5126,"count":52,"max":[1.05178904533386,7.01355838775635,3.50207614898682],"min":[-0.05537838488817,-0.04182435572147,-0.01153076253831],"type":"VEC3"},{"bufferView":15,"byteOffset":0,"componentType":5126,"count":52,"type":"VEC3"},{"bufferView":16,"byteOffset":0,"componentType":5126,"count":52,"type":"VEC4"},{"bufferView":17,"byteOffset":0,"componentType":5126,"count":52,"type":"VEC2"},{"bufferView":18,"byteOffset":0,"componentType":5126,"count":52,"type":"VEC2"}],"animations":[{"channels":[],"name":"Unreal Take","samplers":[]}],"asset":{"generator":"FBX2glTF v0.13.0","version":"2.0"},"bufferViews":[{"buffer":0,"byteLength":4,"byteOffset":0},{"buffer":0,"byteLength":720,"byteOffset":4,"target":34963},{"buffer":0,"byteLength":1728,"byteOffset":724,"target":34962},{"buffer":0,"byteLength":1728,"byteOffset":2452,"target":34962},{"buffer":0,"byteLength":2304,"byteOffset":4180,"target":34962},{"buffer":0,"byteLength":1152,"byteOffset":6484,"target":34962},{"buffer":0,"byteLength":1152,"byteOffset":7636,"target":34962},{"buffer":0,"byteLength":10500,"byteOffset":8788,"target":34963},{"buffer":0,"byteLength":13788,"byteOffset":19288,"target":34962},{"buffer":0,"byteLength":13788,"byteOffset":33076,"target":34962},{"buffer":0,"byteLength":18384,"byteOffset":46864,"target":34962},{"buffer":0,"byteLength":9192,"byteOffset":65248,"target":34962},{"buffer":0,"byteLength":9192,"byteOffset":74440,"target":34962},{"buffer":0,"byteLength":720,"byteOffset":83632,"target":34963},{"buffer":0,"byteLength":624,"byteOffset":84352,"target":34962},{"buffer":0,"byteLength":624,"byteOffset":84976,"target":34962},{"buffer":0,"byteLength":832,"byteOffset":85600,"target":34962},{"buffer":0,"byteLength":416,"byteOffset":86432,"target":34962},{"buffer":0,"byteLength":416,"byteOffset":86848,"target":34962}],"buffers":[{"byteLength":87264,"uri":"SM_Modular_WallArch_02a.bin"}],"images":[{"name":"T_Brick_Wall_01a_N","uri":"../Textures/T_Brick_Wall_01a_N.png"},{"name":"T_Brick_Wall_01a_BC","uri":"../Textures/T_Brick_Wall_01a_BC.png"},{"name":"T_Brick_Wall_02b_N","uri":"../Textures/T_Brick_Wall_02b_N.png"},{"name":"T_Brick_Wall_02b_BC","uri":"../Textures/T_Brick_Wall_02b_BC.png"}],"materials":[{"alphaMode":"OPAQUE","doubleSided":false,"extras":{"fromFBX":{"isTruePBR":false,"shadingModel":"Phong"}},"name":"MI_Brick_Wall_01a","normalTexture":{"index":0,"texCoord":0},"pbrMetallicRoughness":{"baseColorFactor":[1,1,1,1],"baseColorTexture":{"index":1,"texCoord":0},"metallicFactor":0.400000005960464,"roughnessFactor":0.301511347293854}},{"alphaMode":"OPAQUE","doubleSided":false,"extras":{"fromFBX":{"isTruePBR":false,"shadingModel":"Phong"}},"name":"MI_Brick_Wall_02b","normalTexture":{"index":2,"texCoord":0},"pbrMetallicRoughness":{"baseColorFactor":[1,1,1,1],"baseColorTexture":{"index":3,"texCoord":0},"metallicFactor":0.400000005960464,"roughnessFactor":0.301511347293854}},{"alphaMode":"OPAQUE","doubleSided":false,"extras":{"fromFBX":{"isTruePBR":false,"shadingModel":"Lambert"}},"name":"DefaultMaterial","pbrMetallicRoughness":{"baseColorFactor":[0.5,0.5,0.5,1],"metallicFactor":0.200000002980232,"roughnessFactor":0.800000011920929}}],"meshes":[{"name":"SM_Modular_WallArch_02a","primitives":[{"attributes":{"NORMAL":3,"POSITION":2,"TANGENT":4,"TEXCOORD_0":5,"TEXCOORD_1":6},"indices":1,"material":0,"mode":4},{"attributes":{"NORMAL":9,"POSITION":8,"TANGENT":10,"TEXCOORD_0":11,"TEXCOORD_1":12},"indices":7,"material":1,"mode":4}]},{"name":"SM_Modular_WallArch_02a_ConvexHulls","primitives":[{"attributes":{"NORMAL":15,"POSITION":14,"TANGENT":16,"TEXCOORD_0":17,"TEXCOORD_1":18},"indices":13,"material":2,"mode":4}]}],"nodes":[{"mesh":0,"name":"SM_Modular_WallArch_02a","originalUnits":0.00999999977648258,"pivot":[0,0,0],"rotation":[0,0,0,1],"scale":[1,1,1],"translation":[0,0,0]},{"mesh":1,"name":"SM_Modular_WallArch_02a_ConvexHulls","originalUnits":0.00999999977648258,"pivot":[0,0,0],"rotation":[0,0,0,1],"scale":[1,1,1],"translation":[0,0,0]}],"samplers":[{}],"scene":0,"scenes":[{"name":"Root Scene","nodes":[0,1]}],"textures":[{"name":"MI_Brick_Wall_01a","sampler":0,"source":0},{"name":"MI_Brick_Wall_01a","sampler":0,"source":1},{"name":"MI_Brick_Wall_02b","sampler":0,"source":2},{"name":"MI_Brick_Wall_02b","sampler":0,"source":3}]}