{"accessors":[{"bufferView":0,"byteOffset":0,"componentType":5126,"count":1,"max":[0],"min":[0],"type":"SCALAR"},{"bufferView":1,"byteOffset":0,"componentType":5123,"count":6648,"type":"SCALAR"},{"bufferView":2,"byteOffset":0,"componentType":5126,"count":1158,"max":[7.00361919403076,0.0852585211396217,7.00003242492676],"min":[-0.00000557811791,-0.47157710790634,-0.00001525339394],"type":"VEC3"},{"bufferView":3,"byteOffset":0,"componentType":5126,"count":1158,"type":"VEC3"},{"bufferView":4,"byteOffset":0,"componentType":5126,"count":1158,"type":"VEC4"},{"bufferView":5,"byteOffset":0,"componentType":5126,"count":1158,"type":"VEC2"},{"bufferView":6,"byteOffset":0,"componentType":5126,"count":1158,"type":"VEC2"}],"animations":[{"channels":[],"name":"Unreal Take","samplers":[]}],"asset":{"generator":"FBX2glTF v0.13.0","version":"2.0"},"bufferViews":[{"buffer":0,"byteLength":4,"byteOffset":0},{"buffer":0,"byteLength":13296,"byteOffset":4,"target":34963},{"buffer":0,"byteLength":13896,"byteOffset":13300,"target":34962},{"buffer":0,"byteLength":13896,"byteOffset":27196,"target":34962},{"buffer":0,"byteLength":18528,"byteOffset":41092,"target":34962},{"buffer":0,"byteLength":9264,"byteOffset":59620,"target":34962},{"buffer":0,"byteLength":9264,"byteOffset":68884,"target":34962}],"buffers":[{"byteLength":78148,"uri":"SM_Modular_Floor_01a.bin"}],"images":[{"name":"T_Ground_Tiles_01a_N","uri":"../Textures/T_Ground_Tiles_01a_N.png"},{"name":"T_Ground_Tiles_01a_BC","uri":"../Textures/T_Ground_Tiles_01a_BC.png"}],"materials":[{"alphaMode":"OPAQUE","doubleSided":false,"extras":{"fromFBX":{"isTruePBR":false,"shadingModel":"Phong"}},"name":"MI_Floor_Dungeon_01a","normalTexture":{"index":0,"texCoord":0},"pbrMetallicRoughness":{"baseColorFactor":[1,1,1,1],"baseColorTexture":{"index":1,"texCoord":0},"metallicFactor":0.400000005960464,"roughnessFactor":0.301511347293854}}],"meshes":[{"name":"SM_Modular_Floor_01a","primitives":[{"attributes":{"NORMAL":3,"POSITION":2,"TANGENT":4,"TEXCOORD_0":5,"TEXCOORD_1":6},"indices":1,"material":0,"mode":4}]}],"nodes":[{"mesh":0,"name":"SM_Modular_Floor_01a","originalUnits":0.00999999977648258,"pivot":[0,0,0],"rotation":[0,0,0,1],"scale":[1,1,1],"translation":[0,0,0]},{"name":"SM_Modular_Floor_01a_ConvexHulls","originalUnits":0.00999999977648258,"pivot":[0,0,0],"rotation":[0,0,0,1],"scale":[1,1,1],"translation":[0,0,0]}],"samplers":[{}],"scene":0,"scenes":[{"name":"Root Scene","nodes":[0,1]}],"textures":[{"name":"MI_Floor_Dungeon_01a","sampler":0,"source":0},{"name":"MI_Floor_Dungeon_01a","sampler":0,"source":1}]}