{"accessors":[{"bufferView":0,"byteOffset":0,"componentType":5126,"count":1,"max":[0],"min":[0],"type":"SCALAR"},{"bufferView":1,"byteOffset":0,"componentType":5123,"count":36,"type":"SCALAR"},{"bufferView":2,"byteOffset":0,"componentType":5126,"count":24,"max":[0.500000596046448,14,7.00000047683716],"min":[-0.49999991059303,-0.00000001577171,-0.00000000608398],"type":"VEC3"},{"bufferView":3,"byteOffset":0,"componentType":5126,"count":24,"type":"VEC3"},{"bufferView":4,"byteOffset":0,"componentType":5126,"count":24,"type":"VEC4"},{"bufferView":5,"byteOffset":0,"componentType":5126,"count":24,"type":"VEC2"},{"bufferView":6,"byteOffset":0,"componentType":5126,"count":24,"type":"VEC2"},{"bufferView":7,"byteOffset":0,"componentType":5123,"count":36,"type":"SCALAR"},{"bufferView":8,"byteOffset":0,"componentType":5126,"count":24,"max":[0.500000596046448,14,7.00000047683716],"min":[-0.49999991059303,-0.00000001577171,-0.00000000608398],"type":"VEC3"},{"bufferView":9,"byteOffset":0,"componentType":5126,"count":24,"type":"VEC3"},{"bufferView":10,"byteOffset":0,"componentType":5126,"count":24,"type":"VEC4"},{"bufferView":11,"byteOffset":0,"componentType":5126,"count":24,"type":"VEC2"},{"bufferView":12,"byteOffset":0,"componentType":5126,"count":24,"type":"VEC2"},{"bufferView":13,"byteOffset":0,"componentType":5123,"count":36,"type":"SCALAR"},{"bufferView":14,"byteOffset":0,"componentType":5126,"count":24,"max":[0.500000596046448,14,7.00000047683716],"min":[-0.49999991059303,-0.00000001577171,-0.00000000608398],"type":"VEC3"},{"bufferView":15,"byteOffset":0,"componentType":5126,"count":24,"type":"VEC3"},{"bufferView":16,"byteOffset":0,"componentType":5126,"count":24,"type":"VEC4"},{"bufferView":17,"byteOffset":0,"componentType":5126,"count":24,"type":"VEC2"},{"bufferView":18,"byteOffset":0,"componentType":5126,"count":24,"type":"VEC2"},{"bufferView":19,"byteOffset":0,"componentType":5123,"count":36,"type":"SCALAR"},{"bufferView":20,"byteOffset":0,"componentType":5126,"count":24,"max":[0.500000596046448,14,7.00000047683716],"min":[-0.49999991059303,-0.00000001577171,-0.00000000608398],"type":"VEC3"},{"bufferView":21,"byteOffset":0,"componentType":5126,"count":24,"type":"VEC3"},{"bufferView":22,"byteOffset":0,"componentType":5126,"count":24,"type":"VEC4"},{"bufferView":23,"byteOffset":0,"componentType":5126,"count":24,"type":"VEC2"},{"bufferView":24,"byteOffset":0,"componentType":5126,"count":24,"type":"VEC2"},{"bufferView":25,"byteOffset":0,"componentType":5123,"count":4932,"type":"SCALAR"},{"bufferView":26,"byteOffset":0,"componentType":5126,"count":1388,"max":[-0.29330265522003,9.20207691192627,6.99621629714966],"min":[-1.48469376564026,-0.02781130559742,0.00438169576227665],"type":"VEC3"},{"bufferView":27,"byteOffset":0,"componentType":5126,"count":1388,"type":"VEC3"},{"bufferView":28,"byteOffset":0,"componentType":5126,"count":1388,"type":"VEC4"},{"bufferView":29,"byteOffset":0,"componentType":5126,"count":1388,"type":"VEC2"},{"bufferView":30,"byteOffset":0,"componentType":5126,"count":1388,"type":"VEC2"},{"bufferView":31,"byteOffset":0,"componentType":5123,"count":4920,"type":"SCALAR"},{"bufferView":32,"byteOffset":0,"componentType":5126,"count":1384,"max":[-0.29330265522003,9.20207691192627,6.99621629714966],"min":[-1.48469376564026,-0.02781130559742,0.00438169576227665],"type":"VEC3"},{"bufferView":33,"byteOffset":0,"componentType":5126,"count":1384,"type":"VEC3"},{"bufferView":34,"byteOffset":0,"componentType":5126,"count":1384,"type":"VEC4"},{"bufferView":35,"byteOffset":0,"componentType":5126,"count":1384,"type":"VEC2"},{"bufferView":36,"byteOffset":0,"componentType":5126,"count":1384,"type":"VEC2"},{"bufferView":37,"byteOffset":0,"componentType":5123,"count":3306,"type":"SCALAR"},{"bufferView":38,"byteOffset":0,"componentType":5126,"count":1030,"max":[-0.29330265522003,9.20207691192627,6.99909353256226],"min":[-1.48786723613739,-0.02781130559742,-0.00001500799499],"type":"VEC3"},{"bufferView":39,"byteOffset":0,"componentType":5126,"count":1030,"type":"VEC3"},{"bufferView":40,"byteOffset":0,"componentType":5126,"count":1030,"type":"VEC4"},{"bufferView":41,"byteOffset":0,"componentType":5126,"count":1030,"type":"VEC2"},{"bufferView":42,"byteOffset":0,"componentType":5126,"count":1030,"type":"VEC2"},{"bufferView":43,"byteOffset":0,"componentType":5123,"count":1914,"type":"SCALAR"},{"bufferView":44,"byteOffset":0,"componentType":5126,"count":646,"max":[-0.29330265522003,9.20207691192627,7.00145149230957],"min":[-1.49186897277832,-0.02781128883362,0.0201103873550892],"type":"VEC3"},{"bufferView":45,"byteOffset":0,"componentType":5126,"count":646,"type":"VEC3"},{"bufferView":46,"byteOffset":0,"componentType":5126,"count":646,"type":"VEC4"},{"bufferView":47,"byteOffset":0,"componentType":5126,"count":646,"type":"VEC2"},{"bufferView":48,"byteOffset":0,"componentType":5126,"count":646,"type":"VEC2"},{"bufferView":49,"byteOffset":0,"componentType":5123,"count":17214,"type":"SCALAR"},{"bufferView":50,"byteOffset":0,"componentType":5126,"count":3971,"max":[-0.38318729400635,7.95179748535156,5.59168815612793],"min":[-0.70784878730774,-0.02407838590443,1.41038811206818],"type":"VEC3"},{"bufferView":51,"byteOffset":0,"componentType":5126,"count":3971,"type":"VEC3"},{"bufferView":52,"byteOffset":0,"componentType":5126,"count":3971,"type":"VEC4"},{"bufferView":53,"byteOffset":0,"componentType":5126,"count":3971,"type":"VEC2"},{"bufferView":54,"byteOffset":0,"componentType":5126,"count":3971,"type":"VEC2"},{"bufferView":55,"byteOffset":0,"componentType":5123,"count":6135,"type":"SCALAR"},{"bufferView":56,"byteOffset":0,"componentType":5126,"count":1768,"max":[-0.38318729400635,7.95179748535156,5.59168815612793],"min":[-0.70805448293686,-0.02407838590443,1.41038811206818],"type":"VEC3"},{"bufferView":57,"byteOffset":0,"componentType":5126,"count":1768,"type":"VEC3"},{"bufferView":58,"byteOffset":0,"componentType":5126,"count":1768,"type":"VEC4"},{"bufferView":59,"byteOffset":0,"componentType":5126,"count":1768,"type":"VEC2"},{"bufferView":60,"byteOffset":0,"componentType":5126,"count":1768,"type":"VEC2"},{"bufferView":61,"byteOffset":0,"componentType":5123,"count":2202,"type":"SCALAR"},{"bufferView":62,"byteOffset":0,"componentType":5126,"count":904,"max":[-0.38318729400635,7.95179748535156,5.59168815612793],"min":[-0.69837820529938,-0.02407838590443,1.41038811206818],"type":"VEC3"},{"bufferView":63,"byteOffset":0,"componentType":5126,"count":904,"type":"VEC3"},{"bufferView":64,"byteOffset":0,"componentType":5126,"count":904,"type":"VEC4"},{"bufferView":65,"byteOffset":0,"componentType":5126,"count":904,"type":"VEC2"},{"bufferView":66,"byteOffset":0,"componentType":5126,"count":904,"type":"VEC2"},{"bufferView":67,"byteOffset":0,"componentType":5123,"count":825,"type":"SCALAR"},{"bufferView":68,"byteOffset":0,"componentType":5126,"count":487,"max":[-0.38318729400635,7.95179748535156,5.59168815612793],"min":[-0.63600289821625,-0.02407838590443,1.41038811206818],"type":"VEC3"},{"bufferView":69,"byteOffset":0,"componentType":5126,"count":487,"type":"VEC3"},{"bufferView":70,"byteOffset":0,"componentType":5126,"count":487,"type":"VEC4"},{"bufferView":71,"byteOffset":0,"componentType":5126,"count":487,"type":"VEC2"},{"bufferView":72,"byteOffset":0,"componentType":5126,"count":487,"type":"VEC2"},{"bufferView":73,"byteOffset":0,"componentType":5123,"count":342,"type":"SCALAR"},{"bufferView":74,"byteOffset":0,"componentType":5126,"count":61,"max":[0.550030291080475,14.0334224700928,7.02984619140625],"min":[-1.49279856681824,-0.04474426060915,-0.02584230341017],"type":"VEC3"},{"bufferView":75,"byteOffset":0,"componentType":5126,"count":61,"type":"VEC3"},{"bufferView":76,"byteOffset":0,"componentType":5126,"count":61,"type":"VEC4"},{"bufferView":77,"byteOffset":0,"componentType":5126,"count":61,"type":"VEC2"},{"bufferView":78,"byteOffset":0,"componentType":5126,"count":61,"type":"VEC2"}],"animations":[{"channels":[],"name":"Unreal Take","samplers":[]}],"asset":{"generator":"FBX2glTF v0.13.0","version":"2.0"},"bufferViews":[{"buffer":0,"byteLength":4,"byteOffset":0},{"buffer":0,"byteLength":72,"byteOffset":4,"target":34963},{"buffer":0,"byteLength":288,"byteOffset":76,"target":34962},{"buffer":0,"byteLength":288,"byteOffset":364,"target":34962},{"buffer":0,"byteLength":384,"byteOffset":652,"target":34962},{"buffer":0,"byteLength":192,"byteOffset":1036,"target":34962},{"buffer":0,"byteLength":192,"byteOffset":1228,"target":34962},{"buffer":0,"byteLength":72,"byteOffset":1420,"target":34963},{"buffer":0,"byteLength":288,"byteOffset":1492,"target":34962},{"buffer":0,"byteLength":288,"byteOffset":1780,"target":34962},{"buffer":0,"byteLength":384,"byteOffset":2068,"target":34962},{"buffer":0,"byteLength":192,"byteOffset":2452,"target":34962},{"buffer":0,"byteLength":192,"byteOffset":2644,"target":34962},{"buffer":0,"byteLength":72,"byteOffset":2836,"target":34963},{"buffer":0,"byteLength":288,"byteOffset":2908,"target":34962},{"buffer":0,"byteLength":288,"byteOffset":3196,"target":34962},{"buffer":0,"byteLength":384,"byteOffset":3484,"target":34962},{"buffer":0,"byteLength":192,"byteOffset":3868,"target":34962},{"buffer":0,"byteLength":192,"byteOffset":4060,"target":34962},{"buffer":0,"byteLength":72,"byteOffset":4252,"target":34963},{"buffer":0,"byteLength":288,"byteOffset":4324,"target":34962},{"buffer":0,"byteLength":288,"byteOffset":4612,"target":34962},{"buffer":0,"byteLength":384,"byteOffset":4900,"target":34962},{"buffer":0,"byteLength":192,"byteOffset":5284,"target":34962},{"buffer":0,"byteLength":192,"byteOffset":5476,"target":34962},{"buffer":0,"byteLength":9864,"byteOffset":5668,"target":34963},{"buffer":0,"byteLength":16656,"byteOffset":15532,"target":34962},{"buffer":0,"byteLength":16656,"byteOffset":32188,"target":34962},{"buffer":0,"byteLength":22208,"byteOffset":48844,"target":34962},{"buffer":0,"byteLength":11104,"byteOffset":71052,"target":34962},{"buffer":0,"byteLength":11104,"byteOffset":82156,"target":34962},{"buffer":0,"byteLength":9840,"byteOffset":93260,"target":34963},{"buffer":0,"byteLength":16608,"byteOffset":103100,"target":34962},{"buffer":0,"byteLength":16608,"byteOffset":119708,"target":34962},{"buffer":0,"byteLength":22144,"byteOffset":136316,"target":34962},{"buffer":0,"byteLength":11072,"byteOffset":158460,"target":34962},{"buffer":0,"byteLength":11072,"byteOffset":169532,"target":34962},{"buffer":0,"byteLength":6612,"byteOffset":180604,"target":34963},{"buffer":0,"byteLength":12360,"byteOffset":187216,"target":34962},{"buffer":0,"byteLength":12360,"byteOffset":199576,"target":34962},{"buffer":0,"byteLength":16480,"byteOffset":211936,"target":34962},{"buffer":0,"byteLength":8240,"byteOffset":228416,"target":34962},{"buffer":0,"byteLength":8240,"byteOffset":236656,"target":34962},{"buffer":0,"byteLength":3828,"byteOffset":244896,"target":34963},{"buffer":0,"byteLength":7752,"byteOffset":248724,"target":34962},{"buffer":0,"byteLength":7752,"byteOffset":256476,"target":34962},{"buffer":0,"byteLength":10336,"byteOffset":264228,"target":34962},{"buffer":0,"byteLength":5168,"byteOffset":274564,"target":34962},{"buffer":0,"byteLength":5168,"byteOffset":279732,"target":34962},{"buffer":0,"byteLength":34428,"byteOffset":284900,"target":34963},{"buffer":0,"byteLength":47652,"byteOffset":319328,"target":34962},{"buffer":0,"byteLength":47652,"byteOffset":366980,"target":34962},{"buffer":0,"byteLength":63536,"byteOffset":414632,"target":34962},{"buffer":0,"byteLength":31768,"byteOffset":478168,"target":34962},{"buffer":0,"byteLength":31768,"byteOffset":509936,"target":34962},{"buffer":0,"byteLength":12270,"byteOffset":541704,"target":34963},{"buffer":0,"byteLength":21216,"byteOffset":553976,"target":34962},{"buffer":0,"byteLength":21216,"byteOffset":575192,"target":34962},{"buffer":0,"byteLength":28288,"byteOffset":596408,"target":34962},{"buffer":0,"byteLength":14144,"byteOffset":624696,"target":34962},{"buffer":0,"byteLength":14144,"byteOffset":638840,"target":34962},{"buffer":0,"byteLength":4404,"byteOffset":652984,"target":34963},{"buffer":0,"byteLength":10848,"byteOffset":657388,"target":34962},{"buffer":0,"byteLength":10848,"byteOffset":668236,"target":34962},{"buffer":0,"byteLength":14464,"byteOffset":679084,"target":34962},{"buffer":0,"byteLength":7232,"byteOffset":693548,"target":34962},{"buffer":0,"byteLength":7232,"byteOffset":700780,"target":34962},{"buffer":0,"byteLength":1650,"byteOffset":708012,"target":34963},{"buffer":0,"byteLength":5844,"byteOffset":709664,"target":34962},{"buffer":0,"byteLength":5844,"byteOffset":715508,"target":34962},{"buffer":0,"byteLength":7792,"byteOffset":721352,"target":34962},{"buffer":0,"byteLength":3896,"byteOffset":729144,"target":34962},{"buffer":0,"byteLength":3896,"byteOffset":733040,"target":34962},{"buffer":0,"byteLength":684,"byteOffset":736936,"target":34963},{"buffer":0,"byteLength":732,"byteOffset":737620,"target":34962},{"buffer":0,"byteLength":732,"byteOffset":738352,"target":34962},{"buffer":0,"byteLength":976,"byteOffset":739084,"target":34962},{"buffer":0,"byteLength":488,"byteOffset":740060,"target":34962},{"buffer":0,"byteLength":488,"byteOffset":740548,"target":34962}],"buffers":[{"byteLength":741036,"uri":"SM_Modular_Wall_Door_01a.bin"}],"images":[{"name":"T_Brick_Wall_01a_N","uri":"../Textures/T_Brick_Wall_01a_N.png"},{"name":"T_Brick_Wall_01a_BC","uri":"../Textures/T_Brick_Wall_01a_BC.png"},{"name":"T_DoorMainFrame_01_N","uri":"../Textures/T_DoorMainFrame_01_N.png"},{"name":"T_DoorMainFrame_01_BC","uri":"../Textures/T_DoorMainFrame_01_BC.png"},{"name":"T_DoorMain_01_N","uri":"../Textures/T_DoorMain_01_N.png"},{"name":"T_DoorMain_01_BC","uri":"../Textures/T_DoorMain_01_BC.png"}],"materials":[{"alphaMode":"OPAQUE","doubleSided":false,"extras":{"fromFBX":{"isTruePBR":false,"shadingModel":"Phong"}},"name":"MI_Brick_Wall_01a","normalTexture":{"index":0,"texCoord":0},"pbrMetallicRoughness":{"baseColorFactor":[1,1,1,1],"baseColorTexture":{"index":1,"texCoord":0},"metallicFactor":0.400000005960464,"roughnessFactor":0.301511347293854}},{"alphaMode":"OPAQUE","doubleSided":false,"extras":{"fromFBX":{"isTruePBR":false,"shadingModel":"Phong"}},"name":"MI_DoorMainFrame","normalTexture":{"index":2,"texCoord":0},"pbrMetallicRoughness":{"baseColorFactor":[1,1,1,1],"baseColorTexture":{"index":3,"texCoord":0},"metallicFactor":0.400000005960464,"roughnessFactor":0.301511347293854}},{"alphaMode":"OPAQUE","doubleSided":false,"extras":{"fromFBX":{"isTruePBR":false,"shadingModel":"Phong"}},"name":"MI_DoorMain","normalTexture":{"index":4,"texCoord":0},"pbrMetallicRoughness":{"baseColorFactor":[1,1,1,1],"baseColorTexture":{"index":5,"texCoord":0},"metallicFactor":0.400000005960464,"roughnessFactor":0.301511347293854}},{"alphaMode":"OPAQUE","doubleSided":false,"extras":{"fromFBX":{"isTruePBR":false,"shadingModel":"Lambert"}},"name":"DefaultMaterial","pbrMetallicRoughness":{"baseColorFactor":[0.5,0.5,0.5,1],"metallicFactor":0.200000002980232,"roughnessFactor":0.800000011920929}}],"meshes":[{"name":"SM_Modular_Wall_Door_01a_LOD0","primitives":[{"attributes":{"NORMAL":3,"POSITION":2,"TANGENT":4,"TEXCOORD_0":5,"TEXCOORD_1":6},"indices":1,"material":0,"mode":4},{"attributes":{"NORMAL":27,"POSITION":26,"TANGENT":28,"TEXCOORD_0":29,"TEXCOORD_1":30},"indices":25,"material":1,"mode":4},{"attributes":{"NORMAL":51,"POSITION":50,"TANGENT":52,"TEXCOORD_0":53,"TEXCOORD_1":54},"indices":49,"material":2,"mode":4}]},{"name":"SM_Modular_Wall_Door_01a_LOD1","primitives":[{"attributes":{"NORMAL":9,"POSITION":8,"TANGENT":10,"TEXCOORD_0":11,"TEXCOORD_1":12},"indices":7,"material":0,"mode":4},{"attributes":{"NORMAL":33,"POSITION":32,"TANGENT":34,"TEXCOORD_0":35,"TEXCOORD_1":36},"indices":31,"material":1,"mode":4},{"attributes":{"NORMAL":57,"POSITION":56,"TANGENT":58,"TEXCOORD_0":59,"TEXCOORD_1":60},"indices":55,"material":2,"mode":4}]},{"name":"SM_Modular_Wall_Door_01a_LOD2","primitives":[{"attributes":{"NORMAL":15,"POSITION":14,"TANGENT":16,"TEXCOORD_0":17,"TEXCOORD_1":18},"indices":13,"material":0,"mode":4},{"attributes":{"NORMAL":39,"POSITION":38,"TANGENT":40,"TEXCOORD_0":41,"TEXCOORD_1":42},"indices":37,"material":1,"mode":4},{"attributes":{"NORMAL":63,"POSITION":62,"TANGENT":64,"TEXCOORD_0":65,"TEXCOORD_1":66},"indices":61,"material":2,"mode":4}]},{"name":"SM_Modular_Wall_Door_01a_LOD3","primitives":[{"attributes":{"NORMAL":21,"POSITION":20,"TANGENT":22,"TEXCOORD_0":23,"TEXCOORD_1":24},"indices":19,"material":0,"mode":4},{"attributes":{"NORMAL":45,"POSITION":44,"TANGENT":46,"TEXCOORD_0":47,"TEXCOORD_1":48},"indices":43,"material":1,"mode":4},{"attributes":{"NORMAL":69,"POSITION":68,"TANGENT":70,"TEXCOORD_0":71,"TEXCOORD_1":72},"indices":67,"material":2,"mode":4}]},{"name":"SM_Modular_Wall_Door_01a_ConvexHulls","primitives":[{"attributes":{"NORMAL":75,"POSITION":74,"TANGENT":76,"TEXCOORD_0":77,"TEXCOORD_1":78},"indices":73,"material":3,"mode":4}]}],"nodes":[{"children":[1,2,3,4,5],"name":"StaticMeshActor_163","originalUnits":0.00999999977648258,"pivot":[0,0,0],"rotation":[0,0,0,1],"scale":[1,1,1],"translation":[0,0,0]},{"mesh":0,"name":"SM_Modular_Wall_Door_01a_LOD0","originalUnits":0.00999999977648258,"pivot":[0,0,0],"rotation":[0,0,0,1],"scale":[1,1,1],"translation":[0,0,0]},{"mesh":4,"name":"SM_Modular_Wall_Door_01a_ConvexHulls","originalUnits":0.00999999977648258,"pivot":[0,0,0],"rotation":[0,0,0,1],"scale":[1,1,1],"translation":[0,0,0]},{"mesh":1,"name":"SM_Modular_Wall_Door_01a_LOD1","originalUnits":0.00999999977648258,"pivot":[0,0,0],"rotation":[0,0,0,1],"scale":[1,1,1],"translation":[0,0,0]},{"mesh":2,"name":"SM_Modular_Wall_Door_01a_LOD2","originalUnits":0.00999999977648258,"pivot":[0,0,0],"rotation":[0,0,0,1],"scale":[1,1,1],"translation":[0,0,0]},{"mesh":3,"name":"SM_Modular_Wall_Door_01a_LOD3","originalUnits":0.00999999977648258,"pivot":[0,0,0],"rotation":[0,0,0,1],"scale":[1,1,1],"translation":[0,0,0]}],"samplers":[{}],"scene":0,"scenes":[{"name":"Root Scene","nodes":[0]}],"textures":[{"name":"MI_Brick_Wall_01a","sampler":0,"source":0},{"name":"MI_Brick_Wall_01a","sampler":0,"source":1},{"name":"MI_DoorMainFrame","sampler":0,"source":2},{"name":"MI_DoorMainFrame","sampler":0,"source":3},{"name":"MI_DoorMain","sampler":0,"source":4},{"name":"MI_DoorMain","sampler":0,"source":5}]}