{"accessors":[{"bufferView":0,"byteOffset":0,"componentType":5126,"count":1,"max":[0],"min":[0],"type":"SCALAR"},{"bufferView":1,"byteOffset":0,"componentType":5123,"count":324,"type":"SCALAR"},{"bufferView":2,"byteOffset":0,"componentType":5126,"count":96,"max":[0.500000357627869,6.99999904632568,7],"min":[-0.49999958276749,-0.00000012767745,0.000000299091794886408],"type":"VEC3"},{"bufferView":3,"byteOffset":0,"componentType":5126,"count":96,"type":"VEC3"},{"bufferView":4,"byteOffset":0,"componentType":5126,"count":96,"type":"VEC4"},{"bufferView":5,"byteOffset":0,"componentType":5126,"count":96,"type":"VEC2"},{"bufferView":6,"byteOffset":0,"componentType":5126,"count":96,"type":"VEC2"},{"bufferView":7,"byteOffset":0,"componentType":5123,"count":306,"type":"SCALAR"},{"bufferView":8,"byteOffset":0,"componentType":5126,"count":93,"max":[0.500001072883606,6.99999904632568,7],"min":[-0.50000029802322,-0.00000012767745,0.000000299091794886408],"type":"VEC3"},{"bufferView":9,"byteOffset":0,"componentType":5126,"count":93,"type":"VEC3"},{"bufferView":10,"byteOffset":0,"componentType":5126,"count":93,"type":"VEC4"},{"bufferView":11,"byteOffset":0,"componentType":5126,"count":93,"type":"VEC2"},{"bufferView":12,"byteOffset":0,"componentType":5126,"count":93,"type":"VEC2"},{"bufferView":13,"byteOffset":0,"componentType":5123,"count":150,"type":"SCALAR"},{"bufferView":14,"byteOffset":0,"componentType":5126,"count":66,"max":[0.500002324581146,6.99999904632568,7],"min":[-0.50000017881393,-0.0018644775264,0.000000299091794886408],"type":"VEC3"},{"bufferView":15,"byteOffset":0,"componentType":5126,"count":66,"type":"VEC3"},{"bufferView":16,"byteOffset":0,"componentType":5126,"count":66,"type":"VEC4"},{"bufferView":17,"byteOffset":0,"componentType":5126,"count":66,"type":"VEC2"},{"bufferView":18,"byteOffset":0,"componentType":5126,"count":66,"type":"VEC2"},{"bufferView":19,"byteOffset":0,"componentType":5123,"count":3888,"type":"SCALAR"},{"bufferView":20,"byteOffset":0,"componentType":5126,"count":1336,"max":[0.0511876046657562,5.26166677474976,4.90681171417236],"min":[-0.23886267840862,0.0000121040402518702,2.09509539604187],"type":"VEC3"},{"bufferView":21,"byteOffset":0,"componentType":5126,"count":1336,"type":"VEC3"},{"bufferView":22,"byteOffset":0,"componentType":5126,"count":1336,"type":"VEC4"},{"bufferView":23,"byteOffset":0,"componentType":5126,"count":1336,"type":"VEC2"},{"bufferView":24,"byteOffset":0,"componentType":5126,"count":1336,"type":"VEC2"},{"bufferView":25,"byteOffset":0,"componentType":5123,"count":1800,"type":"SCALAR"},{"bufferView":26,"byteOffset":0,"componentType":5126,"count":940,"max":[0.0511876046657562,5.26166677474976,4.90681171417236],"min":[-0.23886267840862,0.0000121040402518702,2.09509539604187],"type":"VEC3"},{"bufferView":27,"byteOffset":0,"componentType":5126,"count":940,"type":"VEC3"},{"bufferView":28,"byteOffset":0,"componentType":5126,"count":940,"type":"VEC4"},{"bufferView":29,"byteOffset":0,"componentType":5126,"count":940,"type":"VEC2"},{"bufferView":30,"byteOffset":0,"componentType":5126,"count":940,"type":"VEC2"},{"bufferView":31,"byteOffset":0,"componentType":5123,"count":903,"type":"SCALAR"},{"bufferView":32,"byteOffset":0,"componentType":5126,"count":615,"max":[0.0512024760246277,5.26165962219238,4.90707111358643],"min":[-0.24779234826565,0.0000306530055240728,2.09483909606934],"type":"VEC3"},{"bufferView":33,"byteOffset":0,"componentType":5126,"count":615,"type":"VEC3"},{"bufferView":34,"byteOffset":0,"componentType":5126,"count":615,"type":"VEC4"},{"bufferView":35,"byteOffset":0,"componentType":5126,"count":615,"type":"VEC2"},{"bufferView":36,"byteOffset":0,"componentType":5126,"count":615,"type":"VEC2"}],"animations":[{"channels":[],"name":"Unreal Take","samplers":[]}],"asset":{"generator":"FBX2glTF v0.13.0","version":"2.0"},"bufferViews":[{"buffer":0,"byteLength":4,"byteOffset":0},{"buffer":0,"byteLength":648,"byteOffset":4,"target":34963},{"buffer":0,"byteLength":1152,"byteOffset":652,"target":34962},{"buffer":0,"byteLength":1152,"byteOffset":1804,"target":34962},{"buffer":0,"byteLength":1536,"byteOffset":2956,"target":34962},{"buffer":0,"byteLength":768,"byteOffset":4492,"target":34962},{"buffer":0,"byteLength":768,"byteOffset":5260,"target":34962},{"buffer":0,"byteLength":612,"byteOffset":6028,"target":34963},{"buffer":0,"byteLength":1116,"byteOffset":6640,"target":34962},{"buffer":0,"byteLength":1116,"byteOffset":7756,"target":34962},{"buffer":0,"byteLength":1488,"byteOffset":8872,"target":34962},{"buffer":0,"byteLength":744,"byteOffset":10360,"target":34962},{"buffer":0,"byteLength":744,"byteOffset":11104,"target":34962},{"buffer":0,"byteLength":300,"byteOffset":11848,"target":34963},{"buffer":0,"byteLength":792,"byteOffset":12148,"target":34962},{"buffer":0,"byteLength":792,"byteOffset":12940,"target":34962},{"buffer":0,"byteLength":1056,"byteOffset":13732,"target":34962},{"buffer":0,"byteLength":528,"byteOffset":14788,"target":34962},{"buffer":0,"byteLength":528,"byteOffset":15316,"target":34962},{"buffer":0,"byteLength":7776,"byteOffset":15844,"target":34963},{"buffer":0,"byteLength":16032,"byteOffset":23620,"target":34962},{"buffer":0,"byteLength":16032,"byteOffset":39652,"target":34962},{"buffer":0,"byteLength":21376,"byteOffset":55684,"target":34962},{"buffer":0,"byteLength":10688,"byteOffset":77060,"target":34962},{"buffer":0,"byteLength":10688,"byteOffset":87748,"target":34962},{"buffer":0,"byteLength":3600,"byteOffset":98436,"target":34963},{"buffer":0,"byteLength":11280,"byteOffset":102036,"target":34962},{"buffer":0,"byteLength":11280,"byteOffset":113316,"target":34962},{"buffer":0,"byteLength":15040,"byteOffset":124596,"target":34962},{"buffer":0,"byteLength":7520,"byteOffset":139636,"target":34962},{"buffer":0,"byteLength":7520,"byteOffset":147156,"target":34962},{"buffer":0,"byteLength":1806,"byteOffset":154676,"target":34963},{"buffer":0,"byteLength":7380,"byteOffset":156484,"target":34962},{"buffer":0,"byteLength":7380,"byteOffset":163864,"target":34962},{"buffer":0,"byteLength":9840,"byteOffset":171244,"target":34962},{"buffer":0,"byteLength":4920,"byteOffset":181084,"target":34962},{"buffer":0,"byteLength":4920,"byteOffset":186004,"target":34962}],"buffers":[{"byteLength":190924,"uri":"SM_Modular_Wall_Door_02a.bin"}],"images":[{"name":"T_Brick_Wall_01a_N","uri":"../Textures/T_Brick_Wall_01a_N.png"},{"name":"T_Brick_Wall_01a_BC","uri":"../Textures/T_Brick_Wall_01a_BC.png"},{"name":"T_Iron_Hammered_N","uri":"../Textures/T_Iron_Hammered_N.png"},{"name":"T_Iron_Hammered_BC","uri":"../Textures/T_Iron_Hammered_BC.png"}],"materials":[{"alphaMode":"OPAQUE","doubleSided":false,"extras":{"fromFBX":{"isTruePBR":false,"shadingModel":"Phong"}},"name":"MI_Brick_Wall_01a","normalTexture":{"index":0,"texCoord":0},"pbrMetallicRoughness":{"baseColorFactor":[1,1,1,1],"baseColorTexture":{"index":1,"texCoord":0},"metallicFactor":0.400000005960464,"roughnessFactor":0.301511347293854}},{"alphaMode":"OPAQUE","doubleSided":false,"extras":{"fromFBX":{"isTruePBR":false,"shadingModel":"Phong"}},"name":"MI_Hammered_Iron_01","normalTexture":{"index":2,"texCoord":0},"pbrMetallicRoughness":{"baseColorFactor":[1,1,1,1],"baseColorTexture":{"index":3,"texCoord":0},"metallicFactor":0.400000005960464,"roughnessFactor":0.301511347293854}}],"meshes":[{"name":"SM_Modular_Wall_Door_02a_LOD0","primitives":[{"attributes":{"NORMAL":3,"POSITION":2,"TANGENT":4,"TEXCOORD_0":5,"TEXCOORD_1":6},"indices":1,"material":0,"mode":4},{"attributes":{"NORMAL":21,"POSITION":20,"TANGENT":22,"TEXCOORD_0":23,"TEXCOORD_1":24},"indices":19,"material":1,"mode":4}]},{"name":"SM_Modular_Wall_Door_02a_LOD1","primitives":[{"attributes":{"NORMAL":9,"POSITION":8,"TANGENT":10,"TEXCOORD_0":11,"TEXCOORD_1":12},"indices":7,"material":0,"mode":4},{"attributes":{"NORMAL":27,"POSITION":26,"TANGENT":28,"TEXCOORD_0":29,"TEXCOORD_1":30},"indices":25,"material":1,"mode":4}]},{"name":"SM_Modular_Wall_Door_02a_LOD2","primitives":[{"attributes":{"NORMAL":15,"POSITION":14,"TANGENT":16,"TEXCOORD_0":17,"TEXCOORD_1":18},"indices":13,"material":0,"mode":4},{"attributes":{"NORMAL":33,"POSITION":32,"TANGENT":34,"TEXCOORD_0":35,"TEXCOORD_1":36},"indices":31,"material":1,"mode":4}]}],"nodes":[{"children":[1,2,3,4],"name":"StaticMeshActor_152","originalUnits":0.00999999977648258,"pivot":[0,0,0],"rotation":[0,0,0,1],"scale":[1,1,1],"translation":[0,0,0]},{"mesh":0,"name":"SM_Modular_Wall_Door_02a_LOD0","originalUnits":0.00999999977648258,"pivot":[0,0,0],"rotation":[0,0,0,1],"scale":[1,1,1],"translation":[0,0,0]},{"name":"SM_Modular_Wall_Door_02a_ConvexHulls","originalUnits":0.00999999977648258,"pivot":[0,0,0],"rotation":[0,0,0,1],"scale":[1,1,1],"translation":[0,0,0]},{"mesh":1,"name":"SM_Modular_Wall_Door_02a_LOD1","originalUnits":0.00999999977648258,"pivot":[0,0,0],"rotation":[0,0,0,1],"scale":[1,1,1],"translation":[0,0,0]},{"mesh":2,"name":"SM_Modular_Wall_Door_02a_LOD2","originalUnits":0.00999999977648258,"pivot":[0,0,0],"rotation":[0,0,0,1],"scale":[1,1,1],"translation":[0,0,0]}],"samplers":[{}],"scene":0,"scenes":[{"name":"Root Scene","nodes":[0]}],"textures":[{"name":"MI_Brick_Wall_01a","sampler":0,"source":0},{"name":"MI_Brick_Wall_01a","sampler":0,"source":1},{"name":"MI_Hammered_Iron_01","sampler":0,"source":2},{"name":"MI_Hammered_Iron_01","sampler":0,"source":3}]}