{"accessors":[{"bufferView":0,"byteOffset":0,"componentType":5126,"count":1,"max":[0],"min":[0],"type":"SCALAR"},{"bufferView":1,"byteOffset":0,"componentType":5123,"count":360,"type":"SCALAR"},{"bufferView":2,"byteOffset":0,"componentType":5126,"count":144,"max":[1.00000023841858,6.99999856948853,7],"min":[0.0000000674121309884868,-0.00000031734376,0.00000030517577442879],"type":"VEC3"},{"bufferView":3,"byteOffset":0,"componentType":5126,"count":144,"type":"VEC3"},{"bufferView":4,"byteOffset":0,"componentType":5126,"count":144,"type":"VEC4"},{"bufferView":5,"byteOffset":0,"componentType":5126,"count":144,"type":"VEC2"},{"bufferView":6,"byteOffset":0,"componentType":5126,"count":144,"type":"VEC2"},{"bufferView":7,"byteOffset":0,"componentType":5123,"count":5256,"type":"SCALAR"},{"bufferView":8,"byteOffset":0,"componentType":5126,"count":1141,"max":[1.03721034526825,6.99999856948853,6.24371671676636],"min":[-0.03720999881625,-0.00944367237389,0.744589805603027],"type":"VEC3"},{"bufferView":9,"byteOffset":0,"componentType":5126,"count":1141,"type":"VEC3"},{"bufferView":10,"byteOffset":0,"componentType":5126,"count":1141,"type":"VEC4"},{"bufferView":11,"byteOffset":0,"componentType":5126,"count":1141,"type":"VEC2"},{"bufferView":12,"byteOffset":0,"componentType":5126,"count":1141,"type":"VEC2"},{"bufferView":13,"byteOffset":0,"componentType":5123,"count":360,"type":"SCALAR"},{"bufferView":14,"byteOffset":0,"componentType":5126,"count":52,"max":[1.0517897605896,7.01355838775635,7.03511047363281],"min":[-0.05537838861346,-0.04182440042496,-0.01153076253831],"type":"VEC3"},{"bufferView":15,"byteOffset":0,"componentType":5126,"count":52,"type":"VEC3"},{"bufferView":16,"byteOffset":0,"componentType":5126,"count":52,"type":"VEC4"},{"bufferView":17,"byteOffset":0,"componentType":5126,"count":52,"type":"VEC2"},{"bufferView":18,"byteOffset":0,"componentType":5126,"count":52,"type":"VEC2"}],"animations":[{"channels":[],"name":"Unreal Take","samplers":[]}],"asset":{"generator":"FBX2glTF v0.13.0","version":"2.0"},"bufferViews":[{"buffer":0,"byteLength":4,"byteOffset":0},{"buffer":0,"byteLength":720,"byteOffset":4,"target":34963},{"buffer":0,"byteLength":1728,"byteOffset":724,"target":34962},{"buffer":0,"byteLength":1728,"byteOffset":2452,"target":34962},{"buffer":0,"byteLength":2304,"byteOffset":4180,"target":34962},{"buffer":0,"byteLength":1152,"byteOffset":6484,"target":34962},{"buffer":0,"byteLength":1152,"byteOffset":7636,"target":34962},{"buffer":0,"byteLength":10512,"byteOffset":8788,"target":34963},{"buffer":0,"byteLength":13692,"byteOffset":19300,"target":34962},{"buffer":0,"byteLength":13692,"byteOffset":32992,"target":34962},{"buffer":0,"byteLength":18256,"byteOffset":46684,"target":34962},{"buffer":0,"byteLength":9128,"byteOffset":64940,"target":34962},{"buffer":0,"byteLength":9128,"byteOffset":74068,"target":34962},{"buffer":0,"byteLength":720,"byteOffset":83196,"target":34963},{"buffer":0,"byteLength":624,"byteOffset":83916,"target":34962},{"buffer":0,"byteLength":624,"byteOffset":84540,"target":34962},{"buffer":0,"byteLength":832,"byteOffset":85164,"target":34962},{"buffer":0,"byteLength":416,"byteOffset":85996,"target":34962},{"buffer":0,"byteLength":416,"byteOffset":86412,"target":34962}],"buffers":[{"byteLength":86828,"uri":"SM_Modular_WallArch_01a.bin"}],"images":[{"name":"T_Brick_Wall_01a_N","uri":"../Textures/T_Brick_Wall_01a_N.png"},{"name":"T_Brick_Wall_01a_BC","uri":"../Textures/T_Brick_Wall_01a_BC.png"},{"name":"T_Brick_Wall_02b_N","uri":"../Textures/T_Brick_Wall_02b_N.png"},{"name":"T_Brick_Wall_02b_BC","uri":"../Textures/T_Brick_Wall_02b_BC.png"}],"materials":[{"alphaMode":"OPAQUE","doubleSided":false,"extras":{"fromFBX":{"isTruePBR":false,"shadingModel":"Phong"}},"name":"MI_Brick_Wall_01a","normalTexture":{"index":0,"texCoord":0},"pbrMetallicRoughness":{"baseColorFactor":[1,1,1,1],"baseColorTexture":{"index":1,"texCoord":0},"metallicFactor":0.400000005960464,"roughnessFactor":0.301511347293854}},{"alphaMode":"OPAQUE","doubleSided":false,"extras":{"fromFBX":{"isTruePBR":false,"shadingModel":"Phong"}},"name":"MI_Brick_Wall_02b","normalTexture":{"index":2,"texCoord":0},"pbrMetallicRoughness":{"baseColorFactor":[1,1,1,1],"baseColorTexture":{"index":3,"texCoord":0},"metallicFactor":0.400000005960464,"roughnessFactor":0.301511347293854}},{"alphaMode":"OPAQUE","doubleSided":false,"extras":{"fromFBX":{"isTruePBR":false,"shadingModel":"Lambert"}},"name":"DefaultMaterial","pbrMetallicRoughness":{"baseColorFactor":[0.5,0.5,0.5,1],"metallicFactor":0.200000002980232,"roughnessFactor":0.800000011920929}}],"meshes":[{"name":"SM_Modular_WallArch_01a","primitives":[{"attributes":{"NORMAL":3,"POSITION":2,"TANGENT":4,"TEXCOORD_0":5,"TEXCOORD_1":6},"indices":1,"material":0,"mode":4},{"attributes":{"NORMAL":9,"POSITION":8,"TANGENT":10,"TEXCOORD_0":11,"TEXCOORD_1":12},"indices":7,"material":1,"mode":4}]},{"name":"SM_Modular_WallArch_01a_ConvexHulls","primitives":[{"attributes":{"NORMAL":15,"POSITION":14,"TANGENT":16,"TEXCOORD_0":17,"TEXCOORD_1":18},"indices":13,"material":2,"mode":4}]}],"nodes":[{"mesh":0,"name":"SM_Modular_WallArch_01a","originalUnits":0.00999999977648258,"pivot":[0,0,0],"rotation":[0,0,0,1],"scale":[1,1,1],"translation":[0,0,0]},{"mesh":1,"name":"SM_Modular_WallArch_01a_ConvexHulls","originalUnits":0.00999999977648258,"pivot":[0,0,0],"rotation":[0,0,0,1],"scale":[1,1,1],"translation":[0,0,0]}],"samplers":[{}],"scene":0,"scenes":[{"name":"Root Scene","nodes":[0,1]}],"textures":[{"name":"MI_Brick_Wall_01a","sampler":0,"source":0},{"name":"MI_Brick_Wall_01a","sampler":0,"source":1},{"name":"MI_Brick_Wall_02b","sampler":0,"source":2},{"name":"MI_Brick_Wall_02b","sampler":0,"source":3}]}