{"accessors":[{"bufferView":0,"byteOffset":0,"componentType":5126,"count":1,"max":[0],"min":[0],"type":"SCALAR"},{"bufferView":1,"byteOffset":0,"componentType":5123,"count":6780,"type":"SCALAR"},{"bufferView":2,"byteOffset":0,"componentType":5126,"count":1190,"max":[7.00000905990601,0.0910008922219276,7.00000238418579],"min":[-0.00001822991544,-0.47024467587471,-0.00004272460865],"type":"VEC3"},{"bufferView":3,"byteOffset":0,"componentType":5126,"count":1190,"type":"VEC3"},{"bufferView":4,"byteOffset":0,"componentType":5126,"count":1190,"type":"VEC4"},{"bufferView":5,"byteOffset":0,"componentType":5126,"count":1190,"type":"VEC2"},{"bufferView":6,"byteOffset":0,"componentType":5126,"count":1190,"type":"VEC2"}],"animations":[{"channels":[],"name":"Unreal Take","samplers":[]}],"asset":{"generator":"FBX2glTF v0.13.0","version":"2.0"},"bufferViews":[{"buffer":0,"byteLength":4,"byteOffset":0},{"buffer":0,"byteLength":13560,"byteOffset":4,"target":34963},{"buffer":0,"byteLength":14280,"byteOffset":13564,"target":34962},{"buffer":0,"byteLength":14280,"byteOffset":27844,"target":34962},{"buffer":0,"byteLength":19040,"byteOffset":42124,"target":34962},{"buffer":0,"byteLength":9520,"byteOffset":61164,"target":34962},{"buffer":0,"byteLength":9520,"byteOffset":70684,"target":34962}],"buffers":[{"byteLength":80204,"uri":"SM_Modular_Floor_01b.bin"}],"images":[{"name":"T_Ground_Tiles_01b_N","uri":"../Textures/T_Ground_Tiles_01b_N.png"},{"name":"T_Ground_Tiles_01b_BC","uri":"../Textures/T_Ground_Tiles_01b_BC.png"}],"materials":[{"alphaMode":"OPAQUE","doubleSided":false,"extras":{"fromFBX":{"isTruePBR":false,"shadingModel":"Phong"}},"name":"MI_Floor_Dungeon_01b","normalTexture":{"index":0,"texCoord":0},"pbrMetallicRoughness":{"baseColorFactor":[1,1,1,1],"baseColorTexture":{"index":1,"texCoord":0},"metallicFactor":0.400000005960464,"roughnessFactor":0.301511347293854}}],"meshes":[{"name":"SM_Modular_Floor_01b","primitives":[{"attributes":{"NORMAL":3,"POSITION":2,"TANGENT":4,"TEXCOORD_0":5,"TEXCOORD_1":6},"indices":1,"material":0,"mode":4}]}],"nodes":[{"mesh":0,"name":"SM_Modular_Floor_01b","originalUnits":0.00999999977648258,"pivot":[0,0,0],"rotation":[0,0,0,1],"scale":[1,1,1],"translation":[0,0,0]},{"name":"SM_Modular_Floor_01b_ConvexHulls","originalUnits":0.00999999977648258,"pivot":[0,0,0],"rotation":[0,0,0,1],"scale":[1,1,1],"translation":[0,0,0]}],"samplers":[{}],"scene":0,"scenes":[{"name":"Root Scene","nodes":[0,1]}],"textures":[{"name":"MI_Floor_Dungeon_01b","sampler":0,"source":0},{"name":"MI_Floor_Dungeon_01b","sampler":0,"source":1}]}