{"accessors":[{"bufferView":0,"byteOffset":0,"componentType":5126,"count":1,"max":[0],"min":[0],"type":"SCALAR"},{"bufferView":1,"byteOffset":0,"componentType":5123,"count":1296,"type":"SCALAR"},{"bufferView":2,"byteOffset":0,"componentType":5126,"count":274,"max":[0.180084571242332,0.65947300195694,0.182862624526024],"min":[-0.18008457124233,0.00636642333120108,-0.18286262452602],"type":"VEC3"},{"bufferView":3,"byteOffset":0,"componentType":5126,"count":274,"type":"VEC3"},{"bufferView":4,"byteOffset":0,"componentType":5126,"count":274,"type":"VEC4"},{"bufferView":5,"byteOffset":0,"componentType":5126,"count":274,"type":"VEC2"},{"bufferView":6,"byteOffset":0,"componentType":5123,"count":648,"type":"SCALAR"},{"bufferView":7,"byteOffset":0,"componentType":5126,"count":160,"max":[0.174387142062187,0.665210425853729,0.182305619120598],"min":[-0.18128688633442,0.00636322284117341,-0.18568995594978],"type":"VEC3"},{"bufferView":8,"byteOffset":0,"componentType":5126,"count":160,"type":"VEC3"},{"bufferView":9,"byteOffset":0,"componentType":5126,"count":160,"type":"VEC4"},{"bufferView":10,"byteOffset":0,"componentType":5126,"count":160,"type":"VEC2"},{"bufferView":11,"byteOffset":0,"componentType":5123,"count":324,"type":"SCALAR"},{"bufferView":12,"byteOffset":0,"componentType":5126,"count":89,"max":[0.174387142062187,0.669596791267395,0.182305619120598],"min":[-0.18128688633442,0.00636642379686236,-0.19968314468861],"type":"VEC3"},{"bufferView":13,"byteOffset":0,"componentType":5126,"count":89,"type":"VEC3"},{"bufferView":14,"byteOffset":0,"componentType":5126,"count":89,"type":"VEC4"},{"bufferView":15,"byteOffset":0,"componentType":5126,"count":89,"type":"VEC2"},{"bufferView":16,"byteOffset":0,"componentType":5123,"count":162,"type":"SCALAR"},{"bufferView":17,"byteOffset":0,"componentType":5126,"count":54,"max":[0.17837817966938,0.669471025466919,0.161523476243019],"min":[-0.17960837483406,0.00636642519384623,-0.17224395275116],"type":"VEC3"},{"bufferView":18,"byteOffset":0,"componentType":5126,"count":54,"type":"VEC3"},{"bufferView":19,"byteOffset":0,"componentType":5126,"count":54,"type":"VEC4"},{"bufferView":20,"byteOffset":0,"componentType":5126,"count":54,"type":"VEC2"}],"animations":[{"channels":[],"name":"Unreal Take","samplers":[]}],"asset":{"generator":"FBX2glTF v0.13.0","version":"2.0"},"bufferViews":[{"buffer":0,"byteLength":4,"byteOffset":0},{"buffer":0,"byteLength":2592,"byteOffset":4,"target":34963},{"buffer":0,"byteLength":3288,"byteOffset":2596,"target":34962},{"buffer":0,"byteLength":3288,"byteOffset":5884,"target":34962},{"buffer":0,"byteLength":4384,"byteOffset":9172,"target":34962},{"buffer":0,"byteLength":2192,"byteOffset":13556,"target":34962},{"buffer":0,"byteLength":1296,"byteOffset":15748,"target":34963},{"buffer":0,"byteLength":1920,"byteOffset":17044,"target":34962},{"buffer":0,"byteLength":1920,"byteOffset":18964,"target":34962},{"buffer":0,"byteLength":2560,"byteOffset":20884,"target":34962},{"buffer":0,"byteLength":1280,"byteOffset":23444,"target":34962},{"buffer":0,"byteLength":648,"byteOffset":24724,"target":34963},{"buffer":0,"byteLength":1068,"byteOffset":25372,"target":34962},{"buffer":0,"byteLength":1068,"byteOffset":26440,"target":34962},{"buffer":0,"byteLength":1424,"byteOffset":27508,"target":34962},{"buffer":0,"byteLength":712,"byteOffset":28932,"target":34962},{"buffer":0,"byteLength":324,"byteOffset":29644,"target":34963},{"buffer":0,"byteLength":648,"byteOffset":29968,"target":34962},{"buffer":0,"byteLength":648,"byteOffset":30616,"target":34962},{"buffer":0,"byteLength":864,"byteOffset":31264,"target":34962},{"buffer":0,"byteLength":432,"byteOffset":32128,"target":34962}],"buffers":[{"byteLength":32560,"uri":"SM_Pot_04.bin"}],"images":[{"name":"T_Pots_N","uri":"../Textures/T_Pots_N.png"},{"name":"T_Pots_BC","uri":"../Textures/T_Pots_BC.png"}],"materials":[{"alphaMode":"OPAQUE","doubleSided":false,"extras":{"fromFBX":{"isTruePBR":false,"shadingModel":"Phong"}},"name":"MI_Pots_01","normalTexture":{"index":0,"texCoord":0},"pbrMetallicRoughness":{"baseColorFactor":[1,1,1,1],"baseColorTexture":{"index":1,"texCoord":0},"metallicFactor":0.400000005960464,"roughnessFactor":0.301511347293854}}],"meshes":[{"name":"SM_Pot_04_LOD0","primitives":[{"attributes":{"NORMAL":3,"POSITION":2,"TANGENT":4,"TEXCOORD_0":5},"indices":1,"material":0,"mode":4}]},{"name":"SM_Pot_04_LOD1","primitives":[{"attributes":{"NORMAL":8,"POSITION":7,"TANGENT":9,"TEXCOORD_0":10},"indices":6,"material":0,"mode":4}]},{"name":"SM_Pot_04_LOD2","primitives":[{"attributes":{"NORMAL":13,"POSITION":12,"TANGENT":14,"TEXCOORD_0":15},"indices":11,"material":0,"mode":4}]},{"name":"SM_Pot_04_LOD3","primitives":[{"attributes":{"NORMAL":18,"POSITION":17,"TANGENT":19,"TEXCOORD_0":20},"indices":16,"material":0,"mode":4}]}],"nodes":[{"children":[1,2,3,4,5],"name":"StaticMeshActor_1406","originalUnits":0.00999999977648258,"pivot":[0,0,0],"rotation":[0,0,0,1],"scale":[1,1,1],"translation":[0,0,0]},{"mesh":0,"name":"SM_Pot_04_LOD0","originalUnits":0.00999999977648258,"pivot":[0,0,0],"rotation":[0,0,0,1],"scale":[1,1,1],"translation":[0,0,0]},{"name":"SM_Pot_04_ConvexHulls","originalUnits":0.00999999977648258,"pivot":[0,0,0],"rotation":[0,0,0,1],"scale":[1,1,1],"translation":[0,0,0]},{"mesh":1,"name":"SM_Pot_04_LOD1","originalUnits":0.00999999977648258,"pivot":[0,0,0],"rotation":[0,0,0,1],"scale":[1,1,1],"translation":[0,0,0]},{"mesh":2,"name":"SM_Pot_04_LOD2","originalUnits":0.00999999977648258,"pivot":[0,0,0],"rotation":[0,0,0,1],"scale":[1,1,1],"translation":[0,0,0]},{"mesh":3,"name":"SM_Pot_04_LOD3","originalUnits":0.00999999977648258,"pivot":[0,0,0],"rotation":[0,0,0,1],"scale":[1,1,1],"translation":[0,0,0]}],"samplers":[{}],"scene":0,"scenes":[{"name":"Root Scene","nodes":[0]}],"textures":[{"name":"MI_Pots_01","sampler":0,"source":0},{"name":"MI_Pots_01","sampler":0,"source":1}]}