{"accessors":[{"bufferView":0,"byteOffset":0,"componentType":5126,"count":1,"max":[0],"min":[0],"type":"SCALAR"},{"bufferView":1,"byteOffset":0,"componentType":5123,"count":666,"type":"SCALAR"},{"bufferView":2,"byteOffset":0,"componentType":5126,"count":144,"max":[0.140810549259186,0.787622034549713,0.140810549259186],"min":[-0.14081054925919,-0.00096950528678,-0.14081054925919],"type":"VEC3"},{"bufferView":3,"byteOffset":0,"componentType":5126,"count":144,"type":"VEC3"},{"bufferView":4,"byteOffset":0,"componentType":5126,"count":144,"type":"VEC4"},{"bufferView":5,"byteOffset":0,"componentType":5126,"count":144,"type":"VEC2"},{"bufferView":6,"byteOffset":0,"componentType":5123,"count":330,"type":"SCALAR"},{"bufferView":7,"byteOffset":0,"componentType":5126,"count":81,"max":[0.140810549259186,0.787622034549713,0.140810549259186],"min":[-0.14081054925919,-0.01236587110907,-0.14081054925919],"type":"VEC3"},{"bufferView":8,"byteOffset":0,"componentType":5126,"count":81,"type":"VEC3"},{"bufferView":9,"byteOffset":0,"componentType":5126,"count":81,"type":"VEC4"},{"bufferView":10,"byteOffset":0,"componentType":5126,"count":81,"type":"VEC2"},{"bufferView":11,"byteOffset":0,"componentType":5123,"count":168,"type":"SCALAR"},{"bufferView":12,"byteOffset":0,"componentType":5126,"count":47,"max":[0.145854398608208,0.795506179332733,0.145585253834724],"min":[-0.14559894800186,-0.01236587110907,-0.1456116437912],"type":"VEC3"},{"bufferView":13,"byteOffset":0,"componentType":5126,"count":47,"type":"VEC3"},{"bufferView":14,"byteOffset":0,"componentType":5126,"count":47,"type":"VEC4"},{"bufferView":15,"byteOffset":0,"componentType":5126,"count":47,"type":"VEC2"},{"bufferView":16,"byteOffset":0,"componentType":5123,"count":84,"type":"SCALAR"},{"bufferView":17,"byteOffset":0,"componentType":5126,"count":29,"max":[0.143471762537956,0.795506179332733,0.157953962683678],"min":[-0.16543105244637,0.00992237497121096,-0.15873798727989],"type":"VEC3"},{"bufferView":18,"byteOffset":0,"componentType":5126,"count":29,"type":"VEC3"},{"bufferView":19,"byteOffset":0,"componentType":5126,"count":29,"type":"VEC4"},{"bufferView":20,"byteOffset":0,"componentType":5126,"count":29,"type":"VEC2"}],"animations":[{"channels":[],"name":"Unreal Take","samplers":[]}],"asset":{"generator":"FBX2glTF v0.13.0","version":"2.0"},"bufferViews":[{"buffer":0,"byteLength":4,"byteOffset":0},{"buffer":0,"byteLength":1332,"byteOffset":4,"target":34963},{"buffer":0,"byteLength":1728,"byteOffset":1336,"target":34962},{"buffer":0,"byteLength":1728,"byteOffset":3064,"target":34962},{"buffer":0,"byteLength":2304,"byteOffset":4792,"target":34962},{"buffer":0,"byteLength":1152,"byteOffset":7096,"target":34962},{"buffer":0,"byteLength":660,"byteOffset":8248,"target":34963},{"buffer":0,"byteLength":972,"byteOffset":8908,"target":34962},{"buffer":0,"byteLength":972,"byteOffset":9880,"target":34962},{"buffer":0,"byteLength":1296,"byteOffset":10852,"target":34962},{"buffer":0,"byteLength":648,"byteOffset":12148,"target":34962},{"buffer":0,"byteLength":336,"byteOffset":12796,"target":34963},{"buffer":0,"byteLength":564,"byteOffset":13132,"target":34962},{"buffer":0,"byteLength":564,"byteOffset":13696,"target":34962},{"buffer":0,"byteLength":752,"byteOffset":14260,"target":34962},{"buffer":0,"byteLength":376,"byteOffset":15012,"target":34962},{"buffer":0,"byteLength":168,"byteOffset":15388,"target":34963},{"buffer":0,"byteLength":348,"byteOffset":15556,"target":34962},{"buffer":0,"byteLength":348,"byteOffset":15904,"target":34962},{"buffer":0,"byteLength":464,"byteOffset":16252,"target":34962},{"buffer":0,"byteLength":232,"byteOffset":16716,"target":34962}],"buffers":[{"byteLength":16948,"uri":"SM_Pot_03.bin"}],"images":[{"name":"T_Pots_N","uri":"../Textures/T_Pots_N.png"},{"name":"T_Pots_BC","uri":"../Textures/T_Pots_BC.png"}],"materials":[{"alphaMode":"OPAQUE","doubleSided":false,"extras":{"fromFBX":{"isTruePBR":false,"shadingModel":"Phong"}},"name":"MI_Pots_01","normalTexture":{"index":0,"texCoord":0},"pbrMetallicRoughness":{"baseColorFactor":[1,1,1,1],"baseColorTexture":{"index":1,"texCoord":0},"metallicFactor":0.400000005960464,"roughnessFactor":0.301511347293854}}],"meshes":[{"name":"SM_Pot_03_LOD0","primitives":[{"attributes":{"NORMAL":3,"POSITION":2,"TANGENT":4,"TEXCOORD_0":5},"indices":1,"material":0,"mode":4}]},{"name":"SM_Pot_03_LOD1","primitives":[{"attributes":{"NORMAL":8,"POSITION":7,"TANGENT":9,"TEXCOORD_0":10},"indices":6,"material":0,"mode":4}]},{"name":"SM_Pot_03_LOD2","primitives":[{"attributes":{"NORMAL":13,"POSITION":12,"TANGENT":14,"TEXCOORD_0":15},"indices":11,"material":0,"mode":4}]},{"name":"SM_Pot_03_LOD3","primitives":[{"attributes":{"NORMAL":18,"POSITION":17,"TANGENT":19,"TEXCOORD_0":20},"indices":16,"material":0,"mode":4}]}],"nodes":[{"children":[1,2,3,4,5],"name":"StaticMeshActor_1404","originalUnits":0.00999999977648258,"pivot":[0,0,0],"rotation":[0,0,0,1],"scale":[1,1,1],"translation":[0,0,0]},{"mesh":0,"name":"SM_Pot_03_LOD0","originalUnits":0.00999999977648258,"pivot":[0,0,0],"rotation":[0,0,0,1],"scale":[1,1,1],"translation":[0,0,0]},{"name":"SM_Pot_03_ConvexHulls","originalUnits":0.00999999977648258,"pivot":[0,0,0],"rotation":[0,0,0,1],"scale":[1,1,1],"translation":[0,0,0]},{"mesh":1,"name":"SM_Pot_03_LOD1","originalUnits":0.00999999977648258,"pivot":[0,0,0],"rotation":[0,0,0,1],"scale":[1,1,1],"translation":[0,0,0]},{"mesh":2,"name":"SM_Pot_03_LOD2","originalUnits":0.00999999977648258,"pivot":[0,0,0],"rotation":[0,0,0,1],"scale":[1,1,1],"translation":[0,0,0]},{"mesh":3,"name":"SM_Pot_03_LOD3","originalUnits":0.00999999977648258,"pivot":[0,0,0],"rotation":[0,0,0,1],"scale":[1,1,1],"translation":[0,0,0]}],"samplers":[{}],"scene":0,"scenes":[{"name":"Root Scene","nodes":[0]}],"textures":[{"name":"MI_Pots_01","sampler":0,"source":0},{"name":"MI_Pots_01","sampler":0,"source":1}]}