{"accessors":[{"bufferView":0,"byteOffset":0,"componentType":5126,"count":1,"max":[0],"min":[0],"type":"SCALAR"},{"bufferView":1,"byteOffset":0,"componentType":5123,"count":528,"type":"SCALAR"},{"bufferView":2,"byteOffset":0,"componentType":5126,"count":131,"max":[0.0845243036746979,0.0160878896713257,0.0858282148838043],"min":[-0.0845243036747,-0.0000373706971,-0.0858282148838],"type":"VEC3"},{"bufferView":3,"byteOffset":0,"componentType":5126,"count":131,"type":"VEC3"},{"bufferView":4,"byteOffset":0,"componentType":5126,"count":131,"type":"VEC4"},{"bufferView":5,"byteOffset":0,"componentType":5126,"count":131,"type":"VEC2"},{"bufferView":6,"byteOffset":0,"componentType":5126,"count":131,"type":"VEC2"},{"bufferView":7,"byteOffset":0,"componentType":5123,"count":264,"type":"SCALAR"},{"bufferView":8,"byteOffset":0,"componentType":5126,"count":73,"max":[0.085442066192627,0.0205006767064333,0.086741529405117],"min":[-0.08282532542944,-0.0001416355226,-0.08778171986341],"type":"VEC3"},{"bufferView":9,"byteOffset":0,"componentType":5126,"count":73,"type":"VEC3"},{"bufferView":10,"byteOffset":0,"componentType":5126,"count":73,"type":"VEC4"},{"bufferView":11,"byteOffset":0,"componentType":5126,"count":73,"type":"VEC2"},{"bufferView":12,"byteOffset":0,"componentType":5126,"count":73,"type":"VEC2"},{"bufferView":13,"byteOffset":0,"componentType":5123,"count":132,"type":"SCALAR"},{"bufferView":14,"byteOffset":0,"componentType":5126,"count":41,"max":[0.0845383182168007,0.0211238693445921,0.0889250636100769],"min":[-0.0877360701561,-0.00071606069105,-0.08693185448647],"type":"VEC3"},{"bufferView":15,"byteOffset":0,"componentType":5126,"count":41,"type":"VEC3"},{"bufferView":16,"byteOffset":0,"componentType":5126,"count":41,"type":"VEC4"},{"bufferView":17,"byteOffset":0,"componentType":5126,"count":41,"type":"VEC2"},{"bufferView":18,"byteOffset":0,"componentType":5126,"count":41,"type":"VEC2"},{"bufferView":19,"byteOffset":0,"componentType":5123,"count":336,"type":"SCALAR"},{"bufferView":20,"byteOffset":0,"componentType":5126,"count":63,"max":[0.0836269184947014,0.0165329817682505,0.0865494608879089],"min":[-0.08417975902557,-0.00088833470363,-0.08654946088791],"type":"VEC3"},{"bufferView":21,"byteOffset":0,"componentType":5126,"count":63,"type":"VEC3"},{"bufferView":22,"byteOffset":0,"componentType":5126,"count":63,"type":"VEC4"},{"bufferView":23,"byteOffset":0,"componentType":5126,"count":63,"type":"VEC2"},{"bufferView":24,"byteOffset":0,"componentType":5126,"count":63,"type":"VEC2"}],"animations":[{"channels":[],"name":"Unreal Take","samplers":[]}],"asset":{"generator":"FBX2glTF v0.13.0","version":"2.0"},"bufferViews":[{"buffer":0,"byteLength":4,"byteOffset":0},{"buffer":0,"byteLength":1056,"byteOffset":4,"target":34963},{"buffer":0,"byteLength":1572,"byteOffset":1060,"target":34962},{"buffer":0,"byteLength":1572,"byteOffset":2632,"target":34962},{"buffer":0,"byteLength":2096,"byteOffset":4204,"target":34962},{"buffer":0,"byteLength":1048,"byteOffset":6300,"target":34962},{"buffer":0,"byteLength":1048,"byteOffset":7348,"target":34962},{"buffer":0,"byteLength":528,"byteOffset":8396,"target":34963},{"buffer":0,"byteLength":876,"byteOffset":8924,"target":34962},{"buffer":0,"byteLength":876,"byteOffset":9800,"target":34962},{"buffer":0,"byteLength":1168,"byteOffset":10676,"target":34962},{"buffer":0,"byteLength":584,"byteOffset":11844,"target":34962},{"buffer":0,"byteLength":584,"byteOffset":12428,"target":34962},{"buffer":0,"byteLength":264,"byteOffset":13012,"target":34963},{"buffer":0,"byteLength":492,"byteOffset":13276,"target":34962},{"buffer":0,"byteLength":492,"byteOffset":13768,"target":34962},{"buffer":0,"byteLength":656,"byteOffset":14260,"target":34962},{"buffer":0,"byteLength":328,"byteOffset":14916,"target":34962},{"buffer":0,"byteLength":328,"byteOffset":15244,"target":34962},{"buffer":0,"byteLength":672,"byteOffset":15572,"target":34963},{"buffer":0,"byteLength":756,"byteOffset":16244,"target":34962},{"buffer":0,"byteLength":756,"byteOffset":17000,"target":34962},{"buffer":0,"byteLength":1008,"byteOffset":17756,"target":34962},{"buffer":0,"byteLength":504,"byteOffset":18764,"target":34962},{"buffer":0,"byteLength":504,"byteOffset":19268,"target":34962}],"buffers":[{"byteLength":19772,"uri":"SM_Plate_01.bin"}],"images":[{"name":"T_Candles_01_N","uri":"../Textures/T_Candles_01_N.png"},{"name":"T_Candles_01_BC","uri":"../Textures/T_Candles_01_BC.png"}],"materials":[{"alphaMode":"OPAQUE","doubleSided":false,"extras":{"fromFBX":{"isTruePBR":false,"shadingModel":"Phong"}},"name":"MI_Candles_01","normalTexture":{"index":0,"texCoord":0},"pbrMetallicRoughness":{"baseColorFactor":[1,1,1,1],"baseColorTexture":{"index":1,"texCoord":0},"metallicFactor":0.400000005960464,"roughnessFactor":0.301511347293854}},{"alphaMode":"OPAQUE","doubleSided":false,"extras":{"fromFBX":{"isTruePBR":false,"shadingModel":"Lambert"}},"name":"DefaultMaterial","pbrMetallicRoughness":{"baseColorFactor":[0.5,0.5,0.5,1],"metallicFactor":0.200000002980232,"roughnessFactor":0.800000011920929}}],"meshes":[{"name":"SM_Plate_01_LOD0","primitives":[{"attributes":{"NORMAL":3,"POSITION":2,"TANGENT":4,"TEXCOORD_0":5,"TEXCOORD_1":6},"indices":1,"material":0,"mode":4}]},{"name":"SM_Plate_01_LOD1","primitives":[{"attributes":{"NORMAL":9,"POSITION":8,"TANGENT":10,"TEXCOORD_0":11,"TEXCOORD_1":12},"indices":7,"material":0,"mode":4}]},{"name":"SM_Plate_01_LOD2","primitives":[{"attributes":{"NORMAL":15,"POSITION":14,"TANGENT":16,"TEXCOORD_0":17,"TEXCOORD_1":18},"indices":13,"material":0,"mode":4}]},{"name":"SM_Plate_01_ConvexHulls","primitives":[{"attributes":{"NORMAL":21,"POSITION":20,"TANGENT":22,"TEXCOORD_0":23,"TEXCOORD_1":24},"indices":19,"material":1,"mode":4}]}],"nodes":[{"children":[1,2,3,4],"name":"StaticMeshActor_1362","originalUnits":0.00999999977648258,"pivot":[0,0,0],"rotation":[0,0,0,1],"scale":[1,1,1],"translation":[0,0,0]},{"mesh":0,"name":"SM_Plate_01_LOD0","originalUnits":0.00999999977648258,"pivot":[0,0,0],"rotation":[0,0,0,1],"scale":[1,1,1],"translation":[0,0,0]},{"mesh":3,"name":"SM_Plate_01_ConvexHulls","originalUnits":0.00999999977648258,"pivot":[0,0,0],"rotation":[0,0,0,1],"scale":[1,1,1],"translation":[0,0,0]},{"mesh":1,"name":"SM_Plate_01_LOD1","originalUnits":0.00999999977648258,"pivot":[0,0,0],"rotation":[0,0,0,1],"scale":[1,1,1],"translation":[0,0,0]},{"mesh":2,"name":"SM_Plate_01_LOD2","originalUnits":0.00999999977648258,"pivot":[0,0,0],"rotation":[0,0,0,1],"scale":[1,1,1],"translation":[0,0,0]}],"samplers":[{}],"scene":0,"scenes":[{"name":"Root Scene","nodes":[0]}],"textures":[{"name":"MI_Candles_01","sampler":0,"source":0},{"name":"MI_Candles_01","sampler":0,"source":1}]}