{"accessors":[{"bufferView":0,"byteOffset":0,"componentType":5126,"count":1,"max":[0],"min":[0],"type":"SCALAR"},{"bufferView":1,"byteOffset":0,"componentType":5123,"count":22272,"type":"SCALAR"},{"bufferView":2,"byteOffset":0,"componentType":5126,"count":4406,"max":[0.771986365318298,4.61123514175415,0.847752153873444],"min":[-0.77198624610901,-0.00234095170163,-0.84775215387344],"type":"VEC3"},{"bufferView":3,"byteOffset":0,"componentType":5126,"count":4406,"type":"VEC3"},{"bufferView":4,"byteOffset":0,"componentType":5126,"count":4406,"type":"VEC4"},{"bufferView":5,"byteOffset":0,"componentType":5126,"count":4406,"type":"VEC2"},{"bufferView":6,"byteOffset":0,"componentType":5126,"count":4406,"type":"VEC2"},{"bufferView":7,"byteOffset":0,"componentType":5123,"count":324,"type":"SCALAR"},{"bufferView":8,"byteOffset":0,"componentType":5126,"count":76,"max":[0.469683855772018,3.80005216598511,0.534852564334869],"min":[-0.4696838259697,1.16353893280029,-0.53485256433487],"type":"VEC3"},{"bufferView":9,"byteOffset":0,"componentType":5126,"count":76,"type":"VEC3"},{"bufferView":10,"byteOffset":0,"componentType":5126,"count":76,"type":"VEC4"},{"bufferView":11,"byteOffset":0,"componentType":5126,"count":76,"type":"VEC2"},{"bufferView":12,"byteOffset":0,"componentType":5126,"count":76,"type":"VEC2"},{"bufferView":13,"byteOffset":0,"componentType":5123,"count":180,"type":"SCALAR"},{"bufferView":14,"byteOffset":0,"componentType":5126,"count":36,"max":[0.790191650390625,4.62653017044067,0.863255977630615],"min":[-0.77850645780563,0.00852568633854389,-0.86325597763062],"type":"VEC3"},{"bufferView":15,"byteOffset":0,"componentType":5126,"count":36,"type":"VEC3"},{"bufferView":16,"byteOffset":0,"componentType":5126,"count":36,"type":"VEC4"},{"bufferView":17,"byteOffset":0,"componentType":5126,"count":36,"type":"VEC2"},{"bufferView":18,"byteOffset":0,"componentType":5126,"count":36,"type":"VEC2"}],"animations":[{"channels":[],"name":"Unreal Take","samplers":[]}],"asset":{"generator":"FBX2glTF v0.13.0","version":"2.0"},"bufferViews":[{"buffer":0,"byteLength":4,"byteOffset":0},{"buffer":0,"byteLength":44544,"byteOffset":4,"target":34963},{"buffer":0,"byteLength":52872,"byteOffset":44548,"target":34962},{"buffer":0,"byteLength":52872,"byteOffset":97420,"target":34962},{"buffer":0,"byteLength":70496,"byteOffset":150292,"target":34962},{"buffer":0,"byteLength":35248,"byteOffset":220788,"target":34962},{"buffer":0,"byteLength":35248,"byteOffset":256036,"target":34962},{"buffer":0,"byteLength":648,"byteOffset":291284,"target":34963},{"buffer":0,"byteLength":912,"byteOffset":291932,"target":34962},{"buffer":0,"byteLength":912,"byteOffset":292844,"target":34962},{"buffer":0,"byteLength":1216,"byteOffset":293756,"target":34962},{"buffer":0,"byteLength":608,"byteOffset":294972,"target":34962},{"buffer":0,"byteLength":608,"byteOffset":295580,"target":34962},{"buffer":0,"byteLength":360,"byteOffset":296188,"target":34963},{"buffer":0,"byteLength":432,"byteOffset":296548,"target":34962},{"buffer":0,"byteLength":432,"byteOffset":296980,"target":34962},{"buffer":0,"byteLength":576,"byteOffset":297412,"target":34962},{"buffer":0,"byteLength":288,"byteOffset":297988,"target":34962},{"buffer":0,"byteLength":288,"byteOffset":298276,"target":34962}],"buffers":[{"byteLength":298564,"uri":"SM_Pillar_02a.bin"}],"images":[{"name":"T_Brick_Wall_02b_N","uri":"../Textures/T_Brick_Wall_02b_N.png"},{"name":"T_Brick_Wall_02b_BC","uri":"../Textures/T_Brick_Wall_02b_BC.png"},{"name":"T_Brick_Wall_02a_N","uri":"../Textures/T_Brick_Wall_02a_N.png"},{"name":"T_Brick_Wall_02a_BC","uri":"../Textures/T_Brick_Wall_02a_BC.png"}],"materials":[{"alphaMode":"OPAQUE","doubleSided":false,"extras":{"fromFBX":{"isTruePBR":false,"shadingModel":"Phong"}},"name":"MI_Brick_Wall_02b","normalTexture":{"index":0,"texCoord":0},"pbrMetallicRoughness":{"baseColorFactor":[1,1,1,1],"baseColorTexture":{"index":1,"texCoord":0},"metallicFactor":0.400000005960464,"roughnessFactor":0.301511347293854}},{"alphaMode":"OPAQUE","doubleSided":false,"extras":{"fromFBX":{"isTruePBR":false,"shadingModel":"Phong"}},"name":"MI_Brick_Wall_02a","normalTexture":{"index":2,"texCoord":0},"pbrMetallicRoughness":{"baseColorFactor":[1,1,1,1],"baseColorTexture":{"index":3,"texCoord":0},"metallicFactor":0.400000005960464,"roughnessFactor":0.301511347293854}},{"alphaMode":"OPAQUE","doubleSided":false,"extras":{"fromFBX":{"isTruePBR":false,"shadingModel":"Lambert"}},"name":"DefaultMaterial","pbrMetallicRoughness":{"baseColorFactor":[0.5,0.5,0.5,1],"metallicFactor":0.200000002980232,"roughnessFactor":0.800000011920929}}],"meshes":[{"name":"SM_Pillar_02a","primitives":[{"attributes":{"NORMAL":3,"POSITION":2,"TANGENT":4,"TEXCOORD_0":5,"TEXCOORD_1":6},"indices":1,"material":0,"mode":4},{"attributes":{"NORMAL":9,"POSITION":8,"TANGENT":10,"TEXCOORD_0":11,"TEXCOORD_1":12},"indices":7,"material":1,"mode":4}]},{"name":"SM_Pillar_02a_ConvexHulls","primitives":[{"attributes":{"NORMAL":15,"POSITION":14,"TANGENT":16,"TEXCOORD_0":17,"TEXCOORD_1":18},"indices":13,"material":2,"mode":4}]}],"nodes":[{"mesh":0,"name":"SM_Pillar_02a","originalUnits":0.00999999977648258,"pivot":[0,0,0],"rotation":[0,0,0,1],"scale":[1,1,1],"translation":[0,0,0]},{"mesh":1,"name":"SM_Pillar_02a_ConvexHulls","originalUnits":0.00999999977648258,"pivot":[0,0,0],"rotation":[0,0,0,1],"scale":[1,1,1],"translation":[0,0,0]}],"samplers":[{}],"scene":0,"scenes":[{"name":"Root Scene","nodes":[0,1]}],"textures":[{"name":"MI_Brick_Wall_02b","sampler":0,"source":0},{"name":"MI_Brick_Wall_02b","sampler":0,"source":1},{"name":"MI_Brick_Wall_02a","sampler":0,"source":2},{"name":"MI_Brick_Wall_02a","sampler":0,"source":3}]}