{"accessors":[{"bufferView":0,"byteOffset":0,"componentType":5126,"count":1,"max":[0],"min":[0],"type":"SCALAR"},{"bufferView":1,"byteOffset":0,"componentType":5123,"count":924,"type":"SCALAR"},{"bufferView":2,"byteOffset":0,"componentType":5126,"count":195,"max":[0.291687995195389,0.599298775196075,0.2991923391819],"min":[-0.29168799519539,0.00094577594427391,-0.2991860806942],"type":"VEC3"},{"bufferView":3,"byteOffset":0,"componentType":5126,"count":195,"type":"VEC3"},{"bufferView":4,"byteOffset":0,"componentType":5126,"count":195,"type":"VEC4"},{"bufferView":5,"byteOffset":0,"componentType":5126,"count":195,"type":"VEC2"},{"bufferView":6,"byteOffset":0,"componentType":5123,"count":462,"type":"SCALAR"},{"bufferView":7,"byteOffset":0,"componentType":5126,"count":112,"max":[0.299522519111633,0.611496031284332,0.306941509246826],"min":[-0.3201887011528,0.00080349470954388,-0.2991860806942],"type":"VEC3"},{"bufferView":8,"byteOffset":0,"componentType":5126,"count":112,"type":"VEC3"},{"bufferView":9,"byteOffset":0,"componentType":5126,"count":112,"type":"VEC4"},{"bufferView":10,"byteOffset":0,"componentType":5126,"count":112,"type":"VEC2"},{"bufferView":11,"byteOffset":0,"componentType":5123,"count":228,"type":"SCALAR"},{"bufferView":12,"byteOffset":0,"componentType":5126,"count":60,"max":[0.322741687297821,0.615713477134705,0.308914244174957],"min":[-0.32931217551231,-0.00042865151772,-0.30939200520515],"type":"VEC3"},{"bufferView":13,"byteOffset":0,"componentType":5126,"count":60,"type":"VEC3"},{"bufferView":14,"byteOffset":0,"componentType":5126,"count":60,"type":"VEC4"},{"bufferView":15,"byteOffset":0,"componentType":5126,"count":60,"type":"VEC2"},{"bufferView":16,"byteOffset":0,"componentType":5123,"count":114,"type":"SCALAR"},{"bufferView":17,"byteOffset":0,"componentType":5126,"count":37,"max":[0.322741687297821,0.6758131980896,0.335108697414398],"min":[-0.32931217551231,-0.00042865151772,-0.31221106648445],"type":"VEC3"},{"bufferView":18,"byteOffset":0,"componentType":5126,"count":37,"type":"VEC3"},{"bufferView":19,"byteOffset":0,"componentType":5126,"count":37,"type":"VEC4"},{"bufferView":20,"byteOffset":0,"componentType":5126,"count":37,"type":"VEC2"}],"animations":[{"channels":[],"name":"Unreal Take","samplers":[]}],"asset":{"generator":"FBX2glTF v0.13.0","version":"2.0"},"bufferViews":[{"buffer":0,"byteLength":4,"byteOffset":0},{"buffer":0,"byteLength":1848,"byteOffset":4,"target":34963},{"buffer":0,"byteLength":2340,"byteOffset":1852,"target":34962},{"buffer":0,"byteLength":2340,"byteOffset":4192,"target":34962},{"buffer":0,"byteLength":3120,"byteOffset":6532,"target":34962},{"buffer":0,"byteLength":1560,"byteOffset":9652,"target":34962},{"buffer":0,"byteLength":924,"byteOffset":11212,"target":34963},{"buffer":0,"byteLength":1344,"byteOffset":12136,"target":34962},{"buffer":0,"byteLength":1344,"byteOffset":13480,"target":34962},{"buffer":0,"byteLength":1792,"byteOffset":14824,"target":34962},{"buffer":0,"byteLength":896,"byteOffset":16616,"target":34962},{"buffer":0,"byteLength":456,"byteOffset":17512,"target":34963},{"buffer":0,"byteLength":720,"byteOffset":17968,"target":34962},{"buffer":0,"byteLength":720,"byteOffset":18688,"target":34962},{"buffer":0,"byteLength":960,"byteOffset":19408,"target":34962},{"buffer":0,"byteLength":480,"byteOffset":20368,"target":34962},{"buffer":0,"byteLength":228,"byteOffset":20848,"target":34963},{"buffer":0,"byteLength":444,"byteOffset":21076,"target":34962},{"buffer":0,"byteLength":444,"byteOffset":21520,"target":34962},{"buffer":0,"byteLength":592,"byteOffset":21964,"target":34962},{"buffer":0,"byteLength":296,"byteOffset":22556,"target":34962}],"buffers":[{"byteLength":22852,"uri":"SM_Pot_01.bin"}],"images":[{"name":"T_Pots_N","uri":"../Textures/T_Pots_N.png"},{"name":"T_Pots_BC","uri":"../Textures/T_Pots_BC.png"}],"materials":[{"alphaMode":"OPAQUE","doubleSided":false,"extras":{"fromFBX":{"isTruePBR":false,"shadingModel":"Phong"}},"name":"MI_Pots_01","normalTexture":{"index":0,"texCoord":0},"pbrMetallicRoughness":{"baseColorFactor":[1,1,1,1],"baseColorTexture":{"index":1,"texCoord":0},"metallicFactor":0.400000005960464,"roughnessFactor":0.301511347293854}}],"meshes":[{"name":"SM_Pot_01_LOD0","primitives":[{"attributes":{"NORMAL":3,"POSITION":2,"TANGENT":4,"TEXCOORD_0":5},"indices":1,"material":0,"mode":4}]},{"name":"SM_Pot_01_LOD1","primitives":[{"attributes":{"NORMAL":8,"POSITION":7,"TANGENT":9,"TEXCOORD_0":10},"indices":6,"material":0,"mode":4}]},{"name":"SM_Pot_01_LOD2","primitives":[{"attributes":{"NORMAL":13,"POSITION":12,"TANGENT":14,"TEXCOORD_0":15},"indices":11,"material":0,"mode":4}]},{"name":"SM_Pot_01_LOD3","primitives":[{"attributes":{"NORMAL":18,"POSITION":17,"TANGENT":19,"TEXCOORD_0":20},"indices":16,"material":0,"mode":4}]}],"nodes":[{"children":[1,2,3,4,5],"name":"StaticMeshActor_1400","originalUnits":0.00999999977648258,"pivot":[0,0,0],"rotation":[0,0,0,1],"scale":[1,1,1],"translation":[0,0,0]},{"mesh":0,"name":"SM_Pot_01_LOD0","originalUnits":0.00999999977648258,"pivot":[0,0,0],"rotation":[0,0,0,1],"scale":[1,1,1],"translation":[0,0,0]},{"name":"SM_Pot_01_ConvexHulls","originalUnits":0.00999999977648258,"pivot":[0,0,0],"rotation":[0,0,0,1],"scale":[1,1,1],"translation":[0,0,0]},{"mesh":1,"name":"SM_Pot_01_LOD1","originalUnits":0.00999999977648258,"pivot":[0,0,0],"rotation":[0,0,0,1],"scale":[1,1,1],"translation":[0,0,0]},{"mesh":2,"name":"SM_Pot_01_LOD2","originalUnits":0.00999999977648258,"pivot":[0,0,0],"rotation":[0,0,0,1],"scale":[1,1,1],"translation":[0,0,0]},{"mesh":3,"name":"SM_Pot_01_LOD3","originalUnits":0.00999999977648258,"pivot":[0,0,0],"rotation":[0,0,0,1],"scale":[1,1,1],"translation":[0,0,0]}],"samplers":[{}],"scene":0,"scenes":[{"name":"Root Scene","nodes":[0]}],"textures":[{"name":"MI_Pots_01","sampler":0,"source":0},{"name":"MI_Pots_01","sampler":0,"source":1}]}