{"accessors":[{"bufferView":0,"byteOffset":0,"componentType":5126,"count":1,"max":[0],"min":[0],"type":"SCALAR"},{"bufferView":1,"byteOffset":0,"componentType":5123,"count":21264,"type":"SCALAR"},{"bufferView":2,"byteOffset":0,"componentType":5126,"count":4109,"max":[1.25000011920929,4.54551267623901,1.36796033382416],"min":[-1.25,0.00321323052048683,-1.36796033382416],"type":"VEC3"},{"bufferView":3,"byteOffset":0,"componentType":5126,"count":4109,"type":"VEC3"},{"bufferView":4,"byteOffset":0,"componentType":5126,"count":4109,"type":"VEC4"},{"bufferView":5,"byteOffset":0,"componentType":5126,"count":4109,"type":"VEC2"},{"bufferView":6,"byteOffset":0,"componentType":5126,"count":4109,"type":"VEC2"},{"bufferView":7,"byteOffset":0,"componentType":5123,"count":324,"type":"SCALAR"},{"bufferView":8,"byteOffset":0,"componentType":5126,"count":76,"max":[0.760512053966522,3.32269763946533,0.866033315658569],"min":[-0.76051205396652,1.86897397041321,-0.86603331565857],"type":"VEC3"},{"bufferView":9,"byteOffset":0,"componentType":5126,"count":76,"type":"VEC3"},{"bufferView":10,"byteOffset":0,"componentType":5126,"count":76,"type":"VEC4"},{"bufferView":11,"byteOffset":0,"componentType":5126,"count":76,"type":"VEC2"},{"bufferView":12,"byteOffset":0,"componentType":5126,"count":76,"type":"VEC2"},{"bufferView":13,"byteOffset":0,"componentType":5123,"count":276,"type":"SCALAR"},{"bufferView":14,"byteOffset":0,"componentType":5126,"count":54,"max":[1.26017463207245,4.58668231964111,1.40573191642761],"min":[-1.31213665008545,0.00309568806551397,-1.40573191642761],"type":"VEC3"},{"bufferView":15,"byteOffset":0,"componentType":5126,"count":54,"type":"VEC3"},{"bufferView":16,"byteOffset":0,"componentType":5126,"count":54,"type":"VEC4"},{"bufferView":17,"byteOffset":0,"componentType":5126,"count":54,"type":"VEC2"},{"bufferView":18,"byteOffset":0,"componentType":5126,"count":54,"type":"VEC2"}],"animations":[{"channels":[],"name":"Unreal Take","samplers":[]}],"asset":{"generator":"FBX2glTF v0.13.0","version":"2.0"},"bufferViews":[{"buffer":0,"byteLength":4,"byteOffset":0},{"buffer":0,"byteLength":42528,"byteOffset":4,"target":34963},{"buffer":0,"byteLength":49308,"byteOffset":42532,"target":34962},{"buffer":0,"byteLength":49308,"byteOffset":91840,"target":34962},{"buffer":0,"byteLength":65744,"byteOffset":141148,"target":34962},{"buffer":0,"byteLength":32872,"byteOffset":206892,"target":34962},{"buffer":0,"byteLength":32872,"byteOffset":239764,"target":34962},{"buffer":0,"byteLength":648,"byteOffset":272636,"target":34963},{"buffer":0,"byteLength":912,"byteOffset":273284,"target":34962},{"buffer":0,"byteLength":912,"byteOffset":274196,"target":34962},{"buffer":0,"byteLength":1216,"byteOffset":275108,"target":34962},{"buffer":0,"byteLength":608,"byteOffset":276324,"target":34962},{"buffer":0,"byteLength":608,"byteOffset":276932,"target":34962},{"buffer":0,"byteLength":552,"byteOffset":277540,"target":34963},{"buffer":0,"byteLength":648,"byteOffset":278092,"target":34962},{"buffer":0,"byteLength":648,"byteOffset":278740,"target":34962},{"buffer":0,"byteLength":864,"byteOffset":279388,"target":34962},{"buffer":0,"byteLength":432,"byteOffset":280252,"target":34962},{"buffer":0,"byteLength":432,"byteOffset":280684,"target":34962}],"buffers":[{"byteLength":281116,"uri":"SM_Pillar_04a.bin"}],"images":[{"name":"T_Brick_Wall_02b_N","uri":"../Textures/T_Brick_Wall_02b_N.png"},{"name":"T_Brick_Wall_02b_BC","uri":"../Textures/T_Brick_Wall_02b_BC.png"},{"name":"T_Brick_Wall_02a_N","uri":"../Textures/T_Brick_Wall_02a_N.png"},{"name":"T_Brick_Wall_02a_BC","uri":"../Textures/T_Brick_Wall_02a_BC.png"}],"materials":[{"alphaMode":"OPAQUE","doubleSided":false,"extras":{"fromFBX":{"isTruePBR":false,"shadingModel":"Phong"}},"name":"MI_Brick_Wall_02b","normalTexture":{"index":0,"texCoord":0},"pbrMetallicRoughness":{"baseColorFactor":[1,1,1,1],"baseColorTexture":{"index":1,"texCoord":0},"metallicFactor":0.400000005960464,"roughnessFactor":0.301511347293854}},{"alphaMode":"OPAQUE","doubleSided":false,"extras":{"fromFBX":{"isTruePBR":false,"shadingModel":"Phong"}},"name":"MI_Brick_Wall_02a","normalTexture":{"index":2,"texCoord":0},"pbrMetallicRoughness":{"baseColorFactor":[1,1,1,1],"baseColorTexture":{"index":3,"texCoord":0},"metallicFactor":0.400000005960464,"roughnessFactor":0.301511347293854}},{"alphaMode":"OPAQUE","doubleSided":false,"extras":{"fromFBX":{"isTruePBR":false,"shadingModel":"Lambert"}},"name":"DefaultMaterial","pbrMetallicRoughness":{"baseColorFactor":[0.5,0.5,0.5,1],"metallicFactor":0.200000002980232,"roughnessFactor":0.800000011920929}}],"meshes":[{"name":"SM_Pillar_04a","primitives":[{"attributes":{"NORMAL":3,"POSITION":2,"TANGENT":4,"TEXCOORD_0":5,"TEXCOORD_1":6},"indices":1,"material":0,"mode":4},{"attributes":{"NORMAL":9,"POSITION":8,"TANGENT":10,"TEXCOORD_0":11,"TEXCOORD_1":12},"indices":7,"material":1,"mode":4}]},{"name":"SM_Pillar_04a_ConvexHulls","primitives":[{"attributes":{"NORMAL":15,"POSITION":14,"TANGENT":16,"TEXCOORD_0":17,"TEXCOORD_1":18},"indices":13,"material":2,"mode":4}]}],"nodes":[{"mesh":0,"name":"SM_Pillar_04a","originalUnits":0.00999999977648258,"pivot":[0,0,0],"rotation":[0,0,0,1],"scale":[1,1,1],"translation":[0,0,0]},{"mesh":1,"name":"SM_Pillar_04a_ConvexHulls","originalUnits":0.00999999977648258,"pivot":[0,0,0],"rotation":[0,0,0,1],"scale":[1,1,1],"translation":[0,0,0]}],"samplers":[{}],"scene":0,"scenes":[{"name":"Root Scene","nodes":[0,1]}],"textures":[{"name":"MI_Brick_Wall_02b","sampler":0,"source":0},{"name":"MI_Brick_Wall_02b","sampler":0,"source":1},{"name":"MI_Brick_Wall_02a","sampler":0,"source":2},{"name":"MI_Brick_Wall_02a","sampler":0,"source":3}]}