{"accessors":[{"bufferView":0,"byteOffset":0,"componentType":5126,"count":1,"max":[0],"min":[0],"type":"SCALAR"},{"bufferView":1,"byteOffset":0,"componentType":5123,"count":1404,"type":"SCALAR"},{"bufferView":2,"byteOffset":0,"componentType":5126,"count":304,"max":[0.256750792264938,0.60627281665802,0.260711580514908],"min":[-0.25675079226494,0.00215370045043528,-0.26071158051491],"type":"VEC3"},{"bufferView":3,"byteOffset":0,"componentType":5126,"count":304,"type":"VEC3"},{"bufferView":4,"byteOffset":0,"componentType":5126,"count":304,"type":"VEC4"},{"bufferView":5,"byteOffset":0,"componentType":5126,"count":304,"type":"VEC2"},{"bufferView":6,"byteOffset":0,"componentType":5123,"count":702,"type":"SCALAR"},{"bufferView":7,"byteOffset":0,"componentType":5126,"count":173,"max":[0.256750792264938,0.609575569629669,0.264867335557938],"min":[-0.27207604050636,0.00179474567994475,-0.26503628492355],"type":"VEC3"},{"bufferView":8,"byteOffset":0,"componentType":5126,"count":173,"type":"VEC3"},{"bufferView":9,"byteOffset":0,"componentType":5126,"count":173,"type":"VEC4"},{"bufferView":10,"byteOffset":0,"componentType":5126,"count":173,"type":"VEC2"},{"bufferView":11,"byteOffset":0,"componentType":5123,"count":348,"type":"SCALAR"},{"bufferView":12,"byteOffset":0,"componentType":5126,"count":94,"max":[0.26585528254509,0.60651820898056,0.294517278671265],"min":[-0.28500691056251,-0.0151493512094,-0.29908096790314],"type":"VEC3"},{"bufferView":13,"byteOffset":0,"componentType":5126,"count":94,"type":"VEC3"},{"bufferView":14,"byteOffset":0,"componentType":5126,"count":94,"type":"VEC4"},{"bufferView":15,"byteOffset":0,"componentType":5126,"count":94,"type":"VEC2"},{"bufferView":16,"byteOffset":0,"componentType":5123,"count":174,"type":"SCALAR"},{"bufferView":17,"byteOffset":0,"componentType":5126,"count":57,"max":[0.26585528254509,0.606805801391602,0.320326745510101],"min":[-0.29395568370819,-0.04063492640853,-0.33121764659882],"type":"VEC3"},{"bufferView":18,"byteOffset":0,"componentType":5126,"count":57,"type":"VEC3"},{"bufferView":19,"byteOffset":0,"componentType":5126,"count":57,"type":"VEC4"},{"bufferView":20,"byteOffset":0,"componentType":5126,"count":57,"type":"VEC2"}],"animations":[{"channels":[],"name":"Unreal Take","samplers":[]}],"asset":{"generator":"FBX2glTF v0.13.0","version":"2.0"},"bufferViews":[{"buffer":0,"byteLength":4,"byteOffset":0},{"buffer":0,"byteLength":2808,"byteOffset":4,"target":34963},{"buffer":0,"byteLength":3648,"byteOffset":2812,"target":34962},{"buffer":0,"byteLength":3648,"byteOffset":6460,"target":34962},{"buffer":0,"byteLength":4864,"byteOffset":10108,"target":34962},{"buffer":0,"byteLength":2432,"byteOffset":14972,"target":34962},{"buffer":0,"byteLength":1404,"byteOffset":17404,"target":34963},{"buffer":0,"byteLength":2076,"byteOffset":18808,"target":34962},{"buffer":0,"byteLength":2076,"byteOffset":20884,"target":34962},{"buffer":0,"byteLength":2768,"byteOffset":22960,"target":34962},{"buffer":0,"byteLength":1384,"byteOffset":25728,"target":34962},{"buffer":0,"byteLength":696,"byteOffset":27112,"target":34963},{"buffer":0,"byteLength":1128,"byteOffset":27808,"target":34962},{"buffer":0,"byteLength":1128,"byteOffset":28936,"target":34962},{"buffer":0,"byteLength":1504,"byteOffset":30064,"target":34962},{"buffer":0,"byteLength":752,"byteOffset":31568,"target":34962},{"buffer":0,"byteLength":348,"byteOffset":32320,"target":34963},{"buffer":0,"byteLength":684,"byteOffset":32668,"target":34962},{"buffer":0,"byteLength":684,"byteOffset":33352,"target":34962},{"buffer":0,"byteLength":912,"byteOffset":34036,"target":34962},{"buffer":0,"byteLength":456,"byteOffset":34948,"target":34962}],"buffers":[{"byteLength":35404,"uri":"SM_Pot_02.bin"}],"images":[{"name":"T_Pots_N","uri":"../Textures/T_Pots_N.png"},{"name":"T_Pots_BC","uri":"../Textures/T_Pots_BC.png"}],"materials":[{"alphaMode":"OPAQUE","doubleSided":false,"extras":{"fromFBX":{"isTruePBR":false,"shadingModel":"Phong"}},"name":"MI_Pots_01","normalTexture":{"index":0,"texCoord":0},"pbrMetallicRoughness":{"baseColorFactor":[1,1,1,1],"baseColorTexture":{"index":1,"texCoord":0},"metallicFactor":0.400000005960464,"roughnessFactor":0.301511347293854}}],"meshes":[{"name":"SM_Pot_02_LOD0","primitives":[{"attributes":{"NORMAL":3,"POSITION":2,"TANGENT":4,"TEXCOORD_0":5},"indices":1,"material":0,"mode":4}]},{"name":"SM_Pot_02_LOD1","primitives":[{"attributes":{"NORMAL":8,"POSITION":7,"TANGENT":9,"TEXCOORD_0":10},"indices":6,"material":0,"mode":4}]},{"name":"SM_Pot_02_LOD2","primitives":[{"attributes":{"NORMAL":13,"POSITION":12,"TANGENT":14,"TEXCOORD_0":15},"indices":11,"material":0,"mode":4}]},{"name":"SM_Pot_02_LOD3","primitives":[{"attributes":{"NORMAL":18,"POSITION":17,"TANGENT":19,"TEXCOORD_0":20},"indices":16,"material":0,"mode":4}]}],"nodes":[{"children":[1,2,3,4,5],"name":"StaticMeshActor_1355","originalUnits":0.00999999977648258,"pivot":[0,0,0],"rotation":[0,0,0,1],"scale":[1,1,1],"translation":[0,0,0]},{"mesh":0,"name":"SM_Pot_02_LOD0","originalUnits":0.00999999977648258,"pivot":[0,0,0],"rotation":[0,0,0,1],"scale":[1,1,1],"translation":[0,0,0]},{"name":"SM_Pot_02_ConvexHulls","originalUnits":0.00999999977648258,"pivot":[0,0,0],"rotation":[0,0,0,1],"scale":[1,1,1],"translation":[0,0,0]},{"mesh":1,"name":"SM_Pot_02_LOD1","originalUnits":0.00999999977648258,"pivot":[0,0,0],"rotation":[0,0,0,1],"scale":[1,1,1],"translation":[0,0,0]},{"mesh":2,"name":"SM_Pot_02_LOD2","originalUnits":0.00999999977648258,"pivot":[0,0,0],"rotation":[0,0,0,1],"scale":[1,1,1],"translation":[0,0,0]},{"mesh":3,"name":"SM_Pot_02_LOD3","originalUnits":0.00999999977648258,"pivot":[0,0,0],"rotation":[0,0,0,1],"scale":[1,1,1],"translation":[0,0,0]}],"samplers":[{}],"scene":0,"scenes":[{"name":"Root Scene","nodes":[0]}],"textures":[{"name":"MI_Pots_01","sampler":0,"source":0},{"name":"MI_Pots_01","sampler":0,"source":1}]}