{"accessors":[{"bufferView":0,"byteOffset":0,"componentType":5126,"count":1,"max":[0],"min":[0],"type":"SCALAR"},{"bufferView":1,"byteOffset":0,"componentType":5123,"count":16806,"type":"SCALAR"},{"bufferView":2,"byteOffset":0,"componentType":5126,"count":3252,"max":[1.25000023841858,10.5344934463501,1.37268006801605],"min":[-1.25,0.00266362284310162,-1.37268006801605],"type":"VEC3"},{"bufferView":3,"byteOffset":0,"componentType":5126,"count":3252,"type":"VEC3"},{"bufferView":4,"byteOffset":0,"componentType":5126,"count":3252,"type":"VEC4"},{"bufferView":5,"byteOffset":0,"componentType":5126,"count":3252,"type":"VEC2"},{"bufferView":6,"byteOffset":0,"componentType":5126,"count":3252,"type":"VEC2"},{"bufferView":7,"byteOffset":0,"componentType":5123,"count":2712,"type":"SCALAR"},{"bufferView":8,"byteOffset":0,"componentType":5126,"count":500,"max":[0.768929123878479,9.22329998016357,0.877178311347961],"min":[-0.76892912387848,1.86897397041321,-0.87717843055725],"type":"VEC3"},{"bufferView":9,"byteOffset":0,"componentType":5126,"count":500,"type":"VEC3"},{"bufferView":10,"byteOffset":0,"componentType":5126,"count":500,"type":"VEC4"},{"bufferView":11,"byteOffset":0,"componentType":5126,"count":500,"type":"VEC2"},{"bufferView":12,"byteOffset":0,"componentType":5126,"count":500,"type":"VEC2"},{"bufferView":13,"byteOffset":0,"componentType":5123,"count":378,"type":"SCALAR"},{"bufferView":14,"byteOffset":0,"componentType":5126,"count":73,"max":[1.26017463207245,10.5773439407349,1.43500006198883],"min":[-1.31213653087616,-0.00000001497854,-1.4102817773819],"type":"VEC3"},{"bufferView":15,"byteOffset":0,"componentType":5126,"count":73,"type":"VEC3"},{"bufferView":16,"byteOffset":0,"componentType":5126,"count":73,"type":"VEC4"},{"bufferView":17,"byteOffset":0,"componentType":5126,"count":73,"type":"VEC2"},{"bufferView":18,"byteOffset":0,"componentType":5126,"count":73,"type":"VEC2"}],"animations":[{"channels":[],"name":"Unreal Take","samplers":[]}],"asset":{"generator":"FBX2glTF v0.13.0","version":"2.0"},"bufferViews":[{"buffer":0,"byteLength":4,"byteOffset":0},{"buffer":0,"byteLength":33612,"byteOffset":4,"target":34963},{"buffer":0,"byteLength":39024,"byteOffset":33616,"target":34962},{"buffer":0,"byteLength":39024,"byteOffset":72640,"target":34962},{"buffer":0,"byteLength":52032,"byteOffset":111664,"target":34962},{"buffer":0,"byteLength":26016,"byteOffset":163696,"target":34962},{"buffer":0,"byteLength":26016,"byteOffset":189712,"target":34962},{"buffer":0,"byteLength":5424,"byteOffset":215728,"target":34963},{"buffer":0,"byteLength":6000,"byteOffset":221152,"target":34962},{"buffer":0,"byteLength":6000,"byteOffset":227152,"target":34962},{"buffer":0,"byteLength":8000,"byteOffset":233152,"target":34962},{"buffer":0,"byteLength":4000,"byteOffset":241152,"target":34962},{"buffer":0,"byteLength":4000,"byteOffset":245152,"target":34962},{"buffer":0,"byteLength":756,"byteOffset":249152,"target":34963},{"buffer":0,"byteLength":876,"byteOffset":249908,"target":34962},{"buffer":0,"byteLength":876,"byteOffset":250784,"target":34962},{"buffer":0,"byteLength":1168,"byteOffset":251660,"target":34962},{"buffer":0,"byteLength":584,"byteOffset":252828,"target":34962},{"buffer":0,"byteLength":584,"byteOffset":253412,"target":34962}],"buffers":[{"byteLength":253996,"uri":"SM_Pillar_03a.bin"}],"images":[{"name":"T_Brick_Wall_02a_N","uri":"../Textures/T_Brick_Wall_02a_N.png"},{"name":"T_Brick_Wall_02a_BC","uri":"../Textures/T_Brick_Wall_02a_BC.png"},{"name":"T_Brick_Wall_02b_N","uri":"../Textures/T_Brick_Wall_02b_N.png"},{"name":"T_Brick_Wall_02b_BC","uri":"../Textures/T_Brick_Wall_02b_BC.png"}],"materials":[{"alphaMode":"OPAQUE","doubleSided":false,"extras":{"fromFBX":{"isTruePBR":false,"shadingModel":"Phong"}},"name":"MI_Brick_Wall_02a","normalTexture":{"index":0,"texCoord":0},"pbrMetallicRoughness":{"baseColorFactor":[1,1,1,1],"baseColorTexture":{"index":1,"texCoord":0},"metallicFactor":0.400000005960464,"roughnessFactor":0.301511347293854}},{"alphaMode":"OPAQUE","doubleSided":false,"extras":{"fromFBX":{"isTruePBR":false,"shadingModel":"Phong"}},"name":"MI_Brick_Wall_02b","normalTexture":{"index":2,"texCoord":0},"pbrMetallicRoughness":{"baseColorFactor":[1,1,1,1],"baseColorTexture":{"index":3,"texCoord":0},"metallicFactor":0.400000005960464,"roughnessFactor":0.301511347293854}},{"alphaMode":"OPAQUE","doubleSided":false,"extras":{"fromFBX":{"isTruePBR":false,"shadingModel":"Lambert"}},"name":"DefaultMaterial","pbrMetallicRoughness":{"baseColorFactor":[0.5,0.5,0.5,1],"metallicFactor":0.200000002980232,"roughnessFactor":0.800000011920929}}],"meshes":[{"name":"SM_Pillar_03a","primitives":[{"attributes":{"NORMAL":3,"POSITION":2,"TANGENT":4,"TEXCOORD_0":5,"TEXCOORD_1":6},"indices":1,"material":0,"mode":4},{"attributes":{"NORMAL":9,"POSITION":8,"TANGENT":10,"TEXCOORD_0":11,"TEXCOORD_1":12},"indices":7,"material":1,"mode":4}]},{"name":"SM_Pillar_03a_ConvexHulls","primitives":[{"attributes":{"NORMAL":15,"POSITION":14,"TANGENT":16,"TEXCOORD_0":17,"TEXCOORD_1":18},"indices":13,"material":2,"mode":4}]}],"nodes":[{"mesh":0,"name":"SM_Pillar_03a","originalUnits":0.00999999977648258,"pivot":[0,0,0],"rotation":[0,0,0,1],"scale":[1,1,1],"translation":[0,0,0]},{"mesh":1,"name":"SM_Pillar_03a_ConvexHulls","originalUnits":0.00999999977648258,"pivot":[0,0,0],"rotation":[0,0,0,1],"scale":[1,1,1],"translation":[0,0,0]}],"samplers":[{}],"scene":0,"scenes":[{"name":"Root Scene","nodes":[0,1]}],"textures":[{"name":"MI_Brick_Wall_02a","sampler":0,"source":0},{"name":"MI_Brick_Wall_02a","sampler":0,"source":1},{"name":"MI_Brick_Wall_02b","sampler":0,"source":2},{"name":"MI_Brick_Wall_02b","sampler":0,"source":3}]}