{"accessors":[{"bufferView":0,"byteOffset":0,"componentType":5126,"count":1,"max":[0],"min":[0],"type":"SCALAR"},{"bufferView":1,"byteOffset":0,"componentType":5123,"count":1482,"type":"SCALAR"},{"bufferView":2,"byteOffset":0,"componentType":5126,"count":341,"max":[0.160495102405548,0.466849595308304,0.159526973962784],"min":[-0.16049510240555,0.00153583602514118,-0.15953582525253],"type":"VEC3"},{"bufferView":3,"byteOffset":0,"componentType":5126,"count":341,"type":"VEC3"},{"bufferView":4,"byteOffset":0,"componentType":5126,"count":341,"type":"VEC4"},{"bufferView":5,"byteOffset":0,"componentType":5126,"count":341,"type":"VEC2"},{"bufferView":6,"byteOffset":0,"componentType":5123,"count":738,"type":"SCALAR"},{"bufferView":7,"byteOffset":0,"componentType":5126,"count":192,"max":[0.166538506746292,0.466849595308304,0.162000045180321],"min":[-0.16098400950432,0.00153583602514118,-0.15878908336163],"type":"VEC3"},{"bufferView":8,"byteOffset":0,"componentType":5126,"count":192,"type":"VEC3"},{"bufferView":9,"byteOffset":0,"componentType":5126,"count":192,"type":"VEC4"},{"bufferView":10,"byteOffset":0,"componentType":5126,"count":192,"type":"VEC2"},{"bufferView":11,"byteOffset":0,"componentType":5123,"count":372,"type":"SCALAR"},{"bufferView":12,"byteOffset":0,"componentType":5126,"count":114,"max":[0.171612560749054,0.465126782655716,0.174466907978058],"min":[-0.16148890554905,0.00205178558826447,-0.15757335722446],"type":"VEC3"},{"bufferView":13,"byteOffset":0,"componentType":5126,"count":114,"type":"VEC3"},{"bufferView":14,"byteOffset":0,"componentType":5126,"count":114,"type":"VEC4"},{"bufferView":15,"byteOffset":0,"componentType":5126,"count":114,"type":"VEC2"},{"bufferView":16,"byteOffset":0,"componentType":5123,"count":186,"type":"SCALAR"},{"bufferView":17,"byteOffset":0,"componentType":5126,"count":68,"max":[0.173170849680901,0.458760261535645,0.174466907978058],"min":[-0.16158874332905,0.00205178558826447,-0.16140535473824],"type":"VEC3"},{"bufferView":18,"byteOffset":0,"componentType":5126,"count":68,"type":"VEC3"},{"bufferView":19,"byteOffset":0,"componentType":5126,"count":68,"type":"VEC4"},{"bufferView":20,"byteOffset":0,"componentType":5126,"count":68,"type":"VEC2"}],"animations":[{"channels":[],"name":"Unreal Take","samplers":[]}],"asset":{"generator":"FBX2glTF v0.13.0","version":"2.0"},"bufferViews":[{"buffer":0,"byteLength":4,"byteOffset":0},{"buffer":0,"byteLength":2964,"byteOffset":4,"target":34963},{"buffer":0,"byteLength":4092,"byteOffset":2968,"target":34962},{"buffer":0,"byteLength":4092,"byteOffset":7060,"target":34962},{"buffer":0,"byteLength":5456,"byteOffset":11152,"target":34962},{"buffer":0,"byteLength":2728,"byteOffset":16608,"target":34962},{"buffer":0,"byteLength":1476,"byteOffset":19336,"target":34963},{"buffer":0,"byteLength":2304,"byteOffset":20812,"target":34962},{"buffer":0,"byteLength":2304,"byteOffset":23116,"target":34962},{"buffer":0,"byteLength":3072,"byteOffset":25420,"target":34962},{"buffer":0,"byteLength":1536,"byteOffset":28492,"target":34962},{"buffer":0,"byteLength":744,"byteOffset":30028,"target":34963},{"buffer":0,"byteLength":1368,"byteOffset":30772,"target":34962},{"buffer":0,"byteLength":1368,"byteOffset":32140,"target":34962},{"buffer":0,"byteLength":1824,"byteOffset":33508,"target":34962},{"buffer":0,"byteLength":912,"byteOffset":35332,"target":34962},{"buffer":0,"byteLength":372,"byteOffset":36244,"target":34963},{"buffer":0,"byteLength":816,"byteOffset":36616,"target":34962},{"buffer":0,"byteLength":816,"byteOffset":37432,"target":34962},{"buffer":0,"byteLength":1088,"byteOffset":38248,"target":34962},{"buffer":0,"byteLength":544,"byteOffset":39336,"target":34962}],"buffers":[{"byteLength":39880,"uri":"SM_Pot_05.bin"}],"images":[{"name":"T_Pots_N","uri":"../Textures/T_Pots_N.png"},{"name":"T_Pots_BC","uri":"../Textures/T_Pots_BC.png"}],"materials":[{"alphaMode":"OPAQUE","doubleSided":false,"extras":{"fromFBX":{"isTruePBR":false,"shadingModel":"Phong"}},"name":"MI_Pots_01","normalTexture":{"index":0,"texCoord":0},"pbrMetallicRoughness":{"baseColorFactor":[1,1,1,1],"baseColorTexture":{"index":1,"texCoord":0},"metallicFactor":0.400000005960464,"roughnessFactor":0.301511347293854}}],"meshes":[{"name":"SM_Pot_05_LOD0","primitives":[{"attributes":{"NORMAL":3,"POSITION":2,"TANGENT":4,"TEXCOORD_0":5},"indices":1,"material":0,"mode":4}]},{"name":"SM_Pot_05_LOD1","primitives":[{"attributes":{"NORMAL":8,"POSITION":7,"TANGENT":9,"TEXCOORD_0":10},"indices":6,"material":0,"mode":4}]},{"name":"SM_Pot_05_LOD2","primitives":[{"attributes":{"NORMAL":13,"POSITION":12,"TANGENT":14,"TEXCOORD_0":15},"indices":11,"material":0,"mode":4}]},{"name":"SM_Pot_05_LOD3","primitives":[{"attributes":{"NORMAL":18,"POSITION":17,"TANGENT":19,"TEXCOORD_0":20},"indices":16,"material":0,"mode":4}]}],"nodes":[{"children":[1,2,3,4,5],"name":"StaticMeshActor_1402","originalUnits":0.00999999977648258,"pivot":[0,0,0],"rotation":[0,0,0,1],"scale":[1,1,1],"translation":[0,0,0]},{"mesh":0,"name":"SM_Pot_05_LOD0","originalUnits":0.00999999977648258,"pivot":[0,0,0],"rotation":[0,0,0,1],"scale":[1,1,1],"translation":[0,0,0]},{"name":"SM_Pot_05_ConvexHulls","originalUnits":0.00999999977648258,"pivot":[0,0,0],"rotation":[0,0,0,1],"scale":[1,1,1],"translation":[0,0,0]},{"mesh":1,"name":"SM_Pot_05_LOD1","originalUnits":0.00999999977648258,"pivot":[0,0,0],"rotation":[0,0,0,1],"scale":[1,1,1],"translation":[0,0,0]},{"mesh":2,"name":"SM_Pot_05_LOD2","originalUnits":0.00999999977648258,"pivot":[0,0,0],"rotation":[0,0,0,1],"scale":[1,1,1],"translation":[0,0,0]},{"mesh":3,"name":"SM_Pot_05_LOD3","originalUnits":0.00999999977648258,"pivot":[0,0,0],"rotation":[0,0,0,1],"scale":[1,1,1],"translation":[0,0,0]}],"samplers":[{}],"scene":0,"scenes":[{"name":"Root Scene","nodes":[0]}],"textures":[{"name":"MI_Pots_01","sampler":0,"source":0},{"name":"MI_Pots_01","sampler":0,"source":1}]}