{"accessors":[{"bufferView":0,"byteOffset":0,"componentType":5126,"count":1,"max":[0],"min":[0],"type":"SCALAR"},{"bufferView":1,"byteOffset":0,"componentType":5123,"count":1548,"type":"SCALAR"},{"bufferView":2,"byteOffset":0,"componentType":5126,"count":378,"max":[1.99996888637543,1.09399437904358,7.00000190734863],"min":[-0.07334966212511,-0.03073501586914,0.00000274689114121429],"type":"VEC3"},{"bufferView":3,"byteOffset":0,"componentType":5126,"count":378,"type":"VEC3"},{"bufferView":4,"byteOffset":0,"componentType":5126,"count":378,"type":"VEC4"},{"bufferView":5,"byteOffset":0,"componentType":5126,"count":378,"type":"VEC2"},{"bufferView":6,"byteOffset":0,"componentType":5126,"count":378,"type":"VEC2"},{"bufferView":7,"byteOffset":0,"componentType":5123,"count":48,"type":"SCALAR"},{"bufferView":8,"byteOffset":0,"componentType":5126,"count":10,"max":[2.00171804428101,1.09354150295258,7.03201723098755],"min":[-0.45268133282661,-0.00000002435683,-0.01703674905002],"type":"VEC3"},{"bufferView":9,"byteOffset":0,"componentType":5126,"count":10,"type":"VEC3"},{"bufferView":10,"byteOffset":0,"componentType":5126,"count":10,"type":"VEC4"},{"bufferView":11,"byteOffset":0,"componentType":5126,"count":10,"type":"VEC2"},{"bufferView":12,"byteOffset":0,"componentType":5126,"count":10,"type":"VEC2"}],"animations":[{"channels":[],"name":"Unreal Take","samplers":[]}],"asset":{"generator":"FBX2glTF v0.13.0","version":"2.0"},"bufferViews":[{"buffer":0,"byteLength":4,"byteOffset":0},{"buffer":0,"byteLength":3096,"byteOffset":4,"target":34963},{"buffer":0,"byteLength":4536,"byteOffset":3100,"target":34962},{"buffer":0,"byteLength":4536,"byteOffset":7636,"target":34962},{"buffer":0,"byteLength":6048,"byteOffset":12172,"target":34962},{"buffer":0,"byteLength":3024,"byteOffset":18220,"target":34962},{"buffer":0,"byteLength":3024,"byteOffset":21244,"target":34962},{"buffer":0,"byteLength":96,"byteOffset":24268,"target":34963},{"buffer":0,"byteLength":120,"byteOffset":24364,"target":34962},{"buffer":0,"byteLength":120,"byteOffset":24484,"target":34962},{"buffer":0,"byteLength":160,"byteOffset":24604,"target":34962},{"buffer":0,"byteLength":80,"byteOffset":24764,"target":34962},{"buffer":0,"byteLength":80,"byteOffset":24844,"target":34962}],"buffers":[{"byteLength":24924,"uri":"SM_Staircase_01a.bin"}],"images":[{"name":"T_Brick_Wall_02b_N","uri":"../Textures/T_Brick_Wall_02b_N.png"},{"name":"T_Brick_Wall_02b_BC","uri":"../Textures/T_Brick_Wall_02b_BC.png"}],"materials":[{"alphaMode":"OPAQUE","doubleSided":false,"extras":{"fromFBX":{"isTruePBR":false,"shadingModel":"Phong"}},"name":"MI_Brick_Wall_02b","normalTexture":{"index":0,"texCoord":0},"pbrMetallicRoughness":{"baseColorFactor":[1,1,1,1],"baseColorTexture":{"index":1,"texCoord":0},"metallicFactor":0.400000005960464,"roughnessFactor":0.301511347293854}},{"alphaMode":"OPAQUE","doubleSided":false,"extras":{"fromFBX":{"isTruePBR":false,"shadingModel":"Lambert"}},"name":"DefaultMaterial","pbrMetallicRoughness":{"baseColorFactor":[0.5,0.5,0.5,1],"metallicFactor":0.200000002980232,"roughnessFactor":0.800000011920929}}],"meshes":[{"name":"SM_Staircase_01a","primitives":[{"attributes":{"NORMAL":3,"POSITION":2,"TANGENT":4,"TEXCOORD_0":5,"TEXCOORD_1":6},"indices":1,"material":0,"mode":4}]},{"name":"SM_Staircase_01a_ConvexHulls","primitives":[{"attributes":{"NORMAL":9,"POSITION":8,"TANGENT":10,"TEXCOORD_0":11,"TEXCOORD_1":12},"indices":7,"material":1,"mode":4}]}],"nodes":[{"mesh":0,"name":"SM_Staircase_01a","originalUnits":0.00999999977648258,"pivot":[0,0,0],"rotation":[0,0,0,1],"scale":[1,1,1],"translation":[0,0,0]},{"mesh":1,"name":"SM_Staircase_01a_ConvexHulls","originalUnits":0.00999999977648258,"pivot":[0,0,0],"rotation":[0,0,0,1],"scale":[1,1,1],"translation":[0,0,0]}],"samplers":[{}],"scene":0,"scenes":[{"name":"Root Scene","nodes":[0,1]}],"textures":[{"name":"MI_Brick_Wall_02b","sampler":0,"source":0},{"name":"MI_Brick_Wall_02b","sampler":0,"source":1}]}