{"accessors":[{"bufferView":0,"byteOffset":0,"componentType":5126,"count":1,"max":[0],"min":[0],"type":"SCALAR"},{"bufferView":1,"byteOffset":0,"componentType":5123,"count":3414,"type":"SCALAR"},{"bufferView":2,"byteOffset":0,"componentType":5126,"count":621,"max":[0.012835887260735,0.922431230545044,0.284646511077881],"min":[-1.01194941997528,-0.96314662694931,-0.28490284085274],"type":"VEC3"},{"bufferView":3,"byteOffset":0,"componentType":5126,"count":621,"type":"VEC3"},{"bufferView":4,"byteOffset":0,"componentType":5126,"count":621,"type":"VEC4"},{"bufferView":5,"byteOffset":0,"componentType":5126,"count":621,"type":"VEC2"},{"bufferView":6,"byteOffset":0,"componentType":5126,"count":621,"type":"VEC2"},{"bufferView":7,"byteOffset":0,"componentType":5123,"count":1704,"type":"SCALAR"},{"bufferView":8,"byteOffset":0,"componentType":5126,"count":334,"max":[0.012835887260735,0.92527186870575,0.285394936800003],"min":[-1.01808178424835,-0.96314662694931,-0.2849714756012],"type":"VEC3"},{"bufferView":9,"byteOffset":0,"componentType":5126,"count":334,"type":"VEC3"},{"bufferView":10,"byteOffset":0,"componentType":5126,"count":334,"type":"VEC4"},{"bufferView":11,"byteOffset":0,"componentType":5126,"count":334,"type":"VEC2"},{"bufferView":12,"byteOffset":0,"componentType":5126,"count":334,"type":"VEC2"},{"bufferView":13,"byteOffset":0,"componentType":5123,"count":852,"type":"SCALAR"},{"bufferView":14,"byteOffset":0,"componentType":5126,"count":186,"max":[0.0182472988963127,0.92821329832077,0.284080296754837],"min":[-1.00913989543915,-0.96599578857422,-0.2887958586216],"type":"VEC3"},{"bufferView":15,"byteOffset":0,"componentType":5126,"count":186,"type":"VEC3"},{"bufferView":16,"byteOffset":0,"componentType":5126,"count":186,"type":"VEC4"},{"bufferView":17,"byteOffset":0,"componentType":5126,"count":186,"type":"VEC2"},{"bufferView":18,"byteOffset":0,"componentType":5126,"count":186,"type":"VEC2"},{"bufferView":19,"byteOffset":0,"componentType":5123,"count":426,"type":"SCALAR"},{"bufferView":20,"byteOffset":0,"componentType":5126,"count":116,"max":[0.0184672176837921,0.92821329832077,0.284080296754837],"min":[-0.97915929555893,-0.97504633665085,-0.28682422637939],"type":"VEC3"},{"bufferView":21,"byteOffset":0,"componentType":5126,"count":116,"type":"VEC3"},{"bufferView":22,"byteOffset":0,"componentType":5126,"count":116,"type":"VEC4"},{"bufferView":23,"byteOffset":0,"componentType":5126,"count":116,"type":"VEC2"},{"bufferView":24,"byteOffset":0,"componentType":5126,"count":116,"type":"VEC2"},{"bufferView":25,"byteOffset":0,"componentType":5123,"count":48,"type":"SCALAR"},{"bufferView":26,"byteOffset":0,"componentType":5126,"count":10,"max":[0.0478632487356663,0.974310278892517,0.311194956302643],"min":[-1.0243034362793,-0.99118483066559,-0.31423565745354],"type":"VEC3"},{"bufferView":27,"byteOffset":0,"componentType":5126,"count":10,"type":"VEC3"},{"bufferView":28,"byteOffset":0,"componentType":5126,"count":10,"type":"VEC4"},{"bufferView":29,"byteOffset":0,"componentType":5126,"count":10,"type":"VEC2"},{"bufferView":30,"byteOffset":0,"componentType":5126,"count":10,"type":"VEC2"}],"animations":[{"channels":[],"name":"Unreal Take","samplers":[]}],"asset":{"generator":"FBX2glTF v0.13.0","version":"2.0"},"bufferViews":[{"buffer":0,"byteLength":4,"byteOffset":0},{"buffer":0,"byteLength":6828,"byteOffset":4,"target":34963},{"buffer":0,"byteLength":7452,"byteOffset":6832,"target":34962},{"buffer":0,"byteLength":7452,"byteOffset":14284,"target":34962},{"buffer":0,"byteLength":9936,"byteOffset":21736,"target":34962},{"buffer":0,"byteLength":4968,"byteOffset":31672,"target":34962},{"buffer":0,"byteLength":4968,"byteOffset":36640,"target":34962},{"buffer":0,"byteLength":3408,"byteOffset":41608,"target":34963},{"buffer":0,"byteLength":4008,"byteOffset":45016,"target":34962},{"buffer":0,"byteLength":4008,"byteOffset":49024,"target":34962},{"buffer":0,"byteLength":5344,"byteOffset":53032,"target":34962},{"buffer":0,"byteLength":2672,"byteOffset":58376,"target":34962},{"buffer":0,"byteLength":2672,"byteOffset":61048,"target":34962},{"buffer":0,"byteLength":1704,"byteOffset":63720,"target":34963},{"buffer":0,"byteLength":2232,"byteOffset":65424,"target":34962},{"buffer":0,"byteLength":2232,"byteOffset":67656,"target":34962},{"buffer":0,"byteLength":2976,"byteOffset":69888,"target":34962},{"buffer":0,"byteLength":1488,"byteOffset":72864,"target":34962},{"buffer":0,"byteLength":1488,"byteOffset":74352,"target":34962},{"buffer":0,"byteLength":852,"byteOffset":75840,"target":34963},{"buffer":0,"byteLength":1392,"byteOffset":76692,"target":34962},{"buffer":0,"byteLength":1392,"byteOffset":78084,"target":34962},{"buffer":0,"byteLength":1856,"byteOffset":79476,"target":34962},{"buffer":0,"byteLength":928,"byteOffset":81332,"target":34962},{"buffer":0,"byteLength":928,"byteOffset":82260,"target":34962},{"buffer":0,"byteLength":96,"byteOffset":83188,"target":34963},{"buffer":0,"byteLength":120,"byteOffset":83284,"target":34962},{"buffer":0,"byteLength":120,"byteOffset":83404,"target":34962},{"buffer":0,"byteLength":160,"byteOffset":83524,"target":34962},{"buffer":0,"byteLength":80,"byteOffset":83684,"target":34962},{"buffer":0,"byteLength":80,"byteOffset":83764,"target":34962}],"buffers":[{"byteLength":83844,"uri":"SM_Statue_Wall_01a.bin"}],"images":[{"name":"T_Statue_Wall_N","uri":"../Textures/T_Statue_Wall_N.png"},{"name":"T_Statue_Wall_BC","uri":"../Textures/T_Statue_Wall_BC.png"}],"materials":[{"alphaMode":"OPAQUE","doubleSided":false,"extras":{"fromFBX":{"isTruePBR":false,"shadingModel":"Phong"}},"name":"MI_Statue_Wall_01","normalTexture":{"index":0,"texCoord":0},"pbrMetallicRoughness":{"baseColorFactor":[1,1,1,1],"baseColorTexture":{"index":1,"texCoord":0},"metallicFactor":0.400000005960464,"roughnessFactor":0.301511347293854}},{"alphaMode":"OPAQUE","doubleSided":false,"extras":{"fromFBX":{"isTruePBR":false,"shadingModel":"Lambert"}},"name":"DefaultMaterial","pbrMetallicRoughness":{"baseColorFactor":[0.5,0.5,0.5,1],"metallicFactor":0.200000002980232,"roughnessFactor":0.800000011920929}}],"meshes":[{"name":"SM_Statue_Wall_01a_LOD0","primitives":[{"attributes":{"NORMAL":3,"POSITION":2,"TANGENT":4,"TEXCOORD_0":5,"TEXCOORD_1":6},"indices":1,"material":0,"mode":4}]},{"name":"SM_Statue_Wall_01a_LOD1","primitives":[{"attributes":{"NORMAL":9,"POSITION":8,"TANGENT":10,"TEXCOORD_0":11,"TEXCOORD_1":12},"indices":7,"material":0,"mode":4}]},{"name":"SM_Statue_Wall_01a_LOD2","primitives":[{"attributes":{"NORMAL":15,"POSITION":14,"TANGENT":16,"TEXCOORD_0":17,"TEXCOORD_1":18},"indices":13,"material":0,"mode":4}]},{"name":"SM_Statue_Wall_01a_LOD3","primitives":[{"attributes":{"NORMAL":21,"POSITION":20,"TANGENT":22,"TEXCOORD_0":23,"TEXCOORD_1":24},"indices":19,"material":0,"mode":4}]},{"name":"SM_Statue_Wall_01a_ConvexHulls","primitives":[{"attributes":{"NORMAL":27,"POSITION":26,"TANGENT":28,"TEXCOORD_0":29,"TEXCOORD_1":30},"indices":25,"material":1,"mode":4}]}],"nodes":[{"children":[1,2,3,4,5],"name":"StaticMeshActor_649","originalUnits":0.00999999977648258,"pivot":[0,0,0],"rotation":[0,0,0,1],"scale":[1,1,1],"translation":[0,0,0]},{"mesh":0,"name":"SM_Statue_Wall_01a_LOD0","originalUnits":0.00999999977648258,"pivot":[0,0,0],"rotation":[0,0,0,1],"scale":[1,1,1],"translation":[0,0,0]},{"mesh":4,"name":"SM_Statue_Wall_01a_ConvexHulls","originalUnits":0.00999999977648258,"pivot":[0,0,0],"rotation":[0,0,0,1],"scale":[1,1,1],"translation":[0,0,0]},{"mesh":1,"name":"SM_Statue_Wall_01a_LOD1","originalUnits":0.00999999977648258,"pivot":[0,0,0],"rotation":[0,0,0,1],"scale":[1,1,1],"translation":[0,0,0]},{"mesh":2,"name":"SM_Statue_Wall_01a_LOD2","originalUnits":0.00999999977648258,"pivot":[0,0,0],"rotation":[0,0,0,1],"scale":[1,1,1],"translation":[0,0,0]},{"mesh":3,"name":"SM_Statue_Wall_01a_LOD3","originalUnits":0.00999999977648258,"pivot":[0,0,0],"rotation":[0,0,0,1],"scale":[1,1,1],"translation":[0,0,0]}],"samplers":[{}],"scene":0,"scenes":[{"name":"Root Scene","nodes":[0]}],"textures":[{"name":"MI_Statue_Wall_01","sampler":0,"source":0},{"name":"MI_Statue_Wall_01","sampler":0,"source":1}]}