{"accessors":[{"bufferView":0,"byteOffset":0,"componentType":5126,"count":1,"max":[0],"min":[0],"type":"SCALAR"},{"bufferView":1,"byteOffset":0,"componentType":5123,"count":5166,"type":"SCALAR"},{"bufferView":2,"byteOffset":0,"componentType":5126,"count":1412,"max":[0.342711478471756,0.843213856220245,0.54923689365387],"min":[-0.34271147847176,0.00011340920900693,-0.54923689365387],"type":"VEC3"},{"bufferView":3,"byteOffset":0,"componentType":5126,"count":1412,"type":"VEC3"},{"bufferView":4,"byteOffset":0,"componentType":5126,"count":1412,"type":"VEC4"},{"bufferView":5,"byteOffset":0,"componentType":5126,"count":1412,"type":"VEC2"},{"bufferView":6,"byteOffset":0,"componentType":5126,"count":1412,"type":"VEC2"},{"bufferView":7,"byteOffset":0,"componentType":5123,"count":186,"type":"SCALAR"},{"bufferView":8,"byteOffset":0,"componentType":5126,"count":88,"max":[0.301529556512833,0.798738181591034,0.511629223823547],"min":[-0.30553084611893,0.0608452558517456,-0.51038491725922],"type":"VEC3"},{"bufferView":9,"byteOffset":0,"componentType":5126,"count":88,"type":"VEC3"},{"bufferView":10,"byteOffset":0,"componentType":5126,"count":88,"type":"VEC4"},{"bufferView":11,"byteOffset":0,"componentType":5126,"count":88,"type":"VEC2"},{"bufferView":12,"byteOffset":0,"componentType":5126,"count":88,"type":"VEC2"}],"animations":[{"channels":[],"name":"Unreal Take","samplers":[]}],"asset":{"generator":"FBX2glTF v0.13.0","version":"2.0"},"bufferViews":[{"buffer":0,"byteLength":4,"byteOffset":0},{"buffer":0,"byteLength":10332,"byteOffset":4,"target":34963},{"buffer":0,"byteLength":16944,"byteOffset":10336,"target":34962},{"buffer":0,"byteLength":16944,"byteOffset":27280,"target":34962},{"buffer":0,"byteLength":22592,"byteOffset":44224,"target":34962},{"buffer":0,"byteLength":11296,"byteOffset":66816,"target":34962},{"buffer":0,"byteLength":11296,"byteOffset":78112,"target":34962},{"buffer":0,"byteLength":372,"byteOffset":89408,"target":34963},{"buffer":0,"byteLength":1056,"byteOffset":89780,"target":34962},{"buffer":0,"byteLength":1056,"byteOffset":90836,"target":34962},{"buffer":0,"byteLength":1408,"byteOffset":91892,"target":34962},{"buffer":0,"byteLength":704,"byteOffset":93300,"target":34962},{"buffer":0,"byteLength":704,"byteOffset":94004,"target":34962}],"buffers":[{"byteLength":94708,"uri":"SM_Treasure_Chest_01a.bin"}],"images":[{"name":"T_Iron_Hammered_N","uri":"../Textures/T_Iron_Hammered_N.png"},{"name":"T_Iron_Hammered_BC","uri":"../Textures/T_Iron_Hammered_BC.png"},{"name":"T_Wood_Planks_01_N","uri":"../Textures/T_Wood_Planks_01_N.png"},{"name":"T_Wood_Planks_01_BC","uri":"../Textures/T_Wood_Planks_01_BC.png"}],"materials":[{"alphaMode":"OPAQUE","doubleSided":false,"extras":{"fromFBX":{"isTruePBR":false,"shadingModel":"Phong"}},"name":"MI_Hammered_Iron_01","normalTexture":{"index":0,"texCoord":0},"pbrMetallicRoughness":{"baseColorFactor":[1,1,1,1],"baseColorTexture":{"index":1,"texCoord":0},"metallicFactor":0.400000005960464,"roughnessFactor":0.301511347293854}},{"alphaMode":"OPAQUE","doubleSided":false,"extras":{"fromFBX":{"isTruePBR":false,"shadingModel":"Phong"}},"name":"MI_Wood_Planks_01","normalTexture":{"index":2,"texCoord":0},"pbrMetallicRoughness":{"baseColorFactor":[1,1,1,1],"baseColorTexture":{"index":3,"texCoord":0},"metallicFactor":0.400000005960464,"roughnessFactor":0.301511347293854}}],"meshes":[{"name":"SM_Treasure_Chest_01a","primitives":[{"attributes":{"NORMAL":3,"POSITION":2,"TANGENT":4,"TEXCOORD_0":5,"TEXCOORD_1":6},"indices":1,"material":0,"mode":4},{"attributes":{"NORMAL":9,"POSITION":8,"TANGENT":10,"TEXCOORD_0":11,"TEXCOORD_1":12},"indices":7,"material":1,"mode":4}]}],"nodes":[{"mesh":0,"name":"SM_Treasure_Chest_01a","originalUnits":0.00999999977648258,"pivot":[0,0,0],"rotation":[0,0,0,1],"scale":[1,1,1],"translation":[0,0,0]},{"name":"SM_Treasure_Chest_01a_ConvexHulls","originalUnits":0.00999999977648258,"pivot":[0,0,0],"rotation":[0,0,0,1],"scale":[1,1,1],"translation":[0,0,0]}],"samplers":[{}],"scene":0,"scenes":[{"name":"Root Scene","nodes":[0,1]}],"textures":[{"name":"MI_Hammered_Iron_01","sampler":0,"source":0},{"name":"MI_Hammered_Iron_01","sampler":0,"source":1},{"name":"MI_Wood_Planks_01","sampler":0,"source":2},{"name":"MI_Wood_Planks_01","sampler":0,"source":3}]}