{"accessors":[{"bufferView":0,"byteOffset":0,"componentType":5126,"count":1,"max":[0],"min":[0],"type":"SCALAR"},{"bufferView":1,"byteOffset":0,"componentType":5123,"count":11820,"type":"SCALAR"},{"bufferView":2,"byteOffset":0,"componentType":5126,"count":3078,"max":[1.40031218528748,4.23474454879761,1.42359840869904],"min":[-1.47648751735687,-0.0051026660949,-1.26983213424683],"type":"VEC3"},{"bufferView":3,"byteOffset":0,"componentType":5126,"count":3078,"type":"VEC3"},{"bufferView":4,"byteOffset":0,"componentType":5126,"count":3078,"type":"VEC4"},{"bufferView":5,"byteOffset":0,"componentType":5126,"count":3078,"type":"VEC2"},{"bufferView":6,"byteOffset":0,"componentType":5126,"count":3078,"type":"VEC2"},{"bufferView":7,"byteOffset":0,"componentType":5123,"count":5160,"type":"SCALAR"},{"bufferView":8,"byteOffset":0,"componentType":5126,"count":1850,"max":[1.40031218528748,4.22716999053955,1.41257166862488],"min":[-1.47648751735687,0.00293000205419958,-1.26518976688385],"type":"VEC3"},{"bufferView":9,"byteOffset":0,"componentType":5126,"count":1850,"type":"VEC3"},{"bufferView":10,"byteOffset":0,"componentType":5126,"count":1850,"type":"VEC4"},{"bufferView":11,"byteOffset":0,"componentType":5126,"count":1850,"type":"VEC2"},{"bufferView":12,"byteOffset":0,"componentType":5126,"count":1850,"type":"VEC2"},{"bufferView":13,"byteOffset":0,"componentType":5123,"count":3198,"type":"SCALAR"},{"bufferView":14,"byteOffset":0,"componentType":5126,"count":1343,"max":[1.40031218528748,4.22840547561646,1.41125595569611],"min":[-1.47648751735687,0.00411525461822748,-1.26441049575806],"type":"VEC3"},{"bufferView":15,"byteOffset":0,"componentType":5126,"count":1343,"type":"VEC3"},{"bufferView":16,"byteOffset":0,"componentType":5126,"count":1343,"type":"VEC4"},{"bufferView":17,"byteOffset":0,"componentType":5126,"count":1343,"type":"VEC2"},{"bufferView":18,"byteOffset":0,"componentType":5126,"count":1343,"type":"VEC2"},{"bufferView":19,"byteOffset":0,"componentType":5123,"count":9576,"type":"SCALAR"},{"bufferView":20,"byteOffset":0,"componentType":5126,"count":2288,"max":[1.35498893260956,3.77520632743835,1.36515378952026],"min":[-1.42007577419281,0.318163931369781,-1.28719460964203],"type":"VEC3"},{"bufferView":21,"byteOffset":0,"componentType":5126,"count":2288,"type":"VEC3"},{"bufferView":22,"byteOffset":0,"componentType":5126,"count":2288,"type":"VEC4"},{"bufferView":23,"byteOffset":0,"componentType":5126,"count":2288,"type":"VEC2"},{"bufferView":24,"byteOffset":0,"componentType":5126,"count":2288,"type":"VEC2"},{"bufferView":25,"byteOffset":0,"componentType":5123,"count":5538,"type":"SCALAR"},{"bufferView":26,"byteOffset":0,"componentType":5126,"count":1418,"max":[1.36712396144867,3.77520632743835,1.37277448177338],"min":[-1.42007577419281,0.322234451770782,-1.2968624830246],"type":"VEC3"},{"bufferView":27,"byteOffset":0,"componentType":5126,"count":1418,"type":"VEC3"},{"bufferView":28,"byteOffset":0,"componentType":5126,"count":1418,"type":"VEC4"},{"bufferView":29,"byteOffset":0,"componentType":5126,"count":1418,"type":"VEC2"},{"bufferView":30,"byteOffset":0,"componentType":5126,"count":1418,"type":"VEC2"},{"bufferView":31,"byteOffset":0,"componentType":5123,"count":2148,"type":"SCALAR"},{"bufferView":32,"byteOffset":0,"componentType":5126,"count":597,"max":[1.36210060119629,2.62372040748596,1.35673749446869],"min":[-1.31644725799561,0.326690435409546,-1.152498960495],"type":"VEC3"},{"bufferView":33,"byteOffset":0,"componentType":5126,"count":597,"type":"VEC3"},{"bufferView":34,"byteOffset":0,"componentType":5126,"count":597,"type":"VEC4"},{"bufferView":35,"byteOffset":0,"componentType":5126,"count":597,"type":"VEC2"},{"bufferView":36,"byteOffset":0,"componentType":5126,"count":597,"type":"VEC2"},{"bufferView":37,"byteOffset":0,"componentType":5123,"count":576,"type":"SCALAR"},{"bufferView":38,"byteOffset":0,"componentType":5126,"count":128,"max":[1.3963885307312,4.2367115020752,1.44860887527466],"min":[-1.4799542427063,-0.02174075134099,-1.29216408729553],"type":"VEC3"},{"bufferView":39,"byteOffset":0,"componentType":5126,"count":128,"type":"VEC3"},{"bufferView":40,"byteOffset":0,"componentType":5126,"count":128,"type":"VEC4"},{"bufferView":41,"byteOffset":0,"componentType":5126,"count":128,"type":"VEC2"},{"bufferView":42,"byteOffset":0,"componentType":5126,"count":128,"type":"VEC2"}],"animations":[{"channels":[],"name":"Unreal Take","samplers":[]}],"asset":{"generator":"FBX2glTF v0.13.0","version":"2.0"},"bufferViews":[{"buffer":0,"byteLength":4,"byteOffset":0},{"buffer":0,"byteLength":23640,"byteOffset":4,"target":34963},{"buffer":0,"byteLength":36936,"byteOffset":23644,"target":34962},{"buffer":0,"byteLength":36936,"byteOffset":60580,"target":34962},{"buffer":0,"byteLength":49248,"byteOffset":97516,"target":34962},{"buffer":0,"byteLength":24624,"byteOffset":146764,"target":34962},{"buffer":0,"byteLength":24624,"byteOffset":171388,"target":34962},{"buffer":0,"byteLength":10320,"byteOffset":196012,"target":34963},{"buffer":0,"byteLength":22200,"byteOffset":206332,"target":34962},{"buffer":0,"byteLength":22200,"byteOffset":228532,"target":34962},{"buffer":0,"byteLength":29600,"byteOffset":250732,"target":34962},{"buffer":0,"byteLength":14800,"byteOffset":280332,"target":34962},{"buffer":0,"byteLength":14800,"byteOffset":295132,"target":34962},{"buffer":0,"byteLength":6396,"byteOffset":309932,"target":34963},{"buffer":0,"byteLength":16116,"byteOffset":316328,"target":34962},{"buffer":0,"byteLength":16116,"byteOffset":332444,"target":34962},{"buffer":0,"byteLength":21488,"byteOffset":348560,"target":34962},{"buffer":0,"byteLength":10744,"byteOffset":370048,"target":34962},{"buffer":0,"byteLength":10744,"byteOffset":380792,"target":34962},{"buffer":0,"byteLength":19152,"byteOffset":391536,"target":34963},{"buffer":0,"byteLength":27456,"byteOffset":410688,"target":34962},{"buffer":0,"byteLength":27456,"byteOffset":438144,"target":34962},{"buffer":0,"byteLength":36608,"byteOffset":465600,"target":34962},{"buffer":0,"byteLength":18304,"byteOffset":502208,"target":34962},{"buffer":0,"byteLength":18304,"byteOffset":520512,"target":34962},{"buffer":0,"byteLength":11076,"byteOffset":538816,"target":34963},{"buffer":0,"byteLength":17016,"byteOffset":549892,"target":34962},{"buffer":0,"byteLength":17016,"byteOffset":566908,"target":34962},{"buffer":0,"byteLength":22688,"byteOffset":583924,"target":34962},{"buffer":0,"byteLength":11344,"byteOffset":606612,"target":34962},{"buffer":0,"byteLength":11344,"byteOffset":617956,"target":34962},{"buffer":0,"byteLength":4296,"byteOffset":629300,"target":34963},{"buffer":0,"byteLength":7164,"byteOffset":633596,"target":34962},{"buffer":0,"byteLength":7164,"byteOffset":640760,"target":34962},{"buffer":0,"byteLength":9552,"byteOffset":647924,"target":34962},{"buffer":0,"byteLength":4776,"byteOffset":657476,"target":34962},{"buffer":0,"byteLength":4776,"byteOffset":662252,"target":34962},{"buffer":0,"byteLength":1152,"byteOffset":667028,"target":34963},{"buffer":0,"byteLength":1536,"byteOffset":668180,"target":34962},{"buffer":0,"byteLength":1536,"byteOffset":669716,"target":34962},{"buffer":0,"byteLength":2048,"byteOffset":671252,"target":34962},{"buffer":0,"byteLength":1024,"byteOffset":673300,"target":34962},{"buffer":0,"byteLength":1024,"byteOffset":674324,"target":34962}],"buffers":[{"byteLength":675348,"uri":"SM_Wooden_Scaffolding_02a.bin"}],"images":[{"name":"T_Wooden_Scaffolding_N","uri":"../Textures/T_Wooden_Scaffolding_N.png"},{"name":"T_Wooden_Scaffolding_BC","uri":"../Textures/T_Wooden_Scaffolding_BC.png"},{"name":"T_Rope_N","uri":"../Textures/T_Rope_N.png"},{"name":"T_Rope_BC","uri":"../Textures/T_Rope_BC.png"}],"materials":[{"alphaMode":"OPAQUE","doubleSided":false,"extras":{"fromFBX":{"isTruePBR":false,"shadingModel":"Phong"}},"name":"MI_Wooden_Scaffolding","normalTexture":{"index":0,"texCoord":0},"pbrMetallicRoughness":{"baseColorFactor":[1,1,1,1],"baseColorTexture":{"index":1,"texCoord":0},"metallicFactor":0.400000005960464,"roughnessFactor":0.301511347293854}},{"alphaMode":"OPAQUE","doubleSided":false,"extras":{"fromFBX":{"isTruePBR":false,"shadingModel":"Phong"}},"name":"MI_Rope","normalTexture":{"index":2,"texCoord":0},"pbrMetallicRoughness":{"baseColorFactor":[1,1,1,1],"baseColorTexture":{"index":3,"texCoord":0},"metallicFactor":0.400000005960464,"roughnessFactor":0.301511347293854}},{"alphaMode":"OPAQUE","doubleSided":false,"extras":{"fromFBX":{"isTruePBR":false,"shadingModel":"Lambert"}},"name":"DefaultMaterial","pbrMetallicRoughness":{"baseColorFactor":[0.5,0.5,0.5,1],"metallicFactor":0.200000002980232,"roughnessFactor":0.800000011920929}}],"meshes":[{"name":"SM_Wooden_Scaffolding_02a_LOD0","primitives":[{"attributes":{"NORMAL":3,"POSITION":2,"TANGENT":4,"TEXCOORD_0":5,"TEXCOORD_1":6},"indices":1,"material":0,"mode":4},{"attributes":{"NORMAL":21,"POSITION":20,"TANGENT":22,"TEXCOORD_0":23,"TEXCOORD_1":24},"indices":19,"material":1,"mode":4}]},{"name":"SM_Wooden_Scaffolding_02a_LOD1","primitives":[{"attributes":{"NORMAL":9,"POSITION":8,"TANGENT":10,"TEXCOORD_0":11,"TEXCOORD_1":12},"indices":7,"material":0,"mode":4},{"attributes":{"NORMAL":27,"POSITION":26,"TANGENT":28,"TEXCOORD_0":29,"TEXCOORD_1":30},"indices":25,"material":1,"mode":4}]},{"name":"SM_Wooden_Scaffolding_02a_LOD2","primitives":[{"attributes":{"NORMAL":15,"POSITION":14,"TANGENT":16,"TEXCOORD_0":17,"TEXCOORD_1":18},"indices":13,"material":0,"mode":4},{"attributes":{"NORMAL":33,"POSITION":32,"TANGENT":34,"TEXCOORD_0":35,"TEXCOORD_1":36},"indices":31,"material":1,"mode":4}]},{"name":"SM_Wooden_Scaffolding_02a_ConvexHulls","primitives":[{"attributes":{"NORMAL":39,"POSITION":38,"TANGENT":40,"TEXCOORD_0":41,"TEXCOORD_1":42},"indices":37,"material":2,"mode":4}]}],"nodes":[{"children":[1,2,3,4],"name":"StaticMeshActor_1302","originalUnits":0.00999999977648258,"pivot":[0,0,0],"rotation":[0,0,0,1],"scale":[1,1,1],"translation":[0,0,0]},{"mesh":0,"name":"SM_Wooden_Scaffolding_02a_LOD0","originalUnits":0.00999999977648258,"pivot":[0,0,0],"rotation":[0,0,0,1],"scale":[1,1,1],"translation":[0,0,0]},{"mesh":3,"name":"SM_Wooden_Scaffolding_02a_ConvexHulls","originalUnits":0.00999999977648258,"pivot":[0,0,0],"rotation":[0,0,0,1],"scale":[1,1,1],"translation":[0,0,0]},{"mesh":1,"name":"SM_Wooden_Scaffolding_02a_LOD1","originalUnits":0.00999999977648258,"pivot":[0,0,0],"rotation":[0,0,0,1],"scale":[1,1,1],"translation":[0,0,0]},{"mesh":2,"name":"SM_Wooden_Scaffolding_02a_LOD2","originalUnits":0.00999999977648258,"pivot":[0,0,0],"rotation":[0,0,0,1],"scale":[1,1,1],"translation":[0,0,0]}],"samplers":[{}],"scene":0,"scenes":[{"name":"Root Scene","nodes":[0]}],"textures":[{"name":"MI_Wooden_Scaffolding","sampler":0,"source":0},{"name":"MI_Wooden_Scaffolding","sampler":0,"source":1},{"name":"MI_Rope","sampler":0,"source":2},{"name":"MI_Rope","sampler":0,"source":3}]}