{"accessors":[{"bufferView":0,"byteOffset":0,"componentType":5126,"count":1,"max":[0],"min":[0],"type":"SCALAR"},{"bufferView":1,"byteOffset":0,"componentType":5123,"count":4536,"type":"SCALAR"},{"bufferView":2,"byteOffset":0,"componentType":5126,"count":1027,"max":[0.302292257547379,0.745179355144501,0.347851544618607],"min":[-0.30229225754738,-0.01464815065265,-0.35043945908546],"type":"VEC3"},{"bufferView":3,"byteOffset":0,"componentType":5126,"count":1027,"type":"VEC3"},{"bufferView":4,"byteOffset":0,"componentType":5126,"count":1027,"type":"VEC4"},{"bufferView":5,"byteOffset":0,"componentType":5126,"count":1027,"type":"VEC2"},{"bufferView":6,"byteOffset":0,"componentType":5126,"count":1027,"type":"VEC2"},{"bufferView":7,"byteOffset":0,"componentType":5123,"count":2190,"type":"SCALAR"},{"bufferView":8,"byteOffset":0,"componentType":5126,"count":550,"max":[0.302292257547379,0.753668367862701,0.347851544618607],"min":[-0.31367293000221,-0.01480650529265,-0.35043945908546],"type":"VEC3"},{"bufferView":9,"byteOffset":0,"componentType":5126,"count":550,"type":"VEC3"},{"bufferView":10,"byteOffset":0,"componentType":5126,"count":550,"type":"VEC4"},{"bufferView":11,"byteOffset":0,"componentType":5126,"count":550,"type":"VEC2"},{"bufferView":12,"byteOffset":0,"componentType":5126,"count":550,"type":"VEC2"},{"bufferView":13,"byteOffset":0,"componentType":5123,"count":1008,"type":"SCALAR"},{"bufferView":14,"byteOffset":0,"componentType":5126,"count":317,"max":[0.302292257547379,0.74817681312561,0.350097507238388],"min":[-0.31367293000221,-0.01773220673203,-0.35509413480759],"type":"VEC3"},{"bufferView":15,"byteOffset":0,"componentType":5126,"count":317,"type":"VEC3"},{"bufferView":16,"byteOffset":0,"componentType":5126,"count":317,"type":"VEC4"},{"bufferView":17,"byteOffset":0,"componentType":5126,"count":317,"type":"VEC2"},{"bufferView":18,"byteOffset":0,"componentType":5126,"count":317,"type":"VEC2"},{"bufferView":19,"byteOffset":0,"componentType":5123,"count":432,"type":"SCALAR"},{"bufferView":20,"byteOffset":0,"componentType":5126,"count":150,"max":[0.287162780761719,0.646781623363495,0.287162780761719],"min":[-0.28716278076172,0.0694440603256226,-0.28716278076172],"type":"VEC3"},{"bufferView":21,"byteOffset":0,"componentType":5126,"count":150,"type":"VEC3"},{"bufferView":22,"byteOffset":0,"componentType":5126,"count":150,"type":"VEC4"},{"bufferView":23,"byteOffset":0,"componentType":5126,"count":150,"type":"VEC2"},{"bufferView":24,"byteOffset":0,"componentType":5126,"count":150,"type":"VEC2"},{"bufferView":25,"byteOffset":0,"componentType":5123,"count":294,"type":"SCALAR"},{"bufferView":26,"byteOffset":0,"componentType":5126,"count":104,"max":[0.287871897220612,0.653617739677429,0.289663851261139],"min":[-0.28881672024727,0.0625600516796112,-0.28946223855019],"type":"VEC3"},{"bufferView":27,"byteOffset":0,"componentType":5126,"count":104,"type":"VEC3"},{"bufferView":28,"byteOffset":0,"componentType":5126,"count":104,"type":"VEC4"},{"bufferView":29,"byteOffset":0,"componentType":5126,"count":104,"type":"VEC2"},{"bufferView":30,"byteOffset":0,"componentType":5126,"count":104,"type":"VEC2"},{"bufferView":31,"byteOffset":0,"componentType":5123,"count":234,"type":"SCALAR"},{"bufferView":32,"byteOffset":0,"componentType":5126,"count":84,"max":[0.300327718257904,0.653861701488495,0.297873109579086],"min":[-0.29318460822105,0.0610888078808784,-0.29294800758362],"type":"VEC3"},{"bufferView":33,"byteOffset":0,"componentType":5126,"count":84,"type":"VEC3"},{"bufferView":34,"byteOffset":0,"componentType":5126,"count":84,"type":"VEC4"},{"bufferView":35,"byteOffset":0,"componentType":5126,"count":84,"type":"VEC2"},{"bufferView":36,"byteOffset":0,"componentType":5126,"count":84,"type":"VEC2"},{"bufferView":37,"byteOffset":0,"componentType":5123,"count":168,"type":"SCALAR"},{"bufferView":38,"byteOffset":0,"componentType":5126,"count":32,"max":[0.296512246131897,0.745179355144501,0.355567187070847],"min":[-0.29570969939232,-0.00798970367759,-0.3636360168457],"type":"VEC3"},{"bufferView":39,"byteOffset":0,"componentType":5126,"count":32,"type":"VEC3"},{"bufferView":40,"byteOffset":0,"componentType":5126,"count":32,"type":"VEC4"},{"bufferView":41,"byteOffset":0,"componentType":5126,"count":32,"type":"VEC2"},{"bufferView":42,"byteOffset":0,"componentType":5126,"count":32,"type":"VEC2"}],"animations":[{"channels":[],"name":"Unreal Take","samplers":[]}],"asset":{"generator":"FBX2glTF v0.13.0","version":"2.0"},"bufferViews":[{"buffer":0,"byteLength":4,"byteOffset":0},{"buffer":0,"byteLength":9072,"byteOffset":4,"target":34963},{"buffer":0,"byteLength":12324,"byteOffset":9076,"target":34962},{"buffer":0,"byteLength":12324,"byteOffset":21400,"target":34962},{"buffer":0,"byteLength":16432,"byteOffset":33724,"target":34962},{"buffer":0,"byteLength":8216,"byteOffset":50156,"target":34962},{"buffer":0,"byteLength":8216,"byteOffset":58372,"target":34962},{"buffer":0,"byteLength":4380,"byteOffset":66588,"target":34963},{"buffer":0,"byteLength":6600,"byteOffset":70968,"target":34962},{"buffer":0,"byteLength":6600,"byteOffset":77568,"target":34962},{"buffer":0,"byteLength":8800,"byteOffset":84168,"target":34962},{"buffer":0,"byteLength":4400,"byteOffset":92968,"target":34962},{"buffer":0,"byteLength":4400,"byteOffset":97368,"target":34962},{"buffer":0,"byteLength":2016,"byteOffset":101768,"target":34963},{"buffer":0,"byteLength":3804,"byteOffset":103784,"target":34962},{"buffer":0,"byteLength":3804,"byteOffset":107588,"target":34962},{"buffer":0,"byteLength":5072,"byteOffset":111392,"target":34962},{"buffer":0,"byteLength":2536,"byteOffset":116464,"target":34962},{"buffer":0,"byteLength":2536,"byteOffset":119000,"target":34962},{"buffer":0,"byteLength":864,"byteOffset":121536,"target":34963},{"buffer":0,"byteLength":1800,"byteOffset":122400,"target":34962},{"buffer":0,"byteLength":1800,"byteOffset":124200,"target":34962},{"buffer":0,"byteLength":2400,"byteOffset":126000,"target":34962},{"buffer":0,"byteLength":1200,"byteOffset":128400,"target":34962},{"buffer":0,"byteLength":1200,"byteOffset":129600,"target":34962},{"buffer":0,"byteLength":588,"byteOffset":130800,"target":34963},{"buffer":0,"byteLength":1248,"byteOffset":131388,"target":34962},{"buffer":0,"byteLength":1248,"byteOffset":132636,"target":34962},{"buffer":0,"byteLength":1664,"byteOffset":133884,"target":34962},{"buffer":0,"byteLength":832,"byteOffset":135548,"target":34962},{"buffer":0,"byteLength":832,"byteOffset":136380,"target":34962},{"buffer":0,"byteLength":468,"byteOffset":137212,"target":34963},{"buffer":0,"byteLength":1008,"byteOffset":137680,"target":34962},{"buffer":0,"byteLength":1008,"byteOffset":138688,"target":34962},{"buffer":0,"byteLength":1344,"byteOffset":139696,"target":34962},{"buffer":0,"byteLength":672,"byteOffset":141040,"target":34962},{"buffer":0,"byteLength":672,"byteOffset":141712,"target":34962},{"buffer":0,"byteLength":336,"byteOffset":142384,"target":34963},{"buffer":0,"byteLength":384,"byteOffset":142720,"target":34962},{"buffer":0,"byteLength":384,"byteOffset":143104,"target":34962},{"buffer":0,"byteLength":512,"byteOffset":143488,"target":34962},{"buffer":0,"byteLength":256,"byteOffset":144000,"target":34962},{"buffer":0,"byteLength":256,"byteOffset":144256,"target":34962}],"buffers":[{"byteLength":144512,"uri":"SM_Wooden_Barrel_02a.bin"}],"images":[{"name":"T_Iron_Hammered_N","uri":"../Textures/T_Iron_Hammered_N.png"},{"name":"T_Iron_Hammered_BC","uri":"../Textures/T_Iron_Hammered_BC.png"},{"name":"T_Wood_Planks_01_N","uri":"../Textures/T_Wood_Planks_01_N.png"},{"name":"T_Wood_Planks_01_BC","uri":"../Textures/T_Wood_Planks_01_BC.png"}],"materials":[{"alphaMode":"OPAQUE","doubleSided":false,"extras":{"fromFBX":{"isTruePBR":false,"shadingModel":"Phong"}},"name":"MI_Hammered_Iron_01","normalTexture":{"index":0,"texCoord":0},"pbrMetallicRoughness":{"baseColorFactor":[1,1,1,1],"baseColorTexture":{"index":1,"texCoord":0},"metallicFactor":0.400000005960464,"roughnessFactor":0.301511347293854}},{"alphaMode":"OPAQUE","doubleSided":false,"extras":{"fromFBX":{"isTruePBR":false,"shadingModel":"Phong"}},"name":"MI_Wood_Planks_01","normalTexture":{"index":2,"texCoord":0},"pbrMetallicRoughness":{"baseColorFactor":[1,1,1,1],"baseColorTexture":{"index":3,"texCoord":0},"metallicFactor":0.400000005960464,"roughnessFactor":0.301511347293854}},{"alphaMode":"OPAQUE","doubleSided":false,"extras":{"fromFBX":{"isTruePBR":false,"shadingModel":"Lambert"}},"name":"DefaultMaterial","pbrMetallicRoughness":{"baseColorFactor":[0.5,0.5,0.5,1],"metallicFactor":0.200000002980232,"roughnessFactor":0.800000011920929}}],"meshes":[{"name":"SM_Wooden_Barrel_02a_LOD0","primitives":[{"attributes":{"NORMAL":3,"POSITION":2,"TANGENT":4,"TEXCOORD_0":5,"TEXCOORD_1":6},"indices":1,"material":0,"mode":4},{"attributes":{"NORMAL":21,"POSITION":20,"TANGENT":22,"TEXCOORD_0":23,"TEXCOORD_1":24},"indices":19,"material":1,"mode":4}]},{"name":"SM_Wooden_Barrel_02a_LOD1","primitives":[{"attributes":{"NORMAL":9,"POSITION":8,"TANGENT":10,"TEXCOORD_0":11,"TEXCOORD_1":12},"indices":7,"material":0,"mode":4},{"attributes":{"NORMAL":27,"POSITION":26,"TANGENT":28,"TEXCOORD_0":29,"TEXCOORD_1":30},"indices":25,"material":1,"mode":4}]},{"name":"SM_Wooden_Barrel_02a_LOD2","primitives":[{"attributes":{"NORMAL":15,"POSITION":14,"TANGENT":16,"TEXCOORD_0":17,"TEXCOORD_1":18},"indices":13,"material":0,"mode":4},{"attributes":{"NORMAL":33,"POSITION":32,"TANGENT":34,"TEXCOORD_0":35,"TEXCOORD_1":36},"indices":31,"material":1,"mode":4}]},{"name":"SM_Wooden_Barrel_02a_ConvexHulls","primitives":[{"attributes":{"NORMAL":39,"POSITION":38,"TANGENT":40,"TEXCOORD_0":41,"TEXCOORD_1":42},"indices":37,"material":2,"mode":4}]}],"nodes":[{"children":[1,2,3,4],"name":"StaticMeshActor_1316","originalUnits":0.00999999977648258,"pivot":[0,0,0],"rotation":[0,0,0,1],"scale":[1,1,1],"translation":[0,0,0]},{"mesh":0,"name":"SM_Wooden_Barrel_02a_LOD0","originalUnits":0.00999999977648258,"pivot":[0,0,0],"rotation":[0,0,0,1],"scale":[1,1,1],"translation":[0,0,0]},{"mesh":3,"name":"SM_Wooden_Barrel_02a_ConvexHulls","originalUnits":0.00999999977648258,"pivot":[0,0,0],"rotation":[0,0,0,1],"scale":[1,1,1],"translation":[0,0,0]},{"mesh":1,"name":"SM_Wooden_Barrel_02a_LOD1","originalUnits":0.00999999977648258,"pivot":[0,0,0],"rotation":[0,0,0,1],"scale":[1,1,1],"translation":[0,0,0]},{"mesh":2,"name":"SM_Wooden_Barrel_02a_LOD2","originalUnits":0.00999999977648258,"pivot":[0,0,0],"rotation":[0,0,0,1],"scale":[1,1,1],"translation":[0,0,0]}],"samplers":[{}],"scene":0,"scenes":[{"name":"Root Scene","nodes":[0]}],"textures":[{"name":"MI_Hammered_Iron_01","sampler":0,"source":0},{"name":"MI_Hammered_Iron_01","sampler":0,"source":1},{"name":"MI_Wood_Planks_01","sampler":0,"source":2},{"name":"MI_Wood_Planks_01","sampler":0,"source":3}]}