{"accessors":[{"bufferView":0,"byteOffset":0,"componentType":5126,"count":1,"max":[0],"min":[0],"type":"SCALAR"},{"bufferView":1,"byteOffset":0,"componentType":5123,"count":2160,"type":"SCALAR"},{"bufferView":2,"byteOffset":0,"componentType":5126,"count":509,"max":[0.261182010173798,0.366472631692886,0.265213489532471],"min":[-0.2611820101738,-0.00266131642275,-0.26520878076553],"type":"VEC3"},{"bufferView":3,"byteOffset":0,"componentType":5126,"count":509,"type":"VEC3"},{"bufferView":4,"byteOffset":0,"componentType":5126,"count":509,"type":"VEC4"},{"bufferView":5,"byteOffset":0,"componentType":5126,"count":509,"type":"VEC2"},{"bufferView":6,"byteOffset":0,"componentType":5126,"count":509,"type":"VEC2"},{"bufferView":7,"byteOffset":0,"componentType":5123,"count":540,"type":"SCALAR"},{"bufferView":8,"byteOffset":0,"componentType":5126,"count":224,"max":[0.242975935339928,0.31822857260704,0.246414765715599],"min":[-0.24117104709148,0.0221002344042063,-0.24520093202591],"type":"VEC3"},{"bufferView":9,"byteOffset":0,"componentType":5126,"count":224,"type":"VEC3"},{"bufferView":10,"byteOffset":0,"componentType":5126,"count":224,"type":"VEC4"},{"bufferView":11,"byteOffset":0,"componentType":5126,"count":224,"type":"VEC2"},{"bufferView":12,"byteOffset":0,"componentType":5126,"count":224,"type":"VEC2"},{"bufferView":13,"byteOffset":0,"componentType":5123,"count":636,"type":"SCALAR"},{"bufferView":14,"byteOffset":0,"componentType":5126,"count":122,"max":[0.261192917823792,0.365152090787888,0.264770269393921],"min":[-0.26032337546349,-0.00551513535902,-0.2646751999855],"type":"VEC3"},{"bufferView":15,"byteOffset":0,"componentType":5126,"count":122,"type":"VEC3"},{"bufferView":16,"byteOffset":0,"componentType":5126,"count":122,"type":"VEC4"},{"bufferView":17,"byteOffset":0,"componentType":5126,"count":122,"type":"VEC2"},{"bufferView":18,"byteOffset":0,"componentType":5126,"count":122,"type":"VEC2"}],"animations":[{"channels":[],"name":"Unreal Take","samplers":[]}],"asset":{"generator":"FBX2glTF v0.13.0","version":"2.0"},"bufferViews":[{"buffer":0,"byteLength":4,"byteOffset":0},{"buffer":0,"byteLength":4320,"byteOffset":4,"target":34963},{"buffer":0,"byteLength":6108,"byteOffset":4324,"target":34962},{"buffer":0,"byteLength":6108,"byteOffset":10432,"target":34962},{"buffer":0,"byteLength":8144,"byteOffset":16540,"target":34962},{"buffer":0,"byteLength":4072,"byteOffset":24684,"target":34962},{"buffer":0,"byteLength":4072,"byteOffset":28756,"target":34962},{"buffer":0,"byteLength":1080,"byteOffset":32828,"target":34963},{"buffer":0,"byteLength":2688,"byteOffset":33908,"target":34962},{"buffer":0,"byteLength":2688,"byteOffset":36596,"target":34962},{"buffer":0,"byteLength":3584,"byteOffset":39284,"target":34962},{"buffer":0,"byteLength":1792,"byteOffset":42868,"target":34962},{"buffer":0,"byteLength":1792,"byteOffset":44660,"target":34962},{"buffer":0,"byteLength":1272,"byteOffset":46452,"target":34963},{"buffer":0,"byteLength":1464,"byteOffset":47724,"target":34962},{"buffer":0,"byteLength":1464,"byteOffset":49188,"target":34962},{"buffer":0,"byteLength":1952,"byteOffset":50652,"target":34962},{"buffer":0,"byteLength":976,"byteOffset":52604,"target":34962},{"buffer":0,"byteLength":976,"byteOffset":53580,"target":34962}],"buffers":[{"byteLength":54556,"uri":"SM_Wooden_Bucket_01a.bin"}],"images":[{"name":"T_Iron_Hammered_N","uri":"../Textures/T_Iron_Hammered_N.png"},{"name":"T_Iron_Hammered_BC","uri":"../Textures/T_Iron_Hammered_BC.png"},{"name":"T_Wood_Planks_01_N","uri":"../Textures/T_Wood_Planks_01_N.png"},{"name":"T_Wood_Planks_01_BC","uri":"../Textures/T_Wood_Planks_01_BC.png"}],"materials":[{"alphaMode":"OPAQUE","doubleSided":false,"extras":{"fromFBX":{"isTruePBR":false,"shadingModel":"Phong"}},"name":"MI_Hammered_Iron_01","normalTexture":{"index":0,"texCoord":0},"pbrMetallicRoughness":{"baseColorFactor":[1,1,1,1],"baseColorTexture":{"index":1,"texCoord":0},"metallicFactor":0.400000005960464,"roughnessFactor":0.301511347293854}},{"alphaMode":"OPAQUE","doubleSided":false,"extras":{"fromFBX":{"isTruePBR":false,"shadingModel":"Phong"}},"name":"MI_Wood_Planks_01","normalTexture":{"index":2,"texCoord":0},"pbrMetallicRoughness":{"baseColorFactor":[1,1,1,1],"baseColorTexture":{"index":3,"texCoord":0},"metallicFactor":0.400000005960464,"roughnessFactor":0.301511347293854}},{"alphaMode":"OPAQUE","doubleSided":false,"extras":{"fromFBX":{"isTruePBR":false,"shadingModel":"Lambert"}},"name":"DefaultMaterial","pbrMetallicRoughness":{"baseColorFactor":[0.5,0.5,0.5,1],"metallicFactor":0.200000002980232,"roughnessFactor":0.800000011920929}}],"meshes":[{"name":"SM_Wooden_Bucket_01a","primitives":[{"attributes":{"NORMAL":3,"POSITION":2,"TANGENT":4,"TEXCOORD_0":5,"TEXCOORD_1":6},"indices":1,"material":0,"mode":4},{"attributes":{"NORMAL":9,"POSITION":8,"TANGENT":10,"TEXCOORD_0":11,"TEXCOORD_1":12},"indices":7,"material":1,"mode":4}]},{"name":"SM_Wooden_Bucket_01a_ConvexHulls","primitives":[{"attributes":{"NORMAL":15,"POSITION":14,"TANGENT":16,"TEXCOORD_0":17,"TEXCOORD_1":18},"indices":13,"material":2,"mode":4}]}],"nodes":[{"mesh":0,"name":"SM_Wooden_Bucket_01a","originalUnits":0.00999999977648258,"pivot":[0,0,0],"rotation":[0,0,0,1],"scale":[1,1,1],"translation":[0,0,0]},{"mesh":1,"name":"SM_Wooden_Bucket_01a_ConvexHulls","originalUnits":0.00999999977648258,"pivot":[0,0,0],"rotation":[0,0,0,1],"scale":[1,1,1],"translation":[0,0,0]}],"samplers":[{}],"scene":0,"scenes":[{"name":"Root Scene","nodes":[0,1]}],"textures":[{"name":"MI_Hammered_Iron_01","sampler":0,"source":0},{"name":"MI_Hammered_Iron_01","sampler":0,"source":1},{"name":"MI_Wood_Planks_01","sampler":0,"source":2},{"name":"MI_Wood_Planks_01","sampler":0,"source":3}]}