{"accessors":[{"bufferView":0,"byteOffset":0,"componentType":5126,"count":1,"max":[0],"min":[0],"type":"SCALAR"},{"bufferView":1,"byteOffset":0,"componentType":5123,"count":18396,"type":"SCALAR"},{"bufferView":2,"byteOffset":0,"componentType":5126,"count":4880,"max":[1.40031218528748,6.45304536819458,1.42359817028046],"min":[-1.47648739814758,-0.00510239414871,-1.34059357643127],"type":"VEC3"},{"bufferView":3,"byteOffset":0,"componentType":5126,"count":4880,"type":"VEC3"},{"bufferView":4,"byteOffset":0,"componentType":5126,"count":4880,"type":"VEC4"},{"bufferView":5,"byteOffset":0,"componentType":5126,"count":4880,"type":"VEC2"},{"bufferView":6,"byteOffset":0,"componentType":5126,"count":4880,"type":"VEC2"},{"bufferView":7,"byteOffset":0,"componentType":5123,"count":8106,"type":"SCALAR"},{"bufferView":8,"byteOffset":0,"componentType":5126,"count":2918,"max":[1.40031218528748,6.44368410110474,1.42120611667633],"min":[-1.47648739814758,0.00400599604472518,-1.34059357643127],"type":"VEC3"},{"bufferView":9,"byteOffset":0,"componentType":5126,"count":2918,"type":"VEC3"},{"bufferView":10,"byteOffset":0,"componentType":5126,"count":2918,"type":"VEC4"},{"bufferView":11,"byteOffset":0,"componentType":5126,"count":2918,"type":"VEC2"},{"bufferView":12,"byteOffset":0,"componentType":5126,"count":2918,"type":"VEC2"},{"bufferView":13,"byteOffset":0,"componentType":5123,"count":5286,"type":"SCALAR"},{"bufferView":14,"byteOffset":0,"componentType":5126,"count":2245,"max":[1.40031218528748,6.44368410110474,1.42120611667633],"min":[-1.47648739814758,0.00362362712621689,-1.34059357643127],"type":"VEC3"},{"bufferView":15,"byteOffset":0,"componentType":5126,"count":2245,"type":"VEC3"},{"bufferView":16,"byteOffset":0,"componentType":5126,"count":2245,"type":"VEC4"},{"bufferView":17,"byteOffset":0,"componentType":5126,"count":2245,"type":"VEC2"},{"bufferView":18,"byteOffset":0,"componentType":5126,"count":2245,"type":"VEC2"},{"bufferView":19,"byteOffset":0,"componentType":5123,"count":13824,"type":"SCALAR"},{"bufferView":20,"byteOffset":0,"componentType":5126,"count":3276,"max":[1.35498893260956,4.91152858734131,1.36515367031097],"min":[-1.42574203014374,0.28284016251564,-1.28719460964203],"type":"VEC3"},{"bufferView":21,"byteOffset":0,"componentType":5126,"count":3276,"type":"VEC3"},{"bufferView":22,"byteOffset":0,"componentType":5126,"count":3276,"type":"VEC4"},{"bufferView":23,"byteOffset":0,"componentType":5126,"count":3276,"type":"VEC2"},{"bufferView":24,"byteOffset":0,"componentType":5126,"count":3276,"type":"VEC2"},{"bufferView":25,"byteOffset":0,"componentType":5123,"count":8004,"type":"SCALAR"},{"bufferView":26,"byteOffset":0,"componentType":5126,"count":2031,"max":[1.36712396144867,4.91616582870483,1.37277412414551],"min":[-1.43336272239685,0.287107586860657,-1.2968624830246],"type":"VEC3"},{"bufferView":27,"byteOffset":0,"componentType":5126,"count":2031,"type":"VEC3"},{"bufferView":28,"byteOffset":0,"componentType":5126,"count":2031,"type":"VEC4"},{"bufferView":29,"byteOffset":0,"componentType":5126,"count":2031,"type":"VEC2"},{"bufferView":30,"byteOffset":0,"componentType":5126,"count":2031,"type":"VEC2"},{"bufferView":31,"byteOffset":0,"componentType":5123,"count":2760,"type":"SCALAR"},{"bufferView":32,"byteOffset":0,"componentType":5126,"count":752,"max":[1.36210024356842,4.91616582870483,1.35673713684082],"min":[-1.41732585430145,0.29509299993515,-1.28337502479553],"type":"VEC3"},{"bufferView":33,"byteOffset":0,"componentType":5126,"count":752,"type":"VEC3"},{"bufferView":34,"byteOffset":0,"componentType":5126,"count":752,"type":"VEC4"},{"bufferView":35,"byteOffset":0,"componentType":5126,"count":752,"type":"VEC2"},{"bufferView":36,"byteOffset":0,"componentType":5126,"count":752,"type":"VEC2"},{"bufferView":37,"byteOffset":0,"componentType":5123,"count":900,"type":"SCALAR"},{"bufferView":38,"byteOffset":0,"componentType":5126,"count":200,"max":[1.39638864994049,6.48842334747314,1.44860887527466],"min":[-1.4799542427063,-0.02174075134099,-1.29216408729553],"type":"VEC3"},{"bufferView":39,"byteOffset":0,"componentType":5126,"count":200,"type":"VEC3"},{"bufferView":40,"byteOffset":0,"componentType":5126,"count":200,"type":"VEC4"},{"bufferView":41,"byteOffset":0,"componentType":5126,"count":200,"type":"VEC2"},{"bufferView":42,"byteOffset":0,"componentType":5126,"count":200,"type":"VEC2"}],"animations":[{"channels":[],"name":"Unreal Take","samplers":[]}],"asset":{"generator":"FBX2glTF v0.13.0","version":"2.0"},"bufferViews":[{"buffer":0,"byteLength":4,"byteOffset":0},{"buffer":0,"byteLength":36792,"byteOffset":4,"target":34963},{"buffer":0,"byteLength":58560,"byteOffset":36796,"target":34962},{"buffer":0,"byteLength":58560,"byteOffset":95356,"target":34962},{"buffer":0,"byteLength":78080,"byteOffset":153916,"target":34962},{"buffer":0,"byteLength":39040,"byteOffset":231996,"target":34962},{"buffer":0,"byteLength":39040,"byteOffset":271036,"target":34962},{"buffer":0,"byteLength":16212,"byteOffset":310076,"target":34963},{"buffer":0,"byteLength":35016,"byteOffset":326288,"target":34962},{"buffer":0,"byteLength":35016,"byteOffset":361304,"target":34962},{"buffer":0,"byteLength":46688,"byteOffset":396320,"target":34962},{"buffer":0,"byteLength":23344,"byteOffset":443008,"target":34962},{"buffer":0,"byteLength":23344,"byteOffset":466352,"target":34962},{"buffer":0,"byteLength":10572,"byteOffset":489696,"target":34963},{"buffer":0,"byteLength":26940,"byteOffset":500268,"target":34962},{"buffer":0,"byteLength":26940,"byteOffset":527208,"target":34962},{"buffer":0,"byteLength":35920,"byteOffset":554148,"target":34962},{"buffer":0,"byteLength":17960,"byteOffset":590068,"target":34962},{"buffer":0,"byteLength":17960,"byteOffset":608028,"target":34962},{"buffer":0,"byteLength":27648,"byteOffset":625988,"target":34963},{"buffer":0,"byteLength":39312,"byteOffset":653636,"target":34962},{"buffer":0,"byteLength":39312,"byteOffset":692948,"target":34962},{"buffer":0,"byteLength":52416,"byteOffset":732260,"target":34962},{"buffer":0,"byteLength":26208,"byteOffset":784676,"target":34962},{"buffer":0,"byteLength":26208,"byteOffset":810884,"target":34962},{"buffer":0,"byteLength":16008,"byteOffset":837092,"target":34963},{"buffer":0,"byteLength":24372,"byteOffset":853100,"target":34962},{"buffer":0,"byteLength":24372,"byteOffset":877472,"target":34962},{"buffer":0,"byteLength":32496,"byteOffset":901844,"target":34962},{"buffer":0,"byteLength":16248,"byteOffset":934340,"target":34962},{"buffer":0,"byteLength":16248,"byteOffset":950588,"target":34962},{"buffer":0,"byteLength":5520,"byteOffset":966836,"target":34963},{"buffer":0,"byteLength":9024,"byteOffset":972356,"target":34962},{"buffer":0,"byteLength":9024,"byteOffset":981380,"target":34962},{"buffer":0,"byteLength":12032,"byteOffset":990404,"target":34962},{"buffer":0,"byteLength":6016,"byteOffset":1002436,"target":34962},{"buffer":0,"byteLength":6016,"byteOffset":1008452,"target":34962},{"buffer":0,"byteLength":1800,"byteOffset":1014468,"target":34963},{"buffer":0,"byteLength":2400,"byteOffset":1016268,"target":34962},{"buffer":0,"byteLength":2400,"byteOffset":1018668,"target":34962},{"buffer":0,"byteLength":3200,"byteOffset":1021068,"target":34962},{"buffer":0,"byteLength":1600,"byteOffset":1024268,"target":34962},{"buffer":0,"byteLength":1600,"byteOffset":1025868,"target":34962}],"buffers":[{"byteLength":1027468,"uri":"SM_Wooden_Scaffolding_01a.bin"}],"images":[{"name":"T_Wooden_Scaffolding_N","uri":"../Textures/T_Wooden_Scaffolding_N.png"},{"name":"T_Wooden_Scaffolding_BC","uri":"../Textures/T_Wooden_Scaffolding_BC.png"},{"name":"T_Rope_N","uri":"../Textures/T_Rope_N.png"},{"name":"T_Rope_BC","uri":"../Textures/T_Rope_BC.png"}],"materials":[{"alphaMode":"OPAQUE","doubleSided":false,"extras":{"fromFBX":{"isTruePBR":false,"shadingModel":"Phong"}},"name":"MI_Wooden_Scaffolding","normalTexture":{"index":0,"texCoord":0},"pbrMetallicRoughness":{"baseColorFactor":[1,1,1,1],"baseColorTexture":{"index":1,"texCoord":0},"metallicFactor":0.400000005960464,"roughnessFactor":0.301511347293854}},{"alphaMode":"OPAQUE","doubleSided":false,"extras":{"fromFBX":{"isTruePBR":false,"shadingModel":"Phong"}},"name":"MI_Rope","normalTexture":{"index":2,"texCoord":0},"pbrMetallicRoughness":{"baseColorFactor":[1,1,1,1],"baseColorTexture":{"index":3,"texCoord":0},"metallicFactor":0.400000005960464,"roughnessFactor":0.301511347293854}},{"alphaMode":"OPAQUE","doubleSided":false,"extras":{"fromFBX":{"isTruePBR":false,"shadingModel":"Lambert"}},"name":"DefaultMaterial","pbrMetallicRoughness":{"baseColorFactor":[0.5,0.5,0.5,1],"metallicFactor":0.200000002980232,"roughnessFactor":0.800000011920929}}],"meshes":[{"name":"SM_Wooden_Scaffolding_01a_LOD0","primitives":[{"attributes":{"NORMAL":3,"POSITION":2,"TANGENT":4,"TEXCOORD_0":5,"TEXCOORD_1":6},"indices":1,"material":0,"mode":4},{"attributes":{"NORMAL":21,"POSITION":20,"TANGENT":22,"TEXCOORD_0":23,"TEXCOORD_1":24},"indices":19,"material":1,"mode":4}]},{"name":"SM_Wooden_Scaffolding_01a_LOD1","primitives":[{"attributes":{"NORMAL":9,"POSITION":8,"TANGENT":10,"TEXCOORD_0":11,"TEXCOORD_1":12},"indices":7,"material":0,"mode":4},{"attributes":{"NORMAL":27,"POSITION":26,"TANGENT":28,"TEXCOORD_0":29,"TEXCOORD_1":30},"indices":25,"material":1,"mode":4}]},{"name":"SM_Wooden_Scaffolding_01a_LOD2","primitives":[{"attributes":{"NORMAL":15,"POSITION":14,"TANGENT":16,"TEXCOORD_0":17,"TEXCOORD_1":18},"indices":13,"material":0,"mode":4},{"attributes":{"NORMAL":33,"POSITION":32,"TANGENT":34,"TEXCOORD_0":35,"TEXCOORD_1":36},"indices":31,"material":1,"mode":4}]},{"name":"SM_Wooden_Scaffolding_01a_ConvexHulls","primitives":[{"attributes":{"NORMAL":39,"POSITION":38,"TANGENT":40,"TEXCOORD_0":41,"TEXCOORD_1":42},"indices":37,"material":2,"mode":4}]}],"nodes":[{"children":[1,2,3,4],"name":"StaticMeshActor_725","originalUnits":0.00999999977648258,"pivot":[0,0,0],"rotation":[0,0,0,1],"scale":[1,1,1],"translation":[0,0,0]},{"mesh":0,"name":"SM_Wooden_Scaffolding_01a_LOD0","originalUnits":0.00999999977648258,"pivot":[0,0,0],"rotation":[0,0,0,1],"scale":[1,1,1],"translation":[0,0,0]},{"mesh":3,"name":"SM_Wooden_Scaffolding_01a_ConvexHulls","originalUnits":0.00999999977648258,"pivot":[0,0,0],"rotation":[0,0,0,1],"scale":[1,1,1],"translation":[0,0,0]},{"mesh":1,"name":"SM_Wooden_Scaffolding_01a_LOD1","originalUnits":0.00999999977648258,"pivot":[0,0,0],"rotation":[0,0,0,1],"scale":[1,1,1],"translation":[0,0,0]},{"mesh":2,"name":"SM_Wooden_Scaffolding_01a_LOD2","originalUnits":0.00999999977648258,"pivot":[0,0,0],"rotation":[0,0,0,1],"scale":[1,1,1],"translation":[0,0,0]}],"samplers":[{}],"scene":0,"scenes":[{"name":"Root Scene","nodes":[0]}],"textures":[{"name":"MI_Wooden_Scaffolding","sampler":0,"source":0},{"name":"MI_Wooden_Scaffolding","sampler":0,"source":1},{"name":"MI_Rope","sampler":0,"source":2},{"name":"MI_Rope","sampler":0,"source":3}]}