{"accessors":[{"bufferView":0,"byteOffset":0,"componentType":5126,"count":1,"max":[0],"min":[0],"type":"SCALAR"},{"bufferView":1,"byteOffset":0,"componentType":5123,"count":1344,"type":"SCALAR"},{"bufferView":2,"byteOffset":0,"componentType":5126,"count":394,"max":[0.421804964542389,1.05963528156281,0.421792834997177],"min":[-0.42180022597313,0.0253876298666,-0.42181235551834],"type":"VEC3"},{"bufferView":3,"byteOffset":0,"componentType":5126,"count":394,"type":"VEC3"},{"bufferView":4,"byteOffset":0,"componentType":5126,"count":394,"type":"VEC4"},{"bufferView":5,"byteOffset":0,"componentType":5126,"count":394,"type":"VEC2"},{"bufferView":6,"byteOffset":0,"componentType":5126,"count":394,"type":"VEC2"},{"bufferView":7,"byteOffset":0,"componentType":5123,"count":8256,"type":"SCALAR"},{"bufferView":8,"byteOffset":0,"componentType":5126,"count":1732,"max":[0.452918529510498,1.10016763210297,0.452918529510498],"min":[-0.4529185295105,-0.00415569497272,-0.45292109251022],"type":"VEC3"},{"bufferView":9,"byteOffset":0,"componentType":5126,"count":1732,"type":"VEC3"},{"bufferView":10,"byteOffset":0,"componentType":5126,"count":1732,"type":"VEC4"},{"bufferView":11,"byteOffset":0,"componentType":5126,"count":1732,"type":"VEC2"},{"bufferView":12,"byteOffset":0,"componentType":5126,"count":1732,"type":"VEC2"}],"animations":[{"channels":[],"name":"Unreal Take","samplers":[]}],"asset":{"generator":"FBX2glTF v0.13.0","version":"2.0"},"bufferViews":[{"buffer":0,"byteLength":4,"byteOffset":0},{"buffer":0,"byteLength":2688,"byteOffset":4,"target":34963},{"buffer":0,"byteLength":4728,"byteOffset":2692,"target":34962},{"buffer":0,"byteLength":4728,"byteOffset":7420,"target":34962},{"buffer":0,"byteLength":6304,"byteOffset":12148,"target":34962},{"buffer":0,"byteLength":3152,"byteOffset":18452,"target":34962},{"buffer":0,"byteLength":3152,"byteOffset":21604,"target":34962},{"buffer":0,"byteLength":16512,"byteOffset":24756,"target":34963},{"buffer":0,"byteLength":20784,"byteOffset":41268,"target":34962},{"buffer":0,"byteLength":20784,"byteOffset":62052,"target":34962},{"buffer":0,"byteLength":27712,"byteOffset":82836,"target":34962},{"buffer":0,"byteLength":13856,"byteOffset":110548,"target":34962},{"buffer":0,"byteLength":13856,"byteOffset":124404,"target":34962}],"buffers":[{"byteLength":138260,"uri":"SM_Wooden_Barrel_01a.bin"}],"images":[{"name":"T_Wood_Planks_01_N","uri":"../Textures/T_Wood_Planks_01_N.png"},{"name":"T_Wood_Planks_01_BC","uri":"../Textures/T_Wood_Planks_01_BC.png"},{"name":"T_Iron_Hammered_N","uri":"../Textures/T_Iron_Hammered_N.png"},{"name":"T_Iron_Hammered_BC","uri":"../Textures/T_Iron_Hammered_BC.png"}],"materials":[{"alphaMode":"OPAQUE","doubleSided":false,"extras":{"fromFBX":{"isTruePBR":false,"shadingModel":"Phong"}},"name":"MI_Wood_Planks_01","normalTexture":{"index":0,"texCoord":0},"pbrMetallicRoughness":{"baseColorFactor":[1,1,1,1],"baseColorTexture":{"index":1,"texCoord":0},"metallicFactor":0.400000005960464,"roughnessFactor":0.301511347293854}},{"alphaMode":"OPAQUE","doubleSided":false,"extras":{"fromFBX":{"isTruePBR":false,"shadingModel":"Phong"}},"name":"MI_Hammered_Iron_01","normalTexture":{"index":2,"texCoord":0},"pbrMetallicRoughness":{"baseColorFactor":[1,1,1,1],"baseColorTexture":{"index":3,"texCoord":0},"metallicFactor":0.400000005960464,"roughnessFactor":0.301511347293854}}],"meshes":[{"name":"SM_Wooden_Barrel_01a","primitives":[{"attributes":{"NORMAL":3,"POSITION":2,"TANGENT":4,"TEXCOORD_0":5,"TEXCOORD_1":6},"indices":1,"material":0,"mode":4},{"attributes":{"NORMAL":9,"POSITION":8,"TANGENT":10,"TEXCOORD_0":11,"TEXCOORD_1":12},"indices":7,"material":1,"mode":4}]}],"nodes":[{"mesh":0,"name":"SM_Wooden_Barrel_01a","originalUnits":0.00999999977648258,"pivot":[0,0,0],"rotation":[0,0,0,1],"scale":[1,1,1],"translation":[0,0,0]},{"name":"SM_Wooden_Barrel_01a_ConvexHulls","originalUnits":0.00999999977648258,"pivot":[0,0,0],"rotation":[0,0,0,1],"scale":[1,1,1],"translation":[0,0,0]}],"samplers":[{}],"scene":0,"scenes":[{"name":"Root Scene","nodes":[0,1]}],"textures":[{"name":"MI_Wood_Planks_01","sampler":0,"source":0},{"name":"MI_Wood_Planks_01","sampler":0,"source":1},{"name":"MI_Hammered_Iron_01","sampler":0,"source":2},{"name":"MI_Hammered_Iron_01","sampler":0,"source":3}]}