{"accessors":[{"bufferView":0,"byteOffset":0,"componentType":5126,"count":1,"max":[0],"min":[0],"type":"SCALAR"},{"bufferView":1,"byteOffset":0,"componentType":5123,"count":10380,"type":"SCALAR"},{"bufferView":2,"byteOffset":0,"componentType":5126,"count":3062,"max":[-0.00022045825608,0.588710606098175,0.243485525250435],"min":[-0.59633618593216,-0.58378100395203,-0.24469317495823],"type":"VEC3"},{"bufferView":3,"byteOffset":0,"componentType":5126,"count":3062,"type":"VEC3"},{"bufferView":4,"byteOffset":0,"componentType":5126,"count":3062,"type":"VEC4"},{"bufferView":5,"byteOffset":0,"componentType":5126,"count":3062,"type":"VEC2"},{"bufferView":6,"byteOffset":0,"componentType":5126,"count":3062,"type":"VEC2"},{"bufferView":7,"byteOffset":0,"componentType":5123,"count":5187,"type":"SCALAR"},{"bufferView":8,"byteOffset":0,"componentType":5126,"count":1753,"max":[0.00186542817391455,0.589102327823639,0.243485525250435],"min":[-0.59592598676681,-0.58378100395203,-0.24469317495823],"type":"VEC3"},{"bufferView":9,"byteOffset":0,"componentType":5126,"count":1753,"type":"VEC3"},{"bufferView":10,"byteOffset":0,"componentType":5126,"count":1753,"type":"VEC4"},{"bufferView":11,"byteOffset":0,"componentType":5126,"count":1753,"type":"VEC2"},{"bufferView":12,"byteOffset":0,"componentType":5126,"count":1753,"type":"VEC2"},{"bufferView":13,"byteOffset":0,"componentType":5123,"count":2595,"type":"SCALAR"},{"bufferView":14,"byteOffset":0,"componentType":5126,"count":1031,"max":[0.00067887944169342,0.583570182323456,0.247525617480278],"min":[-0.58956259489059,-0.58605664968491,-0.24873326718807],"type":"VEC3"},{"bufferView":15,"byteOffset":0,"componentType":5126,"count":1031,"type":"VEC3"},{"bufferView":16,"byteOffset":0,"componentType":5126,"count":1031,"type":"VEC4"},{"bufferView":17,"byteOffset":0,"componentType":5126,"count":1031,"type":"VEC2"},{"bufferView":18,"byteOffset":0,"componentType":5126,"count":1031,"type":"VEC2"},{"bufferView":19,"byteOffset":0,"componentType":5123,"count":1299,"type":"SCALAR"},{"bufferView":20,"byteOffset":0,"componentType":5126,"count":606,"max":[0.00193913083057851,0.583570182323456,0.244442224502563],"min":[-0.58956259489059,-0.59053993225098,-0.24564984440804],"type":"VEC3"},{"bufferView":21,"byteOffset":0,"componentType":5126,"count":606,"type":"VEC3"},{"bufferView":22,"byteOffset":0,"componentType":5126,"count":606,"type":"VEC4"},{"bufferView":23,"byteOffset":0,"componentType":5126,"count":606,"type":"VEC2"},{"bufferView":24,"byteOffset":0,"componentType":5126,"count":606,"type":"VEC2"},{"bufferView":25,"byteOffset":0,"componentType":5123,"count":648,"type":"SCALAR"},{"bufferView":26,"byteOffset":0,"componentType":5126,"count":338,"max":[0.00193913083057851,0.582084059715271,0.240719527006149],"min":[-0.58761990070343,-0.59770584106445,-0.22646428644657],"type":"VEC3"},{"bufferView":27,"byteOffset":0,"componentType":5126,"count":338,"type":"VEC3"},{"bufferView":28,"byteOffset":0,"componentType":5126,"count":338,"type":"VEC4"},{"bufferView":29,"byteOffset":0,"componentType":5126,"count":338,"type":"VEC2"},{"bufferView":30,"byteOffset":0,"componentType":5126,"count":338,"type":"VEC2"},{"bufferView":31,"byteOffset":0,"componentType":5123,"count":312,"type":"SCALAR"},{"bufferView":32,"byteOffset":0,"componentType":5126,"count":60,"max":[0.00000000962609192356467,0.600720345973969,0.252655178308487],"min":[-0.61802524328232,-0.58895641565323,-0.2550402879715],"type":"VEC3"},{"bufferView":33,"byteOffset":0,"componentType":5126,"count":60,"type":"VEC3"},{"bufferView":34,"byteOffset":0,"componentType":5126,"count":60,"type":"VEC4"},{"bufferView":35,"byteOffset":0,"componentType":5126,"count":60,"type":"VEC2"},{"bufferView":36,"byteOffset":0,"componentType":5126,"count":60,"type":"VEC2"}],"animations":[{"channels":[],"name":"Unreal Take","samplers":[]}],"asset":{"generator":"FBX2glTF v0.13.0","version":"2.0"},"bufferViews":[{"buffer":0,"byteLength":4,"byteOffset":0},{"buffer":0,"byteLength":20760,"byteOffset":4,"target":34963},{"buffer":0,"byteLength":36744,"byteOffset":20764,"target":34962},{"buffer":0,"byteLength":36744,"byteOffset":57508,"target":34962},{"buffer":0,"byteLength":48992,"byteOffset":94252,"target":34962},{"buffer":0,"byteLength":24496,"byteOffset":143244,"target":34962},{"buffer":0,"byteLength":24496,"byteOffset":167740,"target":34962},{"buffer":0,"byteLength":10374,"byteOffset":192236,"target":34963},{"buffer":0,"byteLength":21036,"byteOffset":202612,"target":34962},{"buffer":0,"byteLength":21036,"byteOffset":223648,"target":34962},{"buffer":0,"byteLength":28048,"byteOffset":244684,"target":34962},{"buffer":0,"byteLength":14024,"byteOffset":272732,"target":34962},{"buffer":0,"byteLength":14024,"byteOffset":286756,"target":34962},{"buffer":0,"byteLength":5190,"byteOffset":300780,"target":34963},{"buffer":0,"byteLength":12372,"byteOffset":305972,"target":34962},{"buffer":0,"byteLength":12372,"byteOffset":318344,"target":34962},{"buffer":0,"byteLength":16496,"byteOffset":330716,"target":34962},{"buffer":0,"byteLength":8248,"byteOffset":347212,"target":34962},{"buffer":0,"byteLength":8248,"byteOffset":355460,"target":34962},{"buffer":0,"byteLength":2598,"byteOffset":363708,"target":34963},{"buffer":0,"byteLength":7272,"byteOffset":366308,"target":34962},{"buffer":0,"byteLength":7272,"byteOffset":373580,"target":34962},{"buffer":0,"byteLength":9696,"byteOffset":380852,"target":34962},{"buffer":0,"byteLength":4848,"byteOffset":390548,"target":34962},{"buffer":0,"byteLength":4848,"byteOffset":395396,"target":34962},{"buffer":0,"byteLength":1296,"byteOffset":400244,"target":34963},{"buffer":0,"byteLength":4056,"byteOffset":401540,"target":34962},{"buffer":0,"byteLength":4056,"byteOffset":405596,"target":34962},{"buffer":0,"byteLength":5408,"byteOffset":409652,"target":34962},{"buffer":0,"byteLength":2704,"byteOffset":415060,"target":34962},{"buffer":0,"byteLength":2704,"byteOffset":417764,"target":34962},{"buffer":0,"byteLength":624,"byteOffset":420468,"target":34963},{"buffer":0,"byteLength":720,"byteOffset":421092,"target":34962},{"buffer":0,"byteLength":720,"byteOffset":421812,"target":34962},{"buffer":0,"byteLength":960,"byteOffset":422532,"target":34962},{"buffer":0,"byteLength":480,"byteOffset":423492,"target":34962},{"buffer":0,"byteLength":480,"byteOffset":423972,"target":34962}],"buffers":[{"byteLength":424452,"uri":"SM_Wall_Torch_01a.bin"}],"images":[{"name":"T_WallTorch_01_N","uri":"../Textures/T_WallTorch_01_N.png"},{"name":"T_WallTorch_01_BC","uri":"../Textures/T_WallTorch_01_BC.png"}],"materials":[{"alphaMode":"OPAQUE","doubleSided":false,"extras":{"fromFBX":{"isTruePBR":false,"shadingModel":"Phong"}},"name":"MI_WallTorch_01","normalTexture":{"index":0,"texCoord":0},"pbrMetallicRoughness":{"baseColorFactor":[1,1,1,1],"baseColorTexture":{"index":1,"texCoord":0},"metallicFactor":0.400000005960464,"roughnessFactor":0.301511347293854}},{"alphaMode":"OPAQUE","doubleSided":false,"extras":{"fromFBX":{"isTruePBR":false,"shadingModel":"Lambert"}},"name":"DefaultMaterial","pbrMetallicRoughness":{"baseColorFactor":[0.5,0.5,0.5,1],"metallicFactor":0.200000002980232,"roughnessFactor":0.800000011920929}}],"meshes":[{"name":"SM_Wall_Torch_01a_LOD0","primitives":[{"attributes":{"NORMAL":3,"POSITION":2,"TANGENT":4,"TEXCOORD_0":5,"TEXCOORD_1":6},"indices":1,"material":0,"mode":4}]},{"name":"SM_Wall_Torch_01a_LOD1","primitives":[{"attributes":{"NORMAL":9,"POSITION":8,"TANGENT":10,"TEXCOORD_0":11,"TEXCOORD_1":12},"indices":7,"material":0,"mode":4}]},{"name":"SM_Wall_Torch_01a_LOD2","primitives":[{"attributes":{"NORMAL":15,"POSITION":14,"TANGENT":16,"TEXCOORD_0":17,"TEXCOORD_1":18},"indices":13,"material":0,"mode":4}]},{"name":"SM_Wall_Torch_01a_LOD3","primitives":[{"attributes":{"NORMAL":21,"POSITION":20,"TANGENT":22,"TEXCOORD_0":23,"TEXCOORD_1":24},"indices":19,"material":0,"mode":4}]},{"name":"SM_Wall_Torch_01a_LOD4","primitives":[{"attributes":{"NORMAL":27,"POSITION":26,"TANGENT":28,"TEXCOORD_0":29,"TEXCOORD_1":30},"indices":25,"material":0,"mode":4}]},{"name":"SM_Wall_Torch_01a_ConvexHulls","primitives":[{"attributes":{"NORMAL":33,"POSITION":32,"TANGENT":34,"TEXCOORD_0":35,"TEXCOORD_1":36},"indices":31,"material":1,"mode":4}]}],"nodes":[{"children":[1,2,3,4,5,6],"name":"BP_Wall_Torch_C_91","originalUnits":0.00999999977648258,"pivot":[0,0,0],"rotation":[0,0,0,1],"scale":[1,1,1],"translation":[0,0,0]},{"mesh":0,"name":"SM_Wall_Torch_01a_LOD0","originalUnits":0.00999999977648258,"pivot":[0,0,0],"rotation":[0,0,0,1],"scale":[1,1,1],"translation":[0,0,0]},{"mesh":5,"name":"SM_Wall_Torch_01a_ConvexHulls","originalUnits":0.00999999977648258,"pivot":[0,0,0],"rotation":[0,0,0,1],"scale":[1,1,1],"translation":[0,0,0]},{"mesh":1,"name":"SM_Wall_Torch_01a_LOD1","originalUnits":0.00999999977648258,"pivot":[0,0,0],"rotation":[0,0,0,1],"scale":[1,1,1],"translation":[0,0,0]},{"mesh":2,"name":"SM_Wall_Torch_01a_LOD2","originalUnits":0.00999999977648258,"pivot":[0,0,0],"rotation":[0,0,0,1],"scale":[1,1,1],"translation":[0,0,0]},{"mesh":3,"name":"SM_Wall_Torch_01a_LOD3","originalUnits":0.00999999977648258,"pivot":[0,0,0],"rotation":[0,0,0,1],"scale":[1,1,1],"translation":[0,0,0]},{"mesh":4,"name":"SM_Wall_Torch_01a_LOD4","originalUnits":0.00999999977648258,"pivot":[0,0,0],"rotation":[0,0,0,1],"scale":[1,1,1],"translation":[0,0,0]}],"samplers":[{}],"scene":0,"scenes":[{"name":"Root Scene","nodes":[0]}],"textures":[{"name":"MI_WallTorch_01","sampler":0,"source":0},{"name":"MI_WallTorch_01","sampler":0,"source":1}]}