{"accessors":[{"bufferView":0,"byteOffset":0,"componentType":5126,"count":1,"max":[0],"min":[0],"type":"SCALAR"},{"bufferView":1,"byteOffset":0,"componentType":5123,"count":19146,"type":"SCALAR"},{"bufferView":2,"byteOffset":0,"componentType":5126,"count":6180,"max":[1.46577680110931,1.92569875717163,1.24657142162323],"min":[-1.80836296081543,-0.00286671845242,-1.33391141891479],"type":"VEC3"},{"bufferView":3,"byteOffset":0,"componentType":5126,"count":6180,"type":"VEC3"},{"bufferView":4,"byteOffset":0,"componentType":5126,"count":6180,"type":"VEC4"},{"bufferView":5,"byteOffset":0,"componentType":5126,"count":6180,"type":"VEC2"},{"bufferView":6,"byteOffset":0,"componentType":5126,"count":6180,"type":"VEC2"},{"bufferView":7,"byteOffset":0,"componentType":5123,"count":9570,"type":"SCALAR"},{"bufferView":8,"byteOffset":0,"componentType":5126,"count":3650,"max":[1.46577680110931,1.92569875717163,1.24754416942596],"min":[-1.80836296081543,-0.00706371245906,-1.33444976806641],"type":"VEC3"},{"bufferView":9,"byteOffset":0,"componentType":5126,"count":3650,"type":"VEC3"},{"bufferView":10,"byteOffset":0,"componentType":5126,"count":3650,"type":"VEC4"},{"bufferView":11,"byteOffset":0,"componentType":5126,"count":3650,"type":"VEC2"},{"bufferView":12,"byteOffset":0,"componentType":5126,"count":3650,"type":"VEC2"},{"bufferView":13,"byteOffset":0,"componentType":5123,"count":4788,"type":"SCALAR"},{"bufferView":14,"byteOffset":0,"componentType":5126,"count":2458,"max":[1.46577680110931,1.92569875717163,1.25436508655548],"min":[-1.80855584144592,-0.02511122450233,-1.33068263530731],"type":"VEC3"},{"bufferView":15,"byteOffset":0,"componentType":5126,"count":2458,"type":"VEC3"},{"bufferView":16,"byteOffset":0,"componentType":5126,"count":2458,"type":"VEC4"},{"bufferView":17,"byteOffset":0,"componentType":5126,"count":2458,"type":"VEC2"},{"bufferView":18,"byteOffset":0,"componentType":5126,"count":2458,"type":"VEC2"},{"bufferView":19,"byteOffset":0,"componentType":5123,"count":2394,"type":"SCALAR"},{"bufferView":20,"byteOffset":0,"componentType":5126,"count":1360,"max":[1.46577680110931,1.92569875717163,1.20511472225189],"min":[-1.80855584144592,-0.03245536610484,-1.31198668479919],"type":"VEC3"},{"bufferView":21,"byteOffset":0,"componentType":5126,"count":1360,"type":"VEC3"},{"bufferView":22,"byteOffset":0,"componentType":5126,"count":1360,"type":"VEC4"},{"bufferView":23,"byteOffset":0,"componentType":5126,"count":1360,"type":"VEC2"},{"bufferView":24,"byteOffset":0,"componentType":5126,"count":1360,"type":"VEC2"},{"bufferView":25,"byteOffset":0,"componentType":5123,"count":1248,"type":"SCALAR"},{"bufferView":26,"byteOffset":0,"componentType":5126,"count":232,"max":[1.4884033203125,1.9318368434906,1.2514191865921],"min":[-1.8267879486084,-0.05259342864156,-1.33638596534729],"type":"VEC3"},{"bufferView":27,"byteOffset":0,"componentType":5126,"count":232,"type":"VEC3"},{"bufferView":28,"byteOffset":0,"componentType":5126,"count":232,"type":"VEC4"},{"bufferView":29,"byteOffset":0,"componentType":5126,"count":232,"type":"VEC2"},{"bufferView":30,"byteOffset":0,"componentType":5126,"count":232,"type":"VEC2"}],"animations":[{"channels":[],"name":"Unreal Take","samplers":[]}],"asset":{"generator":"FBX2glTF v0.13.0","version":"2.0"},"bufferViews":[{"buffer":0,"byteLength":4,"byteOffset":0},{"buffer":0,"byteLength":38292,"byteOffset":4,"target":34963},{"buffer":0,"byteLength":74160,"byteOffset":38296,"target":34962},{"buffer":0,"byteLength":74160,"byteOffset":112456,"target":34962},{"buffer":0,"byteLength":98880,"byteOffset":186616,"target":34962},{"buffer":0,"byteLength":49440,"byteOffset":285496,"target":34962},{"buffer":0,"byteLength":49440,"byteOffset":334936,"target":34962},{"buffer":0,"byteLength":19140,"byteOffset":384376,"target":34963},{"buffer":0,"byteLength":43800,"byteOffset":403516,"target":34962},{"buffer":0,"byteLength":43800,"byteOffset":447316,"target":34962},{"buffer":0,"byteLength":58400,"byteOffset":491116,"target":34962},{"buffer":0,"byteLength":29200,"byteOffset":549516,"target":34962},{"buffer":0,"byteLength":29200,"byteOffset":578716,"target":34962},{"buffer":0,"byteLength":9576,"byteOffset":607916,"target":34963},{"buffer":0,"byteLength":29496,"byteOffset":617492,"target":34962},{"buffer":0,"byteLength":29496,"byteOffset":646988,"target":34962},{"buffer":0,"byteLength":39328,"byteOffset":676484,"target":34962},{"buffer":0,"byteLength":19664,"byteOffset":715812,"target":34962},{"buffer":0,"byteLength":19664,"byteOffset":735476,"target":34962},{"buffer":0,"byteLength":4788,"byteOffset":755140,"target":34963},{"buffer":0,"byteLength":16320,"byteOffset":759928,"target":34962},{"buffer":0,"byteLength":16320,"byteOffset":776248,"target":34962},{"buffer":0,"byteLength":21760,"byteOffset":792568,"target":34962},{"buffer":0,"byteLength":10880,"byteOffset":814328,"target":34962},{"buffer":0,"byteLength":10880,"byteOffset":825208,"target":34962},{"buffer":0,"byteLength":2496,"byteOffset":836088,"target":34963},{"buffer":0,"byteLength":2784,"byteOffset":838584,"target":34962},{"buffer":0,"byteLength":2784,"byteOffset":841368,"target":34962},{"buffer":0,"byteLength":3712,"byteOffset":844152,"target":34962},{"buffer":0,"byteLength":1856,"byteOffset":847864,"target":34962},{"buffer":0,"byteLength":1856,"byteOffset":849720,"target":34962}],"buffers":[{"byteLength":851576,"uri":"SM_Wooden_Cart_01a.bin"}],"images":[{"name":"T_Wooden_Cart_N","uri":"../Textures/T_Wooden_Cart_N.png"},{"name":"T_Wooden_Cart_BC","uri":"../Textures/T_Wooden_Cart_BC.png"}],"materials":[{"alphaMode":"OPAQUE","doubleSided":false,"extras":{"fromFBX":{"isTruePBR":false,"shadingModel":"Phong"}},"name":"MI_Wooden_Cart","normalTexture":{"index":0,"texCoord":0},"pbrMetallicRoughness":{"baseColorFactor":[1,1,1,1],"baseColorTexture":{"index":1,"texCoord":0},"metallicFactor":0.400000005960464,"roughnessFactor":0.301511347293854}},{"alphaMode":"OPAQUE","doubleSided":false,"extras":{"fromFBX":{"isTruePBR":false,"shadingModel":"Lambert"}},"name":"DefaultMaterial","pbrMetallicRoughness":{"baseColorFactor":[0.5,0.5,0.5,1],"metallicFactor":0.200000002980232,"roughnessFactor":0.800000011920929}}],"meshes":[{"name":"SM_Wooden_Cart_01a_LOD0","primitives":[{"attributes":{"NORMAL":3,"POSITION":2,"TANGENT":4,"TEXCOORD_0":5,"TEXCOORD_1":6},"indices":1,"material":0,"mode":4}]},{"name":"SM_Wooden_Cart_01a_LOD1","primitives":[{"attributes":{"NORMAL":9,"POSITION":8,"TANGENT":10,"TEXCOORD_0":11,"TEXCOORD_1":12},"indices":7,"material":0,"mode":4}]},{"name":"SM_Wooden_Cart_01a_LOD2","primitives":[{"attributes":{"NORMAL":15,"POSITION":14,"TANGENT":16,"TEXCOORD_0":17,"TEXCOORD_1":18},"indices":13,"material":0,"mode":4}]},{"name":"SM_Wooden_Cart_01a_LOD3","primitives":[{"attributes":{"NORMAL":21,"POSITION":20,"TANGENT":22,"TEXCOORD_0":23,"TEXCOORD_1":24},"indices":19,"material":0,"mode":4}]},{"name":"SM_Wooden_Cart_01a_ConvexHulls","primitives":[{"attributes":{"NORMAL":27,"POSITION":26,"TANGENT":28,"TEXCOORD_0":29,"TEXCOORD_1":30},"indices":25,"material":1,"mode":4}]}],"nodes":[{"children":[1,2,3,4,5],"name":"StaticMeshActor_917","originalUnits":0.00999999977648258,"pivot":[0,0,0],"rotation":[0,0,0,1],"scale":[1,1,1],"translation":[0,0,0]},{"mesh":0,"name":"SM_Wooden_Cart_01a_LOD0","originalUnits":0.00999999977648258,"pivot":[0,0,0],"rotation":[0,0,0,1],"scale":[1,1,1],"translation":[0,0,0]},{"mesh":4,"name":"SM_Wooden_Cart_01a_ConvexHulls","originalUnits":0.00999999977648258,"pivot":[0,0,0],"rotation":[0,0,0,1],"scale":[1,1,1],"translation":[0,0,0]},{"mesh":1,"name":"SM_Wooden_Cart_01a_LOD1","originalUnits":0.00999999977648258,"pivot":[0,0,0],"rotation":[0,0,0,1],"scale":[1,1,1],"translation":[0,0,0]},{"mesh":2,"name":"SM_Wooden_Cart_01a_LOD2","originalUnits":0.00999999977648258,"pivot":[0,0,0],"rotation":[0,0,0,1],"scale":[1,1,1],"translation":[0,0,0]},{"mesh":3,"name":"SM_Wooden_Cart_01a_LOD3","originalUnits":0.00999999977648258,"pivot":[0,0,0],"rotation":[0,0,0,1],"scale":[1,1,1],"translation":[0,0,0]}],"samplers":[{}],"scene":0,"scenes":[{"name":"Root Scene","nodes":[0]}],"textures":[{"name":"MI_Wooden_Cart","sampler":0,"source":0},{"name":"MI_Wooden_Cart","sampler":0,"source":1}]}