{"accessors":[{"bufferView":0,"byteOffset":0,"componentType":5126,"count":1,"max":[0],"min":[0],"type":"SCALAR"},{"bufferView":1,"byteOffset":0,"componentType":5123,"count":13590,"type":"SCALAR"},{"bufferView":2,"byteOffset":0,"componentType":5126,"count":4387,"max":[1.46577680110931,1.9265034198761,1.24657142162323],"min":[-1.89073944091797,-0.02393440157175,-1.33409011363983],"type":"VEC3"},{"bufferView":3,"byteOffset":0,"componentType":5126,"count":4387,"type":"VEC3"},{"bufferView":4,"byteOffset":0,"componentType":5126,"count":4387,"type":"VEC4"},{"bufferView":5,"byteOffset":0,"componentType":5126,"count":4387,"type":"VEC2"},{"bufferView":6,"byteOffset":0,"componentType":5123,"count":6792,"type":"SCALAR"},{"bufferView":7,"byteOffset":0,"componentType":5126,"count":2617,"max":[1.46577680110931,1.9265034198761,1.24780976772308],"min":[-1.89073848724365,-0.03040109761059,-1.33735132217407],"type":"VEC3"},{"bufferView":8,"byteOffset":0,"componentType":5126,"count":2617,"type":"VEC3"},{"bufferView":9,"byteOffset":0,"componentType":5126,"count":2617,"type":"VEC4"},{"bufferView":10,"byteOffset":0,"componentType":5126,"count":2617,"type":"VEC2"},{"bufferView":11,"byteOffset":0,"componentType":5123,"count":3396,"type":"SCALAR"},{"bufferView":12,"byteOffset":0,"componentType":5126,"count":1796,"max":[1.46577680110931,1.9265034198761,1.24205482006073],"min":[-1.89073848724365,-0.03499552980065,-1.34047114849091],"type":"VEC3"},{"bufferView":13,"byteOffset":0,"componentType":5126,"count":1796,"type":"VEC3"},{"bufferView":14,"byteOffset":0,"componentType":5126,"count":1796,"type":"VEC4"},{"bufferView":15,"byteOffset":0,"componentType":5126,"count":1796,"type":"VEC2"},{"bufferView":16,"byteOffset":0,"componentType":5123,"count":1698,"type":"SCALAR"},{"bufferView":17,"byteOffset":0,"componentType":5126,"count":1042,"max":[1.46577680110931,1.9265034198761,1.23367083072662],"min":[-1.89073848724365,-0.02290287613869,-1.31716978549957],"type":"VEC3"},{"bufferView":18,"byteOffset":0,"componentType":5126,"count":1042,"type":"VEC3"},{"bufferView":19,"byteOffset":0,"componentType":5126,"count":1042,"type":"VEC4"},{"bufferView":20,"byteOffset":0,"componentType":5126,"count":1042,"type":"VEC2"},{"bufferView":21,"byteOffset":0,"componentType":5123,"count":1224,"type":"SCALAR"},{"bufferView":22,"byteOffset":0,"componentType":5126,"count":228,"max":[1.4884033203125,1.98839259147644,1.26913392543793],"min":[-2.00075387954712,-0.07222874462605,-1.40431332588196],"type":"VEC3"},{"bufferView":23,"byteOffset":0,"componentType":5126,"count":228,"type":"VEC3"},{"bufferView":24,"byteOffset":0,"componentType":5126,"count":228,"type":"VEC4"},{"bufferView":25,"byteOffset":0,"componentType":5126,"count":228,"type":"VEC2"}],"animations":[{"channels":[],"name":"Unreal Take","samplers":[]}],"asset":{"generator":"FBX2glTF v0.13.0","version":"2.0"},"bufferViews":[{"buffer":0,"byteLength":4,"byteOffset":0},{"buffer":0,"byteLength":27180,"byteOffset":4,"target":34963},{"buffer":0,"byteLength":52644,"byteOffset":27184,"target":34962},{"buffer":0,"byteLength":52644,"byteOffset":79828,"target":34962},{"buffer":0,"byteLength":70192,"byteOffset":132472,"target":34962},{"buffer":0,"byteLength":35096,"byteOffset":202664,"target":34962},{"buffer":0,"byteLength":13584,"byteOffset":237760,"target":34963},{"buffer":0,"byteLength":31404,"byteOffset":251344,"target":34962},{"buffer":0,"byteLength":31404,"byteOffset":282748,"target":34962},{"buffer":0,"byteLength":41872,"byteOffset":314152,"target":34962},{"buffer":0,"byteLength":20936,"byteOffset":356024,"target":34962},{"buffer":0,"byteLength":6792,"byteOffset":376960,"target":34963},{"buffer":0,"byteLength":21552,"byteOffset":383752,"target":34962},{"buffer":0,"byteLength":21552,"byteOffset":405304,"target":34962},{"buffer":0,"byteLength":28736,"byteOffset":426856,"target":34962},{"buffer":0,"byteLength":14368,"byteOffset":455592,"target":34962},{"buffer":0,"byteLength":3396,"byteOffset":469960,"target":34963},{"buffer":0,"byteLength":12504,"byteOffset":473356,"target":34962},{"buffer":0,"byteLength":12504,"byteOffset":485860,"target":34962},{"buffer":0,"byteLength":16672,"byteOffset":498364,"target":34962},{"buffer":0,"byteLength":8336,"byteOffset":515036,"target":34962},{"buffer":0,"byteLength":2448,"byteOffset":523372,"target":34963},{"buffer":0,"byteLength":2736,"byteOffset":525820,"target":34962},{"buffer":0,"byteLength":2736,"byteOffset":528556,"target":34962},{"buffer":0,"byteLength":3648,"byteOffset":531292,"target":34962},{"buffer":0,"byteLength":1824,"byteOffset":534940,"target":34962}],"buffers":[{"byteLength":536764,"uri":"SM_Wooden_Cart_01b.bin"}],"images":[{"name":"T_Wooden_Cart_N","uri":"../Textures/T_Wooden_Cart_N.png"},{"name":"T_Wooden_Cart_BC","uri":"../Textures/T_Wooden_Cart_BC.png"}],"materials":[{"alphaMode":"OPAQUE","doubleSided":false,"extras":{"fromFBX":{"isTruePBR":false,"shadingModel":"Phong"}},"name":"MI_Wooden_Cart","normalTexture":{"index":0,"texCoord":0},"pbrMetallicRoughness":{"baseColorFactor":[1,1,1,1],"baseColorTexture":{"index":1,"texCoord":0},"metallicFactor":0.400000005960464,"roughnessFactor":0.301511347293854}},{"alphaMode":"OPAQUE","doubleSided":false,"extras":{"fromFBX":{"isTruePBR":false,"shadingModel":"Lambert"}},"name":"DefaultMaterial","pbrMetallicRoughness":{"baseColorFactor":[0.5,0.5,0.5,1],"metallicFactor":0.200000002980232,"roughnessFactor":0.800000011920929}}],"meshes":[{"name":"SM_Wooden_Cart_01b_LOD0","primitives":[{"attributes":{"NORMAL":3,"POSITION":2,"TANGENT":4,"TEXCOORD_0":5},"indices":1,"material":0,"mode":4}]},{"name":"SM_Wooden_Cart_01b_LOD1","primitives":[{"attributes":{"NORMAL":8,"POSITION":7,"TANGENT":9,"TEXCOORD_0":10},"indices":6,"material":0,"mode":4}]},{"name":"SM_Wooden_Cart_01b_LOD2","primitives":[{"attributes":{"NORMAL":13,"POSITION":12,"TANGENT":14,"TEXCOORD_0":15},"indices":11,"material":0,"mode":4}]},{"name":"SM_Wooden_Cart_01b_LOD3","primitives":[{"attributes":{"NORMAL":18,"POSITION":17,"TANGENT":19,"TEXCOORD_0":20},"indices":16,"material":0,"mode":4}]},{"name":"SM_Wooden_Cart_01b_ConvexHulls","primitives":[{"attributes":{"NORMAL":23,"POSITION":22,"TANGENT":24,"TEXCOORD_0":25},"indices":21,"material":1,"mode":4}]}],"nodes":[{"children":[1,2,3,4,5],"name":"StaticMeshActor_1312","originalUnits":0.00999999977648258,"pivot":[0,0,0],"rotation":[0,0,0,1],"scale":[1,1,1],"translation":[0,0,0]},{"mesh":0,"name":"SM_Wooden_Cart_01b_LOD0","originalUnits":0.00999999977648258,"pivot":[0,0,0],"rotation":[0,0,0,1],"scale":[1,1,1],"translation":[0,0,0]},{"mesh":4,"name":"SM_Wooden_Cart_01b_ConvexHulls","originalUnits":0.00999999977648258,"pivot":[0,0,0],"rotation":[0,0,0,1],"scale":[1,1,1],"translation":[0,0,0]},{"mesh":1,"name":"SM_Wooden_Cart_01b_LOD1","originalUnits":0.00999999977648258,"pivot":[0,0,0],"rotation":[0,0,0,1],"scale":[1,1,1],"translation":[0,0,0]},{"mesh":2,"name":"SM_Wooden_Cart_01b_LOD2","originalUnits":0.00999999977648258,"pivot":[0,0,0],"rotation":[0,0,0,1],"scale":[1,1,1],"translation":[0,0,0]},{"mesh":3,"name":"SM_Wooden_Cart_01b_LOD3","originalUnits":0.00999999977648258,"pivot":[0,0,0],"rotation":[0,0,0,1],"scale":[1,1,1],"translation":[0,0,0]}],"samplers":[{}],"scene":0,"scenes":[{"name":"Root Scene","nodes":[0]}],"textures":[{"name":"MI_Wooden_Cart","sampler":0,"source":0},{"name":"MI_Wooden_Cart","sampler":0,"source":1}]}